G04 #@! TF.GenerationSoftware,KiCad,Pcbnew,(5.1.5)-3*
G04 #@! TF.CreationDate,2023-05-21T11:01:34-04:00*
G04 #@! TF.ProjectId,In_Board_Gnia,496e5f42-6f61-4726-945f-476e69612e6b,rev?*
G04 #@! TF.SameCoordinates,Original*
G04 #@! TF.FileFunction,Legend,Top*
G04 #@! TF.FilePolarity,Positive*
%FSLAX46Y46*%
G04 Gerber Fmt 4.6, Leading zero omitted, Abs format (unit mm)*
G04 Created by KiCad (PCBNEW (5.1.5)-3) date 2023-05-21 11:01:34*
%MOMM*%
%LPD*%
G04 APERTURE LIST*
%ADD10C,0.010000*%
%ADD11C,0.120000*%
%ADD12C,0.150000*%
G04 APERTURE END LIST*
D10*
G36*
X71639928Y-91107385D02*
G01*
X71636145Y-91159704D01*
X71627151Y-91194476D01*
X71610746Y-91215620D01*
X71584729Y-91227058D01*
X71546901Y-91232709D01*
X71528107Y-91234217D01*
X71450200Y-91239852D01*
X71450200Y-91174826D01*
X71450981Y-91136663D01*
X71455851Y-91117423D01*
X71468606Y-91110628D01*
X71488300Y-91109800D01*
X71526400Y-91109800D01*
X71526400Y-91032756D01*
X71525912Y-90990346D01*
X71522653Y-90967695D01*
X71513930Y-90959165D01*
X71497054Y-90959115D01*
X71491550Y-90959731D01*
X71474002Y-90964713D01*
X71457110Y-90977930D01*
X71437655Y-91003347D01*
X71412418Y-91044927D01*
X71390451Y-91084204D01*
X71361064Y-91135454D01*
X71333699Y-91179316D01*
X71311921Y-91210281D01*
X71301476Y-91221671D01*
X71275531Y-91231413D01*
X71229908Y-91235276D01*
X71179195Y-91234421D01*
X71127708Y-91231299D01*
X71091267Y-91224491D01*
X71067272Y-91210143D01*
X71053127Y-91184402D01*
X71046234Y-91143414D01*
X71043993Y-91083326D01*
X71043800Y-91033600D01*
X71044976Y-90959265D01*
X71048708Y-90907234D01*
X71055302Y-90874507D01*
X71061315Y-90862102D01*
X71079156Y-90847479D01*
X71110389Y-90838318D01*
X71160881Y-90832926D01*
X71162915Y-90832795D01*
X71247000Y-90827441D01*
X71247000Y-90970100D01*
X71158100Y-90970100D01*
X71158100Y-91111409D01*
X71199095Y-91107429D01*
X71218048Y-91103861D01*
X71234390Y-91094673D01*
X71251546Y-91075906D01*
X71272942Y-91043603D01*
X71302003Y-90993805D01*
X71310693Y-90978466D01*
X71341142Y-90926950D01*
X71369462Y-90883282D01*
X71392174Y-90852585D01*
X71404350Y-90840582D01*
X71428243Y-90834761D01*
X71468642Y-90831938D01*
X71516387Y-90832708D01*
X71563809Y-90836482D01*
X71597333Y-90844160D01*
X71619364Y-90859630D01*
X71632308Y-90886780D01*
X71638571Y-90929497D01*
X71640558Y-90991670D01*
X71640700Y-91033600D01*
X71639928Y-91107385D01*
G37*
X71639928Y-91107385D02*
X71636145Y-91159704D01*
X71627151Y-91194476D01*
X71610746Y-91215620D01*
X71584729Y-91227058D01*
X71546901Y-91232709D01*
X71528107Y-91234217D01*
X71450200Y-91239852D01*
X71450200Y-91174826D01*
X71450981Y-91136663D01*
X71455851Y-91117423D01*
X71468606Y-91110628D01*
X71488300Y-91109800D01*
X71526400Y-91109800D01*
X71526400Y-91032756D01*
X71525912Y-90990346D01*
X71522653Y-90967695D01*
X71513930Y-90959165D01*
X71497054Y-90959115D01*
X71491550Y-90959731D01*
X71474002Y-90964713D01*
X71457110Y-90977930D01*
X71437655Y-91003347D01*
X71412418Y-91044927D01*
X71390451Y-91084204D01*
X71361064Y-91135454D01*
X71333699Y-91179316D01*
X71311921Y-91210281D01*
X71301476Y-91221671D01*
X71275531Y-91231413D01*
X71229908Y-91235276D01*
X71179195Y-91234421D01*
X71127708Y-91231299D01*
X71091267Y-91224491D01*
X71067272Y-91210143D01*
X71053127Y-91184402D01*
X71046234Y-91143414D01*
X71043993Y-91083326D01*
X71043800Y-91033600D01*
X71044976Y-90959265D01*
X71048708Y-90907234D01*
X71055302Y-90874507D01*
X71061315Y-90862102D01*
X71079156Y-90847479D01*
X71110389Y-90838318D01*
X71160881Y-90832926D01*
X71162915Y-90832795D01*
X71247000Y-90827441D01*
X71247000Y-90970100D01*
X71158100Y-90970100D01*
X71158100Y-91111409D01*
X71199095Y-91107429D01*
X71218048Y-91103861D01*
X71234390Y-91094673D01*
X71251546Y-91075906D01*
X71272942Y-91043603D01*
X71302003Y-90993805D01*
X71310693Y-90978466D01*
X71341142Y-90926950D01*
X71369462Y-90883282D01*
X71392174Y-90852585D01*
X71404350Y-90840582D01*
X71428243Y-90834761D01*
X71468642Y-90831938D01*
X71516387Y-90832708D01*
X71563809Y-90836482D01*
X71597333Y-90844160D01*
X71619364Y-90859630D01*
X71632308Y-90886780D01*
X71638571Y-90929497D01*
X71640558Y-90991670D01*
X71640700Y-91033600D01*
X71639928Y-91107385D01*
G36*
X71043800Y-90309700D02*
G01*
X71043800Y-90239850D01*
X71045857Y-90196377D01*
X71052618Y-90174450D01*
X71061183Y-90170000D01*
X71070155Y-90166361D01*
X71072043Y-90151863D01*
X71066860Y-90121129D01*
X71061382Y-90096975D01*
X71050543Y-90046717D01*
X71046325Y-90011921D01*
X71048140Y-89983690D01*
X71052588Y-89963452D01*
X71061758Y-89943566D01*
X71079543Y-89928425D01*
X71108924Y-89917444D01*
X71152881Y-89910036D01*
X71214394Y-89905617D01*
X71292480Y-89903698D01*
X71292480Y-90044901D01*
X71237873Y-90045071D01*
X71197175Y-90046204D01*
X71175765Y-90048219D01*
X71174647Y-90048553D01*
X71160775Y-90061877D01*
X71160361Y-90088795D01*
X71172043Y-90130004D01*
X71185985Y-90170000D01*
X71527792Y-90170000D01*
X71520050Y-90049350D01*
X71355622Y-90045776D01*
X71292480Y-90044901D01*
X71292480Y-89903698D01*
X71296443Y-89903600D01*
X71358701Y-89903300D01*
X71448181Y-89903444D01*
X71515528Y-89905117D01*
X71564007Y-89910176D01*
X71596884Y-89920481D01*
X71617423Y-89937889D01*
X71628889Y-89964260D01*
X71634547Y-90001450D01*
X71637663Y-90051320D01*
X71638239Y-90062411D01*
X71643886Y-90170000D01*
X71970900Y-90170000D01*
X71970900Y-90309700D01*
X71043800Y-90309700D01*
G37*
X71043800Y-90309700D02*
X71043800Y-90239850D01*
X71045857Y-90196377D01*
X71052618Y-90174450D01*
X71061183Y-90170000D01*
X71070155Y-90166361D01*
X71072043Y-90151863D01*
X71066860Y-90121129D01*
X71061382Y-90096975D01*
X71050543Y-90046717D01*
X71046325Y-90011921D01*
X71048140Y-89983690D01*
X71052588Y-89963452D01*
X71061758Y-89943566D01*
X71079543Y-89928425D01*
X71108924Y-89917444D01*
X71152881Y-89910036D01*
X71214394Y-89905617D01*
X71292480Y-89903698D01*
X71292480Y-90044901D01*
X71237873Y-90045071D01*
X71197175Y-90046204D01*
X71175765Y-90048219D01*
X71174647Y-90048553D01*
X71160775Y-90061877D01*
X71160361Y-90088795D01*
X71172043Y-90130004D01*
X71185985Y-90170000D01*
X71527792Y-90170000D01*
X71520050Y-90049350D01*
X71355622Y-90045776D01*
X71292480Y-90044901D01*
X71292480Y-89903698D01*
X71296443Y-89903600D01*
X71358701Y-89903300D01*
X71448181Y-89903444D01*
X71515528Y-89905117D01*
X71564007Y-89910176D01*
X71596884Y-89920481D01*
X71617423Y-89937889D01*
X71628889Y-89964260D01*
X71634547Y-90001450D01*
X71637663Y-90051320D01*
X71638239Y-90062411D01*
X71643886Y-90170000D01*
X71970900Y-90170000D01*
X71970900Y-90309700D01*
X71043800Y-90309700D01*
G36*
X71640700Y-89596072D02*
G01*
X71640233Y-89670855D01*
X71636849Y-89724060D01*
X71627574Y-89759507D01*
X71609435Y-89781018D01*
X71579459Y-89792413D01*
X71534673Y-89797515D01*
X71482197Y-89799777D01*
X71413366Y-89801134D01*
X71365900Y-89797015D01*
X71335840Y-89783905D01*
X71319228Y-89758289D01*
X71312103Y-89716653D01*
X71310508Y-89655481D01*
X71310500Y-89647331D01*
X71310500Y-89535000D01*
X71158100Y-89535000D01*
X71158100Y-89674700D01*
X71247000Y-89674700D01*
X71247000Y-89804658D01*
X71162915Y-89799304D01*
X71117638Y-89795267D01*
X71085571Y-89787274D01*
X71064442Y-89771445D01*
X71051976Y-89743902D01*
X71045902Y-89700767D01*
X71043945Y-89638161D01*
X71043800Y-89596072D01*
X71044243Y-89530773D01*
X71046057Y-89485839D01*
X71049971Y-89456242D01*
X71056712Y-89436956D01*
X71067008Y-89422953D01*
X71069200Y-89420700D01*
X71079544Y-89411925D01*
X71092963Y-89405436D01*
X71113129Y-89400890D01*
X71143718Y-89397945D01*
X71188401Y-89396259D01*
X71250852Y-89395492D01*
X71334745Y-89395300D01*
X71342250Y-89395300D01*
X71436802Y-89395227D01*
X71508979Y-89396359D01*
X71526400Y-89397798D01*
X71526400Y-89535000D01*
X71386700Y-89535000D01*
X71386700Y-89662000D01*
X71526400Y-89662000D01*
X71526400Y-89535000D01*
X71526400Y-89397798D01*
X71561793Y-89400722D01*
X71598256Y-89410342D01*
X71621379Y-89427245D01*
X71634176Y-89453458D01*
X71639656Y-89491007D01*
X71640834Y-89541918D01*
X71640700Y-89596072D01*
G37*
X71640700Y-89596072D02*
X71640233Y-89670855D01*
X71636849Y-89724060D01*
X71627574Y-89759507D01*
X71609435Y-89781018D01*
X71579459Y-89792413D01*
X71534673Y-89797515D01*
X71482197Y-89799777D01*
X71413366Y-89801134D01*
X71365900Y-89797015D01*
X71335840Y-89783905D01*
X71319228Y-89758289D01*
X71312103Y-89716653D01*
X71310508Y-89655481D01*
X71310500Y-89647331D01*
X71310500Y-89535000D01*
X71158100Y-89535000D01*
X71158100Y-89674700D01*
X71247000Y-89674700D01*
X71247000Y-89804658D01*
X71162915Y-89799304D01*
X71117638Y-89795267D01*
X71085571Y-89787274D01*
X71064442Y-89771445D01*
X71051976Y-89743902D01*
X71045902Y-89700767D01*
X71043945Y-89638161D01*
X71043800Y-89596072D01*
X71044243Y-89530773D01*
X71046057Y-89485839D01*
X71049971Y-89456242D01*
X71056712Y-89436956D01*
X71067008Y-89422953D01*
X71069200Y-89420700D01*
X71079544Y-89411925D01*
X71092963Y-89405436D01*
X71113129Y-89400890D01*
X71143718Y-89397945D01*
X71188401Y-89396259D01*
X71250852Y-89395492D01*
X71334745Y-89395300D01*
X71342250Y-89395300D01*
X71436802Y-89395227D01*
X71508979Y-89396359D01*
X71526400Y-89397798D01*
X71526400Y-89535000D01*
X71386700Y-89535000D01*
X71386700Y-89662000D01*
X71526400Y-89662000D01*
X71526400Y-89535000D01*
X71526400Y-89397798D01*
X71561793Y-89400722D01*
X71598256Y-89410342D01*
X71621379Y-89427245D01*
X71634176Y-89453458D01*
X71639656Y-89491007D01*
X71640834Y-89541918D01*
X71640700Y-89596072D01*
G36*
X71637280Y-89273332D02*
G01*
X71627035Y-89286386D01*
X71616720Y-89295104D01*
X71594752Y-89308106D01*
X71564360Y-89315573D01*
X71518857Y-89318741D01*
X71486894Y-89319100D01*
X71386700Y-89319100D01*
X71386700Y-89179400D01*
X71457406Y-89179400D01*
X71497415Y-89178714D01*
X71517448Y-89175006D01*
X71522923Y-89165798D01*
X71519899Y-89150825D01*
X71510454Y-89117680D01*
X71505487Y-89100025D01*
X71501199Y-89092057D01*
X71491104Y-89086243D01*
X71471699Y-89082249D01*
X71439476Y-89079743D01*
X71390932Y-89078392D01*
X71322561Y-89077862D01*
X71271545Y-89077800D01*
X71043800Y-89077800D01*
X71043800Y-88938100D01*
X71640700Y-88938100D01*
X71640700Y-89006891D01*
X71638473Y-89045787D01*
X71632743Y-89072677D01*
X71627524Y-89080075D01*
X71621725Y-89094218D01*
X71623438Y-89130908D01*
X71630350Y-89177788D01*
X71638160Y-89225722D01*
X71640730Y-89255340D01*
X71637280Y-89273332D01*
G37*
X71637280Y-89273332D02*
X71627035Y-89286386D01*
X71616720Y-89295104D01*
X71594752Y-89308106D01*
X71564360Y-89315573D01*
X71518857Y-89318741D01*
X71486894Y-89319100D01*
X71386700Y-89319100D01*
X71386700Y-89179400D01*
X71457406Y-89179400D01*
X71497415Y-89178714D01*
X71517448Y-89175006D01*
X71522923Y-89165798D01*
X71519899Y-89150825D01*
X71510454Y-89117680D01*
X71505487Y-89100025D01*
X71501199Y-89092057D01*
X71491104Y-89086243D01*
X71471699Y-89082249D01*
X71439476Y-89079743D01*
X71390932Y-89078392D01*
X71322561Y-89077862D01*
X71271545Y-89077800D01*
X71043800Y-89077800D01*
X71043800Y-88938100D01*
X71640700Y-88938100D01*
X71640700Y-89006891D01*
X71638473Y-89045787D01*
X71632743Y-89072677D01*
X71627524Y-89080075D01*
X71621725Y-89094218D01*
X71623438Y-89130908D01*
X71630350Y-89177788D01*
X71638160Y-89225722D01*
X71640730Y-89255340D01*
X71637280Y-89273332D01*
G36*
X71843900Y-88887300D02*
G01*
X71843900Y-88646000D01*
X71577200Y-88646000D01*
X71577200Y-88849200D01*
X71450200Y-88849200D01*
X71450200Y-88646000D01*
X71043800Y-88646000D01*
X71043800Y-88506300D01*
X71970900Y-88506300D01*
X71970900Y-88887300D01*
X71843900Y-88887300D01*
G37*
X71843900Y-88887300D02*
X71843900Y-88646000D01*
X71577200Y-88646000D01*
X71577200Y-88849200D01*
X71450200Y-88849200D01*
X71450200Y-88646000D01*
X71043800Y-88646000D01*
X71043800Y-88506300D01*
X71970900Y-88506300D01*
X71970900Y-88887300D01*
X71843900Y-88887300D01*
G36*
X71043800Y-88404700D02*
G01*
X71043800Y-88265000D01*
X71196200Y-88265000D01*
X71196200Y-88404700D01*
X71043800Y-88404700D01*
G37*
X71043800Y-88404700D02*
X71043800Y-88265000D01*
X71196200Y-88265000D01*
X71196200Y-88404700D01*
X71043800Y-88404700D01*
G36*
X71612547Y-87896700D02*
G01*
X71619655Y-87925275D01*
X71624636Y-87952659D01*
X71630507Y-87995422D01*
X71635300Y-88037756D01*
X71638683Y-88077037D01*
X71637918Y-88107137D01*
X71630147Y-88129280D01*
X71612513Y-88144685D01*
X71582157Y-88154575D01*
X71536222Y-88160172D01*
X71471850Y-88162698D01*
X71386183Y-88163374D01*
X71341393Y-88163400D01*
X71248365Y-88163576D01*
X71177610Y-88162496D01*
X71126029Y-88157748D01*
X71090522Y-88146918D01*
X71067990Y-88127594D01*
X71055331Y-88097364D01*
X71049447Y-88053815D01*
X71047237Y-87994533D01*
X71046016Y-87933507D01*
X71041881Y-87757000D01*
X71393250Y-87757000D01*
X71393250Y-87896598D01*
X71327999Y-87896700D01*
X71156709Y-87896700D01*
X71160580Y-87957025D01*
X71164450Y-88017350D01*
X71346513Y-88020880D01*
X71528575Y-88024410D01*
X71520189Y-87982780D01*
X71513482Y-87948528D01*
X71506686Y-87924780D01*
X71495533Y-87909625D01*
X71475755Y-87901150D01*
X71443083Y-87897445D01*
X71393250Y-87896598D01*
X71393250Y-87757000D01*
X71970900Y-87757000D01*
X71970900Y-87896700D01*
X71612547Y-87896700D01*
G37*
X71612547Y-87896700D02*
X71619655Y-87925275D01*
X71624636Y-87952659D01*
X71630507Y-87995422D01*
X71635300Y-88037756D01*
X71638683Y-88077037D01*
X71637918Y-88107137D01*
X71630147Y-88129280D01*
X71612513Y-88144685D01*
X71582157Y-88154575D01*
X71536222Y-88160172D01*
X71471850Y-88162698D01*
X71386183Y-88163374D01*
X71341393Y-88163400D01*
X71248365Y-88163576D01*
X71177610Y-88162496D01*
X71126029Y-88157748D01*
X71090522Y-88146918D01*
X71067990Y-88127594D01*
X71055331Y-88097364D01*
X71049447Y-88053815D01*
X71047237Y-87994533D01*
X71046016Y-87933507D01*
X71041881Y-87757000D01*
X71393250Y-87757000D01*
X71393250Y-87896598D01*
X71327999Y-87896700D01*
X71156709Y-87896700D01*
X71160580Y-87957025D01*
X71164450Y-88017350D01*
X71346513Y-88020880D01*
X71528575Y-88024410D01*
X71520189Y-87982780D01*
X71513482Y-87948528D01*
X71506686Y-87924780D01*
X71495533Y-87909625D01*
X71475755Y-87901150D01*
X71443083Y-87897445D01*
X71393250Y-87896598D01*
X71393250Y-87757000D01*
X71970900Y-87757000D01*
X71970900Y-87896700D01*
X71612547Y-87896700D01*
G36*
X71968389Y-87150226D02*
G01*
X71964550Y-87216553D01*
X71799450Y-87265285D01*
X71728671Y-87286167D01*
X71657479Y-87307155D01*
X71594089Y-87325829D01*
X71546714Y-87339767D01*
X71546139Y-87339936D01*
X71498219Y-87355789D01*
X71475297Y-87367857D01*
X71476289Y-87375720D01*
X71493788Y-87382163D01*
X71531633Y-87394257D01*
X71585727Y-87410753D01*
X71651969Y-87430405D01*
X71726263Y-87451962D01*
X71732728Y-87453817D01*
X71970805Y-87522050D01*
X71970853Y-87588725D01*
X71970900Y-87655400D01*
X71043800Y-87655400D01*
X71043800Y-87516236D01*
X71545450Y-87509350D01*
X71342250Y-87457838D01*
X71267348Y-87438745D01*
X71213569Y-87424379D01*
X71177414Y-87413227D01*
X71155383Y-87403777D01*
X71143978Y-87394517D01*
X71139700Y-87383934D01*
X71139051Y-87370517D01*
X71139050Y-87370010D01*
X71139653Y-87356443D01*
X71143798Y-87345757D01*
X71154988Y-87336425D01*
X71176729Y-87326917D01*
X71212525Y-87315705D01*
X71265880Y-87301259D01*
X71340299Y-87282050D01*
X71341191Y-87281821D01*
X71543331Y-87229950D01*
X71293566Y-87226506D01*
X71043800Y-87223063D01*
X71043800Y-87083900D01*
X71972228Y-87083900D01*
X71968389Y-87150226D01*
G37*
X71968389Y-87150226D02*
X71964550Y-87216553D01*
X71799450Y-87265285D01*
X71728671Y-87286167D01*
X71657479Y-87307155D01*
X71594089Y-87325829D01*
X71546714Y-87339767D01*
X71546139Y-87339936D01*
X71498219Y-87355789D01*
X71475297Y-87367857D01*
X71476289Y-87375720D01*
X71493788Y-87382163D01*
X71531633Y-87394257D01*
X71585727Y-87410753D01*
X71651969Y-87430405D01*
X71726263Y-87451962D01*
X71732728Y-87453817D01*
X71970805Y-87522050D01*
X71970853Y-87588725D01*
X71970900Y-87655400D01*
X71043800Y-87655400D01*
X71043800Y-87516236D01*
X71545450Y-87509350D01*
X71342250Y-87457838D01*
X71267348Y-87438745D01*
X71213569Y-87424379D01*
X71177414Y-87413227D01*
X71155383Y-87403777D01*
X71143978Y-87394517D01*
X71139700Y-87383934D01*
X71139051Y-87370517D01*
X71139050Y-87370010D01*
X71139653Y-87356443D01*
X71143798Y-87345757D01*
X71154988Y-87336425D01*
X71176729Y-87326917D01*
X71212525Y-87315705D01*
X71265880Y-87301259D01*
X71340299Y-87282050D01*
X71341191Y-87281821D01*
X71543331Y-87229950D01*
X71293566Y-87226506D01*
X71043800Y-87223063D01*
X71043800Y-87083900D01*
X71972228Y-87083900D01*
X71968389Y-87150226D01*
G36*
X71612547Y-86042500D02*
G01*
X71619655Y-86071075D01*
X71624636Y-86098459D01*
X71630507Y-86141222D01*
X71635300Y-86183556D01*
X71638683Y-86222837D01*
X71637918Y-86252937D01*
X71630147Y-86275080D01*
X71612513Y-86290485D01*
X71582157Y-86300375D01*
X71536222Y-86305972D01*
X71471850Y-86308498D01*
X71386183Y-86309174D01*
X71341393Y-86309200D01*
X71248365Y-86309376D01*
X71177610Y-86308296D01*
X71126029Y-86303548D01*
X71090522Y-86292718D01*
X71067990Y-86273394D01*
X71055331Y-86243164D01*
X71049447Y-86199615D01*
X71047237Y-86140333D01*
X71046016Y-86079307D01*
X71041881Y-85902800D01*
X71393250Y-85902800D01*
X71393250Y-86042398D01*
X71327999Y-86042500D01*
X71156709Y-86042500D01*
X71160580Y-86102825D01*
X71164450Y-86163150D01*
X71346513Y-86166680D01*
X71528575Y-86170210D01*
X71520189Y-86128580D01*
X71513482Y-86094328D01*
X71506686Y-86070580D01*
X71495533Y-86055425D01*
X71475755Y-86046950D01*
X71443083Y-86043245D01*
X71393250Y-86042398D01*
X71393250Y-85902800D01*
X71970900Y-85902800D01*
X71970900Y-86042500D01*
X71612547Y-86042500D01*
G37*
X71612547Y-86042500D02*
X71619655Y-86071075D01*
X71624636Y-86098459D01*
X71630507Y-86141222D01*
X71635300Y-86183556D01*
X71638683Y-86222837D01*
X71637918Y-86252937D01*
X71630147Y-86275080D01*
X71612513Y-86290485D01*
X71582157Y-86300375D01*
X71536222Y-86305972D01*
X71471850Y-86308498D01*
X71386183Y-86309174D01*
X71341393Y-86309200D01*
X71248365Y-86309376D01*
X71177610Y-86308296D01*
X71126029Y-86303548D01*
X71090522Y-86292718D01*
X71067990Y-86273394D01*
X71055331Y-86243164D01*
X71049447Y-86199615D01*
X71047237Y-86140333D01*
X71046016Y-86079307D01*
X71041881Y-85902800D01*
X71393250Y-85902800D01*
X71393250Y-86042398D01*
X71327999Y-86042500D01*
X71156709Y-86042500D01*
X71160580Y-86102825D01*
X71164450Y-86163150D01*
X71346513Y-86166680D01*
X71528575Y-86170210D01*
X71520189Y-86128580D01*
X71513482Y-86094328D01*
X71506686Y-86070580D01*
X71495533Y-86055425D01*
X71475755Y-86046950D01*
X71443083Y-86043245D01*
X71393250Y-86042398D01*
X71393250Y-85902800D01*
X71970900Y-85902800D01*
X71970900Y-86042500D01*
X71612547Y-86042500D01*
G36*
X71447025Y-90537075D02*
G01*
X71380118Y-90547231D01*
X71322740Y-90556294D01*
X71279286Y-90563542D01*
X71254150Y-90568253D01*
X71249723Y-90569503D01*
X71259931Y-90572673D01*
X71290391Y-90578604D01*
X71336206Y-90586507D01*
X71392477Y-90595588D01*
X71454306Y-90605059D01*
X71516795Y-90614127D01*
X71574025Y-90621871D01*
X71640700Y-90630472D01*
X71640700Y-90698686D01*
X71639099Y-90736428D01*
X71634976Y-90761194D01*
X71631175Y-90766886D01*
X71616890Y-90764178D01*
X71580877Y-90756508D01*
X71526175Y-90744548D01*
X71455823Y-90728969D01*
X71372861Y-90710442D01*
X71280327Y-90689639D01*
X71228735Y-90677986D01*
X71132689Y-90656285D01*
X71044893Y-90636501D01*
X70968331Y-90619301D01*
X70905988Y-90605354D01*
X70860846Y-90595328D01*
X70835890Y-90589892D01*
X70831860Y-90589100D01*
X70829709Y-90577597D01*
X70828271Y-90547876D01*
X70827900Y-90517891D01*
X70829645Y-90475333D01*
X70835373Y-90454925D01*
X70843775Y-90452662D01*
X70863190Y-90458299D01*
X70900011Y-90467738D01*
X70946890Y-90479106D01*
X70955380Y-90481107D01*
X71051109Y-90503573D01*
X71336380Y-90438354D01*
X71418118Y-90419760D01*
X71491541Y-90403232D01*
X71553042Y-90389569D01*
X71599016Y-90379568D01*
X71625854Y-90374026D01*
X71631175Y-90373168D01*
X71636470Y-90384652D01*
X71639928Y-90414150D01*
X71640701Y-90440707D01*
X71640701Y-90508215D01*
X71447025Y-90537075D01*
G37*
X71447025Y-90537075D02*
X71380118Y-90547231D01*
X71322740Y-90556294D01*
X71279286Y-90563542D01*
X71254150Y-90568253D01*
X71249723Y-90569503D01*
X71259931Y-90572673D01*
X71290391Y-90578604D01*
X71336206Y-90586507D01*
X71392477Y-90595588D01*
X71454306Y-90605059D01*
X71516795Y-90614127D01*
X71574025Y-90621871D01*
X71640700Y-90630472D01*
X71640700Y-90698686D01*
X71639099Y-90736428D01*
X71634976Y-90761194D01*
X71631175Y-90766886D01*
X71616890Y-90764178D01*
X71580877Y-90756508D01*
X71526175Y-90744548D01*
X71455823Y-90728969D01*
X71372861Y-90710442D01*
X71280327Y-90689639D01*
X71228735Y-90677986D01*
X71132689Y-90656285D01*
X71044893Y-90636501D01*
X70968331Y-90619301D01*
X70905988Y-90605354D01*
X70860846Y-90595328D01*
X70835890Y-90589892D01*
X70831860Y-90589100D01*
X70829709Y-90577597D01*
X70828271Y-90547876D01*
X70827900Y-90517891D01*
X70829645Y-90475333D01*
X70835373Y-90454925D01*
X70843775Y-90452662D01*
X70863190Y-90458299D01*
X70900011Y-90467738D01*
X70946890Y-90479106D01*
X70955380Y-90481107D01*
X71051109Y-90503573D01*
X71336380Y-90438354D01*
X71418118Y-90419760D01*
X71491541Y-90403232D01*
X71553042Y-90389569D01*
X71599016Y-90379568D01*
X71625854Y-90374026D01*
X71631175Y-90373168D01*
X71636470Y-90384652D01*
X71639928Y-90414150D01*
X71640701Y-90440707D01*
X71640701Y-90508215D01*
X71447025Y-90537075D01*
G36*
X71447025Y-86536575D02*
G01*
X71380118Y-86546731D01*
X71322740Y-86555794D01*
X71279286Y-86563042D01*
X71254150Y-86567753D01*
X71249723Y-86569003D01*
X71259931Y-86572173D01*
X71290391Y-86578104D01*
X71336206Y-86586007D01*
X71392477Y-86595088D01*
X71454306Y-86604559D01*
X71516795Y-86613627D01*
X71574025Y-86621371D01*
X71640700Y-86629972D01*
X71640700Y-86698186D01*
X71639099Y-86735928D01*
X71634976Y-86760694D01*
X71631175Y-86766386D01*
X71616890Y-86763678D01*
X71580877Y-86756008D01*
X71526175Y-86744048D01*
X71455823Y-86728469D01*
X71372861Y-86709942D01*
X71280327Y-86689139D01*
X71228735Y-86677486D01*
X71132689Y-86655785D01*
X71044893Y-86636001D01*
X70968331Y-86618801D01*
X70905988Y-86604854D01*
X70860846Y-86594828D01*
X70835890Y-86589392D01*
X70831860Y-86588600D01*
X70829709Y-86577097D01*
X70828271Y-86547376D01*
X70827900Y-86517391D01*
X70829645Y-86474833D01*
X70835373Y-86454425D01*
X70843775Y-86452162D01*
X70863190Y-86457799D01*
X70900011Y-86467238D01*
X70946890Y-86478606D01*
X70955380Y-86480607D01*
X71051109Y-86503073D01*
X71336380Y-86437854D01*
X71418118Y-86419260D01*
X71491541Y-86402732D01*
X71553042Y-86389069D01*
X71599016Y-86379068D01*
X71625854Y-86373526D01*
X71631175Y-86372668D01*
X71636470Y-86384152D01*
X71639928Y-86413650D01*
X71640701Y-86440207D01*
X71640701Y-86507715D01*
X71447025Y-86536575D01*
G37*
X71447025Y-86536575D02*
X71380118Y-86546731D01*
X71322740Y-86555794D01*
X71279286Y-86563042D01*
X71254150Y-86567753D01*
X71249723Y-86569003D01*
X71259931Y-86572173D01*
X71290391Y-86578104D01*
X71336206Y-86586007D01*
X71392477Y-86595088D01*
X71454306Y-86604559D01*
X71516795Y-86613627D01*
X71574025Y-86621371D01*
X71640700Y-86629972D01*
X71640700Y-86698186D01*
X71639099Y-86735928D01*
X71634976Y-86760694D01*
X71631175Y-86766386D01*
X71616890Y-86763678D01*
X71580877Y-86756008D01*
X71526175Y-86744048D01*
X71455823Y-86728469D01*
X71372861Y-86709942D01*
X71280327Y-86689139D01*
X71228735Y-86677486D01*
X71132689Y-86655785D01*
X71044893Y-86636001D01*
X70968331Y-86618801D01*
X70905988Y-86604854D01*
X70860846Y-86594828D01*
X70835890Y-86589392D01*
X70831860Y-86588600D01*
X70829709Y-86577097D01*
X70828271Y-86547376D01*
X70827900Y-86517391D01*
X70829645Y-86474833D01*
X70835373Y-86454425D01*
X70843775Y-86452162D01*
X70863190Y-86457799D01*
X70900011Y-86467238D01*
X70946890Y-86478606D01*
X70955380Y-86480607D01*
X71051109Y-86503073D01*
X71336380Y-86437854D01*
X71418118Y-86419260D01*
X71491541Y-86402732D01*
X71553042Y-86389069D01*
X71599016Y-86379068D01*
X71625854Y-86373526D01*
X71631175Y-86372668D01*
X71636470Y-86384152D01*
X71639928Y-86413650D01*
X71640701Y-86440207D01*
X71640701Y-86507715D01*
X71447025Y-86536575D01*
G36*
X78513228Y-88810670D02*
G01*
X78512365Y-88825575D01*
X78510290Y-88837277D01*
X78506532Y-88848406D01*
X78500621Y-88861594D01*
X78500470Y-88861912D01*
X78481077Y-88893270D01*
X78455307Y-88920109D01*
X78424713Y-88940876D01*
X78418279Y-88944103D01*
X78405336Y-88949937D01*
X78394410Y-88953717D01*
X78382997Y-88955885D01*
X78368593Y-88956881D01*
X78348695Y-88957146D01*
X78344184Y-88957150D01*
X78323074Y-88956981D01*
X78308022Y-88956189D01*
X78296618Y-88954350D01*
X78286456Y-88951037D01*
X78275128Y-88945824D01*
X78272379Y-88944450D01*
X78244354Y-88926347D01*
X78218758Y-88902306D01*
X78198112Y-88874855D01*
X78191932Y-88863744D01*
X78185702Y-88850146D01*
X78181789Y-88837792D01*
X78179574Y-88823729D01*
X78178436Y-88805000D01*
X78178223Y-88798400D01*
X78178338Y-88773267D01*
X78180125Y-88752866D01*
X78182669Y-88741250D01*
X78198729Y-88705601D01*
X78221454Y-88675071D01*
X78250434Y-88650128D01*
X78274334Y-88636190D01*
X78287417Y-88630073D01*
X78298245Y-88626170D01*
X78309412Y-88624005D01*
X78323509Y-88623104D01*
X78343131Y-88622991D01*
X78346300Y-88623010D01*
X78367616Y-88623409D01*
X78383079Y-88624573D01*
X78395296Y-88626944D01*
X78406875Y-88630968D01*
X78415603Y-88634824D01*
X78439765Y-88649416D01*
X78463551Y-88669732D01*
X78484479Y-88693293D01*
X78500068Y-88717622D01*
X78501535Y-88720630D01*
X78506950Y-88733122D01*
X78510399Y-88744392D01*
X78512323Y-88757029D01*
X78513164Y-88773626D01*
X78513349Y-88789933D01*
X78513228Y-88810670D01*
G37*
X78513228Y-88810670D02*
X78512365Y-88825575D01*
X78510290Y-88837277D01*
X78506532Y-88848406D01*
X78500621Y-88861594D01*
X78500470Y-88861912D01*
X78481077Y-88893270D01*
X78455307Y-88920109D01*
X78424713Y-88940876D01*
X78418279Y-88944103D01*
X78405336Y-88949937D01*
X78394410Y-88953717D01*
X78382997Y-88955885D01*
X78368593Y-88956881D01*
X78348695Y-88957146D01*
X78344184Y-88957150D01*
X78323074Y-88956981D01*
X78308022Y-88956189D01*
X78296618Y-88954350D01*
X78286456Y-88951037D01*
X78275128Y-88945824D01*
X78272379Y-88944450D01*
X78244354Y-88926347D01*
X78218758Y-88902306D01*
X78198112Y-88874855D01*
X78191932Y-88863744D01*
X78185702Y-88850146D01*
X78181789Y-88837792D01*
X78179574Y-88823729D01*
X78178436Y-88805000D01*
X78178223Y-88798400D01*
X78178338Y-88773267D01*
X78180125Y-88752866D01*
X78182669Y-88741250D01*
X78198729Y-88705601D01*
X78221454Y-88675071D01*
X78250434Y-88650128D01*
X78274334Y-88636190D01*
X78287417Y-88630073D01*
X78298245Y-88626170D01*
X78309412Y-88624005D01*
X78323509Y-88623104D01*
X78343131Y-88622991D01*
X78346300Y-88623010D01*
X78367616Y-88623409D01*
X78383079Y-88624573D01*
X78395296Y-88626944D01*
X78406875Y-88630968D01*
X78415603Y-88634824D01*
X78439765Y-88649416D01*
X78463551Y-88669732D01*
X78484479Y-88693293D01*
X78500068Y-88717622D01*
X78501535Y-88720630D01*
X78506950Y-88733122D01*
X78510399Y-88744392D01*
X78512323Y-88757029D01*
X78513164Y-88773626D01*
X78513349Y-88789933D01*
X78513228Y-88810670D01*
G36*
X76641527Y-89654365D02*
G01*
X76638357Y-89684209D01*
X76632573Y-89709754D01*
X76632275Y-89710683D01*
X76614128Y-89753844D01*
X76589778Y-89791930D01*
X76559919Y-89824425D01*
X76525245Y-89850810D01*
X76486449Y-89870567D01*
X76444224Y-89883178D01*
X76399264Y-89888124D01*
X76394733Y-89888177D01*
X76358853Y-89886617D01*
X76327877Y-89881283D01*
X76298845Y-89871536D01*
X76282624Y-89864058D01*
X76243413Y-89840347D01*
X76210341Y-89811329D01*
X76182935Y-89776463D01*
X76160723Y-89735208D01*
X76152687Y-89715467D01*
X76148467Y-89699311D01*
X76145182Y-89677459D01*
X76143002Y-89652648D01*
X76142096Y-89627614D01*
X76142635Y-89605095D01*
X76144768Y-89587917D01*
X76158495Y-89543906D01*
X76179307Y-89503655D01*
X76206483Y-89467952D01*
X76239303Y-89437587D01*
X76277050Y-89413348D01*
X76319002Y-89396025D01*
X76320038Y-89395705D01*
X76346869Y-89389966D01*
X76378267Y-89387099D01*
X76410813Y-89387166D01*
X76441088Y-89390228D01*
X76455895Y-89393303D01*
X76497326Y-89408364D01*
X76535318Y-89430677D01*
X76569067Y-89459452D01*
X76597769Y-89493894D01*
X76620621Y-89533210D01*
X76634803Y-89569735D01*
X76639805Y-89594059D01*
X76642028Y-89623292D01*
X76641527Y-89654365D01*
G37*
X76641527Y-89654365D02*
X76638357Y-89684209D01*
X76632573Y-89709754D01*
X76632275Y-89710683D01*
X76614128Y-89753844D01*
X76589778Y-89791930D01*
X76559919Y-89824425D01*
X76525245Y-89850810D01*
X76486449Y-89870567D01*
X76444224Y-89883178D01*
X76399264Y-89888124D01*
X76394733Y-89888177D01*
X76358853Y-89886617D01*
X76327877Y-89881283D01*
X76298845Y-89871536D01*
X76282624Y-89864058D01*
X76243413Y-89840347D01*
X76210341Y-89811329D01*
X76182935Y-89776463D01*
X76160723Y-89735208D01*
X76152687Y-89715467D01*
X76148467Y-89699311D01*
X76145182Y-89677459D01*
X76143002Y-89652648D01*
X76142096Y-89627614D01*
X76142635Y-89605095D01*
X76144768Y-89587917D01*
X76158495Y-89543906D01*
X76179307Y-89503655D01*
X76206483Y-89467952D01*
X76239303Y-89437587D01*
X76277050Y-89413348D01*
X76319002Y-89396025D01*
X76320038Y-89395705D01*
X76346869Y-89389966D01*
X76378267Y-89387099D01*
X76410813Y-89387166D01*
X76441088Y-89390228D01*
X76455895Y-89393303D01*
X76497326Y-89408364D01*
X76535318Y-89430677D01*
X76569067Y-89459452D01*
X76597769Y-89493894D01*
X76620621Y-89533210D01*
X76634803Y-89569735D01*
X76639805Y-89594059D01*
X76642028Y-89623292D01*
X76641527Y-89654365D01*
G36*
X76628482Y-88005697D02*
G01*
X76618328Y-88047346D01*
X76600917Y-88085389D01*
X76575883Y-88120718D01*
X76557929Y-88140116D01*
X76525313Y-88168521D01*
X76491802Y-88189269D01*
X76455889Y-88202974D01*
X76416068Y-88210250D01*
X76382033Y-88211859D01*
X76355215Y-88211334D01*
X76334608Y-88209598D01*
X76318016Y-88206413D01*
X76310067Y-88204046D01*
X76266840Y-88185278D01*
X76228200Y-88159852D01*
X76194848Y-88128488D01*
X76167485Y-88091908D01*
X76146813Y-88050832D01*
X76139025Y-88028223D01*
X76133833Y-88001537D01*
X76131906Y-87970218D01*
X76133151Y-87937408D01*
X76137474Y-87906247D01*
X76143295Y-87884000D01*
X76159379Y-87845542D01*
X76180148Y-87812419D01*
X76207273Y-87782055D01*
X76212610Y-87777006D01*
X76248894Y-87748518D01*
X76287704Y-87728060D01*
X76329494Y-87715454D01*
X76374719Y-87710522D01*
X76382034Y-87710433D01*
X76428189Y-87714308D01*
X76470987Y-87725951D01*
X76510505Y-87745392D01*
X76546819Y-87772660D01*
X76548882Y-87774532D01*
X76578983Y-87806428D01*
X76602023Y-87841026D01*
X76619383Y-87880415D01*
X76619814Y-87881644D01*
X76625671Y-87899941D01*
X76629265Y-87915937D01*
X76631112Y-87932991D01*
X76631724Y-87954463D01*
X76631744Y-87959548D01*
X76628482Y-88005697D01*
G37*
X76628482Y-88005697D02*
X76618328Y-88047346D01*
X76600917Y-88085389D01*
X76575883Y-88120718D01*
X76557929Y-88140116D01*
X76525313Y-88168521D01*
X76491802Y-88189269D01*
X76455889Y-88202974D01*
X76416068Y-88210250D01*
X76382033Y-88211859D01*
X76355215Y-88211334D01*
X76334608Y-88209598D01*
X76318016Y-88206413D01*
X76310067Y-88204046D01*
X76266840Y-88185278D01*
X76228200Y-88159852D01*
X76194848Y-88128488D01*
X76167485Y-88091908D01*
X76146813Y-88050832D01*
X76139025Y-88028223D01*
X76133833Y-88001537D01*
X76131906Y-87970218D01*
X76133151Y-87937408D01*
X76137474Y-87906247D01*
X76143295Y-87884000D01*
X76159379Y-87845542D01*
X76180148Y-87812419D01*
X76207273Y-87782055D01*
X76212610Y-87777006D01*
X76248894Y-87748518D01*
X76287704Y-87728060D01*
X76329494Y-87715454D01*
X76374719Y-87710522D01*
X76382034Y-87710433D01*
X76428189Y-87714308D01*
X76470987Y-87725951D01*
X76510505Y-87745392D01*
X76546819Y-87772660D01*
X76548882Y-87774532D01*
X76578983Y-87806428D01*
X76602023Y-87841026D01*
X76619383Y-87880415D01*
X76619814Y-87881644D01*
X76625671Y-87899941D01*
X76629265Y-87915937D01*
X76631112Y-87932991D01*
X76631724Y-87954463D01*
X76631744Y-87959548D01*
X76628482Y-88005697D01*
G36*
X75759631Y-88884700D02*
G01*
X75759553Y-88935666D01*
X75759432Y-88984840D01*
X75759269Y-89031540D01*
X75759065Y-89075084D01*
X75758818Y-89114789D01*
X75758529Y-89149974D01*
X75758198Y-89179956D01*
X75757824Y-89204053D01*
X75757408Y-89221584D01*
X75756949Y-89231865D01*
X75756559Y-89234412D01*
X75751511Y-89232592D01*
X75741058Y-89227797D01*
X75727288Y-89220994D01*
X75724652Y-89219647D01*
X75672504Y-89188334D01*
X75626309Y-89151055D01*
X75586221Y-89108015D01*
X75552393Y-89059416D01*
X75524981Y-89005463D01*
X75504137Y-88946360D01*
X75497084Y-88918761D01*
X75493899Y-88900345D01*
X75491072Y-88875764D01*
X75488717Y-88847212D01*
X75486947Y-88816883D01*
X75485873Y-88786974D01*
X75485609Y-88759678D01*
X75486268Y-88737192D01*
X75487213Y-88726433D01*
X75499266Y-88660975D01*
X75518204Y-88600226D01*
X75543969Y-88544346D01*
X75563287Y-88512306D01*
X75579255Y-88491209D01*
X75600046Y-88467982D01*
X75623303Y-88444976D01*
X75646666Y-88424540D01*
X75665376Y-88410593D01*
X75680831Y-88400910D01*
X75698259Y-88390946D01*
X75715989Y-88381534D01*
X75732353Y-88373510D01*
X75745682Y-88367709D01*
X75754306Y-88364966D01*
X75756411Y-88365046D01*
X75756905Y-88369471D01*
X75757359Y-88381653D01*
X75757773Y-88400913D01*
X75758146Y-88426566D01*
X75758479Y-88457931D01*
X75758771Y-88494327D01*
X75759023Y-88535069D01*
X75759233Y-88579478D01*
X75759403Y-88626869D01*
X75759531Y-88676562D01*
X75759618Y-88727873D01*
X75759664Y-88780122D01*
X75759669Y-88832625D01*
X75759631Y-88884700D01*
G37*
X75759631Y-88884700D02*
X75759553Y-88935666D01*
X75759432Y-88984840D01*
X75759269Y-89031540D01*
X75759065Y-89075084D01*
X75758818Y-89114789D01*
X75758529Y-89149974D01*
X75758198Y-89179956D01*
X75757824Y-89204053D01*
X75757408Y-89221584D01*
X75756949Y-89231865D01*
X75756559Y-89234412D01*
X75751511Y-89232592D01*
X75741058Y-89227797D01*
X75727288Y-89220994D01*
X75724652Y-89219647D01*
X75672504Y-89188334D01*
X75626309Y-89151055D01*
X75586221Y-89108015D01*
X75552393Y-89059416D01*
X75524981Y-89005463D01*
X75504137Y-88946360D01*
X75497084Y-88918761D01*
X75493899Y-88900345D01*
X75491072Y-88875764D01*
X75488717Y-88847212D01*
X75486947Y-88816883D01*
X75485873Y-88786974D01*
X75485609Y-88759678D01*
X75486268Y-88737192D01*
X75487213Y-88726433D01*
X75499266Y-88660975D01*
X75518204Y-88600226D01*
X75543969Y-88544346D01*
X75563287Y-88512306D01*
X75579255Y-88491209D01*
X75600046Y-88467982D01*
X75623303Y-88444976D01*
X75646666Y-88424540D01*
X75665376Y-88410593D01*
X75680831Y-88400910D01*
X75698259Y-88390946D01*
X75715989Y-88381534D01*
X75732353Y-88373510D01*
X75745682Y-88367709D01*
X75754306Y-88364966D01*
X75756411Y-88365046D01*
X75756905Y-88369471D01*
X75757359Y-88381653D01*
X75757773Y-88400913D01*
X75758146Y-88426566D01*
X75758479Y-88457931D01*
X75758771Y-88494327D01*
X75759023Y-88535069D01*
X75759233Y-88579478D01*
X75759403Y-88626869D01*
X75759531Y-88676562D01*
X75759618Y-88727873D01*
X75759664Y-88780122D01*
X75759669Y-88832625D01*
X75759631Y-88884700D01*
G36*
X77979453Y-88815480D02*
G01*
X77977504Y-88829559D01*
X77973434Y-88841833D01*
X77968722Y-88851585D01*
X77953315Y-88874267D01*
X77932903Y-88894915D01*
X77910566Y-88910440D01*
X77909461Y-88911022D01*
X77900635Y-88914296D01*
X77887400Y-88916946D01*
X77868569Y-88919130D01*
X77842959Y-88921008D01*
X77829833Y-88921747D01*
X77785930Y-88924489D01*
X77748871Y-88927893D01*
X77717042Y-88932291D01*
X77688827Y-88938014D01*
X77662613Y-88945395D01*
X77636783Y-88954767D01*
X77609722Y-88966460D01*
X77607584Y-88967447D01*
X77555760Y-88995885D01*
X77509549Y-89030614D01*
X77468936Y-89071655D01*
X77433906Y-89119028D01*
X77404444Y-89172754D01*
X77380535Y-89232855D01*
X77362164Y-89299350D01*
X77359290Y-89312750D01*
X77357153Y-89323694D01*
X77355255Y-89334854D01*
X77353577Y-89346803D01*
X77352101Y-89360117D01*
X77350806Y-89375370D01*
X77349673Y-89393137D01*
X77348684Y-89413991D01*
X77347818Y-89438509D01*
X77347058Y-89467263D01*
X77346382Y-89500829D01*
X77345773Y-89539782D01*
X77345211Y-89584695D01*
X77344677Y-89636143D01*
X77344152Y-89694701D01*
X77343615Y-89760944D01*
X77343415Y-89786883D01*
X77342759Y-89866274D01*
X77342069Y-89937229D01*
X77341345Y-89999779D01*
X77340585Y-90053953D01*
X77339789Y-90099783D01*
X77338958Y-90137299D01*
X77338089Y-90166531D01*
X77337183Y-90187511D01*
X77336239Y-90200268D01*
X77335685Y-90203867D01*
X77332120Y-90219147D01*
X77328089Y-90237561D01*
X77325851Y-90248317D01*
X77321914Y-90265964D01*
X77316836Y-90286229D01*
X77311205Y-90307029D01*
X77305608Y-90326283D01*
X77300634Y-90341911D01*
X77296871Y-90351830D01*
X77296267Y-90353034D01*
X77292838Y-90361170D01*
X77292200Y-90364560D01*
X77290315Y-90371399D01*
X77285136Y-90384187D01*
X77277373Y-90401415D01*
X77267739Y-90421575D01*
X77256945Y-90443157D01*
X77245704Y-90464653D01*
X77240192Y-90474800D01*
X77204636Y-90531486D01*
X77161788Y-90586425D01*
X77112794Y-90638551D01*
X77058802Y-90686796D01*
X77000959Y-90730094D01*
X76940411Y-90767380D01*
X76906967Y-90784652D01*
X76873828Y-90800095D01*
X76844937Y-90812209D01*
X76817292Y-90822038D01*
X76787894Y-90830631D01*
X76753742Y-90839034D01*
X76746100Y-90840779D01*
X76724831Y-90845592D01*
X76704735Y-90850145D01*
X76688323Y-90853870D01*
X76679364Y-90855910D01*
X76668131Y-90857600D01*
X76652416Y-90858841D01*
X76634083Y-90859623D01*
X76614992Y-90859937D01*
X76597008Y-90859774D01*
X76581992Y-90859126D01*
X76571806Y-90857984D01*
X76568300Y-90856443D01*
X76564792Y-90852708D01*
X76555928Y-90847429D01*
X76550858Y-90844987D01*
X76530285Y-90832268D01*
X76510065Y-90813696D01*
X76492564Y-90791639D01*
X76485010Y-90778989D01*
X76479264Y-90767144D01*
X76475717Y-90756494D01*
X76473854Y-90744321D01*
X76473161Y-90727903D01*
X76473091Y-90716100D01*
X76473369Y-90696131D01*
X76474539Y-90681922D01*
X76477104Y-90670773D01*
X76481567Y-90659985D01*
X76484704Y-90653814D01*
X76503991Y-90623767D01*
X76526567Y-90601034D01*
X76542422Y-90590338D01*
X76554878Y-90582912D01*
X76564972Y-90576333D01*
X76568411Y-90573769D01*
X76575281Y-90570918D01*
X76588340Y-90567788D01*
X76605342Y-90564869D01*
X76614977Y-90563598D01*
X76677556Y-90553083D01*
X76734579Y-90536741D01*
X76787054Y-90514090D01*
X76835990Y-90484650D01*
X76882394Y-90447940D01*
X76907566Y-90424114D01*
X76933592Y-90396533D01*
X76955460Y-90369675D01*
X76974581Y-90341411D01*
X76992363Y-90309612D01*
X77010217Y-90272146D01*
X77014373Y-90262751D01*
X77023059Y-90238670D01*
X77031227Y-90207784D01*
X77038457Y-90171757D01*
X77040503Y-90159417D01*
X77041123Y-90151235D01*
X77041712Y-90134994D01*
X77042272Y-90111091D01*
X77042802Y-90079922D01*
X77043301Y-90041884D01*
X77043772Y-89997373D01*
X77044212Y-89946787D01*
X77044622Y-89890522D01*
X77045003Y-89828975D01*
X77045354Y-89762542D01*
X77045675Y-89691620D01*
X77045966Y-89616607D01*
X77046227Y-89537898D01*
X77046459Y-89455890D01*
X77046661Y-89370981D01*
X77046833Y-89283566D01*
X77046975Y-89194043D01*
X77047088Y-89102808D01*
X77047171Y-89010258D01*
X77047224Y-88916790D01*
X77047247Y-88822800D01*
X77047240Y-88728685D01*
X77047204Y-88634842D01*
X77047138Y-88541667D01*
X77047043Y-88449558D01*
X77046917Y-88358911D01*
X77046762Y-88270122D01*
X77046577Y-88183589D01*
X77046363Y-88099707D01*
X77046119Y-88018875D01*
X77045845Y-87941488D01*
X77045541Y-87867943D01*
X77045208Y-87798637D01*
X77044845Y-87733967D01*
X77044452Y-87674330D01*
X77044030Y-87620121D01*
X77043578Y-87571738D01*
X77043097Y-87529578D01*
X77042585Y-87494037D01*
X77042045Y-87465512D01*
X77041474Y-87444400D01*
X77040874Y-87431097D01*
X77040464Y-87426800D01*
X77035847Y-87400330D01*
X77031712Y-87379803D01*
X77027444Y-87362764D01*
X77022426Y-87346761D01*
X77016043Y-87329340D01*
X77015970Y-87329150D01*
X76990493Y-87273849D01*
X76958305Y-87222321D01*
X76920168Y-87175267D01*
X76876844Y-87133391D01*
X76829098Y-87097397D01*
X76777692Y-87067988D01*
X76723388Y-87045866D01*
X76701650Y-87039383D01*
X76690910Y-87036543D01*
X76680702Y-87034004D01*
X76670514Y-87031749D01*
X76659833Y-87029762D01*
X76648147Y-87028025D01*
X76634943Y-87026521D01*
X76619709Y-87025235D01*
X76601932Y-87024149D01*
X76581100Y-87023246D01*
X76556701Y-87022510D01*
X76528222Y-87021923D01*
X76495150Y-87021470D01*
X76456974Y-87021133D01*
X76413181Y-87020895D01*
X76363257Y-87020741D01*
X76306692Y-87020652D01*
X76242972Y-87020613D01*
X76171585Y-87020606D01*
X76128033Y-87020610D01*
X76049961Y-87020621D01*
X75979850Y-87020653D01*
X75917196Y-87020732D01*
X75861493Y-87020886D01*
X75812236Y-87021143D01*
X75768920Y-87021529D01*
X75731040Y-87022072D01*
X75698091Y-87022799D01*
X75669568Y-87023738D01*
X75644965Y-87024915D01*
X75623778Y-87026359D01*
X75605501Y-87028096D01*
X75589630Y-87030155D01*
X75575658Y-87032561D01*
X75563082Y-87035342D01*
X75551396Y-87038527D01*
X75540094Y-87042141D01*
X75528672Y-87046213D01*
X75516625Y-87050769D01*
X75507850Y-87054146D01*
X75453255Y-87079679D01*
X75402273Y-87112841D01*
X75354971Y-87153574D01*
X75311411Y-87201823D01*
X75271659Y-87257528D01*
X75262522Y-87272283D01*
X75251349Y-87294335D01*
X75240185Y-87322655D01*
X75229686Y-87355072D01*
X75220508Y-87389411D01*
X75213307Y-87423501D01*
X75209599Y-87447581D01*
X75209112Y-87455455D01*
X75208653Y-87471035D01*
X75208224Y-87494366D01*
X75207824Y-87525494D01*
X75207453Y-87564462D01*
X75207111Y-87611317D01*
X75206798Y-87666102D01*
X75206513Y-87728863D01*
X75206257Y-87799645D01*
X75206029Y-87878493D01*
X75205828Y-87965451D01*
X75205656Y-88060565D01*
X75205512Y-88163880D01*
X75205395Y-88275439D01*
X75205306Y-88395289D01*
X75205244Y-88523474D01*
X75205210Y-88660040D01*
X75205202Y-88793781D01*
X75205205Y-88920794D01*
X75205211Y-89039625D01*
X75205222Y-89150559D01*
X75205242Y-89253883D01*
X75205274Y-89349880D01*
X75205323Y-89438836D01*
X75205390Y-89521035D01*
X75205480Y-89596764D01*
X75205596Y-89666308D01*
X75205741Y-89729950D01*
X75205920Y-89787977D01*
X75206135Y-89840674D01*
X75206389Y-89888325D01*
X75206687Y-89931215D01*
X75207031Y-89969631D01*
X75207425Y-90003857D01*
X75207872Y-90034178D01*
X75208377Y-90060879D01*
X75208941Y-90084245D01*
X75209570Y-90104562D01*
X75210265Y-90122114D01*
X75211031Y-90137187D01*
X75211871Y-90150065D01*
X75212788Y-90161035D01*
X75213786Y-90170380D01*
X75214868Y-90178386D01*
X75216038Y-90185339D01*
X75217299Y-90191523D01*
X75218654Y-90197223D01*
X75220108Y-90202725D01*
X75221662Y-90208313D01*
X75222196Y-90210217D01*
X75243685Y-90272219D01*
X75272008Y-90329387D01*
X75306942Y-90381445D01*
X75348268Y-90428115D01*
X75395764Y-90469123D01*
X75449209Y-90504191D01*
X75463474Y-90511997D01*
X75493684Y-90526582D01*
X75525540Y-90539072D01*
X75562027Y-90550602D01*
X75573467Y-90553809D01*
X75585082Y-90556542D01*
X75598087Y-90558555D01*
X75613940Y-90559943D01*
X75634098Y-90560801D01*
X75660018Y-90561226D01*
X75687767Y-90561318D01*
X75717109Y-90561270D01*
X75739475Y-90561050D01*
X75756355Y-90560505D01*
X75769238Y-90559483D01*
X75779615Y-90557833D01*
X75788976Y-90555402D01*
X75798811Y-90552039D01*
X75806300Y-90549229D01*
X75848195Y-90529493D01*
X75883611Y-90504633D01*
X75912330Y-90474832D01*
X75931886Y-90444670D01*
X75943884Y-90421883D01*
X75946105Y-90290650D01*
X75946896Y-90249160D01*
X75947872Y-90215121D01*
X75949252Y-90187520D01*
X75951255Y-90165339D01*
X75954099Y-90147566D01*
X75958003Y-90133183D01*
X75963186Y-90121178D01*
X75969868Y-90110534D01*
X75978266Y-90100236D01*
X75988599Y-90089270D01*
X75989770Y-90088073D01*
X76018116Y-90064453D01*
X76048764Y-90048956D01*
X76081581Y-90041624D01*
X76116436Y-90042497D01*
X76130212Y-90044994D01*
X76163951Y-90056614D01*
X76193171Y-90075083D01*
X76217138Y-90099675D01*
X76235121Y-90129667D01*
X76245074Y-90158542D01*
X76248512Y-90174333D01*
X76249940Y-90187463D01*
X76249436Y-90201394D01*
X76247078Y-90219591D01*
X76246537Y-90223110D01*
X76245244Y-90233377D01*
X76244213Y-90246321D01*
X76243435Y-90262648D01*
X76242903Y-90283064D01*
X76242611Y-90308276D01*
X76242549Y-90338989D01*
X76242712Y-90375910D01*
X76243092Y-90419744D01*
X76243680Y-90471199D01*
X76243820Y-90482219D01*
X76244468Y-90536000D01*
X76244904Y-90582060D01*
X76245081Y-90621140D01*
X76244954Y-90653984D01*
X76244479Y-90681336D01*
X76243609Y-90703936D01*
X76242299Y-90722530D01*
X76240504Y-90737859D01*
X76238177Y-90750666D01*
X76235275Y-90761695D01*
X76231751Y-90771688D01*
X76227560Y-90781389D01*
X76225234Y-90786293D01*
X76208114Y-90812535D01*
X76184766Y-90834845D01*
X76161127Y-90849430D01*
X76139149Y-90860033D01*
X75864835Y-90860033D01*
X75810849Y-90859969D01*
X75760882Y-90859781D01*
X75715507Y-90859479D01*
X75675298Y-90859070D01*
X75640829Y-90858561D01*
X75612673Y-90857962D01*
X75591404Y-90857280D01*
X75577596Y-90856524D01*
X75572469Y-90855910D01*
X75560960Y-90853302D01*
X75543700Y-90849415D01*
X75523203Y-90844816D01*
X75505734Y-90840907D01*
X75438011Y-90821912D01*
X75370315Y-90795524D01*
X75304438Y-90762632D01*
X75242169Y-90724126D01*
X75188252Y-90683373D01*
X75133313Y-90632417D01*
X75083232Y-90575756D01*
X75038617Y-90514406D01*
X75000073Y-90449383D01*
X74968206Y-90381704D01*
X74943623Y-90312385D01*
X74927696Y-90246628D01*
X74923985Y-90228309D01*
X74920115Y-90211724D01*
X74916771Y-90199753D01*
X74915983Y-90197517D01*
X74915492Y-90194112D01*
X74915029Y-90186384D01*
X74914596Y-90174133D01*
X74914190Y-90157161D01*
X74913811Y-90135270D01*
X74913459Y-90108261D01*
X74913132Y-90075936D01*
X74912829Y-90038097D01*
X74912551Y-89994546D01*
X74912296Y-89945083D01*
X74912064Y-89889511D01*
X74911853Y-89827631D01*
X74911663Y-89759245D01*
X74911493Y-89684154D01*
X74911343Y-89602161D01*
X74911212Y-89513067D01*
X74911099Y-89416673D01*
X74911002Y-89312782D01*
X74910922Y-89201194D01*
X74910858Y-89081712D01*
X74910809Y-88954137D01*
X74910777Y-88834383D01*
X74910759Y-88727479D01*
X74910750Y-88622520D01*
X74910750Y-88519840D01*
X74910759Y-88419768D01*
X74910776Y-88322637D01*
X74910801Y-88228778D01*
X74910834Y-88138522D01*
X74910875Y-88052200D01*
X74910923Y-87970145D01*
X74910979Y-87892687D01*
X74911041Y-87820157D01*
X74911109Y-87752888D01*
X74911184Y-87691211D01*
X74911265Y-87635456D01*
X74911351Y-87585956D01*
X74911443Y-87543041D01*
X74911540Y-87507043D01*
X74911642Y-87478294D01*
X74911749Y-87457125D01*
X74911860Y-87443866D01*
X74911937Y-87439552D01*
X74912906Y-87420775D01*
X74914382Y-87405095D01*
X74916138Y-87394484D01*
X74917459Y-87391081D01*
X74920437Y-87384166D01*
X74921533Y-87374671D01*
X74922783Y-87362381D01*
X74926193Y-87344028D01*
X74931258Y-87321584D01*
X74937473Y-87297021D01*
X74944330Y-87272311D01*
X74951323Y-87249428D01*
X74957947Y-87230342D01*
X74959760Y-87225717D01*
X74964488Y-87213855D01*
X74968066Y-87204550D01*
X74975233Y-87187599D01*
X74985742Y-87165734D01*
X74998422Y-87141205D01*
X75012102Y-87116261D01*
X75025611Y-87093151D01*
X75028694Y-87088133D01*
X75074725Y-87021949D01*
X75126890Y-86961547D01*
X75184917Y-86907172D01*
X75248537Y-86859069D01*
X75317478Y-86817482D01*
X75342504Y-86804663D01*
X75373482Y-86790610D01*
X75408384Y-86776650D01*
X75444681Y-86763664D01*
X75479846Y-86752531D01*
X75511350Y-86744130D01*
X75524784Y-86741259D01*
X75542280Y-86737817D01*
X75559612Y-86734236D01*
X75568236Y-86732361D01*
X75575052Y-86731779D01*
X75589711Y-86731241D01*
X75611591Y-86730748D01*
X75640068Y-86730299D01*
X75674520Y-86729895D01*
X75714324Y-86729535D01*
X75758855Y-86729220D01*
X75807492Y-86728949D01*
X75859611Y-86728723D01*
X75914590Y-86728541D01*
X75971805Y-86728404D01*
X76030633Y-86728311D01*
X76090451Y-86728262D01*
X76150636Y-86728258D01*
X76210566Y-86728299D01*
X76269617Y-86728384D01*
X76327166Y-86728513D01*
X76382590Y-86728687D01*
X76435266Y-86728906D01*
X76484570Y-86729168D01*
X76529881Y-86729476D01*
X76570575Y-86729827D01*
X76606029Y-86730224D01*
X76635620Y-86730664D01*
X76658724Y-86731150D01*
X76674720Y-86731679D01*
X76682983Y-86732253D01*
X76683598Y-86732361D01*
X76698236Y-86735508D01*
X76716204Y-86739179D01*
X76727050Y-86741309D01*
X76746484Y-86745443D01*
X76767557Y-86750565D01*
X76788415Y-86756149D01*
X76807209Y-86761668D01*
X76822086Y-86766594D01*
X76831193Y-86770402D01*
X76832672Y-86771369D01*
X76840468Y-86774735D01*
X76842081Y-86774867D01*
X76848559Y-86776526D01*
X76860017Y-86780844D01*
X76871926Y-86785974D01*
X76946028Y-86823313D01*
X77013114Y-86864961D01*
X77073689Y-86911340D01*
X77128259Y-86962867D01*
X77177326Y-87019963D01*
X77212400Y-87069083D01*
X77230680Y-87097513D01*
X77245841Y-87122889D01*
X77259051Y-87147500D01*
X77271474Y-87173636D01*
X77284278Y-87203585D01*
X77296501Y-87234183D01*
X77307233Y-87265219D01*
X77317294Y-87301029D01*
X77325653Y-87337926D01*
X77326062Y-87340017D01*
X77329690Y-87357786D01*
X77333609Y-87375637D01*
X77335690Y-87384467D01*
X77336648Y-87392480D01*
X77337569Y-87408604D01*
X77338451Y-87432880D01*
X77339296Y-87465349D01*
X77340105Y-87506051D01*
X77340878Y-87555028D01*
X77341616Y-87612321D01*
X77342320Y-87677972D01*
X77342990Y-87752020D01*
X77343416Y-87805683D01*
X77343930Y-87868046D01*
X77344502Y-87927419D01*
X77345125Y-87983249D01*
X77345788Y-88034982D01*
X77346482Y-88082063D01*
X77347198Y-88123938D01*
X77347927Y-88160052D01*
X77348658Y-88189852D01*
X77349384Y-88212783D01*
X77350093Y-88228290D01*
X77350698Y-88235366D01*
X77359526Y-88285366D01*
X77369854Y-88329288D01*
X77382378Y-88369481D01*
X77397792Y-88408294D01*
X77408895Y-88432266D01*
X77439004Y-88485065D01*
X77475081Y-88531955D01*
X77516922Y-88572732D01*
X77564325Y-88607191D01*
X77605467Y-88629761D01*
X77649647Y-88647621D01*
X77697463Y-88660355D01*
X77750035Y-88668181D01*
X77808483Y-88671317D01*
X77820567Y-88671400D01*
X77851442Y-88671902D01*
X77875585Y-88673704D01*
X77894687Y-88677243D01*
X77910440Y-88682962D01*
X77924534Y-88691299D01*
X77937749Y-88701887D01*
X77950976Y-88715654D01*
X77963296Y-88731922D01*
X77968594Y-88740728D01*
X77974702Y-88753865D01*
X77978173Y-88766274D01*
X77979690Y-88781284D01*
X77979953Y-88796283D01*
X77979453Y-88815480D01*
G37*
X77979453Y-88815480D02*
X77977504Y-88829559D01*
X77973434Y-88841833D01*
X77968722Y-88851585D01*
X77953315Y-88874267D01*
X77932903Y-88894915D01*
X77910566Y-88910440D01*
X77909461Y-88911022D01*
X77900635Y-88914296D01*
X77887400Y-88916946D01*
X77868569Y-88919130D01*
X77842959Y-88921008D01*
X77829833Y-88921747D01*
X77785930Y-88924489D01*
X77748871Y-88927893D01*
X77717042Y-88932291D01*
X77688827Y-88938014D01*
X77662613Y-88945395D01*
X77636783Y-88954767D01*
X77609722Y-88966460D01*
X77607584Y-88967447D01*
X77555760Y-88995885D01*
X77509549Y-89030614D01*
X77468936Y-89071655D01*
X77433906Y-89119028D01*
X77404444Y-89172754D01*
X77380535Y-89232855D01*
X77362164Y-89299350D01*
X77359290Y-89312750D01*
X77357153Y-89323694D01*
X77355255Y-89334854D01*
X77353577Y-89346803D01*
X77352101Y-89360117D01*
X77350806Y-89375370D01*
X77349673Y-89393137D01*
X77348684Y-89413991D01*
X77347818Y-89438509D01*
X77347058Y-89467263D01*
X77346382Y-89500829D01*
X77345773Y-89539782D01*
X77345211Y-89584695D01*
X77344677Y-89636143D01*
X77344152Y-89694701D01*
X77343615Y-89760944D01*
X77343415Y-89786883D01*
X77342759Y-89866274D01*
X77342069Y-89937229D01*
X77341345Y-89999779D01*
X77340585Y-90053953D01*
X77339789Y-90099783D01*
X77338958Y-90137299D01*
X77338089Y-90166531D01*
X77337183Y-90187511D01*
X77336239Y-90200268D01*
X77335685Y-90203867D01*
X77332120Y-90219147D01*
X77328089Y-90237561D01*
X77325851Y-90248317D01*
X77321914Y-90265964D01*
X77316836Y-90286229D01*
X77311205Y-90307029D01*
X77305608Y-90326283D01*
X77300634Y-90341911D01*
X77296871Y-90351830D01*
X77296267Y-90353034D01*
X77292838Y-90361170D01*
X77292200Y-90364560D01*
X77290315Y-90371399D01*
X77285136Y-90384187D01*
X77277373Y-90401415D01*
X77267739Y-90421575D01*
X77256945Y-90443157D01*
X77245704Y-90464653D01*
X77240192Y-90474800D01*
X77204636Y-90531486D01*
X77161788Y-90586425D01*
X77112794Y-90638551D01*
X77058802Y-90686796D01*
X77000959Y-90730094D01*
X76940411Y-90767380D01*
X76906967Y-90784652D01*
X76873828Y-90800095D01*
X76844937Y-90812209D01*
X76817292Y-90822038D01*
X76787894Y-90830631D01*
X76753742Y-90839034D01*
X76746100Y-90840779D01*
X76724831Y-90845592D01*
X76704735Y-90850145D01*
X76688323Y-90853870D01*
X76679364Y-90855910D01*
X76668131Y-90857600D01*
X76652416Y-90858841D01*
X76634083Y-90859623D01*
X76614992Y-90859937D01*
X76597008Y-90859774D01*
X76581992Y-90859126D01*
X76571806Y-90857984D01*
X76568300Y-90856443D01*
X76564792Y-90852708D01*
X76555928Y-90847429D01*
X76550858Y-90844987D01*
X76530285Y-90832268D01*
X76510065Y-90813696D01*
X76492564Y-90791639D01*
X76485010Y-90778989D01*
X76479264Y-90767144D01*
X76475717Y-90756494D01*
X76473854Y-90744321D01*
X76473161Y-90727903D01*
X76473091Y-90716100D01*
X76473369Y-90696131D01*
X76474539Y-90681922D01*
X76477104Y-90670773D01*
X76481567Y-90659985D01*
X76484704Y-90653814D01*
X76503991Y-90623767D01*
X76526567Y-90601034D01*
X76542422Y-90590338D01*
X76554878Y-90582912D01*
X76564972Y-90576333D01*
X76568411Y-90573769D01*
X76575281Y-90570918D01*
X76588340Y-90567788D01*
X76605342Y-90564869D01*
X76614977Y-90563598D01*
X76677556Y-90553083D01*
X76734579Y-90536741D01*
X76787054Y-90514090D01*
X76835990Y-90484650D01*
X76882394Y-90447940D01*
X76907566Y-90424114D01*
X76933592Y-90396533D01*
X76955460Y-90369675D01*
X76974581Y-90341411D01*
X76992363Y-90309612D01*
X77010217Y-90272146D01*
X77014373Y-90262751D01*
X77023059Y-90238670D01*
X77031227Y-90207784D01*
X77038457Y-90171757D01*
X77040503Y-90159417D01*
X77041123Y-90151235D01*
X77041712Y-90134994D01*
X77042272Y-90111091D01*
X77042802Y-90079922D01*
X77043301Y-90041884D01*
X77043772Y-89997373D01*
X77044212Y-89946787D01*
X77044622Y-89890522D01*
X77045003Y-89828975D01*
X77045354Y-89762542D01*
X77045675Y-89691620D01*
X77045966Y-89616607D01*
X77046227Y-89537898D01*
X77046459Y-89455890D01*
X77046661Y-89370981D01*
X77046833Y-89283566D01*
X77046975Y-89194043D01*
X77047088Y-89102808D01*
X77047171Y-89010258D01*
X77047224Y-88916790D01*
X77047247Y-88822800D01*
X77047240Y-88728685D01*
X77047204Y-88634842D01*
X77047138Y-88541667D01*
X77047043Y-88449558D01*
X77046917Y-88358911D01*
X77046762Y-88270122D01*
X77046577Y-88183589D01*
X77046363Y-88099707D01*
X77046119Y-88018875D01*
X77045845Y-87941488D01*
X77045541Y-87867943D01*
X77045208Y-87798637D01*
X77044845Y-87733967D01*
X77044452Y-87674330D01*
X77044030Y-87620121D01*
X77043578Y-87571738D01*
X77043097Y-87529578D01*
X77042585Y-87494037D01*
X77042045Y-87465512D01*
X77041474Y-87444400D01*
X77040874Y-87431097D01*
X77040464Y-87426800D01*
X77035847Y-87400330D01*
X77031712Y-87379803D01*
X77027444Y-87362764D01*
X77022426Y-87346761D01*
X77016043Y-87329340D01*
X77015970Y-87329150D01*
X76990493Y-87273849D01*
X76958305Y-87222321D01*
X76920168Y-87175267D01*
X76876844Y-87133391D01*
X76829098Y-87097397D01*
X76777692Y-87067988D01*
X76723388Y-87045866D01*
X76701650Y-87039383D01*
X76690910Y-87036543D01*
X76680702Y-87034004D01*
X76670514Y-87031749D01*
X76659833Y-87029762D01*
X76648147Y-87028025D01*
X76634943Y-87026521D01*
X76619709Y-87025235D01*
X76601932Y-87024149D01*
X76581100Y-87023246D01*
X76556701Y-87022510D01*
X76528222Y-87021923D01*
X76495150Y-87021470D01*
X76456974Y-87021133D01*
X76413181Y-87020895D01*
X76363257Y-87020741D01*
X76306692Y-87020652D01*
X76242972Y-87020613D01*
X76171585Y-87020606D01*
X76128033Y-87020610D01*
X76049961Y-87020621D01*
X75979850Y-87020653D01*
X75917196Y-87020732D01*
X75861493Y-87020886D01*
X75812236Y-87021143D01*
X75768920Y-87021529D01*
X75731040Y-87022072D01*
X75698091Y-87022799D01*
X75669568Y-87023738D01*
X75644965Y-87024915D01*
X75623778Y-87026359D01*
X75605501Y-87028096D01*
X75589630Y-87030155D01*
X75575658Y-87032561D01*
X75563082Y-87035342D01*
X75551396Y-87038527D01*
X75540094Y-87042141D01*
X75528672Y-87046213D01*
X75516625Y-87050769D01*
X75507850Y-87054146D01*
X75453255Y-87079679D01*
X75402273Y-87112841D01*
X75354971Y-87153574D01*
X75311411Y-87201823D01*
X75271659Y-87257528D01*
X75262522Y-87272283D01*
X75251349Y-87294335D01*
X75240185Y-87322655D01*
X75229686Y-87355072D01*
X75220508Y-87389411D01*
X75213307Y-87423501D01*
X75209599Y-87447581D01*
X75209112Y-87455455D01*
X75208653Y-87471035D01*
X75208224Y-87494366D01*
X75207824Y-87525494D01*
X75207453Y-87564462D01*
X75207111Y-87611317D01*
X75206798Y-87666102D01*
X75206513Y-87728863D01*
X75206257Y-87799645D01*
X75206029Y-87878493D01*
X75205828Y-87965451D01*
X75205656Y-88060565D01*
X75205512Y-88163880D01*
X75205395Y-88275439D01*
X75205306Y-88395289D01*
X75205244Y-88523474D01*
X75205210Y-88660040D01*
X75205202Y-88793781D01*
X75205205Y-88920794D01*
X75205211Y-89039625D01*
X75205222Y-89150559D01*
X75205242Y-89253883D01*
X75205274Y-89349880D01*
X75205323Y-89438836D01*
X75205390Y-89521035D01*
X75205480Y-89596764D01*
X75205596Y-89666308D01*
X75205741Y-89729950D01*
X75205920Y-89787977D01*
X75206135Y-89840674D01*
X75206389Y-89888325D01*
X75206687Y-89931215D01*
X75207031Y-89969631D01*
X75207425Y-90003857D01*
X75207872Y-90034178D01*
X75208377Y-90060879D01*
X75208941Y-90084245D01*
X75209570Y-90104562D01*
X75210265Y-90122114D01*
X75211031Y-90137187D01*
X75211871Y-90150065D01*
X75212788Y-90161035D01*
X75213786Y-90170380D01*
X75214868Y-90178386D01*
X75216038Y-90185339D01*
X75217299Y-90191523D01*
X75218654Y-90197223D01*
X75220108Y-90202725D01*
X75221662Y-90208313D01*
X75222196Y-90210217D01*
X75243685Y-90272219D01*
X75272008Y-90329387D01*
X75306942Y-90381445D01*
X75348268Y-90428115D01*
X75395764Y-90469123D01*
X75449209Y-90504191D01*
X75463474Y-90511997D01*
X75493684Y-90526582D01*
X75525540Y-90539072D01*
X75562027Y-90550602D01*
X75573467Y-90553809D01*
X75585082Y-90556542D01*
X75598087Y-90558555D01*
X75613940Y-90559943D01*
X75634098Y-90560801D01*
X75660018Y-90561226D01*
X75687767Y-90561318D01*
X75717109Y-90561270D01*
X75739475Y-90561050D01*
X75756355Y-90560505D01*
X75769238Y-90559483D01*
X75779615Y-90557833D01*
X75788976Y-90555402D01*
X75798811Y-90552039D01*
X75806300Y-90549229D01*
X75848195Y-90529493D01*
X75883611Y-90504633D01*
X75912330Y-90474832D01*
X75931886Y-90444670D01*
X75943884Y-90421883D01*
X75946105Y-90290650D01*
X75946896Y-90249160D01*
X75947872Y-90215121D01*
X75949252Y-90187520D01*
X75951255Y-90165339D01*
X75954099Y-90147566D01*
X75958003Y-90133183D01*
X75963186Y-90121178D01*
X75969868Y-90110534D01*
X75978266Y-90100236D01*
X75988599Y-90089270D01*
X75989770Y-90088073D01*
X76018116Y-90064453D01*
X76048764Y-90048956D01*
X76081581Y-90041624D01*
X76116436Y-90042497D01*
X76130212Y-90044994D01*
X76163951Y-90056614D01*
X76193171Y-90075083D01*
X76217138Y-90099675D01*
X76235121Y-90129667D01*
X76245074Y-90158542D01*
X76248512Y-90174333D01*
X76249940Y-90187463D01*
X76249436Y-90201394D01*
X76247078Y-90219591D01*
X76246537Y-90223110D01*
X76245244Y-90233377D01*
X76244213Y-90246321D01*
X76243435Y-90262648D01*
X76242903Y-90283064D01*
X76242611Y-90308276D01*
X76242549Y-90338989D01*
X76242712Y-90375910D01*
X76243092Y-90419744D01*
X76243680Y-90471199D01*
X76243820Y-90482219D01*
X76244468Y-90536000D01*
X76244904Y-90582060D01*
X76245081Y-90621140D01*
X76244954Y-90653984D01*
X76244479Y-90681336D01*
X76243609Y-90703936D01*
X76242299Y-90722530D01*
X76240504Y-90737859D01*
X76238177Y-90750666D01*
X76235275Y-90761695D01*
X76231751Y-90771688D01*
X76227560Y-90781389D01*
X76225234Y-90786293D01*
X76208114Y-90812535D01*
X76184766Y-90834845D01*
X76161127Y-90849430D01*
X76139149Y-90860033D01*
X75864835Y-90860033D01*
X75810849Y-90859969D01*
X75760882Y-90859781D01*
X75715507Y-90859479D01*
X75675298Y-90859070D01*
X75640829Y-90858561D01*
X75612673Y-90857962D01*
X75591404Y-90857280D01*
X75577596Y-90856524D01*
X75572469Y-90855910D01*
X75560960Y-90853302D01*
X75543700Y-90849415D01*
X75523203Y-90844816D01*
X75505734Y-90840907D01*
X75438011Y-90821912D01*
X75370315Y-90795524D01*
X75304438Y-90762632D01*
X75242169Y-90724126D01*
X75188252Y-90683373D01*
X75133313Y-90632417D01*
X75083232Y-90575756D01*
X75038617Y-90514406D01*
X75000073Y-90449383D01*
X74968206Y-90381704D01*
X74943623Y-90312385D01*
X74927696Y-90246628D01*
X74923985Y-90228309D01*
X74920115Y-90211724D01*
X74916771Y-90199753D01*
X74915983Y-90197517D01*
X74915492Y-90194112D01*
X74915029Y-90186384D01*
X74914596Y-90174133D01*
X74914190Y-90157161D01*
X74913811Y-90135270D01*
X74913459Y-90108261D01*
X74913132Y-90075936D01*
X74912829Y-90038097D01*
X74912551Y-89994546D01*
X74912296Y-89945083D01*
X74912064Y-89889511D01*
X74911853Y-89827631D01*
X74911663Y-89759245D01*
X74911493Y-89684154D01*
X74911343Y-89602161D01*
X74911212Y-89513067D01*
X74911099Y-89416673D01*
X74911002Y-89312782D01*
X74910922Y-89201194D01*
X74910858Y-89081712D01*
X74910809Y-88954137D01*
X74910777Y-88834383D01*
X74910759Y-88727479D01*
X74910750Y-88622520D01*
X74910750Y-88519840D01*
X74910759Y-88419768D01*
X74910776Y-88322637D01*
X74910801Y-88228778D01*
X74910834Y-88138522D01*
X74910875Y-88052200D01*
X74910923Y-87970145D01*
X74910979Y-87892687D01*
X74911041Y-87820157D01*
X74911109Y-87752888D01*
X74911184Y-87691211D01*
X74911265Y-87635456D01*
X74911351Y-87585956D01*
X74911443Y-87543041D01*
X74911540Y-87507043D01*
X74911642Y-87478294D01*
X74911749Y-87457125D01*
X74911860Y-87443866D01*
X74911937Y-87439552D01*
X74912906Y-87420775D01*
X74914382Y-87405095D01*
X74916138Y-87394484D01*
X74917459Y-87391081D01*
X74920437Y-87384166D01*
X74921533Y-87374671D01*
X74922783Y-87362381D01*
X74926193Y-87344028D01*
X74931258Y-87321584D01*
X74937473Y-87297021D01*
X74944330Y-87272311D01*
X74951323Y-87249428D01*
X74957947Y-87230342D01*
X74959760Y-87225717D01*
X74964488Y-87213855D01*
X74968066Y-87204550D01*
X74975233Y-87187599D01*
X74985742Y-87165734D01*
X74998422Y-87141205D01*
X75012102Y-87116261D01*
X75025611Y-87093151D01*
X75028694Y-87088133D01*
X75074725Y-87021949D01*
X75126890Y-86961547D01*
X75184917Y-86907172D01*
X75248537Y-86859069D01*
X75317478Y-86817482D01*
X75342504Y-86804663D01*
X75373482Y-86790610D01*
X75408384Y-86776650D01*
X75444681Y-86763664D01*
X75479846Y-86752531D01*
X75511350Y-86744130D01*
X75524784Y-86741259D01*
X75542280Y-86737817D01*
X75559612Y-86734236D01*
X75568236Y-86732361D01*
X75575052Y-86731779D01*
X75589711Y-86731241D01*
X75611591Y-86730748D01*
X75640068Y-86730299D01*
X75674520Y-86729895D01*
X75714324Y-86729535D01*
X75758855Y-86729220D01*
X75807492Y-86728949D01*
X75859611Y-86728723D01*
X75914590Y-86728541D01*
X75971805Y-86728404D01*
X76030633Y-86728311D01*
X76090451Y-86728262D01*
X76150636Y-86728258D01*
X76210566Y-86728299D01*
X76269617Y-86728384D01*
X76327166Y-86728513D01*
X76382590Y-86728687D01*
X76435266Y-86728906D01*
X76484570Y-86729168D01*
X76529881Y-86729476D01*
X76570575Y-86729827D01*
X76606029Y-86730224D01*
X76635620Y-86730664D01*
X76658724Y-86731150D01*
X76674720Y-86731679D01*
X76682983Y-86732253D01*
X76683598Y-86732361D01*
X76698236Y-86735508D01*
X76716204Y-86739179D01*
X76727050Y-86741309D01*
X76746484Y-86745443D01*
X76767557Y-86750565D01*
X76788415Y-86756149D01*
X76807209Y-86761668D01*
X76822086Y-86766594D01*
X76831193Y-86770402D01*
X76832672Y-86771369D01*
X76840468Y-86774735D01*
X76842081Y-86774867D01*
X76848559Y-86776526D01*
X76860017Y-86780844D01*
X76871926Y-86785974D01*
X76946028Y-86823313D01*
X77013114Y-86864961D01*
X77073689Y-86911340D01*
X77128259Y-86962867D01*
X77177326Y-87019963D01*
X77212400Y-87069083D01*
X77230680Y-87097513D01*
X77245841Y-87122889D01*
X77259051Y-87147500D01*
X77271474Y-87173636D01*
X77284278Y-87203585D01*
X77296501Y-87234183D01*
X77307233Y-87265219D01*
X77317294Y-87301029D01*
X77325653Y-87337926D01*
X77326062Y-87340017D01*
X77329690Y-87357786D01*
X77333609Y-87375637D01*
X77335690Y-87384467D01*
X77336648Y-87392480D01*
X77337569Y-87408604D01*
X77338451Y-87432880D01*
X77339296Y-87465349D01*
X77340105Y-87506051D01*
X77340878Y-87555028D01*
X77341616Y-87612321D01*
X77342320Y-87677972D01*
X77342990Y-87752020D01*
X77343416Y-87805683D01*
X77343930Y-87868046D01*
X77344502Y-87927419D01*
X77345125Y-87983249D01*
X77345788Y-88034982D01*
X77346482Y-88082063D01*
X77347198Y-88123938D01*
X77347927Y-88160052D01*
X77348658Y-88189852D01*
X77349384Y-88212783D01*
X77350093Y-88228290D01*
X77350698Y-88235366D01*
X77359526Y-88285366D01*
X77369854Y-88329288D01*
X77382378Y-88369481D01*
X77397792Y-88408294D01*
X77408895Y-88432266D01*
X77439004Y-88485065D01*
X77475081Y-88531955D01*
X77516922Y-88572732D01*
X77564325Y-88607191D01*
X77605467Y-88629761D01*
X77649647Y-88647621D01*
X77697463Y-88660355D01*
X77750035Y-88668181D01*
X77808483Y-88671317D01*
X77820567Y-88671400D01*
X77851442Y-88671902D01*
X77875585Y-88673704D01*
X77894687Y-88677243D01*
X77910440Y-88682962D01*
X77924534Y-88691299D01*
X77937749Y-88701887D01*
X77950976Y-88715654D01*
X77963296Y-88731922D01*
X77968594Y-88740728D01*
X77974702Y-88753865D01*
X77978173Y-88766274D01*
X77979690Y-88781284D01*
X77979953Y-88796283D01*
X77979453Y-88815480D01*
G36*
X74309817Y-88991017D02*
G01*
X74308606Y-88954833D01*
X74308383Y-88938068D01*
X74308835Y-88924662D01*
X74309865Y-88916766D01*
X74310370Y-88915674D01*
X74315160Y-88914974D01*
X74327423Y-88914333D01*
X74346165Y-88913770D01*
X74370392Y-88913306D01*
X74399111Y-88912960D01*
X74431327Y-88912753D01*
X74458689Y-88912700D01*
X74604033Y-88912700D01*
X74604033Y-88993243D01*
X74309817Y-88991017D01*
G37*
X74309817Y-88991017D02*
X74308606Y-88954833D01*
X74308383Y-88938068D01*
X74308835Y-88924662D01*
X74309865Y-88916766D01*
X74310370Y-88915674D01*
X74315160Y-88914974D01*
X74327423Y-88914333D01*
X74346165Y-88913770D01*
X74370392Y-88913306D01*
X74399111Y-88912960D01*
X74431327Y-88912753D01*
X74458689Y-88912700D01*
X74604033Y-88912700D01*
X74604033Y-88993243D01*
X74309817Y-88991017D01*
G36*
X74307700Y-88806867D02*
G01*
X74307700Y-88773705D01*
X74308038Y-88757688D01*
X74308932Y-88745115D01*
X74310207Y-88738245D01*
X74310522Y-88737722D01*
X74315276Y-88737058D01*
X74327503Y-88736450D01*
X74346212Y-88735916D01*
X74370411Y-88735475D01*
X74399106Y-88735147D01*
X74431306Y-88734950D01*
X74458689Y-88734900D01*
X74604033Y-88734900D01*
X74604033Y-88806867D01*
X74307700Y-88806867D01*
G37*
X74307700Y-88806867D02*
X74307700Y-88773705D01*
X74308038Y-88757688D01*
X74308932Y-88745115D01*
X74310207Y-88738245D01*
X74310522Y-88737722D01*
X74315276Y-88737058D01*
X74327503Y-88736450D01*
X74346212Y-88735916D01*
X74370411Y-88735475D01*
X74399106Y-88735147D01*
X74431306Y-88734950D01*
X74458689Y-88734900D01*
X74604033Y-88734900D01*
X74604033Y-88806867D01*
X74307700Y-88806867D01*
G36*
X74693422Y-89430551D02*
G01*
X74692634Y-89433455D01*
X74678350Y-89473610D01*
X74658785Y-89508493D01*
X74632688Y-89540279D01*
X74629121Y-89543925D01*
X74598182Y-89570014D01*
X74563460Y-89590532D01*
X74527074Y-89604322D01*
X74512047Y-89607785D01*
X74485678Y-89612661D01*
X74484531Y-89693422D01*
X74483383Y-89774183D01*
X74432583Y-89774183D01*
X74430287Y-89612001D01*
X74408152Y-89606728D01*
X74367245Y-89592767D01*
X74329828Y-89571661D01*
X74296810Y-89544311D01*
X74269102Y-89511620D01*
X74247612Y-89474487D01*
X74233252Y-89433814D01*
X74233149Y-89433400D01*
X74229896Y-89413755D01*
X74228189Y-89389457D01*
X74228022Y-89363550D01*
X74229390Y-89339074D01*
X74232291Y-89319070D01*
X74233326Y-89314867D01*
X74248426Y-89275632D01*
X74271418Y-89237415D01*
X74284083Y-89220958D01*
X74307418Y-89192668D01*
X74308617Y-89144759D01*
X74309817Y-89096850D01*
X74456925Y-89095737D01*
X74604033Y-89094623D01*
X74604033Y-89180487D01*
X74630656Y-89208708D01*
X74656535Y-89239604D01*
X74675572Y-89270803D01*
X74689131Y-89304689D01*
X74692793Y-89317468D01*
X74699987Y-89356317D01*
X74700198Y-89393102D01*
X74693422Y-89430551D01*
G37*
X74693422Y-89430551D02*
X74692634Y-89433455D01*
X74678350Y-89473610D01*
X74658785Y-89508493D01*
X74632688Y-89540279D01*
X74629121Y-89543925D01*
X74598182Y-89570014D01*
X74563460Y-89590532D01*
X74527074Y-89604322D01*
X74512047Y-89607785D01*
X74485678Y-89612661D01*
X74484531Y-89693422D01*
X74483383Y-89774183D01*
X74432583Y-89774183D01*
X74430287Y-89612001D01*
X74408152Y-89606728D01*
X74367245Y-89592767D01*
X74329828Y-89571661D01*
X74296810Y-89544311D01*
X74269102Y-89511620D01*
X74247612Y-89474487D01*
X74233252Y-89433814D01*
X74233149Y-89433400D01*
X74229896Y-89413755D01*
X74228189Y-89389457D01*
X74228022Y-89363550D01*
X74229390Y-89339074D01*
X74232291Y-89319070D01*
X74233326Y-89314867D01*
X74248426Y-89275632D01*
X74271418Y-89237415D01*
X74284083Y-89220958D01*
X74307418Y-89192668D01*
X74308617Y-89144759D01*
X74309817Y-89096850D01*
X74456925Y-89095737D01*
X74604033Y-89094623D01*
X74604033Y-89180487D01*
X74630656Y-89208708D01*
X74656535Y-89239604D01*
X74675572Y-89270803D01*
X74689131Y-89304689D01*
X74692793Y-89317468D01*
X74699987Y-89356317D01*
X74700198Y-89393102D01*
X74693422Y-89430551D01*
G36*
X74699940Y-88231481D02*
G01*
X74692634Y-88269288D01*
X74678037Y-88310127D01*
X74658055Y-88345482D01*
X74631684Y-88377116D01*
X74630492Y-88378319D01*
X74604033Y-88404857D01*
X74604033Y-88675743D01*
X74456925Y-88674630D01*
X74309817Y-88673516D01*
X74307585Y-88391572D01*
X74289248Y-88372435D01*
X74274479Y-88354150D01*
X74259714Y-88330980D01*
X74246523Y-88305844D01*
X74236478Y-88281663D01*
X74231939Y-88265850D01*
X74229160Y-88245688D01*
X74227889Y-88221272D01*
X74228089Y-88195630D01*
X74229722Y-88171794D01*
X74232750Y-88152794D01*
X74233370Y-88150372D01*
X74248311Y-88111034D01*
X74270050Y-88074820D01*
X74297534Y-88042758D01*
X74329709Y-88015874D01*
X74365523Y-87995197D01*
X74403920Y-87981754D01*
X74407025Y-87981032D01*
X74430289Y-87975826D01*
X74432583Y-87814150D01*
X74483383Y-87814150D01*
X74485500Y-87894531D01*
X74486281Y-87922494D01*
X74487036Y-87943128D01*
X74487913Y-87957566D01*
X74489058Y-87966945D01*
X74490619Y-87972400D01*
X74492743Y-87975065D01*
X74495577Y-87976076D01*
X74496083Y-87976157D01*
X74538629Y-87986628D01*
X74578421Y-88004966D01*
X74614802Y-88030832D01*
X74629642Y-88044593D01*
X74657164Y-88076406D01*
X74677346Y-88109852D01*
X74691309Y-88146858D01*
X74693220Y-88153938D01*
X74700204Y-88193624D01*
X74699940Y-88231481D01*
G37*
X74699940Y-88231481D02*
X74692634Y-88269288D01*
X74678037Y-88310127D01*
X74658055Y-88345482D01*
X74631684Y-88377116D01*
X74630492Y-88378319D01*
X74604033Y-88404857D01*
X74604033Y-88675743D01*
X74456925Y-88674630D01*
X74309817Y-88673516D01*
X74307585Y-88391572D01*
X74289248Y-88372435D01*
X74274479Y-88354150D01*
X74259714Y-88330980D01*
X74246523Y-88305844D01*
X74236478Y-88281663D01*
X74231939Y-88265850D01*
X74229160Y-88245688D01*
X74227889Y-88221272D01*
X74228089Y-88195630D01*
X74229722Y-88171794D01*
X74232750Y-88152794D01*
X74233370Y-88150372D01*
X74248311Y-88111034D01*
X74270050Y-88074820D01*
X74297534Y-88042758D01*
X74329709Y-88015874D01*
X74365523Y-87995197D01*
X74403920Y-87981754D01*
X74407025Y-87981032D01*
X74430289Y-87975826D01*
X74432583Y-87814150D01*
X74483383Y-87814150D01*
X74485500Y-87894531D01*
X74486281Y-87922494D01*
X74487036Y-87943128D01*
X74487913Y-87957566D01*
X74489058Y-87966945D01*
X74490619Y-87972400D01*
X74492743Y-87975065D01*
X74495577Y-87976076D01*
X74496083Y-87976157D01*
X74538629Y-87986628D01*
X74578421Y-88004966D01*
X74614802Y-88030832D01*
X74629642Y-88044593D01*
X74657164Y-88076406D01*
X74677346Y-88109852D01*
X74691309Y-88146858D01*
X74693220Y-88153938D01*
X74700204Y-88193624D01*
X74699940Y-88231481D01*
G36*
X73994103Y-89926831D02*
G01*
X73986725Y-89948986D01*
X73973529Y-89967247D01*
X73959703Y-89979155D01*
X73931756Y-89994717D01*
X73901301Y-90002915D01*
X73869922Y-90003746D01*
X73839202Y-89997207D01*
X73810724Y-89983293D01*
X73805269Y-89979503D01*
X73787827Y-89961708D01*
X73775370Y-89938688D01*
X73768561Y-89912500D01*
X73768065Y-89885200D01*
X73770433Y-89871604D01*
X73780620Y-89847234D01*
X73797710Y-89826170D01*
X73820360Y-89809802D01*
X73837374Y-89802357D01*
X73851642Y-89799423D01*
X73871000Y-89797870D01*
X73892177Y-89797724D01*
X73911905Y-89799013D01*
X73926360Y-89801602D01*
X73949203Y-89812003D01*
X73969956Y-89828527D01*
X73985176Y-89847969D01*
X73991387Y-89859941D01*
X73994840Y-89871415D01*
X73996267Y-89885704D01*
X73996452Y-89899067D01*
X73994103Y-89926831D01*
G37*
X73994103Y-89926831D02*
X73986725Y-89948986D01*
X73973529Y-89967247D01*
X73959703Y-89979155D01*
X73931756Y-89994717D01*
X73901301Y-90002915D01*
X73869922Y-90003746D01*
X73839202Y-89997207D01*
X73810724Y-89983293D01*
X73805269Y-89979503D01*
X73787827Y-89961708D01*
X73775370Y-89938688D01*
X73768561Y-89912500D01*
X73768065Y-89885200D01*
X73770433Y-89871604D01*
X73780620Y-89847234D01*
X73797710Y-89826170D01*
X73820360Y-89809802D01*
X73837374Y-89802357D01*
X73851642Y-89799423D01*
X73871000Y-89797870D01*
X73892177Y-89797724D01*
X73911905Y-89799013D01*
X73926360Y-89801602D01*
X73949203Y-89812003D01*
X73969956Y-89828527D01*
X73985176Y-89847969D01*
X73991387Y-89859941D01*
X73994840Y-89871415D01*
X73996267Y-89885704D01*
X73996452Y-89899067D01*
X73994103Y-89926831D01*
G36*
X74012740Y-86849530D02*
G01*
X74010963Y-86857014D01*
X74003672Y-86872214D01*
X73990992Y-86888691D01*
X73975221Y-86904170D01*
X73958653Y-86916374D01*
X73944668Y-86922755D01*
X73938701Y-86923489D01*
X73926443Y-86924141D01*
X73907704Y-86924711D01*
X73882296Y-86925200D01*
X73850030Y-86925609D01*
X73810715Y-86925939D01*
X73764162Y-86926192D01*
X73710183Y-86926369D01*
X73648588Y-86926471D01*
X73579187Y-86926499D01*
X73501791Y-86926454D01*
X73416211Y-86926338D01*
X73371176Y-86926255D01*
X72814784Y-86925150D01*
X72794484Y-86912450D01*
X72779868Y-86901325D01*
X72766025Y-86887643D01*
X72760950Y-86881345D01*
X72754176Y-86871075D01*
X72750075Y-86861639D01*
X72747875Y-86850187D01*
X72746804Y-86833867D01*
X72746613Y-86828429D01*
X72746876Y-86804517D01*
X72749299Y-86787094D01*
X72751269Y-86781217D01*
X72766298Y-86757758D01*
X72787372Y-86738625D01*
X72802577Y-86729853D01*
X72823917Y-86719916D01*
X73380600Y-86719967D01*
X73460704Y-86719979D01*
X73532779Y-86720002D01*
X73597264Y-86720043D01*
X73654598Y-86720107D01*
X73705219Y-86720200D01*
X73749566Y-86720329D01*
X73788077Y-86720498D01*
X73821190Y-86720715D01*
X73849345Y-86720985D01*
X73872978Y-86721314D01*
X73892530Y-86721708D01*
X73908438Y-86722173D01*
X73921141Y-86722714D01*
X73931077Y-86723338D01*
X73938684Y-86724051D01*
X73944402Y-86724859D01*
X73948668Y-86725767D01*
X73951922Y-86726781D01*
X73954217Y-86727731D01*
X73970501Y-86738117D01*
X73987134Y-86753519D01*
X74001378Y-86771073D01*
X74009662Y-86785781D01*
X74014248Y-86804191D01*
X74015297Y-86826661D01*
X74012740Y-86849530D01*
G37*
X74012740Y-86849530D02*
X74010963Y-86857014D01*
X74003672Y-86872214D01*
X73990992Y-86888691D01*
X73975221Y-86904170D01*
X73958653Y-86916374D01*
X73944668Y-86922755D01*
X73938701Y-86923489D01*
X73926443Y-86924141D01*
X73907704Y-86924711D01*
X73882296Y-86925200D01*
X73850030Y-86925609D01*
X73810715Y-86925939D01*
X73764162Y-86926192D01*
X73710183Y-86926369D01*
X73648588Y-86926471D01*
X73579187Y-86926499D01*
X73501791Y-86926454D01*
X73416211Y-86926338D01*
X73371176Y-86926255D01*
X72814784Y-86925150D01*
X72794484Y-86912450D01*
X72779868Y-86901325D01*
X72766025Y-86887643D01*
X72760950Y-86881345D01*
X72754176Y-86871075D01*
X72750075Y-86861639D01*
X72747875Y-86850187D01*
X72746804Y-86833867D01*
X72746613Y-86828429D01*
X72746876Y-86804517D01*
X72749299Y-86787094D01*
X72751269Y-86781217D01*
X72766298Y-86757758D01*
X72787372Y-86738625D01*
X72802577Y-86729853D01*
X72823917Y-86719916D01*
X73380600Y-86719967D01*
X73460704Y-86719979D01*
X73532779Y-86720002D01*
X73597264Y-86720043D01*
X73654598Y-86720107D01*
X73705219Y-86720200D01*
X73749566Y-86720329D01*
X73788077Y-86720498D01*
X73821190Y-86720715D01*
X73849345Y-86720985D01*
X73872978Y-86721314D01*
X73892530Y-86721708D01*
X73908438Y-86722173D01*
X73921141Y-86722714D01*
X73931077Y-86723338D01*
X73938684Y-86724051D01*
X73944402Y-86724859D01*
X73948668Y-86725767D01*
X73951922Y-86726781D01*
X73954217Y-86727731D01*
X73970501Y-86738117D01*
X73987134Y-86753519D01*
X74001378Y-86771073D01*
X74009662Y-86785781D01*
X74014248Y-86804191D01*
X74015297Y-86826661D01*
X74012740Y-86849530D01*
G36*
X73713731Y-89926119D02*
G01*
X73704746Y-89949034D01*
X73688538Y-89969861D01*
X73681726Y-89976375D01*
X73676645Y-89981020D01*
X73671955Y-89985133D01*
X73667135Y-89988744D01*
X73661663Y-89991887D01*
X73655020Y-89994594D01*
X73646685Y-89996898D01*
X73636137Y-89998831D01*
X73622856Y-90000425D01*
X73606321Y-90001713D01*
X73586011Y-90002727D01*
X73561406Y-90003499D01*
X73531985Y-90004063D01*
X73497228Y-90004451D01*
X73456613Y-90004694D01*
X73409621Y-90004826D01*
X73355730Y-90004879D01*
X73294421Y-90004885D01*
X73225172Y-90004876D01*
X73224257Y-90004876D01*
X73146607Y-90004827D01*
X73077316Y-90004687D01*
X73016273Y-90004456D01*
X72963372Y-90004132D01*
X72918503Y-90003715D01*
X72881558Y-90003203D01*
X72852430Y-90002594D01*
X72831008Y-90001888D01*
X72817186Y-90001084D01*
X72811217Y-90000292D01*
X72784989Y-89989095D01*
X72763153Y-89971509D01*
X72746832Y-89948880D01*
X72737150Y-89922552D01*
X72735214Y-89909292D01*
X72734898Y-89892408D01*
X72736187Y-89876258D01*
X72737704Y-89868537D01*
X72745156Y-89852602D01*
X72757815Y-89835434D01*
X72773345Y-89819646D01*
X72789410Y-89807850D01*
X72794120Y-89805419D01*
X72797280Y-89804133D01*
X72801098Y-89802996D01*
X72806088Y-89802000D01*
X72812764Y-89801136D01*
X72821641Y-89800392D01*
X72833231Y-89799761D01*
X72848049Y-89799233D01*
X72866610Y-89798798D01*
X72889427Y-89798448D01*
X72917015Y-89798172D01*
X72949887Y-89797962D01*
X72988558Y-89797807D01*
X73033542Y-89797700D01*
X73085352Y-89797629D01*
X73144504Y-89797587D01*
X73211510Y-89797563D01*
X73225161Y-89797559D01*
X73295046Y-89797535D01*
X73356976Y-89797515D01*
X73411459Y-89797529D01*
X73459008Y-89797607D01*
X73500132Y-89797777D01*
X73535342Y-89798070D01*
X73565149Y-89798515D01*
X73590063Y-89799142D01*
X73610595Y-89799979D01*
X73627254Y-89801058D01*
X73640553Y-89802406D01*
X73651000Y-89804054D01*
X73659108Y-89806031D01*
X73665386Y-89808367D01*
X73670345Y-89811092D01*
X73674495Y-89814234D01*
X73678347Y-89817823D01*
X73682411Y-89821889D01*
X73684713Y-89824139D01*
X73702452Y-89845469D01*
X73712744Y-89869062D01*
X73716389Y-89896805D01*
X73716416Y-89899054D01*
X73713731Y-89926119D01*
G37*
X73713731Y-89926119D02*
X73704746Y-89949034D01*
X73688538Y-89969861D01*
X73681726Y-89976375D01*
X73676645Y-89981020D01*
X73671955Y-89985133D01*
X73667135Y-89988744D01*
X73661663Y-89991887D01*
X73655020Y-89994594D01*
X73646685Y-89996898D01*
X73636137Y-89998831D01*
X73622856Y-90000425D01*
X73606321Y-90001713D01*
X73586011Y-90002727D01*
X73561406Y-90003499D01*
X73531985Y-90004063D01*
X73497228Y-90004451D01*
X73456613Y-90004694D01*
X73409621Y-90004826D01*
X73355730Y-90004879D01*
X73294421Y-90004885D01*
X73225172Y-90004876D01*
X73224257Y-90004876D01*
X73146607Y-90004827D01*
X73077316Y-90004687D01*
X73016273Y-90004456D01*
X72963372Y-90004132D01*
X72918503Y-90003715D01*
X72881558Y-90003203D01*
X72852430Y-90002594D01*
X72831008Y-90001888D01*
X72817186Y-90001084D01*
X72811217Y-90000292D01*
X72784989Y-89989095D01*
X72763153Y-89971509D01*
X72746832Y-89948880D01*
X72737150Y-89922552D01*
X72735214Y-89909292D01*
X72734898Y-89892408D01*
X72736187Y-89876258D01*
X72737704Y-89868537D01*
X72745156Y-89852602D01*
X72757815Y-89835434D01*
X72773345Y-89819646D01*
X72789410Y-89807850D01*
X72794120Y-89805419D01*
X72797280Y-89804133D01*
X72801098Y-89802996D01*
X72806088Y-89802000D01*
X72812764Y-89801136D01*
X72821641Y-89800392D01*
X72833231Y-89799761D01*
X72848049Y-89799233D01*
X72866610Y-89798798D01*
X72889427Y-89798448D01*
X72917015Y-89798172D01*
X72949887Y-89797962D01*
X72988558Y-89797807D01*
X73033542Y-89797700D01*
X73085352Y-89797629D01*
X73144504Y-89797587D01*
X73211510Y-89797563D01*
X73225161Y-89797559D01*
X73295046Y-89797535D01*
X73356976Y-89797515D01*
X73411459Y-89797529D01*
X73459008Y-89797607D01*
X73500132Y-89797777D01*
X73535342Y-89798070D01*
X73565149Y-89798515D01*
X73590063Y-89799142D01*
X73610595Y-89799979D01*
X73627254Y-89801058D01*
X73640553Y-89802406D01*
X73651000Y-89804054D01*
X73659108Y-89806031D01*
X73665386Y-89808367D01*
X73670345Y-89811092D01*
X73674495Y-89814234D01*
X73678347Y-89817823D01*
X73682411Y-89821889D01*
X73684713Y-89824139D01*
X73702452Y-89845469D01*
X73712744Y-89869062D01*
X73716389Y-89896805D01*
X73716416Y-89899054D01*
X73713731Y-89926119D01*
G36*
X73714334Y-90363849D02*
G01*
X73713984Y-90417650D01*
X73713551Y-90467530D01*
X73713060Y-90509839D01*
X73712394Y-90545475D01*
X73711437Y-90575334D01*
X73710072Y-90600312D01*
X73708183Y-90621306D01*
X73705654Y-90639212D01*
X73702368Y-90654926D01*
X73698209Y-90669346D01*
X73693060Y-90683367D01*
X73686805Y-90697885D01*
X73679327Y-90713798D01*
X73674118Y-90724567D01*
X73662538Y-90746832D01*
X73651057Y-90764636D01*
X73637249Y-90781365D01*
X73622374Y-90796766D01*
X73597486Y-90819258D01*
X73574470Y-90835668D01*
X73564750Y-90840956D01*
X73539350Y-90853163D01*
X73378483Y-90856713D01*
X73333323Y-90857561D01*
X73282940Y-90858252D01*
X73229886Y-90858768D01*
X73176710Y-90859091D01*
X73125963Y-90859201D01*
X73080196Y-90859081D01*
X73065217Y-90858975D01*
X73024790Y-90858603D01*
X72991903Y-90858203D01*
X72965629Y-90857726D01*
X72945043Y-90857120D01*
X72929216Y-90856334D01*
X72917223Y-90855317D01*
X72908138Y-90854020D01*
X72901032Y-90852390D01*
X72894981Y-90850377D01*
X72892781Y-90849507D01*
X72871712Y-90838736D01*
X72848950Y-90823592D01*
X72827256Y-90806189D01*
X72809392Y-90788641D01*
X72802975Y-90780769D01*
X72778109Y-90740940D01*
X72757419Y-90695659D01*
X72741841Y-90647293D01*
X72733085Y-90603917D01*
X72731851Y-90590482D01*
X72730866Y-90570172D01*
X72730132Y-90544576D01*
X72729650Y-90515281D01*
X72729422Y-90483876D01*
X72729448Y-90451948D01*
X72729730Y-90421086D01*
X72730269Y-90392878D01*
X72731068Y-90368912D01*
X72732126Y-90350776D01*
X72732858Y-90343567D01*
X72742182Y-90296600D01*
X72757022Y-90252372D01*
X72776764Y-90211734D01*
X72800790Y-90175538D01*
X72828484Y-90144638D01*
X72859231Y-90119885D01*
X72892415Y-90102132D01*
X72912183Y-90095472D01*
X72924484Y-90093444D01*
X72943756Y-90091806D01*
X72968611Y-90090554D01*
X72997663Y-90089684D01*
X73029525Y-90089193D01*
X73062811Y-90089076D01*
X73088900Y-90089274D01*
X73088900Y-90297764D01*
X73058761Y-90297979D01*
X72960231Y-90299117D01*
X72954143Y-90316050D01*
X72948273Y-90334350D01*
X72943827Y-90353328D01*
X72940668Y-90374392D01*
X72938660Y-90398952D01*
X72937667Y-90428414D01*
X72937553Y-90464187D01*
X72937790Y-90485383D01*
X72938364Y-90517510D01*
X72939105Y-90542673D01*
X72940139Y-90562374D01*
X72941593Y-90578115D01*
X72943595Y-90591400D01*
X72946271Y-90603730D01*
X72948501Y-90612190D01*
X72953061Y-90628167D01*
X72956955Y-90640952D01*
X72959514Y-90648378D01*
X72959918Y-90649232D01*
X72964564Y-90650186D01*
X72976469Y-90651035D01*
X72994426Y-90651739D01*
X73017228Y-90652257D01*
X73043668Y-90652550D01*
X73060667Y-90652600D01*
X73159333Y-90652600D01*
X73173578Y-90621908D01*
X73187822Y-90591217D01*
X73187903Y-90487500D01*
X73187871Y-90454378D01*
X73187652Y-90428305D01*
X73187146Y-90407862D01*
X73186257Y-90391631D01*
X73184885Y-90378195D01*
X73182932Y-90366136D01*
X73180300Y-90354036D01*
X73177994Y-90344758D01*
X73173105Y-90327313D01*
X73168269Y-90312864D01*
X73164220Y-90303486D01*
X73162648Y-90301287D01*
X73156284Y-90299707D01*
X73141709Y-90298589D01*
X73119166Y-90297938D01*
X73088900Y-90297764D01*
X73088900Y-90089274D01*
X73096132Y-90089330D01*
X73128104Y-90089952D01*
X73157338Y-90090936D01*
X73182447Y-90092279D01*
X73202046Y-90093978D01*
X73214747Y-90096029D01*
X73215790Y-90096312D01*
X73252597Y-90111463D01*
X73286126Y-90134175D01*
X73316092Y-90164087D01*
X73342214Y-90200843D01*
X73364209Y-90244083D01*
X73381794Y-90293448D01*
X73387310Y-90313933D01*
X73390602Y-90332520D01*
X73393210Y-90357836D01*
X73395136Y-90388366D01*
X73396385Y-90422597D01*
X73396961Y-90459012D01*
X73396868Y-90496099D01*
X73396110Y-90532343D01*
X73394691Y-90566229D01*
X73392615Y-90596244D01*
X73389886Y-90620871D01*
X73386508Y-90638598D01*
X73386442Y-90638842D01*
X73385591Y-90642927D01*
X73386601Y-90645636D01*
X73390837Y-90647253D01*
X73399663Y-90648058D01*
X73414444Y-90648335D01*
X73432470Y-90648367D01*
X73481093Y-90648367D01*
X73493273Y-90621908D01*
X73505453Y-90595450D01*
X73507585Y-90400717D01*
X73508092Y-90355066D01*
X73508555Y-90317093D01*
X73509016Y-90286009D01*
X73509520Y-90261023D01*
X73510111Y-90241349D01*
X73510832Y-90226195D01*
X73511728Y-90214774D01*
X73512843Y-90206296D01*
X73514219Y-90199973D01*
X73515903Y-90195016D01*
X73517936Y-90190635D01*
X73519439Y-90187773D01*
X73532479Y-90170763D01*
X73551472Y-90155505D01*
X73573902Y-90143812D01*
X73585852Y-90139809D01*
X73611593Y-90136670D01*
X73637648Y-90140173D01*
X73662324Y-90149461D01*
X73683924Y-90163677D01*
X73700753Y-90181967D01*
X73710978Y-90202999D01*
X73712206Y-90211135D01*
X73713163Y-90226456D01*
X73713851Y-90249174D01*
X73714273Y-90279503D01*
X73714433Y-90317657D01*
X73714334Y-90363849D01*
G37*
X73714334Y-90363849D02*
X73713984Y-90417650D01*
X73713551Y-90467530D01*
X73713060Y-90509839D01*
X73712394Y-90545475D01*
X73711437Y-90575334D01*
X73710072Y-90600312D01*
X73708183Y-90621306D01*
X73705654Y-90639212D01*
X73702368Y-90654926D01*
X73698209Y-90669346D01*
X73693060Y-90683367D01*
X73686805Y-90697885D01*
X73679327Y-90713798D01*
X73674118Y-90724567D01*
X73662538Y-90746832D01*
X73651057Y-90764636D01*
X73637249Y-90781365D01*
X73622374Y-90796766D01*
X73597486Y-90819258D01*
X73574470Y-90835668D01*
X73564750Y-90840956D01*
X73539350Y-90853163D01*
X73378483Y-90856713D01*
X73333323Y-90857561D01*
X73282940Y-90858252D01*
X73229886Y-90858768D01*
X73176710Y-90859091D01*
X73125963Y-90859201D01*
X73080196Y-90859081D01*
X73065217Y-90858975D01*
X73024790Y-90858603D01*
X72991903Y-90858203D01*
X72965629Y-90857726D01*
X72945043Y-90857120D01*
X72929216Y-90856334D01*
X72917223Y-90855317D01*
X72908138Y-90854020D01*
X72901032Y-90852390D01*
X72894981Y-90850377D01*
X72892781Y-90849507D01*
X72871712Y-90838736D01*
X72848950Y-90823592D01*
X72827256Y-90806189D01*
X72809392Y-90788641D01*
X72802975Y-90780769D01*
X72778109Y-90740940D01*
X72757419Y-90695659D01*
X72741841Y-90647293D01*
X72733085Y-90603917D01*
X72731851Y-90590482D01*
X72730866Y-90570172D01*
X72730132Y-90544576D01*
X72729650Y-90515281D01*
X72729422Y-90483876D01*
X72729448Y-90451948D01*
X72729730Y-90421086D01*
X72730269Y-90392878D01*
X72731068Y-90368912D01*
X72732126Y-90350776D01*
X72732858Y-90343567D01*
X72742182Y-90296600D01*
X72757022Y-90252372D01*
X72776764Y-90211734D01*
X72800790Y-90175538D01*
X72828484Y-90144638D01*
X72859231Y-90119885D01*
X72892415Y-90102132D01*
X72912183Y-90095472D01*
X72924484Y-90093444D01*
X72943756Y-90091806D01*
X72968611Y-90090554D01*
X72997663Y-90089684D01*
X73029525Y-90089193D01*
X73062811Y-90089076D01*
X73088900Y-90089274D01*
X73088900Y-90297764D01*
X73058761Y-90297979D01*
X72960231Y-90299117D01*
X72954143Y-90316050D01*
X72948273Y-90334350D01*
X72943827Y-90353328D01*
X72940668Y-90374392D01*
X72938660Y-90398952D01*
X72937667Y-90428414D01*
X72937553Y-90464187D01*
X72937790Y-90485383D01*
X72938364Y-90517510D01*
X72939105Y-90542673D01*
X72940139Y-90562374D01*
X72941593Y-90578115D01*
X72943595Y-90591400D01*
X72946271Y-90603730D01*
X72948501Y-90612190D01*
X72953061Y-90628167D01*
X72956955Y-90640952D01*
X72959514Y-90648378D01*
X72959918Y-90649232D01*
X72964564Y-90650186D01*
X72976469Y-90651035D01*
X72994426Y-90651739D01*
X73017228Y-90652257D01*
X73043668Y-90652550D01*
X73060667Y-90652600D01*
X73159333Y-90652600D01*
X73173578Y-90621908D01*
X73187822Y-90591217D01*
X73187903Y-90487500D01*
X73187871Y-90454378D01*
X73187652Y-90428305D01*
X73187146Y-90407862D01*
X73186257Y-90391631D01*
X73184885Y-90378195D01*
X73182932Y-90366136D01*
X73180300Y-90354036D01*
X73177994Y-90344758D01*
X73173105Y-90327313D01*
X73168269Y-90312864D01*
X73164220Y-90303486D01*
X73162648Y-90301287D01*
X73156284Y-90299707D01*
X73141709Y-90298589D01*
X73119166Y-90297938D01*
X73088900Y-90297764D01*
X73088900Y-90089274D01*
X73096132Y-90089330D01*
X73128104Y-90089952D01*
X73157338Y-90090936D01*
X73182447Y-90092279D01*
X73202046Y-90093978D01*
X73214747Y-90096029D01*
X73215790Y-90096312D01*
X73252597Y-90111463D01*
X73286126Y-90134175D01*
X73316092Y-90164087D01*
X73342214Y-90200843D01*
X73364209Y-90244083D01*
X73381794Y-90293448D01*
X73387310Y-90313933D01*
X73390602Y-90332520D01*
X73393210Y-90357836D01*
X73395136Y-90388366D01*
X73396385Y-90422597D01*
X73396961Y-90459012D01*
X73396868Y-90496099D01*
X73396110Y-90532343D01*
X73394691Y-90566229D01*
X73392615Y-90596244D01*
X73389886Y-90620871D01*
X73386508Y-90638598D01*
X73386442Y-90638842D01*
X73385591Y-90642927D01*
X73386601Y-90645636D01*
X73390837Y-90647253D01*
X73399663Y-90648058D01*
X73414444Y-90648335D01*
X73432470Y-90648367D01*
X73481093Y-90648367D01*
X73493273Y-90621908D01*
X73505453Y-90595450D01*
X73507585Y-90400717D01*
X73508092Y-90355066D01*
X73508555Y-90317093D01*
X73509016Y-90286009D01*
X73509520Y-90261023D01*
X73510111Y-90241349D01*
X73510832Y-90226195D01*
X73511728Y-90214774D01*
X73512843Y-90206296D01*
X73514219Y-90199973D01*
X73515903Y-90195016D01*
X73517936Y-90190635D01*
X73519439Y-90187773D01*
X73532479Y-90170763D01*
X73551472Y-90155505D01*
X73573902Y-90143812D01*
X73585852Y-90139809D01*
X73611593Y-90136670D01*
X73637648Y-90140173D01*
X73662324Y-90149461D01*
X73683924Y-90163677D01*
X73700753Y-90181967D01*
X73710978Y-90202999D01*
X73712206Y-90211135D01*
X73713163Y-90226456D01*
X73713851Y-90249174D01*
X73714273Y-90279503D01*
X73714433Y-90317657D01*
X73714334Y-90363849D01*
G36*
X73710680Y-89345440D02*
G01*
X73710237Y-89384702D01*
X73709343Y-89417586D01*
X73707872Y-89445134D01*
X73705699Y-89468390D01*
X73702697Y-89488397D01*
X73698740Y-89506196D01*
X73693701Y-89522832D01*
X73687455Y-89539347D01*
X73679874Y-89556784D01*
X73679442Y-89557732D01*
X73655806Y-89601593D01*
X73628062Y-89638834D01*
X73596592Y-89669129D01*
X73561775Y-89692150D01*
X73523991Y-89707569D01*
X73498802Y-89713238D01*
X73488989Y-89714094D01*
X73471802Y-89714808D01*
X73448029Y-89715384D01*
X73418456Y-89715830D01*
X73383868Y-89716150D01*
X73345052Y-89716349D01*
X73302793Y-89716432D01*
X73257879Y-89716406D01*
X73211094Y-89716276D01*
X73163226Y-89716046D01*
X73115060Y-89715723D01*
X73067382Y-89715312D01*
X73020979Y-89714818D01*
X72976636Y-89714246D01*
X72935140Y-89713602D01*
X72897277Y-89712891D01*
X72863832Y-89712120D01*
X72835593Y-89711292D01*
X72813345Y-89710413D01*
X72797874Y-89709490D01*
X72789966Y-89708526D01*
X72789484Y-89708379D01*
X72771780Y-89697798D01*
X72754522Y-89680154D01*
X72742047Y-89662000D01*
X72735891Y-89650162D01*
X72732467Y-89638716D01*
X72731052Y-89624375D01*
X72730868Y-89611200D01*
X72732119Y-89588340D01*
X72736573Y-89570352D01*
X72745492Y-89553907D01*
X72758993Y-89536974D01*
X72763314Y-89531935D01*
X72767224Y-89527534D01*
X72771296Y-89523729D01*
X72776099Y-89520477D01*
X72782205Y-89517736D01*
X72790184Y-89515465D01*
X72800608Y-89513622D01*
X72814047Y-89512165D01*
X72831072Y-89511052D01*
X72852254Y-89510241D01*
X72878164Y-89509690D01*
X72909373Y-89509358D01*
X72946452Y-89509201D01*
X72989971Y-89509180D01*
X73040501Y-89509250D01*
X73098614Y-89509371D01*
X73133954Y-89509444D01*
X73465157Y-89510094D01*
X73475089Y-89500162D01*
X73481970Y-89489779D01*
X73489017Y-89472969D01*
X73494194Y-89456235D01*
X73496897Y-89445626D01*
X73499013Y-89435377D01*
X73500614Y-89424289D01*
X73501770Y-89411160D01*
X73502552Y-89394791D01*
X73503031Y-89373980D01*
X73503277Y-89347527D01*
X73503362Y-89314232D01*
X73503367Y-89300632D01*
X73503220Y-89259200D01*
X73502696Y-89225164D01*
X73501668Y-89197455D01*
X73500009Y-89175006D01*
X73497593Y-89156749D01*
X73494293Y-89141617D01*
X73489982Y-89128541D01*
X73484536Y-89116453D01*
X73480689Y-89109267D01*
X73471351Y-89092617D01*
X73137050Y-89090500D01*
X72802750Y-89088383D01*
X72783114Y-89078709D01*
X72762322Y-89063989D01*
X72746020Y-89043499D01*
X72734873Y-89019022D01*
X72729545Y-88992339D01*
X72730699Y-88965235D01*
X72734882Y-88949223D01*
X72744958Y-88929343D01*
X72759984Y-88909611D01*
X72776848Y-88893924D01*
X72779040Y-88892379D01*
X72781572Y-88891029D01*
X72784994Y-88889858D01*
X72789854Y-88888856D01*
X72796701Y-88888008D01*
X72806084Y-88887301D01*
X72818551Y-88886724D01*
X72834651Y-88886262D01*
X72854933Y-88885904D01*
X72879945Y-88885635D01*
X72910237Y-88885443D01*
X72946357Y-88885315D01*
X72988853Y-88885238D01*
X73038276Y-88885199D01*
X73095172Y-88885185D01*
X73147020Y-88885183D01*
X73505483Y-88885183D01*
X73534207Y-88895767D01*
X73572940Y-88914508D01*
X73607746Y-88940687D01*
X73638491Y-88974172D01*
X73665039Y-89014830D01*
X73674586Y-89033350D01*
X73683384Y-89052251D01*
X73690643Y-89069693D01*
X73696507Y-89086745D01*
X73701124Y-89104477D01*
X73704638Y-89123958D01*
X73707197Y-89146257D01*
X73708946Y-89172446D01*
X73710031Y-89203593D01*
X73710598Y-89240767D01*
X73710792Y-89285039D01*
X73710800Y-89298756D01*
X73710680Y-89345440D01*
G37*
X73710680Y-89345440D02*
X73710237Y-89384702D01*
X73709343Y-89417586D01*
X73707872Y-89445134D01*
X73705699Y-89468390D01*
X73702697Y-89488397D01*
X73698740Y-89506196D01*
X73693701Y-89522832D01*
X73687455Y-89539347D01*
X73679874Y-89556784D01*
X73679442Y-89557732D01*
X73655806Y-89601593D01*
X73628062Y-89638834D01*
X73596592Y-89669129D01*
X73561775Y-89692150D01*
X73523991Y-89707569D01*
X73498802Y-89713238D01*
X73488989Y-89714094D01*
X73471802Y-89714808D01*
X73448029Y-89715384D01*
X73418456Y-89715830D01*
X73383868Y-89716150D01*
X73345052Y-89716349D01*
X73302793Y-89716432D01*
X73257879Y-89716406D01*
X73211094Y-89716276D01*
X73163226Y-89716046D01*
X73115060Y-89715723D01*
X73067382Y-89715312D01*
X73020979Y-89714818D01*
X72976636Y-89714246D01*
X72935140Y-89713602D01*
X72897277Y-89712891D01*
X72863832Y-89712120D01*
X72835593Y-89711292D01*
X72813345Y-89710413D01*
X72797874Y-89709490D01*
X72789966Y-89708526D01*
X72789484Y-89708379D01*
X72771780Y-89697798D01*
X72754522Y-89680154D01*
X72742047Y-89662000D01*
X72735891Y-89650162D01*
X72732467Y-89638716D01*
X72731052Y-89624375D01*
X72730868Y-89611200D01*
X72732119Y-89588340D01*
X72736573Y-89570352D01*
X72745492Y-89553907D01*
X72758993Y-89536974D01*
X72763314Y-89531935D01*
X72767224Y-89527534D01*
X72771296Y-89523729D01*
X72776099Y-89520477D01*
X72782205Y-89517736D01*
X72790184Y-89515465D01*
X72800608Y-89513622D01*
X72814047Y-89512165D01*
X72831072Y-89511052D01*
X72852254Y-89510241D01*
X72878164Y-89509690D01*
X72909373Y-89509358D01*
X72946452Y-89509201D01*
X72989971Y-89509180D01*
X73040501Y-89509250D01*
X73098614Y-89509371D01*
X73133954Y-89509444D01*
X73465157Y-89510094D01*
X73475089Y-89500162D01*
X73481970Y-89489779D01*
X73489017Y-89472969D01*
X73494194Y-89456235D01*
X73496897Y-89445626D01*
X73499013Y-89435377D01*
X73500614Y-89424289D01*
X73501770Y-89411160D01*
X73502552Y-89394791D01*
X73503031Y-89373980D01*
X73503277Y-89347527D01*
X73503362Y-89314232D01*
X73503367Y-89300632D01*
X73503220Y-89259200D01*
X73502696Y-89225164D01*
X73501668Y-89197455D01*
X73500009Y-89175006D01*
X73497593Y-89156749D01*
X73494293Y-89141617D01*
X73489982Y-89128541D01*
X73484536Y-89116453D01*
X73480689Y-89109267D01*
X73471351Y-89092617D01*
X73137050Y-89090500D01*
X72802750Y-89088383D01*
X72783114Y-89078709D01*
X72762322Y-89063989D01*
X72746020Y-89043499D01*
X72734873Y-89019022D01*
X72729545Y-88992339D01*
X72730699Y-88965235D01*
X72734882Y-88949223D01*
X72744958Y-88929343D01*
X72759984Y-88909611D01*
X72776848Y-88893924D01*
X72779040Y-88892379D01*
X72781572Y-88891029D01*
X72784994Y-88889858D01*
X72789854Y-88888856D01*
X72796701Y-88888008D01*
X72806084Y-88887301D01*
X72818551Y-88886724D01*
X72834651Y-88886262D01*
X72854933Y-88885904D01*
X72879945Y-88885635D01*
X72910237Y-88885443D01*
X72946357Y-88885315D01*
X72988853Y-88885238D01*
X73038276Y-88885199D01*
X73095172Y-88885185D01*
X73147020Y-88885183D01*
X73505483Y-88885183D01*
X73534207Y-88895767D01*
X73572940Y-88914508D01*
X73607746Y-88940687D01*
X73638491Y-88974172D01*
X73665039Y-89014830D01*
X73674586Y-89033350D01*
X73683384Y-89052251D01*
X73690643Y-89069693D01*
X73696507Y-89086745D01*
X73701124Y-89104477D01*
X73704638Y-89123958D01*
X73707197Y-89146257D01*
X73708946Y-89172446D01*
X73710031Y-89203593D01*
X73710598Y-89240767D01*
X73710792Y-89285039D01*
X73710800Y-89298756D01*
X73710680Y-89345440D01*
G36*
X74006323Y-88582908D02*
G01*
X73985972Y-88628459D01*
X73958874Y-88670406D01*
X73925972Y-88707797D01*
X73888207Y-88739684D01*
X73846521Y-88765117D01*
X73810666Y-88780285D01*
X73794330Y-88785537D01*
X73780128Y-88788966D01*
X73765360Y-88790946D01*
X73747322Y-88791849D01*
X73725492Y-88792050D01*
X73674567Y-88792050D01*
X73653638Y-88777025D01*
X73632872Y-88757464D01*
X73618374Y-88734002D01*
X73610381Y-88708161D01*
X73609128Y-88681462D01*
X73614850Y-88655428D01*
X73627782Y-88631582D01*
X73630591Y-88628004D01*
X73650211Y-88609033D01*
X73673348Y-88596191D01*
X73701602Y-88588693D01*
X73713893Y-88587093D01*
X73742789Y-88581836D01*
X73765740Y-88572043D01*
X73784420Y-88556873D01*
X73792040Y-88547858D01*
X73797340Y-88540505D01*
X73801659Y-88533103D01*
X73805087Y-88524746D01*
X73807714Y-88514523D01*
X73809631Y-88501526D01*
X73810928Y-88484847D01*
X73811696Y-88463577D01*
X73812024Y-88436808D01*
X73812004Y-88403632D01*
X73811725Y-88363138D01*
X73811620Y-88351081D01*
X73810283Y-88202213D01*
X73797465Y-88183983D01*
X73785697Y-88170040D01*
X73771431Y-88156763D01*
X73766411Y-88152935D01*
X73748174Y-88140116D01*
X73379599Y-88138989D01*
X73315319Y-88138795D01*
X73258955Y-88138638D01*
X73209956Y-88138531D01*
X73167774Y-88138483D01*
X73131858Y-88138505D01*
X73101657Y-88138610D01*
X73076622Y-88138808D01*
X73056201Y-88139110D01*
X73039845Y-88139528D01*
X73027004Y-88140072D01*
X73017128Y-88140753D01*
X73009665Y-88141583D01*
X73004067Y-88142572D01*
X72999782Y-88143733D01*
X72996261Y-88145075D01*
X72992953Y-88146610D01*
X72992569Y-88146796D01*
X72972696Y-88160330D01*
X72955561Y-88179243D01*
X72943471Y-88200737D01*
X72940389Y-88210107D01*
X72938873Y-88220621D01*
X72937746Y-88238691D01*
X72937004Y-88264507D01*
X72936643Y-88298262D01*
X72936660Y-88340148D01*
X72936900Y-88375154D01*
X72937270Y-88414220D01*
X72937640Y-88445740D01*
X72938073Y-88470633D01*
X72938627Y-88489822D01*
X72939364Y-88504226D01*
X72940344Y-88514766D01*
X72941628Y-88522361D01*
X72943275Y-88527934D01*
X72945347Y-88532403D01*
X72947472Y-88535996D01*
X72964339Y-88555332D01*
X72988360Y-88571076D01*
X73018845Y-88582823D01*
X73033467Y-88586479D01*
X73043703Y-88587728D01*
X73060695Y-88588730D01*
X73082734Y-88589432D01*
X73108111Y-88589778D01*
X73135067Y-88589715D01*
X73217617Y-88588850D01*
X73219903Y-88502066D01*
X73220931Y-88469477D01*
X73222145Y-88444310D01*
X73223638Y-88425522D01*
X73225499Y-88412071D01*
X73227820Y-88402913D01*
X73228786Y-88400466D01*
X73244268Y-88375311D01*
X73265166Y-88356445D01*
X73290760Y-88344322D01*
X73320331Y-88339398D01*
X73325567Y-88339309D01*
X73353235Y-88342409D01*
X73376802Y-88352107D01*
X73398329Y-88369289D01*
X73400528Y-88371536D01*
X73407390Y-88379074D01*
X73412962Y-88386584D01*
X73417380Y-88395008D01*
X73420776Y-88405288D01*
X73423283Y-88418366D01*
X73425036Y-88435183D01*
X73426167Y-88456681D01*
X73426810Y-88483803D01*
X73427099Y-88517490D01*
X73427167Y-88558683D01*
X73427167Y-88559540D01*
X73427020Y-88598382D01*
X73426597Y-88633443D01*
X73425925Y-88663794D01*
X73425031Y-88688506D01*
X73423941Y-88706648D01*
X73422681Y-88717291D01*
X73422629Y-88717544D01*
X73412851Y-88743992D01*
X73395849Y-88766064D01*
X73371807Y-88783583D01*
X73348850Y-88796283D01*
X72802750Y-88796283D01*
X72782953Y-88784646D01*
X72759306Y-88766385D01*
X72742091Y-88743919D01*
X72731654Y-88718548D01*
X72728344Y-88691575D01*
X72732506Y-88664301D01*
X72744063Y-88638707D01*
X72756670Y-88618427D01*
X72746832Y-88593055D01*
X72740544Y-88574238D01*
X72735112Y-88553570D01*
X72732863Y-88542283D01*
X72731600Y-88529854D01*
X72730583Y-88510426D01*
X72729805Y-88485200D01*
X72729260Y-88455379D01*
X72728939Y-88422165D01*
X72728838Y-88386760D01*
X72728949Y-88350366D01*
X72729266Y-88314186D01*
X72729782Y-88279422D01*
X72730491Y-88247276D01*
X72731385Y-88218950D01*
X72732459Y-88195647D01*
X72733705Y-88178568D01*
X72734915Y-88169750D01*
X72749164Y-88124122D01*
X72770912Y-88081056D01*
X72799358Y-88041447D01*
X72833701Y-88006193D01*
X72873138Y-87976189D01*
X72916869Y-87952333D01*
X72936500Y-87944297D01*
X72967850Y-87932683D01*
X73776417Y-87932683D01*
X73806050Y-87942717D01*
X73851822Y-87962574D01*
X73894101Y-87989554D01*
X73931950Y-88022716D01*
X73964428Y-88061121D01*
X73990597Y-88103831D01*
X74007701Y-88144350D01*
X74010084Y-88151557D01*
X74012056Y-88158347D01*
X74013655Y-88165569D01*
X74014921Y-88174074D01*
X74015891Y-88184709D01*
X74016607Y-88198325D01*
X74017106Y-88215772D01*
X74017427Y-88237898D01*
X74017610Y-88265555D01*
X74017693Y-88299590D01*
X74017716Y-88340853D01*
X74017717Y-88362366D01*
X74017717Y-88550750D01*
X74006323Y-88582908D01*
G37*
X74006323Y-88582908D02*
X73985972Y-88628459D01*
X73958874Y-88670406D01*
X73925972Y-88707797D01*
X73888207Y-88739684D01*
X73846521Y-88765117D01*
X73810666Y-88780285D01*
X73794330Y-88785537D01*
X73780128Y-88788966D01*
X73765360Y-88790946D01*
X73747322Y-88791849D01*
X73725492Y-88792050D01*
X73674567Y-88792050D01*
X73653638Y-88777025D01*
X73632872Y-88757464D01*
X73618374Y-88734002D01*
X73610381Y-88708161D01*
X73609128Y-88681462D01*
X73614850Y-88655428D01*
X73627782Y-88631582D01*
X73630591Y-88628004D01*
X73650211Y-88609033D01*
X73673348Y-88596191D01*
X73701602Y-88588693D01*
X73713893Y-88587093D01*
X73742789Y-88581836D01*
X73765740Y-88572043D01*
X73784420Y-88556873D01*
X73792040Y-88547858D01*
X73797340Y-88540505D01*
X73801659Y-88533103D01*
X73805087Y-88524746D01*
X73807714Y-88514523D01*
X73809631Y-88501526D01*
X73810928Y-88484847D01*
X73811696Y-88463577D01*
X73812024Y-88436808D01*
X73812004Y-88403632D01*
X73811725Y-88363138D01*
X73811620Y-88351081D01*
X73810283Y-88202213D01*
X73797465Y-88183983D01*
X73785697Y-88170040D01*
X73771431Y-88156763D01*
X73766411Y-88152935D01*
X73748174Y-88140116D01*
X73379599Y-88138989D01*
X73315319Y-88138795D01*
X73258955Y-88138638D01*
X73209956Y-88138531D01*
X73167774Y-88138483D01*
X73131858Y-88138505D01*
X73101657Y-88138610D01*
X73076622Y-88138808D01*
X73056201Y-88139110D01*
X73039845Y-88139528D01*
X73027004Y-88140072D01*
X73017128Y-88140753D01*
X73009665Y-88141583D01*
X73004067Y-88142572D01*
X72999782Y-88143733D01*
X72996261Y-88145075D01*
X72992953Y-88146610D01*
X72992569Y-88146796D01*
X72972696Y-88160330D01*
X72955561Y-88179243D01*
X72943471Y-88200737D01*
X72940389Y-88210107D01*
X72938873Y-88220621D01*
X72937746Y-88238691D01*
X72937004Y-88264507D01*
X72936643Y-88298262D01*
X72936660Y-88340148D01*
X72936900Y-88375154D01*
X72937270Y-88414220D01*
X72937640Y-88445740D01*
X72938073Y-88470633D01*
X72938627Y-88489822D01*
X72939364Y-88504226D01*
X72940344Y-88514766D01*
X72941628Y-88522361D01*
X72943275Y-88527934D01*
X72945347Y-88532403D01*
X72947472Y-88535996D01*
X72964339Y-88555332D01*
X72988360Y-88571076D01*
X73018845Y-88582823D01*
X73033467Y-88586479D01*
X73043703Y-88587728D01*
X73060695Y-88588730D01*
X73082734Y-88589432D01*
X73108111Y-88589778D01*
X73135067Y-88589715D01*
X73217617Y-88588850D01*
X73219903Y-88502066D01*
X73220931Y-88469477D01*
X73222145Y-88444310D01*
X73223638Y-88425522D01*
X73225499Y-88412071D01*
X73227820Y-88402913D01*
X73228786Y-88400466D01*
X73244268Y-88375311D01*
X73265166Y-88356445D01*
X73290760Y-88344322D01*
X73320331Y-88339398D01*
X73325567Y-88339309D01*
X73353235Y-88342409D01*
X73376802Y-88352107D01*
X73398329Y-88369289D01*
X73400528Y-88371536D01*
X73407390Y-88379074D01*
X73412962Y-88386584D01*
X73417380Y-88395008D01*
X73420776Y-88405288D01*
X73423283Y-88418366D01*
X73425036Y-88435183D01*
X73426167Y-88456681D01*
X73426810Y-88483803D01*
X73427099Y-88517490D01*
X73427167Y-88558683D01*
X73427167Y-88559540D01*
X73427020Y-88598382D01*
X73426597Y-88633443D01*
X73425925Y-88663794D01*
X73425031Y-88688506D01*
X73423941Y-88706648D01*
X73422681Y-88717291D01*
X73422629Y-88717544D01*
X73412851Y-88743992D01*
X73395849Y-88766064D01*
X73371807Y-88783583D01*
X73348850Y-88796283D01*
X72802750Y-88796283D01*
X72782953Y-88784646D01*
X72759306Y-88766385D01*
X72742091Y-88743919D01*
X72731654Y-88718548D01*
X72728344Y-88691575D01*
X72732506Y-88664301D01*
X72744063Y-88638707D01*
X72756670Y-88618427D01*
X72746832Y-88593055D01*
X72740544Y-88574238D01*
X72735112Y-88553570D01*
X72732863Y-88542283D01*
X72731600Y-88529854D01*
X72730583Y-88510426D01*
X72729805Y-88485200D01*
X72729260Y-88455379D01*
X72728939Y-88422165D01*
X72728838Y-88386760D01*
X72728949Y-88350366D01*
X72729266Y-88314186D01*
X72729782Y-88279422D01*
X72730491Y-88247276D01*
X72731385Y-88218950D01*
X72732459Y-88195647D01*
X72733705Y-88178568D01*
X72734915Y-88169750D01*
X72749164Y-88124122D01*
X72770912Y-88081056D01*
X72799358Y-88041447D01*
X72833701Y-88006193D01*
X72873138Y-87976189D01*
X72916869Y-87952333D01*
X72936500Y-87944297D01*
X72967850Y-87932683D01*
X73776417Y-87932683D01*
X73806050Y-87942717D01*
X73851822Y-87962574D01*
X73894101Y-87989554D01*
X73931950Y-88022716D01*
X73964428Y-88061121D01*
X73990597Y-88103831D01*
X74007701Y-88144350D01*
X74010084Y-88151557D01*
X74012056Y-88158347D01*
X74013655Y-88165569D01*
X74014921Y-88174074D01*
X74015891Y-88184709D01*
X74016607Y-88198325D01*
X74017106Y-88215772D01*
X74017427Y-88237898D01*
X74017610Y-88265555D01*
X74017693Y-88299590D01*
X74017716Y-88340853D01*
X74017717Y-88362366D01*
X74017717Y-88550750D01*
X74006323Y-88582908D01*
G36*
X73710697Y-87466188D02*
G01*
X73710573Y-87499174D01*
X73710287Y-87525852D01*
X73709791Y-87547302D01*
X73709033Y-87564602D01*
X73707964Y-87578833D01*
X73706534Y-87591074D01*
X73704694Y-87602404D01*
X73702393Y-87613902D01*
X73701931Y-87616052D01*
X73688102Y-87664280D01*
X73668743Y-87708117D01*
X73644407Y-87746957D01*
X73615644Y-87780192D01*
X73583005Y-87807216D01*
X73547041Y-87827422D01*
X73508303Y-87840202D01*
X73496338Y-87842480D01*
X73486609Y-87843427D01*
X73470325Y-87844194D01*
X73447256Y-87844781D01*
X73417169Y-87845190D01*
X73379833Y-87845422D01*
X73335016Y-87845478D01*
X73282485Y-87845360D01*
X73222010Y-87845068D01*
X73153358Y-87844605D01*
X73135383Y-87844467D01*
X72803383Y-87841849D01*
X72784048Y-87832233D01*
X72764438Y-87818452D01*
X72747437Y-87799045D01*
X72735335Y-87776844D01*
X72732549Y-87768463D01*
X72729163Y-87741149D01*
X72732840Y-87713509D01*
X72742844Y-87687497D01*
X72758440Y-87665069D01*
X72777465Y-87649050D01*
X72797847Y-87636350D01*
X73134732Y-87635248D01*
X73471617Y-87634147D01*
X73478821Y-87624665D01*
X73483409Y-87616023D01*
X73488858Y-87601979D01*
X73494082Y-87585373D01*
X73494696Y-87583145D01*
X73497235Y-87573073D01*
X73499228Y-87563013D01*
X73500742Y-87551799D01*
X73501839Y-87538268D01*
X73502586Y-87521253D01*
X73503046Y-87499590D01*
X73503283Y-87472113D01*
X73503364Y-87437657D01*
X73503367Y-87426730D01*
X73503341Y-87390809D01*
X73503214Y-87362188D01*
X73502907Y-87339702D01*
X73502343Y-87322184D01*
X73501446Y-87308468D01*
X73500138Y-87297388D01*
X73498343Y-87287779D01*
X73495983Y-87278473D01*
X73492981Y-87268305D01*
X73492872Y-87267946D01*
X73487155Y-87251253D01*
X73481209Y-87237214D01*
X73476088Y-87228232D01*
X73474880Y-87226892D01*
X73472748Y-87225655D01*
X73468949Y-87224561D01*
X73462934Y-87223593D01*
X73454155Y-87222736D01*
X73442063Y-87221975D01*
X73426109Y-87221294D01*
X73405745Y-87220677D01*
X73380421Y-87220108D01*
X73349590Y-87219573D01*
X73312703Y-87219055D01*
X73269211Y-87218539D01*
X73218565Y-87218010D01*
X73160216Y-87217450D01*
X73135067Y-87217219D01*
X73072662Y-87216650D01*
X73018151Y-87216130D01*
X72970961Y-87215620D01*
X72930521Y-87215084D01*
X72896258Y-87214483D01*
X72867600Y-87213780D01*
X72843974Y-87212936D01*
X72824808Y-87211915D01*
X72809530Y-87210679D01*
X72797568Y-87209190D01*
X72788349Y-87207409D01*
X72781301Y-87205300D01*
X72775851Y-87202824D01*
X72771428Y-87199945D01*
X72767458Y-87196623D01*
X72763371Y-87192822D01*
X72763247Y-87192706D01*
X72746998Y-87172422D01*
X72735695Y-87147757D01*
X72729944Y-87121117D01*
X72730352Y-87094911D01*
X72734491Y-87078471D01*
X72747951Y-87051933D01*
X72766053Y-87030895D01*
X72774540Y-87024251D01*
X72789426Y-87014050D01*
X73134755Y-87012786D01*
X73205515Y-87012573D01*
X73268082Y-87012485D01*
X73322726Y-87012523D01*
X73369719Y-87012691D01*
X73409333Y-87012992D01*
X73441840Y-87013427D01*
X73467511Y-87013999D01*
X73486618Y-87014711D01*
X73499432Y-87015566D01*
X73504997Y-87016286D01*
X73543912Y-87027976D01*
X73580136Y-87047451D01*
X73613232Y-87074338D01*
X73642765Y-87108262D01*
X73668301Y-87148848D01*
X73675442Y-87162942D01*
X73683982Y-87181326D01*
X73691028Y-87198317D01*
X73696722Y-87214976D01*
X73701207Y-87232363D01*
X73704625Y-87251539D01*
X73707119Y-87273566D01*
X73708830Y-87299502D01*
X73709901Y-87330411D01*
X73710474Y-87367351D01*
X73710691Y-87411384D01*
X73710709Y-87425815D01*
X73710697Y-87466188D01*
G37*
X73710697Y-87466188D02*
X73710573Y-87499174D01*
X73710287Y-87525852D01*
X73709791Y-87547302D01*
X73709033Y-87564602D01*
X73707964Y-87578833D01*
X73706534Y-87591074D01*
X73704694Y-87602404D01*
X73702393Y-87613902D01*
X73701931Y-87616052D01*
X73688102Y-87664280D01*
X73668743Y-87708117D01*
X73644407Y-87746957D01*
X73615644Y-87780192D01*
X73583005Y-87807216D01*
X73547041Y-87827422D01*
X73508303Y-87840202D01*
X73496338Y-87842480D01*
X73486609Y-87843427D01*
X73470325Y-87844194D01*
X73447256Y-87844781D01*
X73417169Y-87845190D01*
X73379833Y-87845422D01*
X73335016Y-87845478D01*
X73282485Y-87845360D01*
X73222010Y-87845068D01*
X73153358Y-87844605D01*
X73135383Y-87844467D01*
X72803383Y-87841849D01*
X72784048Y-87832233D01*
X72764438Y-87818452D01*
X72747437Y-87799045D01*
X72735335Y-87776844D01*
X72732549Y-87768463D01*
X72729163Y-87741149D01*
X72732840Y-87713509D01*
X72742844Y-87687497D01*
X72758440Y-87665069D01*
X72777465Y-87649050D01*
X72797847Y-87636350D01*
X73134732Y-87635248D01*
X73471617Y-87634147D01*
X73478821Y-87624665D01*
X73483409Y-87616023D01*
X73488858Y-87601979D01*
X73494082Y-87585373D01*
X73494696Y-87583145D01*
X73497235Y-87573073D01*
X73499228Y-87563013D01*
X73500742Y-87551799D01*
X73501839Y-87538268D01*
X73502586Y-87521253D01*
X73503046Y-87499590D01*
X73503283Y-87472113D01*
X73503364Y-87437657D01*
X73503367Y-87426730D01*
X73503341Y-87390809D01*
X73503214Y-87362188D01*
X73502907Y-87339702D01*
X73502343Y-87322184D01*
X73501446Y-87308468D01*
X73500138Y-87297388D01*
X73498343Y-87287779D01*
X73495983Y-87278473D01*
X73492981Y-87268305D01*
X73492872Y-87267946D01*
X73487155Y-87251253D01*
X73481209Y-87237214D01*
X73476088Y-87228232D01*
X73474880Y-87226892D01*
X73472748Y-87225655D01*
X73468949Y-87224561D01*
X73462934Y-87223593D01*
X73454155Y-87222736D01*
X73442063Y-87221975D01*
X73426109Y-87221294D01*
X73405745Y-87220677D01*
X73380421Y-87220108D01*
X73349590Y-87219573D01*
X73312703Y-87219055D01*
X73269211Y-87218539D01*
X73218565Y-87218010D01*
X73160216Y-87217450D01*
X73135067Y-87217219D01*
X73072662Y-87216650D01*
X73018151Y-87216130D01*
X72970961Y-87215620D01*
X72930521Y-87215084D01*
X72896258Y-87214483D01*
X72867600Y-87213780D01*
X72843974Y-87212936D01*
X72824808Y-87211915D01*
X72809530Y-87210679D01*
X72797568Y-87209190D01*
X72788349Y-87207409D01*
X72781301Y-87205300D01*
X72775851Y-87202824D01*
X72771428Y-87199945D01*
X72767458Y-87196623D01*
X72763371Y-87192822D01*
X72763247Y-87192706D01*
X72746998Y-87172422D01*
X72735695Y-87147757D01*
X72729944Y-87121117D01*
X72730352Y-87094911D01*
X72734491Y-87078471D01*
X72747951Y-87051933D01*
X72766053Y-87030895D01*
X72774540Y-87024251D01*
X72789426Y-87014050D01*
X73134755Y-87012786D01*
X73205515Y-87012573D01*
X73268082Y-87012485D01*
X73322726Y-87012523D01*
X73369719Y-87012691D01*
X73409333Y-87012992D01*
X73441840Y-87013427D01*
X73467511Y-87013999D01*
X73486618Y-87014711D01*
X73499432Y-87015566D01*
X73504997Y-87016286D01*
X73543912Y-87027976D01*
X73580136Y-87047451D01*
X73613232Y-87074338D01*
X73642765Y-87108262D01*
X73668301Y-87148848D01*
X73675442Y-87162942D01*
X73683982Y-87181326D01*
X73691028Y-87198317D01*
X73696722Y-87214976D01*
X73701207Y-87232363D01*
X73704625Y-87251539D01*
X73707119Y-87273566D01*
X73708830Y-87299502D01*
X73709901Y-87330411D01*
X73710474Y-87367351D01*
X73710691Y-87411384D01*
X73710709Y-87425815D01*
X73710697Y-87466188D01*
G36*
X74434700Y-87706200D02*
G01*
X74434700Y-87168939D01*
X74434701Y-87088110D01*
X74434693Y-87015286D01*
X74434657Y-86950002D01*
X74434578Y-86891798D01*
X74434438Y-86840210D01*
X74434219Y-86794775D01*
X74433905Y-86755031D01*
X74433477Y-86720516D01*
X74432920Y-86690766D01*
X74432216Y-86665319D01*
X74431347Y-86643713D01*
X74430297Y-86625484D01*
X74429047Y-86610170D01*
X74427582Y-86597309D01*
X74425883Y-86586438D01*
X74423934Y-86577094D01*
X74421717Y-86568815D01*
X74419215Y-86561138D01*
X74416411Y-86553600D01*
X74413287Y-86545739D01*
X74411331Y-86540869D01*
X74389856Y-86497568D01*
X74361212Y-86457497D01*
X74335520Y-86429850D01*
X74296159Y-86396981D01*
X74253062Y-86371649D01*
X74205972Y-86353730D01*
X74154630Y-86343101D01*
X74154464Y-86343079D01*
X74145926Y-86342421D01*
X74130794Y-86341831D01*
X74108922Y-86341308D01*
X74080164Y-86340851D01*
X74044375Y-86340460D01*
X74001409Y-86340134D01*
X73951122Y-86339872D01*
X73893366Y-86339674D01*
X73827996Y-86339539D01*
X73754867Y-86339466D01*
X73673833Y-86339456D01*
X73584749Y-86339506D01*
X73487469Y-86339617D01*
X73397533Y-86339760D01*
X73304571Y-86339912D01*
X73219681Y-86340036D01*
X73142468Y-86340149D01*
X73072539Y-86340268D01*
X73009497Y-86340411D01*
X72952950Y-86340593D01*
X72902502Y-86340832D01*
X72857759Y-86341145D01*
X72818326Y-86341549D01*
X72783810Y-86342060D01*
X72753814Y-86342697D01*
X72727946Y-86343475D01*
X72705809Y-86344412D01*
X72687011Y-86345524D01*
X72671155Y-86346830D01*
X72657849Y-86348345D01*
X72646697Y-86350086D01*
X72637304Y-86352071D01*
X72629276Y-86354317D01*
X72622219Y-86356840D01*
X72615739Y-86359657D01*
X72609439Y-86362786D01*
X72602927Y-86366244D01*
X72595808Y-86370046D01*
X72587686Y-86374211D01*
X72586850Y-86374626D01*
X72542941Y-86400116D01*
X72505736Y-86430226D01*
X72474357Y-86465845D01*
X72447927Y-86507861D01*
X72440284Y-86522983D01*
X72431547Y-86542678D01*
X72423337Y-86563693D01*
X72417230Y-86581950D01*
X72416548Y-86584366D01*
X72415989Y-86586682D01*
X72415460Y-86589569D01*
X72414957Y-86593246D01*
X72414482Y-86597929D01*
X72414033Y-86603835D01*
X72413609Y-86611182D01*
X72413210Y-86620188D01*
X72412834Y-86631068D01*
X72412482Y-86644041D01*
X72412153Y-86659323D01*
X72411845Y-86677132D01*
X72411558Y-86697686D01*
X72411291Y-86721200D01*
X72411044Y-86747892D01*
X72410815Y-86777980D01*
X72410605Y-86811681D01*
X72410412Y-86849211D01*
X72410236Y-86890789D01*
X72410075Y-86936631D01*
X72409929Y-86986954D01*
X72409798Y-87041976D01*
X72409680Y-87101914D01*
X72409576Y-87166985D01*
X72409483Y-87237406D01*
X72409402Y-87313394D01*
X72409332Y-87395167D01*
X72409271Y-87482942D01*
X72409220Y-87576936D01*
X72409177Y-87677365D01*
X72409142Y-87784449D01*
X72409113Y-87898402D01*
X72409092Y-88019444D01*
X72409075Y-88147790D01*
X72409064Y-88283659D01*
X72409056Y-88427267D01*
X72409052Y-88578831D01*
X72409050Y-88738569D01*
X72409050Y-88796283D01*
X72409051Y-88958925D01*
X72409054Y-89113317D01*
X72409061Y-89259677D01*
X72409071Y-89398222D01*
X72409085Y-89529169D01*
X72409105Y-89652736D01*
X72409131Y-89769138D01*
X72409164Y-89878595D01*
X72409204Y-89981322D01*
X72409252Y-90077537D01*
X72409309Y-90167458D01*
X72409376Y-90251301D01*
X72409454Y-90329284D01*
X72409542Y-90401623D01*
X72409642Y-90468536D01*
X72409756Y-90530241D01*
X72409882Y-90586954D01*
X72410022Y-90638892D01*
X72410178Y-90686274D01*
X72410349Y-90729315D01*
X72410536Y-90768233D01*
X72410740Y-90803246D01*
X72410962Y-90834570D01*
X72411203Y-90862423D01*
X72411462Y-90887022D01*
X72411742Y-90908583D01*
X72412043Y-90927326D01*
X72412365Y-90943465D01*
X72412709Y-90957219D01*
X72413076Y-90968805D01*
X72413467Y-90978440D01*
X72413882Y-90986342D01*
X72414322Y-90992726D01*
X72414788Y-90997812D01*
X72415281Y-91001815D01*
X72415801Y-91004953D01*
X72416350Y-91007443D01*
X72416548Y-91008200D01*
X72422166Y-91025628D01*
X72430143Y-91046474D01*
X72438902Y-91066658D01*
X72440284Y-91069583D01*
X72465300Y-91113860D01*
X72494980Y-91151453D01*
X72530203Y-91183250D01*
X72571846Y-91210139D01*
X72586850Y-91217941D01*
X72595087Y-91222141D01*
X72602285Y-91225977D01*
X72608837Y-91229467D01*
X72615140Y-91232626D01*
X72621587Y-91235472D01*
X72628572Y-91238023D01*
X72636491Y-91240294D01*
X72645737Y-91242303D01*
X72656706Y-91244067D01*
X72669792Y-91245602D01*
X72685389Y-91246927D01*
X72703892Y-91248057D01*
X72725695Y-91249010D01*
X72751193Y-91249803D01*
X72780781Y-91250452D01*
X72814853Y-91250976D01*
X72853803Y-91251389D01*
X72898026Y-91251711D01*
X72947917Y-91251957D01*
X73003870Y-91252144D01*
X73066279Y-91252290D01*
X73135540Y-91252411D01*
X73212046Y-91252525D01*
X73296192Y-91252649D01*
X73388373Y-91252798D01*
X73397533Y-91252815D01*
X73505035Y-91252980D01*
X73604121Y-91253079D01*
X73694839Y-91253111D01*
X73777239Y-91253076D01*
X73851372Y-91252973D01*
X73917286Y-91252804D01*
X73975032Y-91252566D01*
X74024659Y-91252260D01*
X74066217Y-91251887D01*
X74099755Y-91251445D01*
X74125322Y-91250935D01*
X74142970Y-91250355D01*
X74152747Y-91249707D01*
X74153183Y-91249653D01*
X74204740Y-91238872D01*
X74252655Y-91220770D01*
X74296333Y-91195770D01*
X74335180Y-91164295D01*
X74368598Y-91126768D01*
X74395993Y-91083612D01*
X74400953Y-91073816D01*
X74405391Y-91064895D01*
X74409392Y-91057048D01*
X74412981Y-91049818D01*
X74416181Y-91042748D01*
X74419016Y-91035380D01*
X74421511Y-91027259D01*
X74423689Y-91017926D01*
X74425574Y-91006925D01*
X74427191Y-90993799D01*
X74428563Y-90978090D01*
X74429714Y-90959342D01*
X74430670Y-90937098D01*
X74431452Y-90910900D01*
X74432086Y-90880292D01*
X74432596Y-90844817D01*
X74433005Y-90804017D01*
X74433338Y-90757435D01*
X74433618Y-90704615D01*
X74433870Y-90645099D01*
X74434117Y-90578431D01*
X74434384Y-90504153D01*
X74434653Y-90432587D01*
X74436817Y-89876023D01*
X74457983Y-89875903D01*
X74479150Y-89875783D01*
X74479150Y-91006083D01*
X74465505Y-91046300D01*
X74443506Y-91098423D01*
X74414746Y-91145752D01*
X74379752Y-91187798D01*
X74339052Y-91224073D01*
X74293171Y-91254087D01*
X74242636Y-91277352D01*
X74202986Y-91289825D01*
X74161650Y-91300461D01*
X73410233Y-91299322D01*
X72658817Y-91298183D01*
X72622834Y-91286168D01*
X72568204Y-91263812D01*
X72519240Y-91235181D01*
X72476078Y-91200412D01*
X72438859Y-91159644D01*
X72407721Y-91113017D01*
X72382802Y-91060669D01*
X72374499Y-91037833D01*
X72362484Y-91001850D01*
X72361749Y-88806867D01*
X72361697Y-88640399D01*
X72361653Y-88482197D01*
X72361618Y-88332062D01*
X72361593Y-88189793D01*
X72361578Y-88055189D01*
X72361574Y-87928051D01*
X72361581Y-87808178D01*
X72361599Y-87695370D01*
X72361630Y-87589426D01*
X72361672Y-87490147D01*
X72361728Y-87397332D01*
X72361797Y-87310781D01*
X72361880Y-87230293D01*
X72361977Y-87155669D01*
X72362088Y-87086708D01*
X72362215Y-87023210D01*
X72362357Y-86964974D01*
X72362515Y-86911801D01*
X72362690Y-86863490D01*
X72362882Y-86819841D01*
X72363091Y-86780653D01*
X72363318Y-86745727D01*
X72363563Y-86714862D01*
X72363826Y-86687857D01*
X72364109Y-86664514D01*
X72364412Y-86644630D01*
X72364734Y-86628007D01*
X72365077Y-86614443D01*
X72365441Y-86603740D01*
X72365827Y-86595695D01*
X72366234Y-86590109D01*
X72366663Y-86586783D01*
X72366726Y-86586483D01*
X72383248Y-86531243D01*
X72406793Y-86480577D01*
X72437049Y-86434822D01*
X72473709Y-86394318D01*
X72516461Y-86359403D01*
X72564998Y-86330416D01*
X72619008Y-86307695D01*
X72622834Y-86306398D01*
X72658817Y-86294383D01*
X73410233Y-86293244D01*
X74161650Y-86292105D01*
X74202986Y-86302741D01*
X74256594Y-86320755D01*
X74305935Y-86345875D01*
X74350480Y-86377614D01*
X74389704Y-86415481D01*
X74423080Y-86458990D01*
X74450081Y-86507651D01*
X74465505Y-86546266D01*
X74479150Y-86586483D01*
X74480299Y-87146342D01*
X74481448Y-87706200D01*
X74434700Y-87706200D01*
G37*
X74434700Y-87706200D02*
X74434700Y-87168939D01*
X74434701Y-87088110D01*
X74434693Y-87015286D01*
X74434657Y-86950002D01*
X74434578Y-86891798D01*
X74434438Y-86840210D01*
X74434219Y-86794775D01*
X74433905Y-86755031D01*
X74433477Y-86720516D01*
X74432920Y-86690766D01*
X74432216Y-86665319D01*
X74431347Y-86643713D01*
X74430297Y-86625484D01*
X74429047Y-86610170D01*
X74427582Y-86597309D01*
X74425883Y-86586438D01*
X74423934Y-86577094D01*
X74421717Y-86568815D01*
X74419215Y-86561138D01*
X74416411Y-86553600D01*
X74413287Y-86545739D01*
X74411331Y-86540869D01*
X74389856Y-86497568D01*
X74361212Y-86457497D01*
X74335520Y-86429850D01*
X74296159Y-86396981D01*
X74253062Y-86371649D01*
X74205972Y-86353730D01*
X74154630Y-86343101D01*
X74154464Y-86343079D01*
X74145926Y-86342421D01*
X74130794Y-86341831D01*
X74108922Y-86341308D01*
X74080164Y-86340851D01*
X74044375Y-86340460D01*
X74001409Y-86340134D01*
X73951122Y-86339872D01*
X73893366Y-86339674D01*
X73827996Y-86339539D01*
X73754867Y-86339466D01*
X73673833Y-86339456D01*
X73584749Y-86339506D01*
X73487469Y-86339617D01*
X73397533Y-86339760D01*
X73304571Y-86339912D01*
X73219681Y-86340036D01*
X73142468Y-86340149D01*
X73072539Y-86340268D01*
X73009497Y-86340411D01*
X72952950Y-86340593D01*
X72902502Y-86340832D01*
X72857759Y-86341145D01*
X72818326Y-86341549D01*
X72783810Y-86342060D01*
X72753814Y-86342697D01*
X72727946Y-86343475D01*
X72705809Y-86344412D01*
X72687011Y-86345524D01*
X72671155Y-86346830D01*
X72657849Y-86348345D01*
X72646697Y-86350086D01*
X72637304Y-86352071D01*
X72629276Y-86354317D01*
X72622219Y-86356840D01*
X72615739Y-86359657D01*
X72609439Y-86362786D01*
X72602927Y-86366244D01*
X72595808Y-86370046D01*
X72587686Y-86374211D01*
X72586850Y-86374626D01*
X72542941Y-86400116D01*
X72505736Y-86430226D01*
X72474357Y-86465845D01*
X72447927Y-86507861D01*
X72440284Y-86522983D01*
X72431547Y-86542678D01*
X72423337Y-86563693D01*
X72417230Y-86581950D01*
X72416548Y-86584366D01*
X72415989Y-86586682D01*
X72415460Y-86589569D01*
X72414957Y-86593246D01*
X72414482Y-86597929D01*
X72414033Y-86603835D01*
X72413609Y-86611182D01*
X72413210Y-86620188D01*
X72412834Y-86631068D01*
X72412482Y-86644041D01*
X72412153Y-86659323D01*
X72411845Y-86677132D01*
X72411558Y-86697686D01*
X72411291Y-86721200D01*
X72411044Y-86747892D01*
X72410815Y-86777980D01*
X72410605Y-86811681D01*
X72410412Y-86849211D01*
X72410236Y-86890789D01*
X72410075Y-86936631D01*
X72409929Y-86986954D01*
X72409798Y-87041976D01*
X72409680Y-87101914D01*
X72409576Y-87166985D01*
X72409483Y-87237406D01*
X72409402Y-87313394D01*
X72409332Y-87395167D01*
X72409271Y-87482942D01*
X72409220Y-87576936D01*
X72409177Y-87677365D01*
X72409142Y-87784449D01*
X72409113Y-87898402D01*
X72409092Y-88019444D01*
X72409075Y-88147790D01*
X72409064Y-88283659D01*
X72409056Y-88427267D01*
X72409052Y-88578831D01*
X72409050Y-88738569D01*
X72409050Y-88796283D01*
X72409051Y-88958925D01*
X72409054Y-89113317D01*
X72409061Y-89259677D01*
X72409071Y-89398222D01*
X72409085Y-89529169D01*
X72409105Y-89652736D01*
X72409131Y-89769138D01*
X72409164Y-89878595D01*
X72409204Y-89981322D01*
X72409252Y-90077537D01*
X72409309Y-90167458D01*
X72409376Y-90251301D01*
X72409454Y-90329284D01*
X72409542Y-90401623D01*
X72409642Y-90468536D01*
X72409756Y-90530241D01*
X72409882Y-90586954D01*
X72410022Y-90638892D01*
X72410178Y-90686274D01*
X72410349Y-90729315D01*
X72410536Y-90768233D01*
X72410740Y-90803246D01*
X72410962Y-90834570D01*
X72411203Y-90862423D01*
X72411462Y-90887022D01*
X72411742Y-90908583D01*
X72412043Y-90927326D01*
X72412365Y-90943465D01*
X72412709Y-90957219D01*
X72413076Y-90968805D01*
X72413467Y-90978440D01*
X72413882Y-90986342D01*
X72414322Y-90992726D01*
X72414788Y-90997812D01*
X72415281Y-91001815D01*
X72415801Y-91004953D01*
X72416350Y-91007443D01*
X72416548Y-91008200D01*
X72422166Y-91025628D01*
X72430143Y-91046474D01*
X72438902Y-91066658D01*
X72440284Y-91069583D01*
X72465300Y-91113860D01*
X72494980Y-91151453D01*
X72530203Y-91183250D01*
X72571846Y-91210139D01*
X72586850Y-91217941D01*
X72595087Y-91222141D01*
X72602285Y-91225977D01*
X72608837Y-91229467D01*
X72615140Y-91232626D01*
X72621587Y-91235472D01*
X72628572Y-91238023D01*
X72636491Y-91240294D01*
X72645737Y-91242303D01*
X72656706Y-91244067D01*
X72669792Y-91245602D01*
X72685389Y-91246927D01*
X72703892Y-91248057D01*
X72725695Y-91249010D01*
X72751193Y-91249803D01*
X72780781Y-91250452D01*
X72814853Y-91250976D01*
X72853803Y-91251389D01*
X72898026Y-91251711D01*
X72947917Y-91251957D01*
X73003870Y-91252144D01*
X73066279Y-91252290D01*
X73135540Y-91252411D01*
X73212046Y-91252525D01*
X73296192Y-91252649D01*
X73388373Y-91252798D01*
X73397533Y-91252815D01*
X73505035Y-91252980D01*
X73604121Y-91253079D01*
X73694839Y-91253111D01*
X73777239Y-91253076D01*
X73851372Y-91252973D01*
X73917286Y-91252804D01*
X73975032Y-91252566D01*
X74024659Y-91252260D01*
X74066217Y-91251887D01*
X74099755Y-91251445D01*
X74125322Y-91250935D01*
X74142970Y-91250355D01*
X74152747Y-91249707D01*
X74153183Y-91249653D01*
X74204740Y-91238872D01*
X74252655Y-91220770D01*
X74296333Y-91195770D01*
X74335180Y-91164295D01*
X74368598Y-91126768D01*
X74395993Y-91083612D01*
X74400953Y-91073816D01*
X74405391Y-91064895D01*
X74409392Y-91057048D01*
X74412981Y-91049818D01*
X74416181Y-91042748D01*
X74419016Y-91035380D01*
X74421511Y-91027259D01*
X74423689Y-91017926D01*
X74425574Y-91006925D01*
X74427191Y-90993799D01*
X74428563Y-90978090D01*
X74429714Y-90959342D01*
X74430670Y-90937098D01*
X74431452Y-90910900D01*
X74432086Y-90880292D01*
X74432596Y-90844817D01*
X74433005Y-90804017D01*
X74433338Y-90757435D01*
X74433618Y-90704615D01*
X74433870Y-90645099D01*
X74434117Y-90578431D01*
X74434384Y-90504153D01*
X74434653Y-90432587D01*
X74436817Y-89876023D01*
X74457983Y-89875903D01*
X74479150Y-89875783D01*
X74479150Y-91006083D01*
X74465505Y-91046300D01*
X74443506Y-91098423D01*
X74414746Y-91145752D01*
X74379752Y-91187798D01*
X74339052Y-91224073D01*
X74293171Y-91254087D01*
X74242636Y-91277352D01*
X74202986Y-91289825D01*
X74161650Y-91300461D01*
X73410233Y-91299322D01*
X72658817Y-91298183D01*
X72622834Y-91286168D01*
X72568204Y-91263812D01*
X72519240Y-91235181D01*
X72476078Y-91200412D01*
X72438859Y-91159644D01*
X72407721Y-91113017D01*
X72382802Y-91060669D01*
X72374499Y-91037833D01*
X72362484Y-91001850D01*
X72361749Y-88806867D01*
X72361697Y-88640399D01*
X72361653Y-88482197D01*
X72361618Y-88332062D01*
X72361593Y-88189793D01*
X72361578Y-88055189D01*
X72361574Y-87928051D01*
X72361581Y-87808178D01*
X72361599Y-87695370D01*
X72361630Y-87589426D01*
X72361672Y-87490147D01*
X72361728Y-87397332D01*
X72361797Y-87310781D01*
X72361880Y-87230293D01*
X72361977Y-87155669D01*
X72362088Y-87086708D01*
X72362215Y-87023210D01*
X72362357Y-86964974D01*
X72362515Y-86911801D01*
X72362690Y-86863490D01*
X72362882Y-86819841D01*
X72363091Y-86780653D01*
X72363318Y-86745727D01*
X72363563Y-86714862D01*
X72363826Y-86687857D01*
X72364109Y-86664514D01*
X72364412Y-86644630D01*
X72364734Y-86628007D01*
X72365077Y-86614443D01*
X72365441Y-86603740D01*
X72365827Y-86595695D01*
X72366234Y-86590109D01*
X72366663Y-86586783D01*
X72366726Y-86586483D01*
X72383248Y-86531243D01*
X72406793Y-86480577D01*
X72437049Y-86434822D01*
X72473709Y-86394318D01*
X72516461Y-86359403D01*
X72564998Y-86330416D01*
X72619008Y-86307695D01*
X72622834Y-86306398D01*
X72658817Y-86294383D01*
X73410233Y-86293244D01*
X74161650Y-86292105D01*
X74202986Y-86302741D01*
X74256594Y-86320755D01*
X74305935Y-86345875D01*
X74350480Y-86377614D01*
X74389704Y-86415481D01*
X74423080Y-86458990D01*
X74450081Y-86507651D01*
X74465505Y-86546266D01*
X74479150Y-86586483D01*
X74480299Y-87146342D01*
X74481448Y-87706200D01*
X74434700Y-87706200D01*
D11*
X79170000Y-118820000D02*
X81830000Y-118820000D01*
X79170000Y-100980000D02*
X79170000Y-118820000D01*
X81830000Y-100980000D02*
X81830000Y-118820000D01*
X79170000Y-100980000D02*
X81830000Y-100980000D01*
X79170000Y-99710000D02*
X79170000Y-98380000D01*
X79170000Y-98380000D02*
X80500000Y-98380000D01*
X77671900Y-63432500D02*
X78841900Y-63432500D01*
X82241900Y-63432500D02*
X81071900Y-63432500D01*
X81481900Y-68012500D02*
X81071900Y-68012500D01*
X78431900Y-68012500D02*
X78841900Y-68012500D01*
X77671900Y-67242500D02*
X77671900Y-63432500D01*
X77671900Y-67242500D02*
X78431900Y-68012500D01*
X82241900Y-67242500D02*
X82241900Y-63432500D01*
X82241900Y-67242500D02*
X81481900Y-68012500D01*
X59940000Y-56265000D02*
X59940000Y-56665000D01*
X64520000Y-55495000D02*
X64520000Y-56665000D01*
X64520000Y-60075000D02*
X64520000Y-58905000D01*
X59940000Y-59305000D02*
X59940000Y-58905000D01*
X60710000Y-60075000D02*
X64520000Y-60075000D01*
X60710000Y-60075000D02*
X59940000Y-59305000D01*
X60710000Y-55495000D02*
X64520000Y-55495000D01*
X60710000Y-55495000D02*
X59940000Y-56265000D01*
X75315000Y-77710000D02*
X75315000Y-78880000D01*
X75315000Y-82280000D02*
X75315000Y-81110000D01*
X70735000Y-81520000D02*
X70735000Y-81110000D01*
X70735000Y-78470000D02*
X70735000Y-78880000D01*
X71505000Y-77710000D02*
X75315000Y-77710000D01*
X71505000Y-77710000D02*
X70735000Y-78470000D01*
X71505000Y-82280000D02*
X75315000Y-82280000D01*
X71505000Y-82280000D02*
X70735000Y-81520000D01*
X51935000Y-103290000D02*
X50935000Y-103290000D01*
X50935000Y-104990000D02*
X51935000Y-104990000D01*
X42760000Y-74795000D02*
X42760000Y-73795000D01*
X41060000Y-73795000D02*
X41060000Y-74795000D01*
X76057000Y-103493000D02*
X72857000Y-103493000D01*
X72857000Y-101993000D02*
X76057000Y-101993000D01*
X72857000Y-101993000D02*
X72857000Y-103493000D01*
X76057000Y-101207000D02*
X72857000Y-101207000D01*
X72857000Y-99707000D02*
X76057000Y-99707000D01*
X72857000Y-99707000D02*
X72857000Y-101207000D01*
X76057000Y-99048000D02*
X72857000Y-99048000D01*
X72857000Y-97548000D02*
X76057000Y-97548000D01*
X72857000Y-97548000D02*
X72857000Y-99048000D01*
X76057000Y-96762000D02*
X72857000Y-96762000D01*
X72857000Y-95262000D02*
X76057000Y-95262000D01*
X72857000Y-95262000D02*
X72857000Y-96762000D01*
X51149415Y-118273773D02*
G75*
G03X45801600Y-117809770I-2787815J-1080827D01*
G01*
X51149415Y-120435427D02*
G75*
G02X45801600Y-120899430I-2787815J1080827D01*
G01*
X50616079Y-118274171D02*
G75*
G03X46106916Y-118274600I-2254479J-1080429D01*
G01*
X50616079Y-120435029D02*
G75*
G02X46106916Y-120434600I-2254479J1080429D01*
G01*
X45801600Y-117809600D02*
X45801600Y-118274600D01*
X45801600Y-120434600D02*
X45801600Y-120899600D01*
X66739200Y-77028800D02*
X66739200Y-80228800D01*
X65239200Y-80228800D02*
X65239200Y-77028800D01*
X65239200Y-80228800D02*
X66739200Y-80228800D01*
X63691200Y-76978000D02*
X63691200Y-80178000D01*
X62191200Y-80178000D02*
X62191200Y-76978000D01*
X62191200Y-80178000D02*
X63691200Y-80178000D01*
X50075400Y-110347000D02*
X50075400Y-107147000D01*
X51575400Y-107147000D02*
X51575400Y-110347000D01*
X51575400Y-107147000D02*
X50075400Y-107147000D01*
X46595600Y-110270800D02*
X46595600Y-107070800D01*
X48095600Y-107070800D02*
X48095600Y-110270800D01*
X48095600Y-107070800D02*
X46595600Y-107070800D01*
X61075000Y-74565000D02*
X61075000Y-77765000D01*
X59575000Y-77765000D02*
X59575000Y-74565000D01*
X59575000Y-77765000D02*
X61075000Y-77765000D01*
X79170000Y-95130000D02*
X81830000Y-95130000D01*
X79170000Y-72210000D02*
X79170000Y-95130000D01*
X81830000Y-72210000D02*
X81830000Y-95130000D01*
X79170000Y-72210000D02*
X81830000Y-72210000D01*
X79170000Y-70940000D02*
X79170000Y-69610000D01*
X79170000Y-69610000D02*
X80500000Y-69610000D01*
X31210000Y-101020000D02*
X33870000Y-101020000D01*
X31210000Y-83180000D02*
X31210000Y-101020000D01*
X33870000Y-83180000D02*
X33870000Y-101020000D01*
X31210000Y-83180000D02*
X33870000Y-83180000D01*
X31210000Y-81910000D02*
X31210000Y-80580000D01*
X31210000Y-80580000D02*
X32540000Y-80580000D01*
X75605000Y-56075000D02*
X67905000Y-56075000D01*
X75605000Y-55075000D02*
X67905000Y-55075000D01*
X67905000Y-55075000D02*
X67905000Y-64275000D01*
X67905000Y-64275000D02*
X75605000Y-64275000D01*
X75605000Y-64275000D02*
X75605000Y-55075000D01*
X31210000Y-118830000D02*
X33870000Y-118830000D01*
X31210000Y-106070000D02*
X31210000Y-118830000D01*
X33870000Y-106070000D02*
X33870000Y-118830000D01*
X31210000Y-106070000D02*
X33870000Y-106070000D01*
X31210000Y-104800000D02*
X31210000Y-103470000D01*
X31210000Y-103470000D02*
X32540000Y-103470000D01*
D12*
X35443160Y-61335920D02*
X35443160Y-66934080D01*
X35941000Y-66735960D02*
X35443160Y-66735960D01*
X35443160Y-61534040D02*
X35941000Y-61534040D01*
X35941000Y-64135000D02*
X35443160Y-64135000D01*
X30142180Y-66934080D02*
X30142180Y-61335920D01*
X35941000Y-66934080D02*
X35941000Y-61335920D01*
X35941000Y-61335920D02*
X29743400Y-61335920D01*
X29743400Y-61335920D02*
X29743400Y-66934080D01*
X29743400Y-66934080D02*
X35941000Y-66934080D01*
X35443160Y-69298820D02*
X35443160Y-74896980D01*
X35941000Y-74698860D02*
X35443160Y-74698860D01*
X35443160Y-69496940D02*
X35941000Y-69496940D01*
X35941000Y-72097900D02*
X35443160Y-72097900D01*
X30142180Y-74896980D02*
X30142180Y-69298820D01*
X35941000Y-74896980D02*
X35941000Y-69298820D01*
X35941000Y-69298820D02*
X29743400Y-69298820D01*
X29743400Y-69298820D02*
X29743400Y-74896980D01*
X29743400Y-74896980D02*
X35941000Y-74896980D01*
D11*
X53915000Y-81855000D02*
X53915000Y-87055000D01*
X59055000Y-81855000D02*
X53915000Y-81855000D01*
X61655000Y-87055000D02*
X53915000Y-87055000D01*
X59055000Y-81855000D02*
X59055000Y-84455000D01*
X59055000Y-84455000D02*
X61655000Y-84455000D01*
X61655000Y-84455000D02*
X61655000Y-87055000D01*
X60325000Y-81855000D02*
X61655000Y-81855000D01*
X61655000Y-81855000D02*
X61655000Y-83185000D01*
X52645000Y-121980000D02*
X57845000Y-121980000D01*
X52645000Y-116840000D02*
X52645000Y-121980000D01*
X57845000Y-114240000D02*
X57845000Y-121980000D01*
X52645000Y-116840000D02*
X55245000Y-116840000D01*
X55245000Y-116840000D02*
X55245000Y-114240000D01*
X55245000Y-114240000D02*
X57845000Y-114240000D01*
X52645000Y-115570000D02*
X52645000Y-114240000D01*
X52645000Y-114240000D02*
X53975000Y-114240000D01*
X39430000Y-58480000D02*
X39430000Y-55820000D01*
X36830000Y-58480000D02*
X39430000Y-58480000D01*
X36830000Y-55820000D02*
X39430000Y-55820000D01*
X36830000Y-58480000D02*
X36830000Y-55820000D01*
X35560000Y-58480000D02*
X34230000Y-58480000D01*
X34230000Y-58480000D02*
X34230000Y-57150000D01*
D12*
X73380600Y-70345300D02*
G75*
G03X73380600Y-70345300I-254000J0D01*
G01*
X77987130Y-70345300D02*
G75*
G03X77987130Y-70345300I-5622530J0D01*
G01*
D11*
X40287600Y-112212880D02*
X40287600Y-114212880D01*
X38147600Y-114212880D02*
X38147600Y-112212880D01*
X42822520Y-111821720D02*
X42822520Y-113821720D01*
X40682520Y-113821720D02*
X40682520Y-111821720D01*
X45326960Y-111440720D02*
X45326960Y-113440720D01*
X43186960Y-113440720D02*
X43186960Y-111440720D01*
X52085900Y-83906100D02*
X52085900Y-85906100D01*
X49945900Y-85906100D02*
X49945900Y-83906100D01*
X63065000Y-72850000D02*
X63065000Y-70850000D01*
X65205000Y-70850000D02*
X65205000Y-72850000D01*
X36489842Y-120664824D02*
G75*
G02X36510000Y-118355000I20158J1154824D01*
G01*
X36489226Y-118356043D02*
G75*
G02X37653000Y-119670000I20774J-1153957D01*
G01*
X35120000Y-118110000D02*
X35120000Y-123180000D01*
X35120000Y-123180000D02*
X36110000Y-123180000D01*
X36110000Y-123180000D02*
X36110000Y-122800000D01*
X36110000Y-122800000D02*
X43900000Y-122800000D01*
X43900000Y-122800000D02*
X43900000Y-123180000D01*
X43900000Y-123180000D02*
X44890000Y-123180000D01*
X44890000Y-123180000D02*
X44890000Y-118110000D01*
X44890000Y-118110000D02*
X35120000Y-118110000D01*
X35634000Y-120244000D02*
X37245000Y-118634000D01*
X35774000Y-120385000D02*
X36467000Y-119693000D01*
X36507000Y-119652000D02*
X37386000Y-118775000D01*
X34880000Y-119870000D02*
X34880000Y-117870000D01*
X34880000Y-117870000D02*
X36880000Y-117870000D01*
X65310000Y-113780000D02*
X65310000Y-119900000D01*
X65310000Y-119900000D02*
X61690000Y-119900000D01*
X61690000Y-119900000D02*
X61690000Y-113780000D01*
X61690000Y-113780000D02*
X65310000Y-113780000D01*
X69424800Y-113780000D02*
X69424800Y-119900000D01*
X69424800Y-119900000D02*
X65804800Y-119900000D01*
X65804800Y-119900000D02*
X65804800Y-113780000D01*
X65804800Y-113780000D02*
X69424800Y-113780000D01*
X73565000Y-113780000D02*
X73565000Y-119900000D01*
X73565000Y-119900000D02*
X69945000Y-119900000D01*
X69945000Y-119900000D02*
X69945000Y-113780000D01*
X69945000Y-113780000D02*
X73565000Y-113780000D01*
X78010000Y-113780000D02*
X78010000Y-119900000D01*
X78010000Y-119900000D02*
X74390000Y-119900000D01*
X74390000Y-119900000D02*
X74390000Y-113780000D01*
X74390000Y-113780000D02*
X78010000Y-113780000D01*
X57670000Y-92615000D02*
X51550000Y-92615000D01*
X51550000Y-92615000D02*
X51550000Y-88995000D01*
X51550000Y-88995000D02*
X57670000Y-88995000D01*
X57670000Y-88995000D02*
X57670000Y-92615000D01*
X62770000Y-63615000D02*
X62770000Y-69735000D01*
X62770000Y-69735000D02*
X59150000Y-69735000D01*
X59150000Y-69735000D02*
X59150000Y-63615000D01*
X59150000Y-63615000D02*
X62770000Y-63615000D01*
X42180000Y-98485000D02*
G75*
G02X44180000Y-98485000I1000000J0D01*
G01*
X44180000Y-98485000D02*
X45830000Y-98485000D01*
X45830000Y-98485000D02*
X45830000Y-78045000D01*
X45830000Y-78045000D02*
X40530000Y-78045000D01*
X40530000Y-78045000D02*
X40530000Y-98485000D01*
X40530000Y-98485000D02*
X42180000Y-98485000D01*
D12*
X56420000Y-96425000D02*
X56420000Y-97000000D01*
X66770000Y-96425000D02*
X66770000Y-97100000D01*
X66770000Y-106775000D02*
X66770000Y-106100000D01*
X56420000Y-106775000D02*
X56420000Y-106100000D01*
X56420000Y-96425000D02*
X57095000Y-96425000D01*
X56420000Y-106775000D02*
X57095000Y-106775000D01*
X66770000Y-106775000D02*
X66095000Y-106775000D01*
X66770000Y-96425000D02*
X66095000Y-96425000D01*
X56420000Y-97000000D02*
X55145000Y-97000000D01*
D11*
X65620000Y-66540000D02*
X65620000Y-65540000D01*
X63920000Y-65540000D02*
X63920000Y-66540000D01*
D12*
X80166666Y-119482380D02*
X80166666Y-120196666D01*
X80119047Y-120339523D01*
X80023809Y-120434761D01*
X79880952Y-120482380D01*
X79785714Y-120482380D01*
X81071428Y-119815714D02*
X81071428Y-120482380D01*
X80833333Y-119434761D02*
X80595238Y-120149047D01*
X81214285Y-120149047D01*
X79906833Y-61469542D02*
X79859214Y-61517161D01*
X79716357Y-61564780D01*
X79621119Y-61564780D01*
X79478261Y-61517161D01*
X79383023Y-61421923D01*
X79335404Y-61326685D01*
X79287785Y-61136209D01*
X79287785Y-60993352D01*
X79335404Y-60802876D01*
X79383023Y-60707638D01*
X79478261Y-60612400D01*
X79621119Y-60564780D01*
X79716357Y-60564780D01*
X79859214Y-60612400D01*
X79906833Y-60660019D01*
X80240166Y-60564780D02*
X80859214Y-60564780D01*
X80525880Y-60945733D01*
X80668738Y-60945733D01*
X80763976Y-60993352D01*
X80811595Y-61040971D01*
X80859214Y-61136209D01*
X80859214Y-61374304D01*
X80811595Y-61469542D01*
X80763976Y-61517161D01*
X80668738Y-61564780D01*
X80383023Y-61564780D01*
X80287785Y-61517161D01*
X80240166Y-61469542D01*
X82033328Y-68883452D02*
X82033328Y-68121547D01*
X82414280Y-68502500D02*
X81652376Y-68502500D01*
X64819233Y-60009042D02*
X64771614Y-60056661D01*
X64628757Y-60104280D01*
X64533519Y-60104280D01*
X64390661Y-60056661D01*
X64295423Y-59961423D01*
X64247804Y-59866185D01*
X64200185Y-59675709D01*
X64200185Y-59532852D01*
X64247804Y-59342376D01*
X64295423Y-59247138D01*
X64390661Y-59151900D01*
X64533519Y-59104280D01*
X64628757Y-59104280D01*
X64771614Y-59151900D01*
X64819233Y-59199519D01*
X65152566Y-59104280D02*
X65819233Y-59104280D01*
X65390661Y-60104280D01*
X59079047Y-59866428D02*
X59840952Y-59866428D01*
X59460000Y-60247380D02*
X59460000Y-59485476D01*
X72382142Y-83947142D02*
X72334523Y-83994761D01*
X72191666Y-84042380D01*
X72096428Y-84042380D01*
X71953571Y-83994761D01*
X71858333Y-83899523D01*
X71810714Y-83804285D01*
X71763095Y-83613809D01*
X71763095Y-83470952D01*
X71810714Y-83280476D01*
X71858333Y-83185238D01*
X71953571Y-83090000D01*
X72096428Y-83042380D01*
X72191666Y-83042380D01*
X72334523Y-83090000D01*
X72382142Y-83137619D01*
X73334523Y-84042380D02*
X72763095Y-84042380D01*
X73048809Y-84042380D02*
X73048809Y-83042380D01*
X72953571Y-83185238D01*
X72858333Y-83280476D01*
X72763095Y-83328095D01*
X73953571Y-83042380D02*
X74048809Y-83042380D01*
X74144047Y-83090000D01*
X74191666Y-83137619D01*
X74239285Y-83232857D01*
X74286904Y-83423333D01*
X74286904Y-83661428D01*
X74239285Y-83851904D01*
X74191666Y-83947142D01*
X74144047Y-83994761D01*
X74048809Y-84042380D01*
X73953571Y-84042380D01*
X73858333Y-83994761D01*
X73810714Y-83947142D01*
X73763095Y-83851904D01*
X73715476Y-83661428D01*
X73715476Y-83423333D01*
X73763095Y-83232857D01*
X73810714Y-83137619D01*
X73858333Y-83090000D01*
X73953571Y-83042380D01*
X69864047Y-82071428D02*
X70625952Y-82071428D01*
X70245000Y-82452380D02*
X70245000Y-81690476D01*
X50817542Y-106046542D02*
X50769923Y-106094161D01*
X50627066Y-106141780D01*
X50531828Y-106141780D01*
X50388971Y-106094161D01*
X50293733Y-105998923D01*
X50246114Y-105903685D01*
X50198495Y-105713209D01*
X50198495Y-105570352D01*
X50246114Y-105379876D01*
X50293733Y-105284638D01*
X50388971Y-105189400D01*
X50531828Y-105141780D01*
X50627066Y-105141780D01*
X50769923Y-105189400D01*
X50817542Y-105237019D01*
X51769923Y-106141780D02*
X51198495Y-106141780D01*
X51484209Y-106141780D02*
X51484209Y-105141780D01*
X51388971Y-105284638D01*
X51293733Y-105379876D01*
X51198495Y-105427495D01*
X52722304Y-106141780D02*
X52150876Y-106141780D01*
X52436590Y-106141780D02*
X52436590Y-105141780D01*
X52341352Y-105284638D01*
X52246114Y-105379876D01*
X52150876Y-105427495D01*
X41292542Y-71286642D02*
X41244923Y-71334261D01*
X41102066Y-71381880D01*
X41006828Y-71381880D01*
X40863971Y-71334261D01*
X40768733Y-71239023D01*
X40721114Y-71143785D01*
X40673495Y-70953309D01*
X40673495Y-70810452D01*
X40721114Y-70619976D01*
X40768733Y-70524738D01*
X40863971Y-70429500D01*
X41006828Y-70381880D01*
X41102066Y-70381880D01*
X41244923Y-70429500D01*
X41292542Y-70477119D01*
X42244923Y-71381880D02*
X41673495Y-71381880D01*
X41959209Y-71381880D02*
X41959209Y-70381880D01*
X41863971Y-70524738D01*
X41768733Y-70619976D01*
X41673495Y-70667595D01*
X42816352Y-70810452D02*
X42721114Y-70762833D01*
X42673495Y-70715214D01*
X42625876Y-70619976D01*
X42625876Y-70572357D01*
X42673495Y-70477119D01*
X42721114Y-70429500D01*
X42816352Y-70381880D01*
X43006828Y-70381880D01*
X43102066Y-70429500D01*
X43149685Y-70477119D01*
X43197304Y-70572357D01*
X43197304Y-70619976D01*
X43149685Y-70715214D01*
X43102066Y-70762833D01*
X43006828Y-70810452D01*
X42816352Y-70810452D01*
X42721114Y-70858071D01*
X42673495Y-70905690D01*
X42625876Y-71000928D01*
X42625876Y-71191404D01*
X42673495Y-71286642D01*
X42721114Y-71334261D01*
X42816352Y-71381880D01*
X43006828Y-71381880D01*
X43102066Y-71334261D01*
X43149685Y-71286642D01*
X43197304Y-71191404D01*
X43197304Y-71000928D01*
X43149685Y-70905690D01*
X43102066Y-70858071D01*
X43006828Y-70810452D01*
X71143904Y-103195380D02*
X71143904Y-102195380D01*
X71382000Y-102195380D01*
X71524857Y-102243000D01*
X71620095Y-102338238D01*
X71667714Y-102433476D01*
X71715333Y-102623952D01*
X71715333Y-102766809D01*
X71667714Y-102957285D01*
X71620095Y-103052523D01*
X71524857Y-103147761D01*
X71382000Y-103195380D01*
X71143904Y-103195380D01*
X72048666Y-102195380D02*
X72667714Y-102195380D01*
X72334380Y-102576333D01*
X72477238Y-102576333D01*
X72572476Y-102623952D01*
X72620095Y-102671571D01*
X72667714Y-102766809D01*
X72667714Y-103004904D01*
X72620095Y-103100142D01*
X72572476Y-103147761D01*
X72477238Y-103195380D01*
X72191523Y-103195380D01*
X72096285Y-103147761D01*
X72048666Y-103100142D01*
X71143904Y-101036380D02*
X71143904Y-100036380D01*
X71382000Y-100036380D01*
X71524857Y-100084000D01*
X71620095Y-100179238D01*
X71667714Y-100274476D01*
X71715333Y-100464952D01*
X71715333Y-100607809D01*
X71667714Y-100798285D01*
X71620095Y-100893523D01*
X71524857Y-100988761D01*
X71382000Y-101036380D01*
X71143904Y-101036380D01*
X72572476Y-100369714D02*
X72572476Y-101036380D01*
X72334380Y-99988761D02*
X72096285Y-100703047D01*
X72715333Y-100703047D01*
X71016904Y-98750380D02*
X71016904Y-97750380D01*
X71255000Y-97750380D01*
X71397857Y-97798000D01*
X71493095Y-97893238D01*
X71540714Y-97988476D01*
X71588333Y-98178952D01*
X71588333Y-98321809D01*
X71540714Y-98512285D01*
X71493095Y-98607523D01*
X71397857Y-98702761D01*
X71255000Y-98750380D01*
X71016904Y-98750380D01*
X72493095Y-97750380D02*
X72016904Y-97750380D01*
X71969285Y-98226571D01*
X72016904Y-98178952D01*
X72112142Y-98131333D01*
X72350238Y-98131333D01*
X72445476Y-98178952D01*
X72493095Y-98226571D01*
X72540714Y-98321809D01*
X72540714Y-98559904D01*
X72493095Y-98655142D01*
X72445476Y-98702761D01*
X72350238Y-98750380D01*
X72112142Y-98750380D01*
X72016904Y-98702761D01*
X71969285Y-98655142D01*
X71143904Y-96591380D02*
X71143904Y-95591380D01*
X71382000Y-95591380D01*
X71524857Y-95639000D01*
X71620095Y-95734238D01*
X71667714Y-95829476D01*
X71715333Y-96019952D01*
X71715333Y-96162809D01*
X71667714Y-96353285D01*
X71620095Y-96448523D01*
X71524857Y-96543761D01*
X71382000Y-96591380D01*
X71143904Y-96591380D01*
X72572476Y-95591380D02*
X72382000Y-95591380D01*
X72286761Y-95639000D01*
X72239142Y-95686619D01*
X72143904Y-95829476D01*
X72096285Y-96019952D01*
X72096285Y-96400904D01*
X72143904Y-96496142D01*
X72191523Y-96543761D01*
X72286761Y-96591380D01*
X72477238Y-96591380D01*
X72572476Y-96543761D01*
X72620095Y-96496142D01*
X72667714Y-96400904D01*
X72667714Y-96162809D01*
X72620095Y-96067571D01*
X72572476Y-96019952D01*
X72477238Y-95972333D01*
X72286761Y-95972333D01*
X72191523Y-96019952D01*
X72143904Y-96067571D01*
X72096285Y-96162809D01*
X47623504Y-115996980D02*
X47623504Y-114996980D01*
X47861600Y-114996980D01*
X48004457Y-115044600D01*
X48099695Y-115139838D01*
X48147314Y-115235076D01*
X48194933Y-115425552D01*
X48194933Y-115568409D01*
X48147314Y-115758885D01*
X48099695Y-115854123D01*
X48004457Y-115949361D01*
X47861600Y-115996980D01*
X47623504Y-115996980D01*
X48528266Y-114996980D02*
X49194933Y-114996980D01*
X48766361Y-115996980D01*
X65200304Y-81808580D02*
X65200304Y-80808580D01*
X65438400Y-80808580D01*
X65581257Y-80856200D01*
X65676495Y-80951438D01*
X65724114Y-81046676D01*
X65771733Y-81237152D01*
X65771733Y-81380009D01*
X65724114Y-81570485D01*
X65676495Y-81665723D01*
X65581257Y-81760961D01*
X65438400Y-81808580D01*
X65200304Y-81808580D01*
X66247923Y-81808580D02*
X66438400Y-81808580D01*
X66533638Y-81760961D01*
X66581257Y-81713342D01*
X66676495Y-81570485D01*
X66724114Y-81380009D01*
X66724114Y-80999057D01*
X66676495Y-80903819D01*
X66628876Y-80856200D01*
X66533638Y-80808580D01*
X66343161Y-80808580D01*
X66247923Y-80856200D01*
X66200304Y-80903819D01*
X66152685Y-80999057D01*
X66152685Y-81237152D01*
X66200304Y-81332390D01*
X66247923Y-81380009D01*
X66343161Y-81427628D01*
X66533638Y-81427628D01*
X66628876Y-81380009D01*
X66676495Y-81332390D01*
X66724114Y-81237152D01*
X62120614Y-81706980D02*
X62120614Y-80706980D01*
X62358709Y-80706980D01*
X62501566Y-80754600D01*
X62596804Y-80849838D01*
X62644423Y-80945076D01*
X62692042Y-81135552D01*
X62692042Y-81278409D01*
X62644423Y-81468885D01*
X62596804Y-81564123D01*
X62501566Y-81659361D01*
X62358709Y-81706980D01*
X62120614Y-81706980D01*
X63644423Y-81706980D02*
X63072995Y-81706980D01*
X63358709Y-81706980D02*
X63358709Y-80706980D01*
X63263471Y-80849838D01*
X63168233Y-80945076D01*
X63072995Y-80992695D01*
X64263471Y-80706980D02*
X64358709Y-80706980D01*
X64453947Y-80754600D01*
X64501566Y-80802219D01*
X64549185Y-80897457D01*
X64596804Y-81087933D01*
X64596804Y-81326028D01*
X64549185Y-81516504D01*
X64501566Y-81611742D01*
X64453947Y-81659361D01*
X64358709Y-81706980D01*
X64263471Y-81706980D01*
X64168233Y-81659361D01*
X64120614Y-81611742D01*
X64072995Y-81516504D01*
X64025376Y-81326028D01*
X64025376Y-81087933D01*
X64072995Y-80897457D01*
X64120614Y-80802219D01*
X64168233Y-80754600D01*
X64263471Y-80706980D01*
X49915914Y-113088680D02*
X49915914Y-112088680D01*
X50154009Y-112088680D01*
X50296866Y-112136300D01*
X50392104Y-112231538D01*
X50439723Y-112326776D01*
X50487342Y-112517252D01*
X50487342Y-112660109D01*
X50439723Y-112850585D01*
X50392104Y-112945823D01*
X50296866Y-113041061D01*
X50154009Y-113088680D01*
X49915914Y-113088680D01*
X51439723Y-113088680D02*
X50868295Y-113088680D01*
X51154009Y-113088680D02*
X51154009Y-112088680D01*
X51058771Y-112231538D01*
X50963533Y-112326776D01*
X50868295Y-112374395D01*
X52392104Y-113088680D02*
X51820676Y-113088680D01*
X52106390Y-113088680D02*
X52106390Y-112088680D01*
X52011152Y-112231538D01*
X51915914Y-112326776D01*
X51820676Y-112374395D01*
X46271014Y-113114080D02*
X46271014Y-112114080D01*
X46509109Y-112114080D01*
X46651966Y-112161700D01*
X46747204Y-112256938D01*
X46794823Y-112352176D01*
X46842442Y-112542652D01*
X46842442Y-112685509D01*
X46794823Y-112875985D01*
X46747204Y-112971223D01*
X46651966Y-113066461D01*
X46509109Y-113114080D01*
X46271014Y-113114080D01*
X47794823Y-113114080D02*
X47223395Y-113114080D01*
X47509109Y-113114080D02*
X47509109Y-112114080D01*
X47413871Y-112256938D01*
X47318633Y-112352176D01*
X47223395Y-112399795D01*
X48175776Y-112209319D02*
X48223395Y-112161700D01*
X48318633Y-112114080D01*
X48556728Y-112114080D01*
X48651966Y-112161700D01*
X48699585Y-112209319D01*
X48747204Y-112304557D01*
X48747204Y-112399795D01*
X48699585Y-112542652D01*
X48128157Y-113114080D01*
X48747204Y-113114080D01*
X59110714Y-79370180D02*
X59110714Y-78370180D01*
X59348809Y-78370180D01*
X59491666Y-78417800D01*
X59586904Y-78513038D01*
X59634523Y-78608276D01*
X59682142Y-78798752D01*
X59682142Y-78941609D01*
X59634523Y-79132085D01*
X59586904Y-79227323D01*
X59491666Y-79322561D01*
X59348809Y-79370180D01*
X59110714Y-79370180D01*
X60634523Y-79370180D02*
X60063095Y-79370180D01*
X60348809Y-79370180D02*
X60348809Y-78370180D01*
X60253571Y-78513038D01*
X60158333Y-78608276D01*
X60063095Y-78655895D01*
X60967857Y-78370180D02*
X61586904Y-78370180D01*
X61253571Y-78751133D01*
X61396428Y-78751133D01*
X61491666Y-78798752D01*
X61539285Y-78846371D01*
X61586904Y-78941609D01*
X61586904Y-79179704D01*
X61539285Y-79274942D01*
X61491666Y-79322561D01*
X61396428Y-79370180D01*
X61110714Y-79370180D01*
X61015476Y-79322561D01*
X60967857Y-79274942D01*
X80298966Y-95921580D02*
X80298966Y-96635866D01*
X80251347Y-96778723D01*
X80156109Y-96873961D01*
X80013252Y-96921580D01*
X79918014Y-96921580D01*
X81298966Y-96921580D02*
X80727538Y-96921580D01*
X81013252Y-96921580D02*
X81013252Y-95921580D01*
X80918014Y-96064438D01*
X80822776Y-96159676D01*
X80727538Y-96207295D01*
X32026266Y-101763580D02*
X32026266Y-102477866D01*
X31978647Y-102620723D01*
X31883409Y-102715961D01*
X31740552Y-102763580D01*
X31645314Y-102763580D01*
X32454838Y-101858819D02*
X32502457Y-101811200D01*
X32597695Y-101763580D01*
X32835790Y-101763580D01*
X32931028Y-101811200D01*
X32978647Y-101858819D01*
X33026266Y-101954057D01*
X33026266Y-102049295D01*
X32978647Y-102192152D01*
X32407219Y-102763580D01*
X33026266Y-102763580D01*
X78101866Y-57656480D02*
X78101866Y-58370766D01*
X78054247Y-58513623D01*
X77959009Y-58608861D01*
X77816152Y-58656480D01*
X77720914Y-58656480D01*
X78482819Y-57656480D02*
X79101866Y-57656480D01*
X78768533Y-58037433D01*
X78911390Y-58037433D01*
X79006628Y-58085052D01*
X79054247Y-58132671D01*
X79101866Y-58227909D01*
X79101866Y-58466004D01*
X79054247Y-58561242D01*
X79006628Y-58608861D01*
X78911390Y-58656480D01*
X78625676Y-58656480D01*
X78530438Y-58608861D01*
X78482819Y-58561242D01*
X32077066Y-119467380D02*
X32077066Y-120181666D01*
X32029447Y-120324523D01*
X31934209Y-120419761D01*
X31791352Y-120467380D01*
X31696114Y-120467380D01*
X33029447Y-119467380D02*
X32553257Y-119467380D01*
X32505638Y-119943571D01*
X32553257Y-119895952D01*
X32648495Y-119848333D01*
X32886590Y-119848333D01*
X32981828Y-119895952D01*
X33029447Y-119943571D01*
X33077066Y-120038809D01*
X33077066Y-120276904D01*
X33029447Y-120372142D01*
X32981828Y-120419761D01*
X32886590Y-120467380D01*
X32648495Y-120467380D01*
X32553257Y-120419761D01*
X32505638Y-120372142D01*
X30794366Y-59701180D02*
X30794366Y-60415466D01*
X30746747Y-60558323D01*
X30651509Y-60653561D01*
X30508652Y-60701180D01*
X30413414Y-60701180D01*
X31699128Y-59701180D02*
X31508652Y-59701180D01*
X31413414Y-59748800D01*
X31365795Y-59796419D01*
X31270557Y-59939276D01*
X31222938Y-60129752D01*
X31222938Y-60510704D01*
X31270557Y-60605942D01*
X31318176Y-60653561D01*
X31413414Y-60701180D01*
X31603890Y-60701180D01*
X31699128Y-60653561D01*
X31746747Y-60605942D01*
X31794366Y-60510704D01*
X31794366Y-60272609D01*
X31746747Y-60177371D01*
X31699128Y-60129752D01*
X31603890Y-60082133D01*
X31413414Y-60082133D01*
X31318176Y-60129752D01*
X31270557Y-60177371D01*
X31222938Y-60272609D01*
X30906126Y-67692020D02*
X30906126Y-68406306D01*
X30858507Y-68549163D01*
X30763269Y-68644401D01*
X30620412Y-68692020D01*
X30525174Y-68692020D01*
X31287079Y-67692020D02*
X31953745Y-67692020D01*
X31525174Y-68692020D01*
X62328466Y-85647280D02*
X62328466Y-86361566D01*
X62280847Y-86504423D01*
X62185609Y-86599661D01*
X62042752Y-86647280D01*
X61947514Y-86647280D01*
X62947514Y-86075852D02*
X62852276Y-86028233D01*
X62804657Y-85980614D01*
X62757038Y-85885376D01*
X62757038Y-85837757D01*
X62804657Y-85742519D01*
X62852276Y-85694900D01*
X62947514Y-85647280D01*
X63137990Y-85647280D01*
X63233228Y-85694900D01*
X63280847Y-85742519D01*
X63328466Y-85837757D01*
X63328466Y-85885376D01*
X63280847Y-85980614D01*
X63233228Y-86028233D01*
X63137990Y-86075852D01*
X62947514Y-86075852D01*
X62852276Y-86123471D01*
X62804657Y-86171090D01*
X62757038Y-86266328D01*
X62757038Y-86456804D01*
X62804657Y-86552042D01*
X62852276Y-86599661D01*
X62947514Y-86647280D01*
X63137990Y-86647280D01*
X63233228Y-86599661D01*
X63280847Y-86552042D01*
X63328466Y-86456804D01*
X63328466Y-86266328D01*
X63280847Y-86171090D01*
X63233228Y-86123471D01*
X63137990Y-86075852D01*
X54911666Y-112692380D02*
X54911666Y-113406666D01*
X54864047Y-113549523D01*
X54768809Y-113644761D01*
X54625952Y-113692380D01*
X54530714Y-113692380D01*
X55435476Y-113692380D02*
X55625952Y-113692380D01*
X55721190Y-113644761D01*
X55768809Y-113597142D01*
X55864047Y-113454285D01*
X55911666Y-113263809D01*
X55911666Y-112882857D01*
X55864047Y-112787619D01*
X55816428Y-112740000D01*
X55721190Y-112692380D01*
X55530714Y-112692380D01*
X55435476Y-112740000D01*
X55387857Y-112787619D01*
X55340238Y-112882857D01*
X55340238Y-113120952D01*
X55387857Y-113216190D01*
X55435476Y-113263809D01*
X55530714Y-113311428D01*
X55721190Y-113311428D01*
X55816428Y-113263809D01*
X55864047Y-113216190D01*
X55911666Y-113120952D01*
X31511976Y-56716680D02*
X31511976Y-57430966D01*
X31464357Y-57573823D01*
X31369119Y-57669061D01*
X31226261Y-57716680D01*
X31131023Y-57716680D01*
X32511976Y-57716680D02*
X31940547Y-57716680D01*
X32226261Y-57716680D02*
X32226261Y-56716680D01*
X32131023Y-56859538D01*
X32035785Y-56954776D01*
X31940547Y-57002395D01*
X33131023Y-56716680D02*
X33226261Y-56716680D01*
X33321500Y-56764300D01*
X33369119Y-56811919D01*
X33416738Y-56907157D01*
X33464357Y-57097633D01*
X33464357Y-57335728D01*
X33416738Y-57526204D01*
X33369119Y-57621442D01*
X33321500Y-57669061D01*
X33226261Y-57716680D01*
X33131023Y-57716680D01*
X33035785Y-57669061D01*
X32988166Y-57621442D01*
X32940547Y-57526204D01*
X32892928Y-57335728D01*
X32892928Y-57097633D01*
X32940547Y-56907157D01*
X32988166Y-56811919D01*
X33035785Y-56764300D01*
X33131023Y-56716680D01*
X77023933Y-75623680D02*
X76547742Y-75623680D01*
X76547742Y-74623680D01*
X77881076Y-75623680D02*
X77309647Y-75623680D01*
X77595361Y-75623680D02*
X77595361Y-74623680D01*
X77500123Y-74766538D01*
X77404885Y-74861776D01*
X77309647Y-74909395D01*
X68476880Y-77420695D02*
X68476880Y-77896885D01*
X68953071Y-77944504D01*
X68905452Y-77896885D01*
X68857833Y-77801647D01*
X68857833Y-77563552D01*
X68905452Y-77468314D01*
X68953071Y-77420695D01*
X69048309Y-77373076D01*
X69286404Y-77373076D01*
X69381642Y-77420695D01*
X69429261Y-77468314D01*
X69476880Y-77563552D01*
X69476880Y-77801647D01*
X69429261Y-77896885D01*
X69381642Y-77944504D01*
X69476880Y-76373076D02*
X69000690Y-76706409D01*
X69476880Y-76944504D02*
X68476880Y-76944504D01*
X68476880Y-76563552D01*
X68524500Y-76468314D01*
X68572119Y-76420695D01*
X68667357Y-76373076D01*
X68810214Y-76373076D01*
X68905452Y-76420695D01*
X68953071Y-76468314D01*
X69000690Y-76563552D01*
X69000690Y-76944504D01*
X68476880Y-75515933D02*
X68476880Y-75706409D01*
X68524500Y-75801647D01*
X68572119Y-75849266D01*
X68714976Y-75944504D01*
X68905452Y-75992123D01*
X69286404Y-75992123D01*
X69381642Y-75944504D01*
X69429261Y-75896885D01*
X69476880Y-75801647D01*
X69476880Y-75611171D01*
X69429261Y-75515933D01*
X69381642Y-75468314D01*
X69286404Y-75420695D01*
X69048309Y-75420695D01*
X68953071Y-75468314D01*
X68905452Y-75515933D01*
X68857833Y-75611171D01*
X68857833Y-75801647D01*
X68905452Y-75896885D01*
X68953071Y-75944504D01*
X69048309Y-75992123D01*
X39114433Y-109558080D02*
X38781100Y-109081890D01*
X38543004Y-109558080D02*
X38543004Y-108558080D01*
X38923957Y-108558080D01*
X39019195Y-108605700D01*
X39066814Y-108653319D01*
X39114433Y-108748557D01*
X39114433Y-108891414D01*
X39066814Y-108986652D01*
X39019195Y-109034271D01*
X38923957Y-109081890D01*
X38543004Y-109081890D01*
X39447766Y-108558080D02*
X40066814Y-108558080D01*
X39733480Y-108939033D01*
X39876338Y-108939033D01*
X39971576Y-108986652D01*
X40019195Y-109034271D01*
X40066814Y-109129509D01*
X40066814Y-109367604D01*
X40019195Y-109462842D01*
X39971576Y-109510461D01*
X39876338Y-109558080D01*
X39590623Y-109558080D01*
X39495385Y-109510461D01*
X39447766Y-109462842D01*
X41629033Y-109024680D02*
X41295700Y-108548490D01*
X41057604Y-109024680D02*
X41057604Y-108024680D01*
X41438557Y-108024680D01*
X41533795Y-108072300D01*
X41581414Y-108119919D01*
X41629033Y-108215157D01*
X41629033Y-108358014D01*
X41581414Y-108453252D01*
X41533795Y-108500871D01*
X41438557Y-108548490D01*
X41057604Y-108548490D01*
X42486176Y-108358014D02*
X42486176Y-109024680D01*
X42248080Y-107977061D02*
X42009985Y-108691347D01*
X42629033Y-108691347D01*
X44105533Y-108567480D02*
X43772200Y-108091290D01*
X43534104Y-108567480D02*
X43534104Y-107567480D01*
X43915057Y-107567480D01*
X44010295Y-107615100D01*
X44057914Y-107662719D01*
X44105533Y-107757957D01*
X44105533Y-107900814D01*
X44057914Y-107996052D01*
X44010295Y-108043671D01*
X43915057Y-108091290D01*
X43534104Y-108091290D01*
X45010295Y-107567480D02*
X44534104Y-107567480D01*
X44486485Y-108043671D01*
X44534104Y-107996052D01*
X44629342Y-107948433D01*
X44867438Y-107948433D01*
X44962676Y-107996052D01*
X45010295Y-108043671D01*
X45057914Y-108138909D01*
X45057914Y-108377004D01*
X45010295Y-108472242D01*
X44962676Y-108519861D01*
X44867438Y-108567480D01*
X44629342Y-108567480D01*
X44534104Y-108519861D01*
X44486485Y-108472242D01*
X50131742Y-81021180D02*
X49798409Y-80544990D01*
X49560314Y-81021180D02*
X49560314Y-80021180D01*
X49941266Y-80021180D01*
X50036504Y-80068800D01*
X50084123Y-80116419D01*
X50131742Y-80211657D01*
X50131742Y-80354514D01*
X50084123Y-80449752D01*
X50036504Y-80497371D01*
X49941266Y-80544990D01*
X49560314Y-80544990D01*
X50465076Y-80021180D02*
X51084123Y-80021180D01*
X50750790Y-80402133D01*
X50893647Y-80402133D01*
X50988885Y-80449752D01*
X51036504Y-80497371D01*
X51084123Y-80592609D01*
X51084123Y-80830704D01*
X51036504Y-80925942D01*
X50988885Y-80973561D01*
X50893647Y-81021180D01*
X50607933Y-81021180D01*
X50512695Y-80973561D01*
X50465076Y-80925942D01*
X52036504Y-81021180D02*
X51465076Y-81021180D01*
X51750790Y-81021180D02*
X51750790Y-80021180D01*
X51655552Y-80164038D01*
X51560314Y-80259276D01*
X51465076Y-80306895D01*
X66095642Y-75191880D02*
X65762309Y-74715690D01*
X65524214Y-75191880D02*
X65524214Y-74191880D01*
X65905166Y-74191880D01*
X66000404Y-74239500D01*
X66048023Y-74287119D01*
X66095642Y-74382357D01*
X66095642Y-74525214D01*
X66048023Y-74620452D01*
X66000404Y-74668071D01*
X65905166Y-74715690D01*
X65524214Y-74715690D01*
X66428976Y-74191880D02*
X67048023Y-74191880D01*
X66714690Y-74572833D01*
X66857547Y-74572833D01*
X66952785Y-74620452D01*
X67000404Y-74668071D01*
X67048023Y-74763309D01*
X67048023Y-75001404D01*
X67000404Y-75096642D01*
X66952785Y-75144261D01*
X66857547Y-75191880D01*
X66571833Y-75191880D01*
X66476595Y-75144261D01*
X66428976Y-75096642D01*
X67952785Y-74191880D02*
X67476595Y-74191880D01*
X67428976Y-74668071D01*
X67476595Y-74620452D01*
X67571833Y-74572833D01*
X67809928Y-74572833D01*
X67905166Y-74620452D01*
X67952785Y-74668071D01*
X68000404Y-74763309D01*
X68000404Y-75001404D01*
X67952785Y-75096642D01*
X67905166Y-75144261D01*
X67809928Y-75191880D01*
X67571833Y-75191880D01*
X67476595Y-75144261D01*
X67428976Y-75096642D01*
X35625161Y-117635280D02*
X35291828Y-117159090D01*
X35053733Y-117635280D02*
X35053733Y-116635280D01*
X35434685Y-116635280D01*
X35529923Y-116682900D01*
X35577542Y-116730519D01*
X35625161Y-116825757D01*
X35625161Y-116968614D01*
X35577542Y-117063852D01*
X35529923Y-117111471D01*
X35434685Y-117159090D01*
X35053733Y-117159090D01*
X35910876Y-116635280D02*
X36244209Y-117635280D01*
X36577542Y-116635280D01*
X37434685Y-117635280D02*
X36863257Y-117635280D01*
X37148971Y-117635280D02*
X37148971Y-116635280D01*
X37053733Y-116778138D01*
X36958495Y-116873376D01*
X36863257Y-116920995D01*
X62217466Y-110615361D02*
X62360323Y-110662980D01*
X62598419Y-110662980D01*
X62693657Y-110615361D01*
X62741276Y-110567742D01*
X62788895Y-110472504D01*
X62788895Y-110377266D01*
X62741276Y-110282028D01*
X62693657Y-110234409D01*
X62598419Y-110186790D01*
X62407942Y-110139171D01*
X62312704Y-110091552D01*
X62265085Y-110043933D01*
X62217466Y-109948695D01*
X62217466Y-109853457D01*
X62265085Y-109758219D01*
X62312704Y-109710600D01*
X62407942Y-109662980D01*
X62646038Y-109662980D01*
X62788895Y-109710600D01*
X63122228Y-109662980D02*
X63360323Y-110662980D01*
X63550800Y-109948695D01*
X63741276Y-110662980D01*
X63979371Y-109662980D01*
X64884133Y-110662980D02*
X64312704Y-110662980D01*
X64598419Y-110662980D02*
X64598419Y-109662980D01*
X64503180Y-109805838D01*
X64407942Y-109901076D01*
X64312704Y-109948695D01*
X66344966Y-110615361D02*
X66487823Y-110662980D01*
X66725919Y-110662980D01*
X66821157Y-110615361D01*
X66868776Y-110567742D01*
X66916395Y-110472504D01*
X66916395Y-110377266D01*
X66868776Y-110282028D01*
X66821157Y-110234409D01*
X66725919Y-110186790D01*
X66535442Y-110139171D01*
X66440204Y-110091552D01*
X66392585Y-110043933D01*
X66344966Y-109948695D01*
X66344966Y-109853457D01*
X66392585Y-109758219D01*
X66440204Y-109710600D01*
X66535442Y-109662980D01*
X66773538Y-109662980D01*
X66916395Y-109710600D01*
X67249728Y-109662980D02*
X67487823Y-110662980D01*
X67678300Y-109948695D01*
X67868776Y-110662980D01*
X68106871Y-109662980D01*
X68440204Y-109758219D02*
X68487823Y-109710600D01*
X68583061Y-109662980D01*
X68821157Y-109662980D01*
X68916395Y-109710600D01*
X68964014Y-109758219D01*
X69011633Y-109853457D01*
X69011633Y-109948695D01*
X68964014Y-110091552D01*
X68392585Y-110662980D01*
X69011633Y-110662980D01*
X70485166Y-110501061D02*
X70628023Y-110548680D01*
X70866119Y-110548680D01*
X70961357Y-110501061D01*
X71008976Y-110453442D01*
X71056595Y-110358204D01*
X71056595Y-110262966D01*
X71008976Y-110167728D01*
X70961357Y-110120109D01*
X70866119Y-110072490D01*
X70675642Y-110024871D01*
X70580404Y-109977252D01*
X70532785Y-109929633D01*
X70485166Y-109834395D01*
X70485166Y-109739157D01*
X70532785Y-109643919D01*
X70580404Y-109596300D01*
X70675642Y-109548680D01*
X70913738Y-109548680D01*
X71056595Y-109596300D01*
X71389928Y-109548680D02*
X71628023Y-110548680D01*
X71818500Y-109834395D01*
X72008976Y-110548680D01*
X72247071Y-109548680D01*
X72532785Y-109548680D02*
X73151833Y-109548680D01*
X72818500Y-109929633D01*
X72961357Y-109929633D01*
X73056595Y-109977252D01*
X73104214Y-110024871D01*
X73151833Y-110120109D01*
X73151833Y-110358204D01*
X73104214Y-110453442D01*
X73056595Y-110501061D01*
X72961357Y-110548680D01*
X72675642Y-110548680D01*
X72580404Y-110501061D01*
X72532785Y-110453442D01*
X74930166Y-110513761D02*
X75073023Y-110561380D01*
X75311119Y-110561380D01*
X75406357Y-110513761D01*
X75453976Y-110466142D01*
X75501595Y-110370904D01*
X75501595Y-110275666D01*
X75453976Y-110180428D01*
X75406357Y-110132809D01*
X75311119Y-110085190D01*
X75120642Y-110037571D01*
X75025404Y-109989952D01*
X74977785Y-109942333D01*
X74930166Y-109847095D01*
X74930166Y-109751857D01*
X74977785Y-109656619D01*
X75025404Y-109609000D01*
X75120642Y-109561380D01*
X75358738Y-109561380D01*
X75501595Y-109609000D01*
X75834928Y-109561380D02*
X76073023Y-110561380D01*
X76263500Y-109847095D01*
X76453976Y-110561380D01*
X76692071Y-109561380D01*
X77501595Y-109894714D02*
X77501595Y-110561380D01*
X77263500Y-109513761D02*
X77025404Y-110228047D01*
X77644452Y-110228047D01*
X53276666Y-93809761D02*
X53419523Y-93857380D01*
X53657619Y-93857380D01*
X53752857Y-93809761D01*
X53800476Y-93762142D01*
X53848095Y-93666904D01*
X53848095Y-93571666D01*
X53800476Y-93476428D01*
X53752857Y-93428809D01*
X53657619Y-93381190D01*
X53467142Y-93333571D01*
X53371904Y-93285952D01*
X53324285Y-93238333D01*
X53276666Y-93143095D01*
X53276666Y-93047857D01*
X53324285Y-92952619D01*
X53371904Y-92905000D01*
X53467142Y-92857380D01*
X53705238Y-92857380D01*
X53848095Y-92905000D01*
X54181428Y-92857380D02*
X54419523Y-93857380D01*
X54610000Y-93143095D01*
X54800476Y-93857380D01*
X55038571Y-92857380D01*
X55895714Y-92857380D02*
X55419523Y-92857380D01*
X55371904Y-93333571D01*
X55419523Y-93285952D01*
X55514761Y-93238333D01*
X55752857Y-93238333D01*
X55848095Y-93285952D01*
X55895714Y-93333571D01*
X55943333Y-93428809D01*
X55943333Y-93666904D01*
X55895714Y-93762142D01*
X55848095Y-93809761D01*
X55752857Y-93857380D01*
X55514761Y-93857380D01*
X55419523Y-93809761D01*
X55371904Y-93762142D01*
X62331766Y-62368061D02*
X62474623Y-62415680D01*
X62712719Y-62415680D01*
X62807957Y-62368061D01*
X62855576Y-62320442D01*
X62903195Y-62225204D01*
X62903195Y-62129966D01*
X62855576Y-62034728D01*
X62807957Y-61987109D01*
X62712719Y-61939490D01*
X62522242Y-61891871D01*
X62427004Y-61844252D01*
X62379385Y-61796633D01*
X62331766Y-61701395D01*
X62331766Y-61606157D01*
X62379385Y-61510919D01*
X62427004Y-61463300D01*
X62522242Y-61415680D01*
X62760338Y-61415680D01*
X62903195Y-61463300D01*
X63236528Y-61415680D02*
X63474623Y-62415680D01*
X63665100Y-61701395D01*
X63855576Y-62415680D01*
X64093671Y-61415680D01*
X64903195Y-61415680D02*
X64712719Y-61415680D01*
X64617480Y-61463300D01*
X64569861Y-61510919D01*
X64474623Y-61653776D01*
X64427004Y-61844252D01*
X64427004Y-62225204D01*
X64474623Y-62320442D01*
X64522242Y-62368061D01*
X64617480Y-62415680D01*
X64807957Y-62415680D01*
X64903195Y-62368061D01*
X64950814Y-62320442D01*
X64998433Y-62225204D01*
X64998433Y-61987109D01*
X64950814Y-61891871D01*
X64903195Y-61844252D01*
X64807957Y-61796633D01*
X64617480Y-61796633D01*
X64522242Y-61844252D01*
X64474623Y-61891871D01*
X64427004Y-61987109D01*
X38582695Y-99045780D02*
X38582695Y-99855304D01*
X38630314Y-99950542D01*
X38677933Y-99998161D01*
X38773171Y-100045780D01*
X38963647Y-100045780D01*
X39058885Y-99998161D01*
X39106504Y-99950542D01*
X39154123Y-99855304D01*
X39154123Y-99045780D01*
X39535076Y-99045780D02*
X40154123Y-99045780D01*
X39820790Y-99426733D01*
X39963647Y-99426733D01*
X40058885Y-99474352D01*
X40106504Y-99521971D01*
X40154123Y-99617209D01*
X40154123Y-99855304D01*
X40106504Y-99950542D01*
X40058885Y-99998161D01*
X39963647Y-100045780D01*
X39677933Y-100045780D01*
X39582695Y-99998161D01*
X39535076Y-99950542D01*
X60833095Y-93602380D02*
X60833095Y-94411904D01*
X60880714Y-94507142D01*
X60928333Y-94554761D01*
X61023571Y-94602380D01*
X61214047Y-94602380D01*
X61309285Y-94554761D01*
X61356904Y-94507142D01*
X61404523Y-94411904D01*
X61404523Y-93602380D01*
X62356904Y-93602380D02*
X61880714Y-93602380D01*
X61833095Y-94078571D01*
X61880714Y-94030952D01*
X61975952Y-93983333D01*
X62214047Y-93983333D01*
X62309285Y-94030952D01*
X62356904Y-94078571D01*
X62404523Y-94173809D01*
X62404523Y-94411904D01*
X62356904Y-94507142D01*
X62309285Y-94554761D01*
X62214047Y-94602380D01*
X61975952Y-94602380D01*
X61880714Y-94554761D01*
X61833095Y-94507142D01*
X41236995Y-64831980D02*
X41236995Y-65641504D01*
X41284614Y-65736742D01*
X41332233Y-65784361D01*
X41427471Y-65831980D01*
X41617947Y-65831980D01*
X41713185Y-65784361D01*
X41760804Y-65736742D01*
X41808423Y-65641504D01*
X41808423Y-64831980D01*
X42713185Y-64831980D02*
X42522709Y-64831980D01*
X42427471Y-64879600D01*
X42379852Y-64927219D01*
X42284614Y-65070076D01*
X42236995Y-65260552D01*
X42236995Y-65641504D01*
X42284614Y-65736742D01*
X42332233Y-65784361D01*
X42427471Y-65831980D01*
X42617947Y-65831980D01*
X42713185Y-65784361D01*
X42760804Y-65736742D01*
X42808423Y-65641504D01*
X42808423Y-65403409D01*
X42760804Y-65308171D01*
X42713185Y-65260552D01*
X42617947Y-65212933D01*
X42427471Y-65212933D01*
X42332233Y-65260552D01*
X42284614Y-65308171D01*
X42236995Y-65403409D01*
X66584533Y-66536842D02*
X66536914Y-66584461D01*
X66394057Y-66632080D01*
X66298819Y-66632080D01*
X66155961Y-66584461D01*
X66060723Y-66489223D01*
X66013104Y-66393985D01*
X65965485Y-66203509D01*
X65965485Y-66060652D01*
X66013104Y-65870176D01*
X66060723Y-65774938D01*
X66155961Y-65679700D01*
X66298819Y-65632080D01*
X66394057Y-65632080D01*
X66536914Y-65679700D01*
X66584533Y-65727319D01*
X67441676Y-65965414D02*
X67441676Y-66632080D01*
X67203580Y-65584461D02*
X66965485Y-66298747D01*
X67584533Y-66298747D01*
M02*
