G04 #@! TF.GenerationSoftware,KiCad,Pcbnew,(5.1.5)-3*
G04 #@! TF.CreationDate,2023-05-21T11:01:35-04:00*
G04 #@! TF.ProjectId,In_Board_Gnia,496e5f42-6f61-4726-945f-476e69612e6b,rev?*
G04 #@! TF.SameCoordinates,Original*
G04 #@! TF.FileFunction,Other,User*
%FSLAX46Y46*%
G04 Gerber Fmt 4.6, Leading zero omitted, Abs format (unit mm)*
G04 Created by KiCad (PCBNEW (5.1.5)-3) date 2023-05-21 11:01:35*
%MOMM*%
%LPD*%
G04 APERTURE LIST*
%ADD10C,0.050000*%
G04 APERTURE END LIST*
D10*
X65878600Y-119531960D02*
X65878600Y-115031960D01*
X65878600Y-119531960D02*
X64128600Y-119531960D01*
X64128600Y-115031960D02*
X65878600Y-115031960D01*
X64128600Y-115031960D02*
X64128600Y-119531960D01*
X70150880Y-119531960D02*
X70150880Y-115031960D01*
X70150880Y-119531960D02*
X68400880Y-119531960D01*
X68400880Y-115031960D02*
X70150880Y-115031960D01*
X68400880Y-115031960D02*
X68400880Y-119531960D01*
X74433320Y-119511640D02*
X74433320Y-115011640D01*
X74433320Y-119511640D02*
X72683320Y-119511640D01*
X72683320Y-115011640D02*
X74433320Y-115011640D01*
X72683320Y-115011640D02*
X72683320Y-119511640D01*
X68970000Y-104430000D02*
X68970000Y-108930000D01*
X68970000Y-104430000D02*
X70720000Y-104430000D01*
X70720000Y-108930000D02*
X68970000Y-108930000D01*
X70720000Y-108930000D02*
X70720000Y-104430000D01*
X74640000Y-70875000D02*
X70140000Y-70875000D01*
X74640000Y-70875000D02*
X74640000Y-72625000D01*
X70140000Y-72625000D02*
X70140000Y-70875000D01*
X70140000Y-72625000D02*
X74640000Y-72625000D01*
X61586000Y-69560000D02*
X61586000Y-65060000D01*
X61586000Y-69560000D02*
X59836000Y-69560000D01*
X59836000Y-65060000D02*
X61586000Y-65060000D01*
X59836000Y-65060000D02*
X59836000Y-69560000D01*
X57413000Y-72553000D02*
X57413000Y-77053000D01*
X57413000Y-72553000D02*
X59163000Y-72553000D01*
X59163000Y-77053000D02*
X57413000Y-77053000D01*
X59163000Y-77053000D02*
X59163000Y-72553000D01*
X64480000Y-109610000D02*
X59980000Y-109610000D01*
X64480000Y-109610000D02*
X64480000Y-111360000D01*
X59980000Y-111360000D02*
X59980000Y-109610000D01*
X59980000Y-111360000D02*
X64480000Y-111360000D01*
X70730000Y-103215000D02*
X70730000Y-98715000D01*
X70730000Y-103215000D02*
X68980000Y-103215000D01*
X68980000Y-98715000D02*
X70730000Y-98715000D01*
X68980000Y-98715000D02*
X68980000Y-103215000D01*
X54220000Y-107025000D02*
X54220000Y-102525000D01*
X54220000Y-107025000D02*
X52470000Y-107025000D01*
X52470000Y-102525000D02*
X54220000Y-102525000D01*
X52470000Y-102525000D02*
X52470000Y-107025000D01*
X59980000Y-94225000D02*
X64480000Y-94225000D01*
X59980000Y-94225000D02*
X59980000Y-92475000D01*
X64480000Y-92475000D02*
X64480000Y-94225000D01*
X64480000Y-92475000D02*
X59980000Y-92475000D01*
X43316000Y-103160000D02*
X43316000Y-107660000D01*
X43316000Y-103160000D02*
X45066000Y-103160000D01*
X45066000Y-107660000D02*
X43316000Y-107660000D01*
X45066000Y-107660000D02*
X45066000Y-103160000D01*
X81760000Y-62288300D02*
X81760000Y-55288300D01*
X81760000Y-55288300D02*
X78260000Y-55288300D01*
X78260000Y-55288300D02*
X78260000Y-62288300D01*
X78260000Y-62288300D02*
X81760000Y-62288300D01*
X36985000Y-69525000D02*
X36985000Y-76525000D01*
X36985000Y-76525000D02*
X40485000Y-76525000D01*
X40485000Y-76525000D02*
X40485000Y-69525000D01*
X40485000Y-69525000D02*
X36985000Y-69525000D01*
X58222000Y-59408000D02*
X65222000Y-59408000D01*
X65222000Y-59408000D02*
X65222000Y-55908000D01*
X65222000Y-55908000D02*
X58222000Y-55908000D01*
X58222000Y-55908000D02*
X58222000Y-59408000D01*
X42390000Y-115730000D02*
X42390000Y-110330000D01*
X42390000Y-110330000D02*
X38890000Y-110330000D01*
X38890000Y-110330000D02*
X38890000Y-115730000D01*
X38890000Y-115730000D02*
X42390000Y-115730000D01*
X35514300Y-106296400D02*
X40914300Y-106296400D01*
X40914300Y-106296400D02*
X40914300Y-102796400D01*
X40914300Y-102796400D02*
X35514300Y-102796400D01*
X35514300Y-102796400D02*
X35514300Y-106296400D01*
X54942800Y-88740000D02*
X54942800Y-94140000D01*
X54942800Y-94140000D02*
X58442800Y-94140000D01*
X58442800Y-94140000D02*
X58442800Y-88740000D01*
X58442800Y-88740000D02*
X54942800Y-88740000D01*
X34445000Y-77310000D02*
X34445000Y-82710000D01*
X34445000Y-82710000D02*
X37945000Y-82710000D01*
X37945000Y-82710000D02*
X37945000Y-77310000D01*
X37945000Y-77310000D02*
X34445000Y-77310000D01*
X34724400Y-85222100D02*
X34724400Y-90622100D01*
X34724400Y-90622100D02*
X38224400Y-90622100D01*
X38224400Y-90622100D02*
X38224400Y-85222100D01*
X38224400Y-85222100D02*
X34724400Y-85222100D01*
X34445000Y-92550000D02*
X34445000Y-97950000D01*
X34445000Y-97950000D02*
X37945000Y-97950000D01*
X37945000Y-97950000D02*
X37945000Y-92550000D01*
X37945000Y-92550000D02*
X34445000Y-92550000D01*
X64015640Y-121344760D02*
X64015640Y-114844760D01*
X64015640Y-121344760D02*
X61805640Y-121344760D01*
X61805640Y-114844760D02*
X64015640Y-114844760D01*
X61805640Y-114844760D02*
X61805640Y-121344760D01*
X68232040Y-121370160D02*
X68232040Y-114870160D01*
X68232040Y-121370160D02*
X66022040Y-121370160D01*
X66022040Y-114870160D02*
X68232040Y-114870160D01*
X66022040Y-114870160D02*
X66022040Y-121370160D01*
X77626280Y-101572040D02*
X71126280Y-101572040D01*
X77626280Y-101572040D02*
X77626280Y-103782040D01*
X71126280Y-103782040D02*
X71126280Y-101572040D01*
X71126280Y-103782040D02*
X77626280Y-103782040D01*
X77621200Y-99232700D02*
X71121200Y-99232700D01*
X77621200Y-99232700D02*
X77621200Y-101442700D01*
X71121200Y-101442700D02*
X71121200Y-99232700D01*
X71121200Y-101442700D02*
X77621200Y-101442700D01*
X77621200Y-96946700D02*
X71121200Y-96946700D01*
X77621200Y-96946700D02*
X77621200Y-99156700D01*
X71121200Y-99156700D02*
X71121200Y-96946700D01*
X71121200Y-99156700D02*
X77621200Y-99156700D01*
X77633900Y-94648000D02*
X71133900Y-94648000D01*
X77633900Y-94648000D02*
X77633900Y-96858000D01*
X71133900Y-96858000D02*
X71133900Y-94648000D01*
X71133900Y-96858000D02*
X77633900Y-96858000D01*
X64930000Y-63425000D02*
X64930000Y-69925000D01*
X64930000Y-63425000D02*
X67140000Y-63425000D01*
X67140000Y-69925000D02*
X64930000Y-69925000D01*
X67140000Y-69925000D02*
X67140000Y-63425000D01*
X72489080Y-121161880D02*
X72489080Y-114661880D01*
X72489080Y-121161880D02*
X70279080Y-121161880D01*
X70279080Y-114661880D02*
X72489080Y-114661880D01*
X70279080Y-114661880D02*
X70279080Y-121161880D01*
X76857880Y-121146640D02*
X76857880Y-114646640D01*
X76857880Y-121146640D02*
X74647880Y-121146640D01*
X74647880Y-114646640D02*
X76857880Y-114646640D01*
X74647880Y-114646640D02*
X74647880Y-121146640D01*
X69290000Y-70137000D02*
X62790000Y-70137000D01*
X69290000Y-70137000D02*
X69290000Y-72347000D01*
X62790000Y-72347000D02*
X62790000Y-70137000D01*
X62790000Y-72347000D02*
X69290000Y-72347000D01*
X64737000Y-69925000D02*
X64737000Y-63425000D01*
X64737000Y-69925000D02*
X62527000Y-69925000D01*
X62527000Y-63425000D02*
X64737000Y-63425000D01*
X62527000Y-63425000D02*
X62527000Y-69925000D01*
X64904600Y-73991400D02*
X64904600Y-80491400D01*
X64904600Y-73991400D02*
X67114600Y-73991400D01*
X67114600Y-80491400D02*
X64904600Y-80491400D01*
X67114600Y-80491400D02*
X67114600Y-73991400D01*
X64051200Y-80466000D02*
X64051200Y-73966000D01*
X64051200Y-80466000D02*
X61841200Y-80466000D01*
X61841200Y-73966000D02*
X64051200Y-73966000D01*
X61841200Y-73966000D02*
X61841200Y-80466000D01*
X44925000Y-115645000D02*
X44925000Y-109145000D01*
X44925000Y-115645000D02*
X42715000Y-115645000D01*
X42715000Y-109145000D02*
X44925000Y-109145000D01*
X42715000Y-109145000D02*
X42715000Y-115645000D01*
X41997700Y-106509800D02*
X35497700Y-106509800D01*
X41997700Y-106509800D02*
X41997700Y-108719800D01*
X35497700Y-108719800D02*
X35497700Y-106509800D01*
X35497700Y-108719800D02*
X41997700Y-108719800D01*
X35402500Y-109145000D02*
X35402500Y-115645000D01*
X35402500Y-109145000D02*
X37612500Y-109145000D01*
X37612500Y-115645000D02*
X35402500Y-115645000D01*
X37612500Y-115645000D02*
X37612500Y-109145000D01*
X45356800Y-87895500D02*
X45356800Y-81395500D01*
X45356800Y-87895500D02*
X43146800Y-87895500D01*
X43146800Y-81395500D02*
X45356800Y-81395500D01*
X43146800Y-81395500D02*
X43146800Y-87895500D01*
X54704000Y-95172600D02*
X54704000Y-88672600D01*
X54704000Y-95172600D02*
X52494000Y-95172600D01*
X52494000Y-88672600D02*
X54704000Y-88672600D01*
X52494000Y-88672600D02*
X52494000Y-95172600D01*
X51033700Y-95210700D02*
X51033700Y-88710700D01*
X51033700Y-95210700D02*
X48823700Y-95210700D01*
X48823700Y-88710700D02*
X51033700Y-88710700D01*
X48823700Y-88710700D02*
X48823700Y-95210700D01*
X43340000Y-91365000D02*
X43340000Y-97865000D01*
X43340000Y-91365000D02*
X45550000Y-91365000D01*
X45550000Y-97865000D02*
X43340000Y-97865000D01*
X45550000Y-97865000D02*
X45550000Y-91365000D01*
X43020000Y-85507900D02*
X43020000Y-79007900D01*
X43020000Y-85507900D02*
X40810000Y-85507900D01*
X40810000Y-79007900D02*
X43020000Y-79007900D01*
X40810000Y-79007900D02*
X40810000Y-85507900D01*
X60800000Y-121360000D02*
X60800000Y-114860000D01*
X60800000Y-121360000D02*
X58590000Y-121360000D01*
X58590000Y-114860000D02*
X60800000Y-114860000D01*
X58590000Y-114860000D02*
X58590000Y-121360000D01*
X56852800Y-64745800D02*
X56852800Y-71245800D01*
X56852800Y-64745800D02*
X59062800Y-64745800D01*
X59062800Y-71245800D02*
X56852800Y-71245800D01*
X59062800Y-71245800D02*
X59062800Y-64745800D01*
X51960800Y-112647800D02*
X51960800Y-106147800D01*
X51960800Y-112647800D02*
X49750800Y-112647800D01*
X49750800Y-106147800D02*
X51960800Y-106147800D01*
X49750800Y-106147800D02*
X49750800Y-112647800D01*
X48430200Y-112647800D02*
X48430200Y-106147800D01*
X48430200Y-112647800D02*
X46220200Y-112647800D01*
X46220200Y-106147800D02*
X48430200Y-106147800D01*
X46220200Y-106147800D02*
X46220200Y-112647800D01*
X41835000Y-100805000D02*
X48335000Y-100805000D01*
X41835000Y-100805000D02*
X41835000Y-98595000D01*
X48335000Y-98595000D02*
X48335000Y-100805000D01*
X48335000Y-98595000D02*
X41835000Y-98595000D01*
X41350000Y-98585000D02*
X34850000Y-98585000D01*
X41350000Y-98585000D02*
X41350000Y-100795000D01*
X34850000Y-100795000D02*
X34850000Y-98585000D01*
X34850000Y-100795000D02*
X41350000Y-100795000D01*
X43020000Y-95325000D02*
X43020000Y-88825000D01*
X43020000Y-95325000D02*
X40810000Y-95325000D01*
X40810000Y-88825000D02*
X43020000Y-88825000D01*
X40810000Y-88825000D02*
X40810000Y-95325000D01*
X55167600Y-78620600D02*
X48667600Y-78620600D01*
X55167600Y-78620600D02*
X55167600Y-80830600D01*
X48667600Y-80830600D02*
X48667600Y-78620600D01*
X48667600Y-80830600D02*
X55167600Y-80830600D01*
X55320000Y-75725000D02*
X48820000Y-75725000D01*
X55320000Y-75725000D02*
X55320000Y-77935000D01*
X48820000Y-77935000D02*
X48820000Y-75725000D01*
X48820000Y-77935000D02*
X55320000Y-77935000D01*
X58980000Y-62705000D02*
X65480000Y-62705000D01*
X58980000Y-62705000D02*
X58980000Y-60495000D01*
X65480000Y-60495000D02*
X65480000Y-62705000D01*
X65480000Y-60495000D02*
X58980000Y-60495000D01*
X69525000Y-73190000D02*
X76525000Y-73190000D01*
X76525000Y-73190000D02*
X76525000Y-84290000D01*
X76525000Y-84290000D02*
X69525000Y-84290000D01*
X69525000Y-84290000D02*
X69525000Y-73190000D01*
X46685000Y-74715000D02*
X46685000Y-63715000D01*
X56185000Y-74715000D02*
X56185000Y-63715000D01*
X46685000Y-74715000D02*
X56185000Y-74715000D01*
X46685000Y-63715000D02*
X56185000Y-63715000D01*
M02*
