G04 #@! TF.GenerationSoftware,KiCad,Pcbnew,(5.1.5)-3*
G04 #@! TF.CreationDate,2023-05-21T11:01:34-04:00*
G04 #@! TF.ProjectId,In_Board_Gnia,496e5f42-6f61-4726-945f-476e69612e6b,rev?*
G04 #@! TF.SameCoordinates,Original*
G04 #@! TF.FileFunction,Paste,Top*
G04 #@! TF.FilePolarity,Positive*
%FSLAX46Y46*%
G04 Gerber Fmt 4.6, Leading zero omitted, Abs format (unit mm)*
G04 Created by KiCad (PCBNEW (5.1.5)-3) date 2023-05-21 11:01:34*
%MOMM*%
%LPD*%
G04 APERTURE LIST*
%ADD10R,1.600000X2.600000*%
%ADD11R,2.600000X1.600000*%
%ADD12R,1.500000X1.250000*%
%ADD13R,1.250000X1.500000*%
%ADD14R,1.500000X1.300000*%
%ADD15R,1.300000X1.500000*%
%ADD16R,0.500000X2.300000*%
%ADD17R,2.000000X2.500000*%
%ADD18R,2.700000X8.000000*%
%ADD19R,1.700000X2.000000*%
%ADD20R,1.600000X2.180000*%
%ADD21R,2.180000X1.600000*%
%ADD22R,1.500000X0.550000*%
%ADD23R,0.550000X1.500000*%
%ADD24R,1.500000X1.000000*%
%ADD25R,1.000000X1.500000*%
G04 APERTURE END LIST*
D10*
X79971900Y-67522500D03*
X79971900Y-63922500D03*
D11*
X60430000Y-57785000D03*
X64030000Y-57785000D03*
X71225000Y-80010000D03*
X74825000Y-80010000D03*
D12*
X50185000Y-104140000D03*
X52685000Y-104140000D03*
D13*
X41910000Y-73045000D03*
X41910000Y-75545000D03*
D14*
X73707000Y-102743000D03*
X76407000Y-102743000D03*
X73707000Y-100457000D03*
X76407000Y-100457000D03*
X73707000Y-98298000D03*
X76407000Y-98298000D03*
X73707000Y-96012000D03*
X76407000Y-96012000D03*
D15*
X65989200Y-79378800D03*
X65989200Y-76678800D03*
X62941200Y-79328000D03*
X62941200Y-76628000D03*
X50825400Y-107997000D03*
X50825400Y-110697000D03*
X47345600Y-107920800D03*
X47345600Y-110620800D03*
X60325000Y-76915000D03*
X60325000Y-74215000D03*
D16*
X73355000Y-63125000D03*
X72555000Y-63125000D03*
X71755000Y-63125000D03*
X70955000Y-63125000D03*
X70155000Y-63125000D03*
D17*
X76205000Y-63025000D03*
X76205000Y-57525000D03*
X67305000Y-63025000D03*
X67305000Y-57525000D03*
D18*
X74914600Y-70345300D03*
X69814600Y-70345300D03*
D19*
X39217600Y-115212880D03*
X39217600Y-111212880D03*
X41752520Y-114821720D03*
X41752520Y-110821720D03*
X44256960Y-114440720D03*
X44256960Y-110440720D03*
X51015900Y-86906100D03*
X51015900Y-82906100D03*
X64135000Y-69850000D03*
X64135000Y-73850000D03*
D20*
X63500000Y-112250000D03*
X63500000Y-121430000D03*
X67614800Y-112250000D03*
X67614800Y-121430000D03*
X71755000Y-112250000D03*
X71755000Y-121430000D03*
X76200000Y-112250000D03*
X76200000Y-121430000D03*
D21*
X59200000Y-90805000D03*
X50020000Y-90805000D03*
D20*
X60960000Y-62085000D03*
X60960000Y-71265000D03*
D22*
X55895000Y-97600000D03*
X55895000Y-98400000D03*
X55895000Y-99200000D03*
X55895000Y-100000000D03*
X55895000Y-100800000D03*
X55895000Y-101600000D03*
X55895000Y-102400000D03*
X55895000Y-103200000D03*
X55895000Y-104000000D03*
X55895000Y-104800000D03*
X55895000Y-105600000D03*
D23*
X57595000Y-107300000D03*
X58395000Y-107300000D03*
X59195000Y-107300000D03*
X59995000Y-107300000D03*
X60795000Y-107300000D03*
X61595000Y-107300000D03*
X62395000Y-107300000D03*
X63195000Y-107300000D03*
X63995000Y-107300000D03*
X64795000Y-107300000D03*
X65595000Y-107300000D03*
D22*
X67295000Y-105600000D03*
X67295000Y-104800000D03*
X67295000Y-104000000D03*
X67295000Y-103200000D03*
X67295000Y-102400000D03*
X67295000Y-101600000D03*
X67295000Y-100800000D03*
X67295000Y-100000000D03*
X67295000Y-99200000D03*
X67295000Y-98400000D03*
X67295000Y-97600000D03*
D23*
X65595000Y-95900000D03*
X64795000Y-95900000D03*
X63995000Y-95900000D03*
X63195000Y-95900000D03*
X62395000Y-95900000D03*
X61595000Y-95900000D03*
X60795000Y-95900000D03*
X59995000Y-95900000D03*
X59195000Y-95900000D03*
X58395000Y-95900000D03*
X57595000Y-95900000D03*
D24*
X57300000Y-56700000D03*
X57300000Y-58200000D03*
X57300000Y-59700000D03*
X57300000Y-61200000D03*
X57300000Y-62700000D03*
X57300000Y-64200000D03*
X57300000Y-65700000D03*
X57300000Y-67200000D03*
X57300000Y-68700000D03*
X57300000Y-70200000D03*
X57300000Y-71700000D03*
X57300000Y-73200000D03*
X57300000Y-74700000D03*
D25*
X45550000Y-76450000D03*
D24*
X44300000Y-74700000D03*
X44300000Y-73200000D03*
X44300000Y-71700000D03*
X44300000Y-70200000D03*
X44300000Y-68700000D03*
X44300000Y-67200000D03*
X44300000Y-65700000D03*
X44300000Y-64200000D03*
X44300000Y-62700000D03*
X44300000Y-61200000D03*
X44300000Y-59700000D03*
X44300000Y-58200000D03*
X44300000Y-56700000D03*
D25*
X47050000Y-76450000D03*
X48550000Y-76450000D03*
X50050000Y-76450000D03*
X51550000Y-76450000D03*
X53050000Y-76450000D03*
X54550000Y-76450000D03*
X56050000Y-76450000D03*
D13*
X64770000Y-64790000D03*
X64770000Y-67290000D03*
M02*
