M48
; DRILL file {KiCad (5.1.5)-3} date 05/21/23 11:01:51
; FORMAT={3:3/ absolute / metric / keep zeros}
; #@! TF.CreationDate,2023-05-21T11:01:51-04:00
; #@! TF.GenerationSoftware,Kicad,Pcbnew,(5.1.5)-3
; #@! TF.FileFunction,Plated,1,2,PTH
FMAT,2
METRIC
T1C0.200
T2C0.400
T3C0.800
T4C0.900
T5C1.000
T6C1.097
%
G90
G05
T1
X071815Y-068580
X072390Y-067630
X072390Y-069530
X072965Y-068580
T2
X033515Y-076289
X033561Y-079146
X034404Y-101206
X034544Y-087592
X034667Y-088846
X034955Y-082228
X035225Y-090272
X036208Y-084874
X037414Y-092105
X037478Y-084061
X037516Y-095415
X037579Y-090851
X037706Y-098311
X038070Y-113744
X039446Y-112903
X039599Y-101841
X040339Y-103268
X040348Y-109715
X040869Y-086131
X041161Y-082588
X041427Y-097511
X041504Y-096304
X041923Y-086144
X041999Y-091923
X042034Y-103616
X042189Y-082296
X042781Y-081757
X042796Y-091988
X043524Y-084517
X043917Y-078770
X044526Y-094666
X044590Y-090321
X045047Y-098450
X047358Y-109352
X047663Y-105651
X048349Y-078770
X048546Y-113843
X048971Y-084734
X049107Y-085644
X049370Y-082812
X050635Y-071526
X050813Y-112916
X051016Y-092393
X051524Y-103099
X051762Y-090624
X051765Y-091605
X051981Y-073528
X051981Y-075184
X052172Y-080162
X052332Y-069833
X052451Y-084811
X052769Y-072733
X052934Y-099238
X052959Y-071539
X053044Y-086906
X053151Y-084393
X053586Y-067678
X053746Y-098489
X053962Y-113462
X054102Y-075184
X054140Y-100012
X054430Y-103902
X054495Y-104700
X054743Y-074210
X054940Y-091346
X055893Y-064033
X056313Y-079873
X056820Y-091330
X057277Y-077889
X057607Y-108928
X057709Y-105385
X058133Y-092626
X058221Y-078085
X058406Y-108889
X058577Y-080307
X058623Y-061265
X059200Y-108793
X059206Y-072606
X059255Y-078867
X059284Y-092584
X059715Y-080307
X059792Y-103619
X059913Y-105327
X060655Y-064325
X060706Y-105435
X061481Y-056464
X061595Y-103569
X061709Y-073076
X061722Y-109068
X062390Y-090302
X062476Y-091778
X062484Y-071869
X062522Y-118364
X062784Y-088944
X062928Y-080849
X063170Y-113957
X063213Y-082265
X063233Y-109169
X063868Y-099200
X064440Y-078118
X064492Y-076086
X065160Y-062992
X065166Y-097942
X065240Y-109830
X065419Y-092686
X066009Y-066441
X066055Y-070874
X066180Y-073444
X066256Y-059753
X067399Y-114059
X067628Y-069707
X067653Y-064999
X067932Y-073469
X067943Y-068453
X068059Y-059309
X068059Y-059309
X068191Y-089913
X068199Y-110186
X068607Y-100012
X069075Y-065726
X069336Y-079241
X070320Y-098019
X070422Y-096012
X070485Y-103594
X070676Y-101003
X071379Y-115912
X071793Y-066015
X072114Y-106710
X072268Y-088168
X072313Y-110514
X072365Y-093955
X072466Y-075006
X072555Y-060084
X072898Y-066020
X072901Y-064766
X074384Y-094551
X074409Y-093421
X074503Y-065438
X074879Y-101689
X075748Y-115897
X075788Y-107955
X076178Y-104199
X076935Y-108347
X076975Y-093942
X077545Y-108941
X077851Y-056228
X078130Y-098273
X078130Y-100343
X078207Y-096228
X081626Y-056275
X081648Y-065849
T3
X039370Y-079375
X039370Y-081915
X039370Y-084455
X039370Y-086995
X039370Y-089535
X039370Y-092075
X039370Y-094615
X039370Y-097155
X046990Y-079375
X046990Y-081915
X046990Y-084455
X046990Y-086995
X046990Y-089535
X046990Y-092075
X046990Y-094615
X046990Y-097155
T4
X037465Y-120650
X040005Y-120650
X042545Y-120650
X046457Y-119355
X047727Y-119355
X048997Y-119355
X050267Y-119355
T5
X080500Y-070940
X080500Y-073480
X080500Y-076020
X080500Y-078560
X080500Y-081100
X080500Y-083640
X080500Y-086180
X080500Y-088720
X080500Y-091260
X080500Y-093800
X032540Y-081910
X032540Y-084450
X032540Y-086990
X032540Y-089530
X032540Y-092070
X032540Y-094610
X032540Y-097150
X032540Y-099690
X080500Y-099710
X080500Y-102250
X080500Y-104790
X080500Y-107330
X080500Y-109870
X080500Y-112410
X080500Y-114950
X080500Y-117490
X032540Y-104800
X032540Y-107340
X032540Y-109880
X032540Y-112420
X032540Y-114960
X032540Y-117500
X035560Y-057150
X038100Y-057150
X055245Y-083185
X055245Y-085725
X057785Y-083185
X057785Y-085725
X060325Y-083185
X060325Y-085725
X053975Y-115570
X053975Y-118110
X053975Y-120650
X056515Y-115570
X056515Y-118110
X056515Y-120650
T6
X032842Y-070828
X032842Y-073368
X032842Y-062865
X032842Y-065405
T0
M30
