G04 #@! TF.GenerationSoftware,KiCad,Pcbnew,(5.1.5)-3*
G04 #@! TF.CreationDate,2023-05-21T11:01:34-04:00*
G04 #@! TF.ProjectId,In_Board_Gnia,496e5f42-6f61-4726-945f-476e69612e6b,rev?*
G04 #@! TF.SameCoordinates,Original*
G04 #@! TF.FileFunction,Copper,L1,Top*
G04 #@! TF.FilePolarity,Positive*
%FSLAX46Y46*%
G04 Gerber Fmt 4.6, Leading zero omitted, Abs format (unit mm)*
G04 Created by KiCad (PCBNEW (5.1.5)-3) date 2023-05-21 11:01:34*
%MOMM*%
%LPD*%
G04 APERTURE LIST*
%ADD10R,1.700000X1.700000*%
%ADD11O,1.700000X1.700000*%
%ADD12R,1.600000X2.600000*%
%ADD13R,2.600000X1.600000*%
%ADD14R,1.500000X1.250000*%
%ADD15R,1.250000X1.500000*%
%ADD16R,1.500000X1.300000*%
%ADD17R,1.070000X1.800000*%
%ADD18O,1.070000X1.800000*%
%ADD19R,1.300000X1.500000*%
%ADD20R,0.500000X2.300000*%
%ADD21R,2.000000X2.500000*%
%ADD22O,1.998980X1.998980*%
%ADD23R,1.998980X1.998980*%
%ADD24R,2.700000X8.000000*%
%ADD25R,1.700000X2.000000*%
%ADD26R,1.620000X1.620000*%
%ADD27C,1.620000*%
%ADD28R,1.600000X2.180000*%
%ADD29R,2.180000X1.600000*%
%ADD30C,0.200000*%
%ADD31R,1.600000X1.600000*%
%ADD32O,1.600000X1.600000*%
%ADD33R,1.500000X0.550000*%
%ADD34R,0.550000X1.500000*%
%ADD35R,1.500000X1.000000*%
%ADD36R,1.000000X1.500000*%
%ADD37C,0.600000*%
%ADD38C,0.254000*%
%ADD39C,0.508000*%
G04 APERTURE END LIST*
D10*
X80500000Y-99710000D03*
D11*
X80500000Y-102250000D03*
X80500000Y-104790000D03*
X80500000Y-107330000D03*
X80500000Y-109870000D03*
X80500000Y-112410000D03*
X80500000Y-114950000D03*
X80500000Y-117490000D03*
D12*
X79971900Y-67522500D03*
X79971900Y-63922500D03*
D13*
X60430000Y-57785000D03*
X64030000Y-57785000D03*
X71225000Y-80010000D03*
X74825000Y-80010000D03*
D14*
X50185000Y-104140000D03*
X52685000Y-104140000D03*
D15*
X41910000Y-73045000D03*
X41910000Y-75545000D03*
D16*
X73707000Y-102743000D03*
X76407000Y-102743000D03*
X73707000Y-100457000D03*
X76407000Y-100457000D03*
X73707000Y-98298000D03*
X76407000Y-98298000D03*
X73707000Y-96012000D03*
X76407000Y-96012000D03*
D17*
X46456600Y-119354600D03*
D18*
X47726600Y-119354600D03*
X48996600Y-119354600D03*
X50266600Y-119354600D03*
D19*
X65989200Y-79378800D03*
X65989200Y-76678800D03*
X62941200Y-79328000D03*
X62941200Y-76628000D03*
X50825400Y-107997000D03*
X50825400Y-110697000D03*
X47345600Y-107920800D03*
X47345600Y-110620800D03*
X60325000Y-76915000D03*
X60325000Y-74215000D03*
D10*
X80500000Y-70940000D03*
D11*
X80500000Y-73480000D03*
X80500000Y-76020000D03*
X80500000Y-78560000D03*
X80500000Y-81100000D03*
X80500000Y-83640000D03*
X80500000Y-86180000D03*
X80500000Y-88720000D03*
X80500000Y-91260000D03*
X80500000Y-93800000D03*
D10*
X32540000Y-81910000D03*
D11*
X32540000Y-84450000D03*
X32540000Y-86990000D03*
X32540000Y-89530000D03*
X32540000Y-92070000D03*
X32540000Y-94610000D03*
X32540000Y-97150000D03*
X32540000Y-99690000D03*
D20*
X73355000Y-63125000D03*
X72555000Y-63125000D03*
X71755000Y-63125000D03*
X70955000Y-63125000D03*
X70155000Y-63125000D03*
D21*
X76205000Y-63025000D03*
X76205000Y-57525000D03*
X67305000Y-63025000D03*
X67305000Y-57525000D03*
D10*
X32540000Y-104800000D03*
D11*
X32540000Y-107340000D03*
X32540000Y-109880000D03*
X32540000Y-112420000D03*
X32540000Y-114960000D03*
X32540000Y-117500000D03*
D22*
X32842200Y-62865000D03*
D23*
X32842200Y-65405000D03*
D22*
X32842200Y-70827900D03*
D23*
X32842200Y-73367900D03*
D10*
X60325000Y-83185000D03*
D11*
X60325000Y-85725000D03*
X57785000Y-83185000D03*
X57785000Y-85725000D03*
X55245000Y-83185000D03*
X55245000Y-85725000D03*
D10*
X53975000Y-115570000D03*
D11*
X56515000Y-115570000D03*
X53975000Y-118110000D03*
X56515000Y-118110000D03*
X53975000Y-120650000D03*
X56515000Y-120650000D03*
D10*
X35560000Y-57150000D03*
D11*
X38100000Y-57150000D03*
D24*
X74914600Y-70345300D03*
X69814600Y-70345300D03*
D25*
X39217600Y-115212880D03*
X39217600Y-111212880D03*
X41752520Y-114821720D03*
X41752520Y-110821720D03*
X44256960Y-114440720D03*
X44256960Y-110440720D03*
X51015900Y-86906100D03*
X51015900Y-82906100D03*
X64135000Y-69850000D03*
X64135000Y-73850000D03*
D26*
X37465000Y-120650000D03*
D27*
X40005000Y-120650000D03*
X42545000Y-120650000D03*
D28*
X63500000Y-112250000D03*
X63500000Y-121430000D03*
X67614800Y-112250000D03*
X67614800Y-121430000D03*
X71755000Y-112250000D03*
X71755000Y-121430000D03*
X76200000Y-112250000D03*
X76200000Y-121430000D03*
D29*
X59200000Y-90805000D03*
X50020000Y-90805000D03*
D28*
X60960000Y-62085000D03*
X60960000Y-71265000D03*
D30*
X72390000Y-69530000D03*
X72390000Y-67630000D03*
X72965000Y-68580000D03*
X71815000Y-68580000D03*
D31*
X46990000Y-97155000D03*
D32*
X39370000Y-79375000D03*
X46990000Y-94615000D03*
X39370000Y-81915000D03*
X46990000Y-92075000D03*
X39370000Y-84455000D03*
X46990000Y-89535000D03*
X39370000Y-86995000D03*
X46990000Y-86995000D03*
X39370000Y-89535000D03*
X46990000Y-84455000D03*
X39370000Y-92075000D03*
X46990000Y-81915000D03*
X39370000Y-94615000D03*
X46990000Y-79375000D03*
X39370000Y-97155000D03*
D33*
X55895000Y-97600000D03*
X55895000Y-98400000D03*
X55895000Y-99200000D03*
X55895000Y-100000000D03*
X55895000Y-100800000D03*
X55895000Y-101600000D03*
X55895000Y-102400000D03*
X55895000Y-103200000D03*
X55895000Y-104000000D03*
X55895000Y-104800000D03*
X55895000Y-105600000D03*
D34*
X57595000Y-107300000D03*
X58395000Y-107300000D03*
X59195000Y-107300000D03*
X59995000Y-107300000D03*
X60795000Y-107300000D03*
X61595000Y-107300000D03*
X62395000Y-107300000D03*
X63195000Y-107300000D03*
X63995000Y-107300000D03*
X64795000Y-107300000D03*
X65595000Y-107300000D03*
D33*
X67295000Y-105600000D03*
X67295000Y-104800000D03*
X67295000Y-104000000D03*
X67295000Y-103200000D03*
X67295000Y-102400000D03*
X67295000Y-101600000D03*
X67295000Y-100800000D03*
X67295000Y-100000000D03*
X67295000Y-99200000D03*
X67295000Y-98400000D03*
X67295000Y-97600000D03*
D34*
X65595000Y-95900000D03*
X64795000Y-95900000D03*
X63995000Y-95900000D03*
X63195000Y-95900000D03*
X62395000Y-95900000D03*
X61595000Y-95900000D03*
X60795000Y-95900000D03*
X59995000Y-95900000D03*
X59195000Y-95900000D03*
X58395000Y-95900000D03*
X57595000Y-95900000D03*
D35*
X57300000Y-56700000D03*
X57300000Y-58200000D03*
X57300000Y-59700000D03*
X57300000Y-61200000D03*
X57300000Y-62700000D03*
X57300000Y-64200000D03*
X57300000Y-65700000D03*
X57300000Y-67200000D03*
X57300000Y-68700000D03*
X57300000Y-70200000D03*
X57300000Y-71700000D03*
X57300000Y-73200000D03*
X57300000Y-74700000D03*
D36*
X45550000Y-76450000D03*
D35*
X44300000Y-74700000D03*
X44300000Y-73200000D03*
X44300000Y-71700000D03*
X44300000Y-70200000D03*
X44300000Y-68700000D03*
X44300000Y-67200000D03*
X44300000Y-65700000D03*
X44300000Y-64200000D03*
X44300000Y-62700000D03*
X44300000Y-61200000D03*
X44300000Y-59700000D03*
X44300000Y-58200000D03*
X44300000Y-56700000D03*
D36*
X47050000Y-76450000D03*
X48550000Y-76450000D03*
X50050000Y-76450000D03*
X51550000Y-76450000D03*
X53050000Y-76450000D03*
X54550000Y-76450000D03*
X56050000Y-76450000D03*
D15*
X64770000Y-64790000D03*
X64770000Y-67290000D03*
D37*
X63233300Y-109169200D03*
X59283600Y-92583961D03*
X62522100Y-118364000D03*
X59791600Y-103619300D03*
X63868000Y-99200000D03*
X57708800Y-105384600D03*
X69335900Y-79241400D03*
X65239900Y-109829600D03*
X63169800Y-113957100D03*
X68199446Y-110186026D03*
X67398900Y-114058700D03*
X62484000Y-71869300D03*
X81648300Y-65849500D03*
X69075300Y-65725700D03*
X54742995Y-74209807D03*
X59205999Y-72605900D03*
X36207700Y-84874100D03*
X37706300Y-98310700D03*
X33515300Y-76288900D03*
X51765200Y-91605100D03*
X54940200Y-91346400D03*
X47663100Y-105651300D03*
X42033894Y-103616194D03*
X40339100Y-103267600D03*
X33561390Y-79146400D03*
X34955110Y-82227600D03*
X72466200Y-75006200D03*
X65160000Y-62992000D03*
X66009394Y-66441194D03*
X52959000Y-71539100D03*
X61722000Y-109067600D03*
X41922700Y-86144100D03*
X68606922Y-100012500D03*
X57277000Y-77889100D03*
X53043999Y-86906100D03*
X56819800Y-91329961D03*
X62389886Y-90301710D03*
X62475975Y-91778225D03*
X37414200Y-92105110D03*
X37579300Y-90851100D03*
X54430431Y-103902214D03*
X40347896Y-109715296D03*
X48546399Y-113842800D03*
X72901258Y-64765659D03*
X71793100Y-66014600D03*
X71379080Y-115911880D03*
X72312656Y-110514256D03*
X75788394Y-107955206D03*
X75747880Y-115896640D03*
X72113790Y-106710099D03*
X66255900Y-59753500D03*
X66179700Y-73444100D03*
X67943000Y-68453000D03*
X67627500Y-69707000D03*
X67932300Y-73469500D03*
X61480700Y-56464200D03*
X72555100Y-60083700D03*
X77851000Y-56227600D03*
X81626394Y-56274906D03*
X76178353Y-104199160D03*
X78130400Y-100342700D03*
X78130400Y-98272600D03*
X78206600Y-96227900D03*
X74503414Y-65437886D03*
X72898000Y-66019660D03*
X64492100Y-76085700D03*
X64439800Y-78117700D03*
X53150644Y-84392644D03*
X42796223Y-91988000D03*
X44589700Y-90320999D03*
X56313260Y-79872870D03*
X51015900Y-92392500D03*
X50812700Y-112915801D03*
X51523900Y-103098600D03*
X62928104Y-80848596D03*
X72267678Y-88168078D03*
X47358300Y-109351801D03*
X60655200Y-64325500D03*
X70675500Y-101003100D03*
X74383900Y-94551500D03*
X70485000Y-103593900D03*
X54140100Y-100012500D03*
X61595000Y-103568502D03*
X53962300Y-113461800D03*
X60706000Y-105435400D03*
X59913429Y-105326616D03*
X59200451Y-108792563D03*
X58406236Y-108888604D03*
X57607200Y-108927900D03*
X67652900Y-64998600D03*
X68059000Y-59309000D03*
X68059000Y-59309000D03*
X76934753Y-108346631D03*
X77544690Y-108940600D03*
X52171600Y-80162400D03*
X63213325Y-82265175D03*
X74409300Y-93421200D03*
X74879200Y-101688900D03*
X59254935Y-78866583D03*
X52451000Y-84810600D03*
X51762125Y-90624125D03*
X76974700Y-93941900D03*
X48348900Y-78770110D03*
X72364600Y-93954600D03*
X68191086Y-89913486D03*
X62783552Y-88944434D03*
X34544000Y-87591900D03*
X44526200Y-94665800D03*
X39446200Y-112903000D03*
X38069900Y-113743764D03*
X40868600Y-86131400D03*
X42780989Y-81757461D03*
X58132600Y-92625970D03*
X37477700Y-84061300D03*
X49369755Y-82811845D03*
X43524044Y-84517356D03*
X41160700Y-82588100D03*
X41998900Y-91922600D03*
X37515901Y-95414999D03*
X70319900Y-98018600D03*
X48971200Y-84734400D03*
X59715400Y-80306810D03*
X43916600Y-78770110D03*
X58576797Y-80306810D03*
X70421500Y-96012000D03*
X66054743Y-70874384D03*
X53746400Y-98488500D03*
X52933600Y-99237800D03*
X65166202Y-97942400D03*
X54494885Y-104699615D03*
X65418836Y-92685736D03*
X45046900Y-98450400D03*
X55892700Y-64033400D03*
X53586000Y-67678300D03*
X41503600Y-96304100D03*
X41427400Y-97510600D03*
X51981100Y-75184000D03*
X51981100Y-73528290D03*
X52769362Y-72732900D03*
X54102000Y-75184000D03*
X58623200Y-61264800D03*
X52332000Y-69832749D03*
X50634900Y-71526400D03*
X42189400Y-82296000D03*
X49106599Y-85644499D03*
X39598600Y-101841300D03*
X34404300Y-101206300D03*
X35224741Y-90271971D03*
X34667060Y-88845912D03*
X61709300Y-73075800D03*
X58221347Y-78085481D03*
D38*
X53568600Y-70658100D02*
X53586000Y-70675500D01*
X61174999Y-86574999D02*
X60325000Y-85725000D01*
X63195000Y-108304000D02*
X63233300Y-108342300D01*
X63195000Y-107300000D02*
X63195000Y-108304000D01*
X63233300Y-108342300D02*
X63233300Y-109169200D01*
X61595000Y-95900000D02*
X61595000Y-94895361D01*
X61595000Y-94895361D02*
X59283600Y-92583961D01*
X63195000Y-107300000D02*
X63195000Y-106296000D01*
X63258802Y-106232198D02*
X65087500Y-104403500D01*
X66481398Y-99200000D02*
X67295000Y-99200000D01*
X65087500Y-100593898D02*
X66481398Y-99200000D01*
X65087500Y-104403500D02*
X65087500Y-100593898D01*
X75146000Y-121430000D02*
X71755000Y-121430000D01*
X76200000Y-121430000D02*
X75146000Y-121430000D01*
X70701000Y-121430000D02*
X67310000Y-121430000D01*
X71755000Y-121430000D02*
X70701000Y-121430000D01*
X66256000Y-121430000D02*
X63500000Y-121430000D01*
X67310000Y-121430000D02*
X66256000Y-121430000D01*
X63500000Y-120086000D02*
X62522100Y-119108100D01*
X63500000Y-121430000D02*
X63500000Y-120086000D01*
X62522100Y-119108100D02*
X62522100Y-118364000D01*
X43354999Y-121459999D02*
X42545000Y-120650000D01*
X43722001Y-121827001D02*
X43354999Y-121459999D01*
X62048999Y-121827001D02*
X43722001Y-121827001D01*
X62446000Y-121430000D02*
X62048999Y-121827001D01*
X63500000Y-121430000D02*
X62446000Y-121430000D01*
X66291000Y-99200000D02*
X67295000Y-99200000D01*
X61595000Y-95900000D02*
X61595000Y-98158300D01*
X61595000Y-98158300D02*
X62636700Y-99200000D01*
X55895000Y-104000000D02*
X59410900Y-104000000D01*
X59410900Y-104000000D02*
X59791600Y-103619300D01*
X63868000Y-99200000D02*
X66291000Y-99200000D01*
X62636700Y-99200000D02*
X63868000Y-99200000D01*
X56899000Y-104000000D02*
X55895000Y-104000000D01*
X57708800Y-104809800D02*
X56899000Y-104000000D01*
X57708800Y-105384600D02*
X57708800Y-104809800D01*
X70104500Y-80010000D02*
X69335900Y-79241400D01*
X71225000Y-80010000D02*
X70104500Y-80010000D01*
X63500000Y-111569500D02*
X63500000Y-112250000D01*
X65239900Y-109829600D02*
X63500000Y-111569500D01*
X63500000Y-110906000D02*
X63500000Y-112250000D01*
X63995000Y-107300000D02*
X63995000Y-110411000D01*
X63995000Y-110411000D02*
X63500000Y-110906000D01*
X63500000Y-112250000D02*
X63500000Y-113626900D01*
X63500000Y-113626900D02*
X63169800Y-113957100D01*
X64936300Y-108445300D02*
X66627234Y-108445300D01*
X64795000Y-107300000D02*
X64795000Y-108304000D01*
X64795000Y-108304000D02*
X64936300Y-108445300D01*
X67310000Y-109128066D02*
X67310000Y-112250000D01*
X66627234Y-108445300D02*
X67310000Y-109128066D01*
X67310000Y-111075472D02*
X68199446Y-110186026D01*
X67310000Y-112250000D02*
X67310000Y-111075472D01*
X67310000Y-112250000D02*
X67310000Y-113969800D01*
X67310000Y-113969800D02*
X67398900Y-114058700D01*
D39*
X65903000Y-64790000D02*
X68570000Y-67457000D01*
X64770000Y-64790000D02*
X65903000Y-64790000D01*
D38*
X68570000Y-70485000D02*
X68570000Y-67457000D01*
X69654800Y-69400200D02*
X68570000Y-70485000D01*
X69654800Y-66903600D02*
X69654800Y-69400200D01*
D39*
X81318000Y-67840000D02*
X81648300Y-67509700D01*
X80010000Y-67840000D02*
X81318000Y-67840000D01*
X81648300Y-67509700D02*
X81648300Y-65849500D01*
D38*
X68570000Y-66231000D02*
X69075300Y-65725700D01*
X68570000Y-70485000D02*
X68570000Y-66231000D01*
X62010261Y-73702801D02*
X62010261Y-74228673D01*
X62484000Y-71869300D02*
X62484000Y-73229062D01*
X62484000Y-73229062D02*
X62010261Y-73702801D01*
X62010261Y-74228673D02*
X61775817Y-74463117D01*
X61775817Y-74463117D02*
X61775817Y-74711083D01*
X61775817Y-74711083D02*
X60947300Y-75539600D01*
X60947300Y-75539600D02*
X59994800Y-75539600D01*
X59205999Y-75084601D02*
X59205999Y-72605900D01*
X59994800Y-75539600D02*
X59660998Y-75539600D01*
X59660998Y-75539600D02*
X59205999Y-75084601D01*
X38214300Y-98310700D02*
X39370000Y-97155000D01*
X37706300Y-98310700D02*
X38214300Y-98310700D01*
X54898901Y-91305101D02*
X54940200Y-91346400D01*
X51765200Y-91605100D02*
X52065199Y-91305101D01*
X52065199Y-91305101D02*
X54898901Y-91305101D01*
X50185000Y-104140000D02*
X49174400Y-104140000D01*
X49174400Y-104140000D02*
X47663100Y-105651300D01*
X40687694Y-103616194D02*
X40339100Y-103267600D01*
X42033894Y-103616194D02*
X40687694Y-103616194D01*
X68570000Y-68780500D02*
X68570000Y-67457000D01*
X69814600Y-70025100D02*
X68570000Y-68780500D01*
X69814600Y-70345300D02*
X69814600Y-70025100D01*
X69814600Y-70345300D02*
X68709700Y-70345300D01*
X33515300Y-79100310D02*
X33561390Y-79146400D01*
X34955110Y-82651864D02*
X34955110Y-82227600D01*
X33515300Y-76288900D02*
X33515300Y-79100310D01*
X36207700Y-84874100D02*
X34955110Y-83621510D01*
X34955110Y-83621510D02*
X34955110Y-82651864D01*
X68210600Y-70345300D02*
X69814600Y-70345300D01*
X65312001Y-70717699D02*
X65917701Y-70111999D01*
X66163161Y-70111999D02*
X66396462Y-70345300D01*
X62484000Y-71869300D02*
X64554302Y-71869300D01*
X66396462Y-70345300D02*
X68210600Y-70345300D01*
X65312001Y-71111601D02*
X65312001Y-70717699D01*
X65917701Y-70111999D02*
X66163161Y-70111999D01*
X64554302Y-71869300D02*
X65312001Y-71111601D01*
D39*
X76205000Y-57525000D02*
X67305000Y-57525000D01*
X67305000Y-61267000D02*
X67305000Y-57525000D01*
X67305000Y-63025000D02*
X67305000Y-61267000D01*
X76205000Y-61267000D02*
X76205000Y-57525000D01*
X76205000Y-63025000D02*
X76205000Y-61267000D01*
X70055000Y-63025000D02*
X70155000Y-63125000D01*
X67305000Y-63025000D02*
X70055000Y-63025000D01*
X77420000Y-64240000D02*
X76205000Y-63025000D01*
X80010000Y-64240000D02*
X77420000Y-64240000D01*
X67045000Y-57785000D02*
X67305000Y-57525000D01*
X64030000Y-57785000D02*
X67045000Y-57785000D01*
D38*
X60325000Y-77615800D02*
X60325000Y-76915000D01*
X62037200Y-79328000D02*
X60325000Y-77615800D01*
X62992000Y-79378800D02*
X62941200Y-79328000D01*
X65989200Y-79378800D02*
X62992000Y-79378800D01*
X74825000Y-78956000D02*
X72466200Y-76597200D01*
X74825000Y-80010000D02*
X74825000Y-78956000D01*
X72466200Y-76597200D02*
X72466200Y-75006200D01*
X65193000Y-63025000D02*
X65160000Y-62992000D01*
X67305000Y-63025000D02*
X65193000Y-63025000D01*
X65649000Y-67290000D02*
X66027300Y-66911700D01*
X64770000Y-67290000D02*
X65649000Y-67290000D01*
X66027300Y-66911700D02*
X66027300Y-66459100D01*
X66027300Y-66459100D02*
X66009394Y-66441194D01*
X68093600Y-79378800D02*
X72466200Y-75006200D01*
X65989200Y-79378800D02*
X68093600Y-79378800D01*
X53258999Y-71839099D02*
X52959000Y-71539100D01*
X57300000Y-74700000D02*
X56119900Y-74700000D01*
X56119900Y-74700000D02*
X53258999Y-71839099D01*
X57300000Y-75954000D02*
X57300000Y-75454000D01*
X56804000Y-76450000D02*
X57300000Y-75954000D01*
X56050000Y-76450000D02*
X56804000Y-76450000D01*
X44300000Y-75454000D02*
X44300000Y-74700000D01*
X44300000Y-75954000D02*
X44300000Y-75454000D01*
X44796000Y-76450000D02*
X44300000Y-75954000D01*
X45550000Y-76450000D02*
X44796000Y-76450000D01*
X42755000Y-74700000D02*
X41910000Y-75545000D01*
X44300000Y-74700000D02*
X42755000Y-74700000D01*
X45304000Y-74700000D02*
X45707300Y-74296700D01*
X44300000Y-74700000D02*
X45304000Y-74700000D01*
X50201400Y-74296700D02*
X52959000Y-71539100D01*
X45707300Y-74296700D02*
X50201400Y-74296700D01*
X62395000Y-107300000D02*
X62395000Y-108394600D01*
X62395000Y-108394600D02*
X61722000Y-109067600D01*
X73707000Y-96012000D02*
X73707000Y-98298000D01*
X73707000Y-98298000D02*
X73707000Y-100457000D01*
X73707000Y-100457000D02*
X73707000Y-102743000D01*
X62037200Y-79328000D02*
X62941200Y-79328000D01*
X47078900Y-86906100D02*
X46990000Y-86995000D01*
X51015900Y-86906100D02*
X47078900Y-86906100D01*
X45858630Y-86995000D02*
X39370000Y-86995000D01*
X46990000Y-86995000D02*
X45858630Y-86995000D01*
X39370000Y-86995000D02*
X41071800Y-86995000D01*
X41071800Y-86995000D02*
X41922700Y-86144100D01*
X79050000Y-80010000D02*
X80500000Y-78560000D01*
X74825000Y-80010000D02*
X79050000Y-80010000D01*
X52685000Y-103261000D02*
X52685000Y-104140000D01*
X52746000Y-103200000D02*
X52685000Y-103261000D01*
X55895000Y-103200000D02*
X52746000Y-103200000D01*
X62395000Y-106296000D02*
X62395000Y-107300000D01*
X62395000Y-103440540D02*
X62395000Y-106296000D01*
X61895961Y-102941501D02*
X62395000Y-103440540D01*
X57157499Y-102941501D02*
X61895961Y-102941501D01*
X56899000Y-103200000D02*
X57157499Y-102941501D01*
X55895000Y-103200000D02*
X56899000Y-103200000D01*
X68594422Y-100000000D02*
X68606922Y-100012500D01*
X72258500Y-100012500D02*
X69031186Y-100012500D01*
X73707000Y-100457000D02*
X72703000Y-100457000D01*
X69031186Y-100012500D02*
X68606922Y-100012500D01*
X67295000Y-100000000D02*
X68594422Y-100000000D01*
X72703000Y-100457000D02*
X72258500Y-100012500D01*
X61799700Y-79565500D02*
X62037200Y-79328000D01*
X58200914Y-79565500D02*
X61799700Y-79565500D01*
X56607999Y-81158415D02*
X58200914Y-79565500D01*
X55245000Y-85725000D02*
X56607999Y-84362001D01*
X56607999Y-84362001D02*
X56607999Y-81158415D01*
X63462400Y-73850000D02*
X64135000Y-73850000D01*
X60325000Y-76915000D02*
X60397400Y-76915000D01*
X60397400Y-76915000D02*
X63462400Y-73850000D01*
X57300000Y-74700000D02*
X57300000Y-75454000D01*
X57277000Y-75477000D02*
X57277000Y-77464836D01*
X57277000Y-77464836D02*
X57277000Y-77889100D01*
X60325000Y-76915000D02*
X58251100Y-76915000D01*
X58251100Y-76915000D02*
X57277000Y-77889100D01*
X57300000Y-75454000D02*
X57277000Y-75477000D01*
X51015900Y-86906100D02*
X53043999Y-86906100D01*
X36401000Y-120650000D02*
X37465000Y-120650000D01*
X32663903Y-120650000D02*
X36401000Y-120650000D01*
X30454978Y-99235022D02*
X30454978Y-118441075D01*
X30454978Y-118441075D02*
X32663903Y-120650000D01*
X32540000Y-97150000D02*
X30454978Y-99235022D01*
X59200000Y-90805000D02*
X57344761Y-90805000D01*
X57344761Y-90805000D02*
X56819800Y-91329961D01*
X60544000Y-90805000D02*
X61047290Y-90301710D01*
X61965622Y-90301710D02*
X62389886Y-90301710D01*
X59200000Y-90805000D02*
X60544000Y-90805000D01*
X61047290Y-90301710D02*
X61965622Y-90301710D01*
X62395000Y-95900000D02*
X62395000Y-91859200D01*
X62395000Y-91859200D02*
X62475975Y-91778225D01*
X37114201Y-92405109D02*
X37414200Y-92105110D01*
X32540000Y-94610000D02*
X34909310Y-94610000D01*
X34909310Y-94610000D02*
X37114201Y-92405109D01*
X38895400Y-89535000D02*
X37579300Y-90851100D01*
X39370000Y-89535000D02*
X38895400Y-89535000D01*
X54192645Y-104140000D02*
X54430431Y-103902214D01*
X52685000Y-104140000D02*
X54192645Y-104140000D01*
X40394601Y-111902403D02*
X41382498Y-112890300D01*
X40347896Y-109715296D02*
X40394601Y-109762001D01*
X40394601Y-109762001D02*
X40394601Y-111902403D01*
X41382498Y-112890300D02*
X47593899Y-112890300D01*
X47593899Y-112890300D02*
X48546399Y-113842800D01*
X62372999Y-114088261D02*
X62372999Y-108326001D01*
X64823619Y-116538881D02*
X62372999Y-114088261D01*
X71680041Y-116538881D02*
X64823619Y-116538881D01*
X62395000Y-108304000D02*
X62395000Y-107300000D01*
X72939657Y-115279265D02*
X71680041Y-116538881D01*
X66217999Y-106751933D02*
X68613056Y-109146990D01*
X68613056Y-109146990D02*
X71873352Y-109146990D01*
X66217999Y-100263399D02*
X66217999Y-106751933D01*
X66283399Y-100197999D02*
X66217999Y-100263399D01*
X72939657Y-110213295D02*
X72939657Y-115279265D01*
X70425001Y-100197999D02*
X66283399Y-100197999D01*
X73707000Y-96916000D02*
X70425001Y-100197999D01*
X62372999Y-108326001D02*
X62395000Y-108304000D01*
X71873352Y-109146990D02*
X72939657Y-110213295D01*
X73707000Y-96012000D02*
X73707000Y-96916000D01*
X76205000Y-63025000D02*
X76205000Y-64529000D01*
X73325522Y-64765659D02*
X72901258Y-64765659D01*
X75968341Y-64765659D02*
X73325522Y-64765659D01*
X71793100Y-65873817D02*
X71793100Y-66014600D01*
X72901258Y-64765659D02*
X71793100Y-65873817D01*
X76205000Y-64529000D02*
X75968341Y-64765659D01*
X66124000Y-107300000D02*
X68425000Y-109601000D01*
X65595000Y-107300000D02*
X66124000Y-107300000D01*
X71755000Y-110906000D02*
X71755000Y-112250000D01*
X70450000Y-109601000D02*
X71755000Y-110906000D01*
X68425000Y-109601000D02*
X70450000Y-109601000D01*
X71755000Y-113594000D02*
X71691500Y-113657500D01*
X71755000Y-112250000D02*
X71755000Y-113594000D01*
X71691500Y-113657500D02*
X71691500Y-115599460D01*
X71691500Y-115599460D02*
X71379080Y-115911880D01*
X72312656Y-111692344D02*
X71755000Y-112250000D01*
X72312656Y-110514256D02*
X72312656Y-111692344D01*
X76200000Y-113594000D02*
X76060300Y-113733700D01*
X76200000Y-112250000D02*
X76200000Y-113594000D01*
X76060300Y-113733700D02*
X76060300Y-115584220D01*
X76060300Y-115584220D02*
X75747880Y-115896640D01*
X76200000Y-108366812D02*
X75788394Y-107955206D01*
X76200000Y-112250000D02*
X76200000Y-108366812D01*
X75788394Y-107710560D02*
X75788394Y-107955206D01*
X74787933Y-106710099D02*
X75788394Y-107710560D01*
X69905499Y-106710099D02*
X74787933Y-106710099D01*
X67295000Y-105600000D02*
X68795400Y-105600000D01*
X68795400Y-105600000D02*
X69905499Y-106710099D01*
D39*
X60930000Y-57785000D02*
X62962000Y-59817000D01*
X60430000Y-57785000D02*
X60930000Y-57785000D01*
X62962000Y-59817000D02*
X66192400Y-59817000D01*
X66192400Y-59817000D02*
X66255900Y-59753500D01*
D38*
X66179700Y-73444100D02*
X66179700Y-74033302D01*
X66179700Y-74033302D02*
X66958399Y-74812001D01*
X67943000Y-68453000D02*
X67943000Y-69391500D01*
X67943000Y-69391500D02*
X67627500Y-69707000D01*
X66205100Y-73469500D02*
X66179700Y-73444100D01*
X67932300Y-73469500D02*
X66205100Y-73469500D01*
X61480700Y-56734300D02*
X60430000Y-57785000D01*
X61480700Y-56464200D02*
X61480700Y-56734300D01*
X50617000Y-89154000D02*
X50020000Y-89751000D01*
X50020000Y-90805000D02*
X50020000Y-89751000D01*
X33389999Y-87839999D02*
X32540000Y-86990000D01*
X50020000Y-89751000D02*
X48391001Y-88122001D01*
X34941863Y-88122001D02*
X34844962Y-88218902D01*
X33768902Y-88218902D02*
X33389999Y-87839999D01*
X34844962Y-88218902D02*
X33768902Y-88218902D01*
X48391001Y-88122001D02*
X34941863Y-88122001D01*
X53822600Y-88163400D02*
X52832000Y-89154000D01*
X55245000Y-83185000D02*
X53822600Y-84607400D01*
X52832000Y-89154000D02*
X50617000Y-89154000D01*
X53822600Y-84607400D02*
X53822600Y-88163400D01*
X64795000Y-95900000D02*
X64795000Y-93631932D01*
X64795000Y-93631932D02*
X64337823Y-93174755D01*
X62706086Y-87963390D02*
X54053642Y-87963390D01*
X52863032Y-89154000D02*
X50617000Y-89154000D01*
X64337823Y-89595127D02*
X62706086Y-87963390D01*
X64337823Y-93174755D02*
X64337823Y-89595127D01*
X54053642Y-87963390D02*
X52863032Y-89154000D01*
D39*
X73355000Y-61467000D02*
X73355000Y-63125000D01*
X73355000Y-61307864D02*
X73355000Y-61467000D01*
X72555100Y-60507964D02*
X73355000Y-61307864D01*
X72555100Y-60083700D02*
X72555100Y-60507964D01*
D38*
X77851000Y-56227600D02*
X81579088Y-56227600D01*
X81579088Y-56227600D02*
X81626394Y-56274906D01*
X76407000Y-102743000D02*
X76407000Y-103970513D01*
X76407000Y-103970513D02*
X76178353Y-104199160D01*
X76521300Y-100342700D02*
X76407000Y-100457000D01*
X78130400Y-100342700D02*
X76521300Y-100342700D01*
X76407000Y-98298000D02*
X78105000Y-98298000D01*
X78105000Y-98298000D02*
X78130400Y-98272600D01*
X76622900Y-96227900D02*
X76407000Y-96012000D01*
X78206600Y-96227900D02*
X76622900Y-96227900D01*
X39217600Y-116466880D02*
X39997120Y-117246400D01*
X39217600Y-115212880D02*
X39217600Y-116466880D01*
X39997120Y-117246400D02*
X45313600Y-117246400D01*
X45313600Y-117246400D02*
X45923200Y-117856000D01*
X46355000Y-118226000D02*
X46355000Y-119380000D01*
X45985000Y-117856000D02*
X46355000Y-118226000D01*
X45923200Y-117856000D02*
X45985000Y-117856000D01*
X41752520Y-114971720D02*
X43506500Y-116725700D01*
X41752520Y-114821720D02*
X41752520Y-114971720D01*
X48895000Y-118226000D02*
X48895000Y-119380000D01*
X47394700Y-116725700D02*
X48895000Y-118226000D01*
X43506500Y-116725700D02*
X47394700Y-116725700D01*
X46379720Y-114440720D02*
X50165000Y-118226000D01*
X50165000Y-118226000D02*
X50165000Y-119380000D01*
X44256960Y-114440720D02*
X46379720Y-114440720D01*
D39*
X74503414Y-65862150D02*
X74503414Y-65437886D01*
X74503414Y-69651586D02*
X74503414Y-65862150D01*
X73670000Y-70485000D02*
X74503414Y-69651586D01*
D38*
X73921640Y-66019660D02*
X74503414Y-65437886D01*
X72898000Y-66019660D02*
X73921640Y-66019660D01*
X65085200Y-76678800D02*
X64492100Y-76085700D01*
X65989200Y-76678800D02*
X65085200Y-76678800D01*
X64430900Y-78117700D02*
X62941200Y-76628000D01*
X64439800Y-78117700D02*
X64430900Y-78117700D01*
X47398399Y-90662001D02*
X49128898Y-92392500D01*
X46449039Y-90662001D02*
X47398399Y-90662001D01*
X44589700Y-90320999D02*
X46108037Y-90320999D01*
X46108037Y-90320999D02*
X46449039Y-90662001D01*
X49128898Y-92392500D02*
X51015900Y-92392500D01*
X56013261Y-80172869D02*
X56313260Y-79872870D01*
X53150644Y-84392644D02*
X53150644Y-83035486D01*
X53150644Y-83035486D02*
X56013261Y-80172869D01*
X49921400Y-107997000D02*
X49627410Y-108290990D01*
X49627410Y-116404275D02*
X51800111Y-118576976D01*
X51800111Y-118576976D02*
X51800111Y-120241157D01*
X51800111Y-120241157D02*
X50937257Y-121104011D01*
X49789876Y-121104010D02*
X49746878Y-121061012D01*
X30908988Y-118253018D02*
X30908989Y-103317311D01*
X45370341Y-121061011D02*
X43440342Y-119131012D01*
X49746878Y-121061012D02*
X45370341Y-121061011D01*
X49627410Y-108290990D02*
X49627410Y-116404275D01*
X42796223Y-92856739D02*
X42796223Y-92412264D01*
X32194350Y-102136589D02*
X38302941Y-96027999D01*
X42796223Y-92412264D02*
X42796223Y-91988000D01*
X50937257Y-121104011D02*
X49789876Y-121104010D01*
X39624963Y-96027999D02*
X42796223Y-92856739D01*
X31786981Y-119131011D02*
X30908988Y-118253018D01*
X50825400Y-107997000D02*
X49921400Y-107997000D01*
X38302941Y-96027999D02*
X39624963Y-96027999D01*
X30908989Y-103317311D02*
X32089711Y-102136589D01*
X32089711Y-102136589D02*
X32194350Y-102136589D01*
X43440342Y-119131012D02*
X31786981Y-119131011D01*
X50825400Y-110697000D02*
X50825400Y-112903101D01*
X50825400Y-112903101D02*
X50812700Y-112915801D01*
X47345600Y-106916800D02*
X49170399Y-105092001D01*
X47345600Y-107920800D02*
X47345600Y-106916800D01*
X49170399Y-105092001D02*
X51196601Y-105092001D01*
X51196601Y-105092001D02*
X51523900Y-104764702D01*
X51523900Y-104764702D02*
X51523900Y-103098600D01*
X62928104Y-81093242D02*
X62928104Y-80848596D01*
X72267678Y-88168078D02*
X70002940Y-88168078D01*
X70002940Y-88168078D02*
X62928104Y-81093242D01*
X47345600Y-110620800D02*
X47345600Y-109364501D01*
X47345600Y-109364501D02*
X47358300Y-109351801D01*
X60325000Y-73211000D02*
X60325000Y-74215000D01*
X59832999Y-72718999D02*
X60325000Y-73211000D01*
X59832999Y-65147701D02*
X59832999Y-72718999D01*
X60655200Y-64325500D02*
X59832999Y-65147701D01*
X70624700Y-100952300D02*
X70675500Y-101003100D01*
X67295000Y-100800000D02*
X67447300Y-100952300D01*
X67447300Y-100952300D02*
X70624700Y-100952300D01*
X74683899Y-94251501D02*
X74383900Y-94551500D01*
X76972801Y-92622999D02*
X75344299Y-94251501D01*
X81604000Y-70940000D02*
X82095990Y-71431990D01*
X80500000Y-70940000D02*
X81604000Y-70940000D01*
X75344299Y-94251501D02*
X74683899Y-94251501D01*
X82095990Y-71431990D02*
X82095990Y-91561944D01*
X82095990Y-91561944D02*
X81034935Y-92622999D01*
X81034935Y-92622999D02*
X76972801Y-92622999D01*
X67295000Y-101600000D02*
X68491100Y-101600000D01*
X68491100Y-101600000D02*
X70485000Y-103593900D01*
X54891000Y-100000000D02*
X54878500Y-100012500D01*
X55895000Y-100000000D02*
X54891000Y-100000000D01*
X54878500Y-100012500D02*
X54140100Y-100012500D01*
X52797999Y-116932999D02*
X53125001Y-117260001D01*
X52797999Y-114458399D02*
X52797999Y-116932999D01*
X53125001Y-117260001D02*
X53975000Y-118110000D01*
X52863399Y-114392999D02*
X52797999Y-114458399D01*
X55506001Y-114392999D02*
X52863399Y-114392999D01*
X61595000Y-108304000D02*
X55506001Y-114392999D01*
X61595000Y-107300000D02*
X61595000Y-108304000D01*
X61595000Y-107300000D02*
X61595000Y-103568502D01*
X60795000Y-108304000D02*
X55637200Y-113461800D01*
X60795000Y-107300000D02*
X60795000Y-108304000D01*
X55637200Y-113461800D02*
X53962300Y-113461800D01*
X60795000Y-105524400D02*
X60706000Y-105435400D01*
X60795000Y-107300000D02*
X60795000Y-105524400D01*
X59995000Y-105408187D02*
X59995000Y-107300000D01*
X59913429Y-105326616D02*
X59995000Y-105408187D01*
X53410039Y-119287001D02*
X55337999Y-119287001D01*
X52343989Y-118220951D02*
X53410039Y-119287001D01*
X52343989Y-110762111D02*
X52343989Y-118220951D01*
X55665001Y-118959999D02*
X56515000Y-118110000D01*
X59995000Y-106296000D02*
X59820200Y-106121200D01*
X59995000Y-107300000D02*
X59995000Y-106296000D01*
X55337999Y-119287001D02*
X55665001Y-118959999D01*
X56972200Y-106121200D02*
X56972200Y-106133900D01*
X59820200Y-106121200D02*
X56972200Y-106121200D01*
X56972200Y-106133900D02*
X52343989Y-110762111D01*
X59195000Y-108966300D02*
X59220494Y-108991794D01*
X59195000Y-107300000D02*
X59195000Y-108787112D01*
X59195000Y-108787112D02*
X59200451Y-108792563D01*
X58395000Y-107300000D02*
X58395000Y-108877368D01*
X58395000Y-108877368D02*
X58406236Y-108888604D01*
X82550000Y-91750000D02*
X80500000Y-93800000D01*
X82550000Y-56407780D02*
X82550000Y-91750000D01*
X82597990Y-56359790D02*
X82550000Y-56407780D01*
X81838800Y-55600600D02*
X82597990Y-56359790D01*
X57300000Y-59700000D02*
X56296000Y-59700000D01*
X56222999Y-59626999D02*
X56222999Y-55938399D01*
X56296000Y-59700000D02*
X56222999Y-59626999D01*
X56222999Y-55938399D02*
X56560798Y-55600600D01*
X56560798Y-55600600D02*
X81838800Y-55600600D01*
X57595000Y-107300000D02*
X57595000Y-108915700D01*
X57595000Y-108915700D02*
X57607200Y-108927900D01*
X72555000Y-64198699D02*
X72055098Y-64698601D01*
X72555000Y-63125000D02*
X72555000Y-64198699D01*
X72055098Y-64698601D02*
X67952899Y-64698601D01*
X67952899Y-64698601D02*
X67652900Y-64998600D01*
X68960101Y-61302001D02*
X67886010Y-60227910D01*
X71336001Y-61302001D02*
X68960101Y-61302001D01*
X71755000Y-63125000D02*
X71755000Y-61721000D01*
X71755000Y-61721000D02*
X71336001Y-61302001D01*
X67886010Y-60227910D02*
X67886010Y-59481990D01*
X67886010Y-59481990D02*
X68059000Y-59309000D01*
X69920567Y-106083099D02*
X74803002Y-106083100D01*
X76634754Y-108046632D02*
X76934753Y-108346631D01*
X76634754Y-107914852D02*
X76634754Y-108046632D01*
X68637468Y-104800000D02*
X69920567Y-106083099D01*
X67295000Y-104800000D02*
X68637468Y-104800000D01*
X74803002Y-106083100D02*
X76634754Y-107914852D01*
X77717680Y-108242846D02*
X77717680Y-108343346D01*
X77544690Y-108516336D02*
X77544690Y-108940600D01*
X67295000Y-104000000D02*
X68479536Y-104000000D01*
X68479536Y-104000000D02*
X70060956Y-105581420D01*
X77717680Y-108343346D02*
X77544690Y-108516336D01*
X75056254Y-105581420D02*
X77717680Y-108242846D01*
X70060956Y-105581420D02*
X75056254Y-105581420D01*
X68299000Y-102400000D02*
X70572400Y-104673400D01*
X67295000Y-102400000D02*
X68299000Y-102400000D01*
X75768200Y-104673400D02*
X78625700Y-107530900D01*
X78625700Y-107530900D02*
X78625700Y-113550700D01*
X78625700Y-113550700D02*
X78651100Y-113576100D01*
X78651100Y-113576100D02*
X78651100Y-114274600D01*
X78651100Y-114274600D02*
X79349600Y-114973100D01*
X80476900Y-114973100D02*
X80500000Y-114950000D01*
X79349600Y-114973100D02*
X80476900Y-114973100D01*
X63213325Y-82265175D02*
X74469267Y-93521117D01*
X74469267Y-93521117D02*
X74469267Y-93481167D01*
X74469267Y-93481167D02*
X74409300Y-93421200D01*
X74879200Y-103644700D02*
X73888600Y-104635300D01*
X74879200Y-101688900D02*
X74879200Y-103644700D01*
X70572400Y-104673400D02*
X73888600Y-104635300D01*
X73888600Y-104635300D02*
X75768200Y-104673400D01*
X56483182Y-79173312D02*
X56660982Y-79351112D01*
X56660982Y-79351112D02*
X57639019Y-79351111D01*
X58123547Y-78866583D02*
X58830671Y-78866583D01*
X58830671Y-78866583D02*
X59254935Y-78866583D01*
X52171600Y-80162400D02*
X53160688Y-79173312D01*
X53160688Y-79173312D02*
X56483182Y-79173312D01*
X57639019Y-79351111D02*
X58123547Y-78866583D01*
X68456934Y-103200000D02*
X70384343Y-105127410D01*
X67295000Y-103200000D02*
X68456934Y-103200000D01*
X78171690Y-115161690D02*
X79650001Y-116640001D01*
X79650001Y-116640001D02*
X80500000Y-117490000D01*
X75244310Y-105127410D02*
X78171690Y-108054790D01*
X78171690Y-108054790D02*
X78171690Y-115161690D01*
X70384343Y-105127410D02*
X75244310Y-105127410D01*
X81677001Y-116312999D02*
X81677001Y-98644201D01*
X80500000Y-117490000D02*
X81677001Y-116312999D01*
X81677001Y-98644201D02*
X76974700Y-93941900D01*
X48348900Y-82677702D02*
X48348900Y-79194374D01*
X52451000Y-84810600D02*
X50481798Y-84810600D01*
X48348900Y-79194374D02*
X48348900Y-78770110D01*
X50481798Y-84810600D02*
X48348900Y-82677702D01*
X72364600Y-93954600D02*
X68323486Y-89913486D01*
X68323486Y-89913486D02*
X68191086Y-89913486D01*
X62359288Y-88944434D02*
X62783552Y-88944434D01*
X53714666Y-88944434D02*
X62359288Y-88944434D01*
X52034975Y-90624125D02*
X53714666Y-88944434D01*
X51762125Y-90624125D02*
X52034975Y-90624125D01*
X32540000Y-104800000D02*
X41736801Y-104800000D01*
X54611067Y-93335433D02*
X59234433Y-93335433D01*
X60795000Y-94896000D02*
X60795000Y-95900000D01*
X41736801Y-104800000D02*
X49029330Y-97507471D01*
X49029330Y-97507471D02*
X50439030Y-97507470D01*
X59234433Y-93335433D02*
X60795000Y-94896000D01*
X50439030Y-97507470D02*
X54611067Y-93335433D01*
X54799124Y-93789444D02*
X50627088Y-97961480D01*
X59995000Y-95900000D02*
X59995000Y-94896000D01*
X33389999Y-106490001D02*
X32540000Y-107340000D01*
X50627088Y-97961480D02*
X49217389Y-97961480D01*
X41470387Y-105708480D02*
X34171520Y-105708480D01*
X59995000Y-94896000D02*
X58888444Y-93789444D01*
X58888444Y-93789444D02*
X54799124Y-93789444D01*
X49217389Y-97961480D02*
X41470387Y-105708480D01*
X34171520Y-105708480D02*
X33389999Y-106490001D01*
X59195000Y-95900000D02*
X59146200Y-95900000D01*
X49405446Y-98415491D02*
X50815145Y-98415491D01*
X50815145Y-98415491D02*
X54987181Y-94243455D01*
X59195000Y-94896000D02*
X59195000Y-95900000D01*
X58542455Y-94243455D02*
X59195000Y-94896000D01*
X54987181Y-94243455D02*
X58542455Y-94243455D01*
X41658445Y-106162490D02*
X49405446Y-98415491D01*
X36257510Y-106162490D02*
X41658445Y-106162490D01*
X32540000Y-109880000D02*
X36257510Y-106162490D01*
X38343500Y-106616500D02*
X41846503Y-106616500D01*
X41846503Y-106616500D02*
X49593503Y-98869502D01*
X51003203Y-98869501D02*
X55175238Y-94697466D01*
X58395000Y-94896000D02*
X58395000Y-95900000D01*
X55175238Y-94697466D02*
X58196466Y-94697466D01*
X49593503Y-98869502D02*
X51003203Y-98869501D01*
X58196466Y-94697466D02*
X58395000Y-94896000D01*
X32540000Y-112420000D02*
X38343500Y-106616500D01*
X33389999Y-113959812D02*
X40072911Y-107276900D01*
X32540000Y-114960000D02*
X33389999Y-114110001D01*
X33389999Y-114110001D02*
X33389999Y-113959812D01*
X49828133Y-99542201D02*
X50996533Y-99542201D01*
X40072911Y-107276900D02*
X42093434Y-107276900D01*
X42093434Y-107276900D02*
X49828133Y-99542201D01*
X54638734Y-95900000D02*
X57595000Y-95900000D01*
X50996533Y-99542201D02*
X54638734Y-95900000D01*
X53580800Y-97600000D02*
X55895000Y-97600000D01*
X50990500Y-100190300D02*
X53580800Y-97600000D01*
X38040599Y-111999401D02*
X38040599Y-109951279D01*
X38040599Y-109951279D02*
X40067278Y-107924600D01*
X49822100Y-100190300D02*
X50990500Y-100190300D01*
X42087800Y-107924600D02*
X49822100Y-100190300D01*
X32540000Y-117500000D02*
X38040599Y-111999401D01*
X40067278Y-107924600D02*
X42087800Y-107924600D01*
X46930198Y-84455000D02*
X46990000Y-84455000D01*
X38242999Y-75767801D02*
X46930198Y-84455000D01*
X38242999Y-64427837D02*
X38242999Y-75767801D01*
X33841689Y-61865511D02*
X35680673Y-61865511D01*
X35680673Y-61865511D02*
X38242999Y-64427837D01*
X32842200Y-62865000D02*
X33841689Y-61865511D01*
X46190001Y-91275001D02*
X46990000Y-92075000D01*
X38298938Y-91478100D02*
X38959338Y-90817700D01*
X35242500Y-91478100D02*
X38298938Y-91478100D01*
X46151800Y-91236800D02*
X46190001Y-91275001D01*
X33717001Y-89952601D02*
X35242500Y-91478100D01*
X32842200Y-65405000D02*
X31588710Y-65405000D01*
X40199762Y-91236800D02*
X46151800Y-91236800D01*
X38959338Y-90817700D02*
X39780662Y-90817700D01*
X33055062Y-88303100D02*
X33717001Y-88965039D01*
X31588710Y-65405000D02*
X31362999Y-65630711D01*
X31362999Y-65630711D02*
X31362999Y-87738299D01*
X31362999Y-87738299D02*
X31927800Y-88303100D01*
X31927800Y-88303100D02*
X33055062Y-88303100D01*
X39780662Y-90817700D02*
X40199762Y-91236800D01*
X33717001Y-88965039D02*
X33717001Y-89952601D01*
X34328100Y-87376000D02*
X34544000Y-87591900D01*
X32842200Y-70827900D02*
X34328100Y-72313800D01*
X34328100Y-72313800D02*
X34328100Y-87376000D01*
X65595000Y-93789864D02*
X64791834Y-92986698D01*
X62255400Y-86870636D02*
X62255400Y-84011400D01*
X64791834Y-92986698D02*
X64791834Y-89407070D01*
X64791834Y-89407070D02*
X62255400Y-86870636D01*
X62255400Y-84011400D02*
X61429000Y-83185000D01*
X61429000Y-83185000D02*
X60325000Y-83185000D01*
X65595000Y-95900000D02*
X65595000Y-93789864D01*
X46990000Y-94615000D02*
X44577000Y-94615000D01*
X44577000Y-94615000D02*
X44526200Y-94665800D01*
X39446200Y-112903000D02*
X38910664Y-112903000D01*
X38910664Y-112903000D02*
X38069900Y-113743764D01*
X42692527Y-81668999D02*
X42780989Y-81757461D01*
X41063801Y-81668999D02*
X42692527Y-81668999D01*
X40513000Y-82219800D02*
X41063801Y-81668999D01*
X40868600Y-86131400D02*
X40513000Y-85775800D01*
X40513000Y-85775800D02*
X40513000Y-82219800D01*
X57708336Y-92625970D02*
X57452884Y-92881422D01*
X48914706Y-97053460D02*
X48145540Y-97053460D01*
X48145540Y-97053460D02*
X48044000Y-97155000D01*
X48044000Y-97155000D02*
X46990000Y-97155000D01*
X58132600Y-92625970D02*
X57708336Y-92625970D01*
X57452884Y-92881422D02*
X53086746Y-92881422D01*
X53086746Y-92881422D02*
X48914706Y-97053460D01*
X39370000Y-82169000D02*
X39370000Y-81915000D01*
X37477700Y-84061300D02*
X39370000Y-82169000D01*
X51015900Y-82906100D02*
X49275500Y-82906100D01*
X49275500Y-82906100D02*
X49369755Y-82811845D01*
X43524044Y-84517356D02*
X43039156Y-84517356D01*
X43039156Y-84517356D02*
X41360652Y-82838852D01*
X41360652Y-82838852D02*
X41360652Y-82788052D01*
X41360652Y-82788052D02*
X41160700Y-82588100D01*
X40169999Y-93815001D02*
X40169999Y-93751501D01*
X39370000Y-94615000D02*
X40169999Y-93815001D01*
X40169999Y-93751501D02*
X41998900Y-91922600D01*
X38570001Y-95414999D02*
X37515901Y-95414999D01*
X39370000Y-94615000D02*
X38570001Y-95414999D01*
X39217600Y-109958880D02*
X40553380Y-108623100D01*
X39217600Y-111212880D02*
X39217600Y-109958880D01*
X54891000Y-100800000D02*
X55895000Y-100800000D01*
X49922171Y-100800000D02*
X54891000Y-100800000D01*
X42099071Y-108623100D02*
X49922171Y-100800000D01*
X40553380Y-108623100D02*
X42099071Y-108623100D01*
X54891000Y-101600000D02*
X55895000Y-101600000D01*
X49764237Y-101600000D02*
X54891000Y-101600000D01*
X41752520Y-109611717D02*
X49764237Y-101600000D01*
X41752520Y-110821720D02*
X41752520Y-109611717D01*
X44256960Y-110440720D02*
X44256960Y-107749340D01*
X49606300Y-102400000D02*
X55895000Y-102400000D01*
X44256960Y-107749340D02*
X49606300Y-102400000D01*
X46445263Y-83327999D02*
X47564799Y-83327999D01*
X39919290Y-76802026D02*
X46445263Y-83327999D01*
X44300000Y-56700000D02*
X43254633Y-56700000D01*
X39919290Y-60035343D02*
X39919290Y-76802026D01*
X43254633Y-56700000D02*
X39919290Y-60035343D01*
X47564799Y-83327999D02*
X48971200Y-84734400D01*
X70319900Y-97486064D02*
X73550402Y-94255562D01*
X60139664Y-80306810D02*
X59715400Y-80306810D01*
X73550402Y-94255562D02*
X73550402Y-93502102D01*
X73550402Y-93502102D02*
X60355110Y-80306810D01*
X70319900Y-98018600D02*
X70319900Y-97486064D01*
X60355110Y-80306810D02*
X60139664Y-80306810D01*
X68108602Y-98400000D02*
X68490002Y-98018600D01*
X67295000Y-98400000D02*
X68108602Y-98400000D01*
X68490002Y-98018600D02*
X70319900Y-98018600D01*
X67295000Y-97071000D02*
X68354000Y-96012000D01*
X67295000Y-97600000D02*
X67295000Y-97071000D01*
X43492336Y-78770110D02*
X43916600Y-78770110D01*
X40373300Y-76613969D02*
X42529441Y-78770110D01*
X40373300Y-60223400D02*
X40373300Y-76613969D01*
X42396700Y-58200000D02*
X40373300Y-60223400D01*
X44300000Y-58200000D02*
X42396700Y-58200000D01*
X42529441Y-78770110D02*
X43492336Y-78770110D01*
X59275288Y-81005301D02*
X58876796Y-80606809D01*
X68354000Y-96012000D02*
X70421500Y-96012000D01*
X68354000Y-96012000D02*
X67564084Y-95222084D01*
X58876796Y-80606809D02*
X58576797Y-80306810D01*
X67564084Y-95222084D02*
X67564084Y-88157852D01*
X67564084Y-88157852D02*
X60411533Y-81005301D01*
X60411533Y-81005301D02*
X59275288Y-81005301D01*
X66054743Y-71298648D02*
X66054743Y-70874384D01*
X65552699Y-74048368D02*
X65552699Y-71800692D01*
X69722960Y-75912709D02*
X67417040Y-75912709D01*
X65552699Y-71800692D02*
X66054743Y-71298648D01*
X67417040Y-75912709D02*
X65552699Y-74048368D01*
X55806500Y-98488500D02*
X55895000Y-98400000D01*
X53746400Y-98488500D02*
X55806500Y-98488500D01*
X55857200Y-99237800D02*
X55895000Y-99200000D01*
X52933600Y-99237800D02*
X55857200Y-99237800D01*
X54595270Y-104800000D02*
X54494885Y-104699615D01*
X55895000Y-104800000D02*
X54595270Y-104800000D01*
X65718835Y-92985735D02*
X65418836Y-92685736D01*
X65166202Y-97942400D02*
X66200299Y-96908303D01*
X66200299Y-96908303D02*
X66200299Y-93467199D01*
X66200299Y-93467199D02*
X65718835Y-92985735D01*
X44746901Y-98750399D02*
X45046900Y-98450400D01*
X32277768Y-102590600D02*
X40906700Y-102590600D01*
X31362999Y-103505369D02*
X32277768Y-102590600D01*
X31362999Y-118064961D02*
X31362999Y-103505369D01*
X31975039Y-118677001D02*
X31362999Y-118064961D01*
X51257200Y-118676133D02*
X51257200Y-120142000D01*
X51257200Y-120142000D02*
X50749200Y-120650000D01*
X40906700Y-102590600D02*
X44746901Y-98750399D01*
X49173400Y-116592333D02*
X51257200Y-118676133D01*
X43628399Y-118677001D02*
X31975039Y-118677001D01*
X49173399Y-107623599D02*
X49173400Y-116592333D01*
X50749200Y-120650000D02*
X49977934Y-120650000D01*
X51196998Y-105600000D02*
X49173399Y-107623599D01*
X49977934Y-120650000D02*
X49779367Y-120451433D01*
X49779367Y-120451433D02*
X49623799Y-120607001D01*
X55895000Y-105600000D02*
X51196998Y-105600000D01*
X49623799Y-120607001D02*
X45558399Y-120607001D01*
X45558399Y-120607001D02*
X43628399Y-118677001D01*
X55468436Y-64033400D02*
X53517800Y-65984036D01*
X55892700Y-64033400D02*
X55468436Y-64033400D01*
X53517800Y-65984036D02*
X53517800Y-67610100D01*
X53517800Y-67610100D02*
X53586000Y-67678300D01*
X60551601Y-89677999D02*
X57848399Y-89677999D01*
X57782999Y-89743399D02*
X57782999Y-90350990D01*
X51104800Y-93319600D02*
X44488100Y-93319600D01*
X57156704Y-90350990D02*
X56804734Y-90702960D01*
X57782999Y-90350990D02*
X57156704Y-90350990D01*
X56804734Y-90702960D02*
X56518839Y-90702960D01*
X56518839Y-90702960D02*
X55248399Y-91973400D01*
X41803599Y-96004101D02*
X41503600Y-96304100D01*
X52451000Y-91973400D02*
X51104800Y-93319600D01*
X55248399Y-91973400D02*
X52451000Y-91973400D01*
X63995000Y-94896000D02*
X63883814Y-94784814D01*
X62690847Y-89674709D02*
X60554891Y-89674709D01*
X57848399Y-89677999D02*
X57782999Y-89743399D01*
X63883814Y-94784814D02*
X63883814Y-90867676D01*
X60554891Y-89674709D02*
X60551601Y-89677999D01*
X63883814Y-90867676D02*
X62690847Y-89674709D01*
X63995000Y-95900000D02*
X63995000Y-94896000D01*
X44488100Y-93319600D02*
X41803599Y-96004101D01*
X42910001Y-96027999D02*
X41727399Y-97210601D01*
X52898689Y-92427411D02*
X49298101Y-96027999D01*
X55436456Y-92427411D02*
X52898689Y-92427411D01*
X55906906Y-91956961D02*
X55436456Y-92427411D01*
X63195000Y-91338200D02*
X62885799Y-91028999D01*
X49298101Y-96027999D02*
X42910001Y-96027999D01*
X62885799Y-91028999D02*
X62094039Y-91028999D01*
X63195000Y-95900000D02*
X63195000Y-91338200D01*
X41727399Y-97210601D02*
X41427400Y-97510600D01*
X62094039Y-91028999D02*
X61166077Y-91956961D01*
X61166077Y-91956961D02*
X55906906Y-91956961D01*
X51981100Y-75184000D02*
X51981100Y-73528290D01*
X52769362Y-72732900D02*
X52769362Y-73737062D01*
X52769362Y-73737062D02*
X54102000Y-75069700D01*
X54102000Y-75069700D02*
X54102000Y-75184000D01*
X58304000Y-56700000D02*
X57300000Y-56700000D01*
X58521600Y-56917600D02*
X58304000Y-56700000D01*
X58521600Y-58610500D02*
X58521600Y-56917600D01*
X60960000Y-62085000D02*
X60960000Y-61048900D01*
X60960000Y-61048900D02*
X58521600Y-58610500D01*
X64135000Y-68732400D02*
X64135000Y-69850000D01*
X60960000Y-63429000D02*
X61564400Y-64033400D01*
X61564400Y-64033400D02*
X62826900Y-64033400D01*
X60960000Y-62085000D02*
X60960000Y-63429000D01*
X63512700Y-64719200D02*
X63512700Y-68110100D01*
X63512700Y-68110100D02*
X64135000Y-68732400D01*
X62826900Y-64033400D02*
X63512700Y-64719200D01*
X57364800Y-61264800D02*
X57300000Y-61200000D01*
X58623200Y-61264800D02*
X57364800Y-61264800D01*
X52032001Y-70132748D02*
X52028552Y-70132748D01*
X52332000Y-69832749D02*
X52032001Y-70132748D01*
X52028552Y-70132748D02*
X50634900Y-71526400D01*
X45537899Y-85644499D02*
X49106599Y-85644499D01*
X42189400Y-82296000D02*
X45537899Y-85644499D01*
X39598600Y-101841300D02*
X38963600Y-101206300D01*
X38963600Y-101206300D02*
X34404300Y-101206300D01*
X34667060Y-89714290D02*
X34667060Y-88845912D01*
X35224741Y-90271971D02*
X34667060Y-89714290D01*
X42065000Y-73200000D02*
X41910000Y-73045000D01*
X44300000Y-73200000D02*
X42065000Y-73200000D01*
X61709300Y-72014300D02*
X60960000Y-71265000D01*
X61709300Y-73075800D02*
X61709300Y-72014300D01*
X45311601Y-55872999D02*
X46088300Y-56649698D01*
X38100000Y-57150000D02*
X39377001Y-55872999D01*
X39377001Y-55872999D02*
X45311601Y-55872999D01*
X45304000Y-73200000D02*
X44300000Y-73200000D01*
X46088300Y-72415700D02*
X45304000Y-73200000D01*
X46088300Y-56649698D02*
X46088300Y-72415700D01*
X57409727Y-78897101D02*
X57921348Y-78385480D01*
X56093380Y-78141442D02*
X56849039Y-78897101D01*
X40957999Y-76556601D02*
X42542840Y-78141442D01*
X42542840Y-78141442D02*
X56093380Y-78141442D01*
X44300000Y-73200000D02*
X42291398Y-73200000D01*
X42291398Y-73200000D02*
X40957999Y-74533399D01*
X40957999Y-74533399D02*
X40957999Y-76556601D01*
X56849039Y-78897101D02*
X57409727Y-78897101D01*
X57921348Y-78385480D02*
X58221347Y-78085481D01*
G36*
X31221702Y-119643362D02*
G01*
X31245559Y-119672432D01*
X31274629Y-119696289D01*
X31274630Y-119696290D01*
X31361588Y-119767656D01*
X31493965Y-119838412D01*
X31637602Y-119881984D01*
X31786981Y-119896697D01*
X31824414Y-119893010D01*
X36017239Y-119893011D01*
X36020000Y-120364250D01*
X36178750Y-120523000D01*
X37338000Y-120523000D01*
X37338000Y-120503000D01*
X37592000Y-120503000D01*
X37592000Y-120523000D01*
X37612000Y-120523000D01*
X37612000Y-120777000D01*
X37592000Y-120777000D01*
X37592000Y-121936250D01*
X37750750Y-122095000D01*
X38275000Y-122098072D01*
X38399482Y-122085812D01*
X38519180Y-122049502D01*
X38629494Y-121990537D01*
X38726185Y-121911185D01*
X38805537Y-121814494D01*
X38864502Y-121704180D01*
X38899679Y-121588218D01*
X39083866Y-121772405D01*
X39320536Y-121930543D01*
X39583509Y-122039470D01*
X39862680Y-122095000D01*
X40147320Y-122095000D01*
X40426491Y-122039470D01*
X40689464Y-121930543D01*
X40926134Y-121772405D01*
X41127405Y-121571134D01*
X41275000Y-121350243D01*
X41422595Y-121571134D01*
X41623866Y-121772405D01*
X41860536Y-121930543D01*
X42123509Y-122039470D01*
X42402680Y-122095000D01*
X42687320Y-122095000D01*
X42875032Y-122057662D01*
X43107370Y-122290000D01*
X30710000Y-122290000D01*
X30710000Y-121460000D01*
X36016928Y-121460000D01*
X36029188Y-121584482D01*
X36065498Y-121704180D01*
X36124463Y-121814494D01*
X36203815Y-121911185D01*
X36300506Y-121990537D01*
X36410820Y-122049502D01*
X36530518Y-122085812D01*
X36655000Y-122098072D01*
X37179250Y-122095000D01*
X37338000Y-121936250D01*
X37338000Y-120777000D01*
X36178750Y-120777000D01*
X36020000Y-120935750D01*
X36016928Y-121460000D01*
X30710000Y-121460000D01*
X30710000Y-119131660D01*
X31221702Y-119643362D01*
G37*
X31221702Y-119643362D02*
X31245559Y-119672432D01*
X31274629Y-119696289D01*
X31274630Y-119696290D01*
X31361588Y-119767656D01*
X31493965Y-119838412D01*
X31637602Y-119881984D01*
X31786981Y-119896697D01*
X31824414Y-119893010D01*
X36017239Y-119893011D01*
X36020000Y-120364250D01*
X36178750Y-120523000D01*
X37338000Y-120523000D01*
X37338000Y-120503000D01*
X37592000Y-120503000D01*
X37592000Y-120523000D01*
X37612000Y-120523000D01*
X37612000Y-120777000D01*
X37592000Y-120777000D01*
X37592000Y-121936250D01*
X37750750Y-122095000D01*
X38275000Y-122098072D01*
X38399482Y-122085812D01*
X38519180Y-122049502D01*
X38629494Y-121990537D01*
X38726185Y-121911185D01*
X38805537Y-121814494D01*
X38864502Y-121704180D01*
X38899679Y-121588218D01*
X39083866Y-121772405D01*
X39320536Y-121930543D01*
X39583509Y-122039470D01*
X39862680Y-122095000D01*
X40147320Y-122095000D01*
X40426491Y-122039470D01*
X40689464Y-121930543D01*
X40926134Y-121772405D01*
X41127405Y-121571134D01*
X41275000Y-121350243D01*
X41422595Y-121571134D01*
X41623866Y-121772405D01*
X41860536Y-121930543D01*
X42123509Y-122039470D01*
X42402680Y-122095000D01*
X42687320Y-122095000D01*
X42875032Y-122057662D01*
X43107370Y-122290000D01*
X30710000Y-122290000D01*
X30710000Y-121460000D01*
X36016928Y-121460000D01*
X36029188Y-121584482D01*
X36065498Y-121704180D01*
X36124463Y-121814494D01*
X36203815Y-121911185D01*
X36300506Y-121990537D01*
X36410820Y-122049502D01*
X36530518Y-122085812D01*
X36655000Y-122098072D01*
X37179250Y-122095000D01*
X37338000Y-121936250D01*
X37338000Y-120777000D01*
X36178750Y-120777000D01*
X36020000Y-120935750D01*
X36016928Y-121460000D01*
X30710000Y-121460000D01*
X30710000Y-119131660D01*
X31221702Y-119643362D01*
G36*
X69340219Y-107222450D02*
G01*
X69364077Y-107251521D01*
X69480107Y-107346744D01*
X69612484Y-107417501D01*
X69756121Y-107461073D01*
X69868073Y-107472099D01*
X69868075Y-107472099D01*
X69905498Y-107475785D01*
X69942921Y-107472099D01*
X71571248Y-107472099D01*
X71670901Y-107538685D01*
X71841061Y-107609167D01*
X72021701Y-107645099D01*
X72205879Y-107645099D01*
X72386519Y-107609167D01*
X72556679Y-107538685D01*
X72656332Y-107472099D01*
X74472303Y-107472099D01*
X74855041Y-107854837D01*
X74853394Y-107863117D01*
X74853394Y-108047295D01*
X74889326Y-108227935D01*
X74959808Y-108398095D01*
X75062132Y-108551234D01*
X75192366Y-108681468D01*
X75345505Y-108783792D01*
X75438001Y-108822105D01*
X75438000Y-110521928D01*
X75400000Y-110521928D01*
X75275518Y-110534188D01*
X75155820Y-110570498D01*
X75045506Y-110629463D01*
X74948815Y-110708815D01*
X74869463Y-110805506D01*
X74810498Y-110915820D01*
X74774188Y-111035518D01*
X74761928Y-111160000D01*
X74761928Y-113340000D01*
X74774188Y-113464482D01*
X74810498Y-113584180D01*
X74869463Y-113694494D01*
X74948815Y-113791185D01*
X75045506Y-113870537D01*
X75155820Y-113929502D01*
X75275518Y-113965812D01*
X75298300Y-113968056D01*
X75298301Y-115072524D01*
X75151852Y-115170378D01*
X75021618Y-115300612D01*
X74919294Y-115453751D01*
X74848812Y-115623911D01*
X74812880Y-115804551D01*
X74812880Y-115988729D01*
X74848812Y-116169369D01*
X74919294Y-116339529D01*
X75021618Y-116492668D01*
X75151852Y-116622902D01*
X75304991Y-116725226D01*
X75475151Y-116795708D01*
X75655791Y-116831640D01*
X75839969Y-116831640D01*
X76020609Y-116795708D01*
X76190769Y-116725226D01*
X76343908Y-116622902D01*
X76474142Y-116492668D01*
X76576466Y-116339529D01*
X76646948Y-116169369D01*
X76672897Y-116038914D01*
X76696945Y-116009612D01*
X76767702Y-115877235D01*
X76811274Y-115733598D01*
X76822300Y-115621646D01*
X76822300Y-115621643D01*
X76825986Y-115584220D01*
X76822300Y-115546797D01*
X76822300Y-114036871D01*
X76836645Y-114019392D01*
X76858731Y-113978072D01*
X77000000Y-113978072D01*
X77124482Y-113965812D01*
X77244180Y-113929502D01*
X77354494Y-113870537D01*
X77409691Y-113825238D01*
X77409691Y-115124257D01*
X77406004Y-115161690D01*
X77420717Y-115311068D01*
X77464289Y-115454705D01*
X77535045Y-115587082D01*
X77597687Y-115663411D01*
X77630269Y-115703112D01*
X77659339Y-115726969D01*
X79058321Y-117125952D01*
X79015000Y-117343740D01*
X79015000Y-117636260D01*
X79072068Y-117923158D01*
X79184010Y-118193411D01*
X79346525Y-118436632D01*
X79553368Y-118643475D01*
X79796589Y-118805990D01*
X80066842Y-118917932D01*
X80353740Y-118975000D01*
X80646260Y-118975000D01*
X80933158Y-118917932D01*
X81203411Y-118805990D01*
X81446632Y-118643475D01*
X81653475Y-118436632D01*
X81815990Y-118193411D01*
X81927932Y-117923158D01*
X81985000Y-117636260D01*
X81985000Y-117343740D01*
X81941679Y-117125952D01*
X82189354Y-116878277D01*
X82218423Y-116854421D01*
X82261130Y-116802382D01*
X82290000Y-116767204D01*
X82290000Y-122290000D01*
X77638072Y-122290000D01*
X77638072Y-120340000D01*
X77625812Y-120215518D01*
X77589502Y-120095820D01*
X77530537Y-119985506D01*
X77451185Y-119888815D01*
X77354494Y-119809463D01*
X77244180Y-119750498D01*
X77124482Y-119714188D01*
X77000000Y-119701928D01*
X75400000Y-119701928D01*
X75275518Y-119714188D01*
X75155820Y-119750498D01*
X75045506Y-119809463D01*
X74948815Y-119888815D01*
X74869463Y-119985506D01*
X74810498Y-120095820D01*
X74774188Y-120215518D01*
X74761928Y-120340000D01*
X74761928Y-120668000D01*
X73193072Y-120668000D01*
X73193072Y-120340000D01*
X73180812Y-120215518D01*
X73144502Y-120095820D01*
X73085537Y-119985506D01*
X73006185Y-119888815D01*
X72909494Y-119809463D01*
X72799180Y-119750498D01*
X72679482Y-119714188D01*
X72555000Y-119701928D01*
X70955000Y-119701928D01*
X70830518Y-119714188D01*
X70710820Y-119750498D01*
X70600506Y-119809463D01*
X70503815Y-119888815D01*
X70424463Y-119985506D01*
X70365498Y-120095820D01*
X70329188Y-120215518D01*
X70316928Y-120340000D01*
X70316928Y-120668000D01*
X69052872Y-120668000D01*
X69052872Y-120340000D01*
X69040612Y-120215518D01*
X69004302Y-120095820D01*
X68945337Y-119985506D01*
X68865985Y-119888815D01*
X68769294Y-119809463D01*
X68658980Y-119750498D01*
X68539282Y-119714188D01*
X68414800Y-119701928D01*
X66814800Y-119701928D01*
X66690318Y-119714188D01*
X66570620Y-119750498D01*
X66460306Y-119809463D01*
X66363615Y-119888815D01*
X66284263Y-119985506D01*
X66225298Y-120095820D01*
X66188988Y-120215518D01*
X66176728Y-120340000D01*
X66176728Y-120668000D01*
X64938072Y-120668000D01*
X64938072Y-120340000D01*
X64925812Y-120215518D01*
X64889502Y-120095820D01*
X64830537Y-119985506D01*
X64751185Y-119888815D01*
X64654494Y-119809463D01*
X64544180Y-119750498D01*
X64424482Y-119714188D01*
X64300000Y-119701928D01*
X64158731Y-119701928D01*
X64136645Y-119660608D01*
X64041422Y-119544578D01*
X64012351Y-119520721D01*
X63329791Y-118838161D01*
X63350686Y-118806889D01*
X63421168Y-118636729D01*
X63457100Y-118456089D01*
X63457100Y-118271911D01*
X63421168Y-118091271D01*
X63350686Y-117921111D01*
X63248362Y-117767972D01*
X63118128Y-117637738D01*
X62964989Y-117535414D01*
X62794829Y-117464932D01*
X62614189Y-117429000D01*
X62430011Y-117429000D01*
X62249371Y-117464932D01*
X62079211Y-117535414D01*
X61926072Y-117637738D01*
X61795838Y-117767972D01*
X61693514Y-117921111D01*
X61623032Y-118091271D01*
X61587100Y-118271911D01*
X61587100Y-118456089D01*
X61623032Y-118636729D01*
X61693514Y-118806889D01*
X61760100Y-118906542D01*
X61760100Y-119070677D01*
X61756414Y-119108100D01*
X61760100Y-119145523D01*
X61760100Y-119145525D01*
X61771126Y-119257477D01*
X61814698Y-119401114D01*
X61827995Y-119425990D01*
X61885455Y-119533492D01*
X61923637Y-119580016D01*
X61980678Y-119649522D01*
X62009754Y-119673384D01*
X62238164Y-119901794D01*
X62169463Y-119985506D01*
X62110498Y-120095820D01*
X62074188Y-120215518D01*
X62061928Y-120340000D01*
X62061928Y-120771269D01*
X62020608Y-120793355D01*
X61904578Y-120888578D01*
X61880716Y-120917654D01*
X61733369Y-121065001D01*
X57938850Y-121065001D01*
X57956476Y-121006890D01*
X57835155Y-120777000D01*
X56642000Y-120777000D01*
X56642000Y-120797000D01*
X56388000Y-120797000D01*
X56388000Y-120777000D01*
X56368000Y-120777000D01*
X56368000Y-120523000D01*
X56388000Y-120523000D01*
X56388000Y-120503000D01*
X56642000Y-120503000D01*
X56642000Y-120523000D01*
X57835155Y-120523000D01*
X57956476Y-120293110D01*
X57911825Y-120145901D01*
X57786641Y-119883080D01*
X57612588Y-119649731D01*
X57396355Y-119454822D01*
X57279466Y-119385195D01*
X57461632Y-119263475D01*
X57668475Y-119056632D01*
X57830990Y-118813411D01*
X57942932Y-118543158D01*
X58000000Y-118256260D01*
X58000000Y-117963740D01*
X57942932Y-117676842D01*
X57830990Y-117406589D01*
X57668475Y-117163368D01*
X57461632Y-116956525D01*
X57287240Y-116840000D01*
X57461632Y-116723475D01*
X57668475Y-116516632D01*
X57830990Y-116273411D01*
X57942932Y-116003158D01*
X58000000Y-115716260D01*
X58000000Y-115423740D01*
X57942932Y-115136842D01*
X57830990Y-114866589D01*
X57668475Y-114623368D01*
X57461632Y-114416525D01*
X57218411Y-114254010D01*
X56948158Y-114142068D01*
X56853409Y-114123221D01*
X62107352Y-108869279D01*
X62136422Y-108845422D01*
X62171526Y-108802648D01*
X62231645Y-108729393D01*
X62277074Y-108644400D01*
X62302402Y-108597015D01*
X62337504Y-108481300D01*
X62395000Y-108411241D01*
X62452498Y-108481302D01*
X62471300Y-108543285D01*
X62471300Y-108626658D01*
X62404714Y-108726311D01*
X62334232Y-108896471D01*
X62298300Y-109077111D01*
X62298300Y-109261289D01*
X62334232Y-109441929D01*
X62404714Y-109612089D01*
X62507038Y-109765228D01*
X62637272Y-109895462D01*
X62790411Y-109997786D01*
X62960571Y-110068268D01*
X63141211Y-110104200D01*
X63224171Y-110104200D01*
X62987654Y-110340716D01*
X62958578Y-110364578D01*
X62920481Y-110411000D01*
X62863355Y-110480608D01*
X62841269Y-110521928D01*
X62700000Y-110521928D01*
X62575518Y-110534188D01*
X62455820Y-110570498D01*
X62345506Y-110629463D01*
X62248815Y-110708815D01*
X62169463Y-110805506D01*
X62110498Y-110915820D01*
X62074188Y-111035518D01*
X62061928Y-111160000D01*
X62061928Y-113340000D01*
X62074188Y-113464482D01*
X62110498Y-113584180D01*
X62169463Y-113694494D01*
X62248815Y-113791185D01*
X62249391Y-113791658D01*
X62234800Y-113865011D01*
X62234800Y-114049189D01*
X62270732Y-114229829D01*
X62341214Y-114399989D01*
X62443538Y-114553128D01*
X62573772Y-114683362D01*
X62726911Y-114785686D01*
X62897071Y-114856168D01*
X63077711Y-114892100D01*
X63261889Y-114892100D01*
X63442529Y-114856168D01*
X63612689Y-114785686D01*
X63765828Y-114683362D01*
X63896062Y-114553128D01*
X63998386Y-114399989D01*
X64068868Y-114229829D01*
X64093797Y-114104502D01*
X64136645Y-114052292D01*
X64176316Y-113978072D01*
X64300000Y-113978072D01*
X64424482Y-113965812D01*
X64544180Y-113929502D01*
X64654494Y-113870537D01*
X64751185Y-113791185D01*
X64830537Y-113694494D01*
X64889502Y-113584180D01*
X64925812Y-113464482D01*
X64938072Y-113340000D01*
X64938072Y-111209059D01*
X65395081Y-110752050D01*
X65512629Y-110728668D01*
X65682789Y-110658186D01*
X65835928Y-110555862D01*
X65966162Y-110425628D01*
X66068486Y-110272489D01*
X66138968Y-110102329D01*
X66174900Y-109921689D01*
X66174900Y-109737511D01*
X66138968Y-109556871D01*
X66068486Y-109386711D01*
X65966162Y-109233572D01*
X65939890Y-109207300D01*
X66311604Y-109207300D01*
X66548000Y-109443697D01*
X66548000Y-110582589D01*
X66460306Y-110629463D01*
X66363615Y-110708815D01*
X66284263Y-110805506D01*
X66225298Y-110915820D01*
X66188988Y-111035518D01*
X66176728Y-111160000D01*
X66176728Y-113340000D01*
X66188988Y-113464482D01*
X66225298Y-113584180D01*
X66284263Y-113694494D01*
X66363615Y-113791185D01*
X66460306Y-113870537D01*
X66480829Y-113881507D01*
X66463900Y-113966611D01*
X66463900Y-114150789D01*
X66499832Y-114331429D01*
X66570314Y-114501589D01*
X66672638Y-114654728D01*
X66802872Y-114784962D01*
X66956011Y-114887286D01*
X67126171Y-114957768D01*
X67306811Y-114993700D01*
X67490989Y-114993700D01*
X67671629Y-114957768D01*
X67841789Y-114887286D01*
X67994928Y-114784962D01*
X68125162Y-114654728D01*
X68227486Y-114501589D01*
X68297968Y-114331429D01*
X68333900Y-114150789D01*
X68333900Y-113978072D01*
X68414800Y-113978072D01*
X68539282Y-113965812D01*
X68658980Y-113929502D01*
X68769294Y-113870537D01*
X68865985Y-113791185D01*
X68945337Y-113694494D01*
X69004302Y-113584180D01*
X69040612Y-113464482D01*
X69052872Y-113340000D01*
X69052872Y-111160000D01*
X69040612Y-111035518D01*
X69004302Y-110915820D01*
X68945337Y-110805506D01*
X68925880Y-110781797D01*
X69028032Y-110628915D01*
X69098514Y-110458755D01*
X69117561Y-110363000D01*
X70134370Y-110363000D01*
X70493164Y-110721794D01*
X70424463Y-110805506D01*
X70365498Y-110915820D01*
X70329188Y-111035518D01*
X70316928Y-111160000D01*
X70316928Y-113340000D01*
X70329188Y-113464482D01*
X70365498Y-113584180D01*
X70424463Y-113694494D01*
X70503815Y-113791185D01*
X70600506Y-113870537D01*
X70710820Y-113929502D01*
X70830518Y-113965812D01*
X70929500Y-113975561D01*
X70929501Y-115087764D01*
X70783052Y-115185618D01*
X70652818Y-115315852D01*
X70550494Y-115468991D01*
X70480012Y-115639151D01*
X70444080Y-115819791D01*
X70444080Y-116003969D01*
X70480012Y-116184609D01*
X70550494Y-116354769D01*
X70652818Y-116507908D01*
X70783052Y-116638142D01*
X70936191Y-116740466D01*
X71106351Y-116810948D01*
X71286991Y-116846880D01*
X71471169Y-116846880D01*
X71651809Y-116810948D01*
X71821969Y-116740466D01*
X71975108Y-116638142D01*
X72105342Y-116507908D01*
X72207666Y-116354769D01*
X72278148Y-116184609D01*
X72304097Y-116054154D01*
X72328145Y-116024852D01*
X72398902Y-115892475D01*
X72442474Y-115748838D01*
X72453500Y-115636886D01*
X72453500Y-115636883D01*
X72457186Y-115599460D01*
X72453500Y-115562037D01*
X72453500Y-113978072D01*
X72555000Y-113978072D01*
X72679482Y-113965812D01*
X72799180Y-113929502D01*
X72909494Y-113870537D01*
X73006185Y-113791185D01*
X73085537Y-113694494D01*
X73144502Y-113584180D01*
X73180812Y-113464482D01*
X73193072Y-113340000D01*
X73193072Y-111160000D01*
X73180812Y-111035518D01*
X73150360Y-110935132D01*
X73211724Y-110786985D01*
X73247656Y-110606345D01*
X73247656Y-110422167D01*
X73211724Y-110241527D01*
X73141242Y-110071367D01*
X73038918Y-109918228D01*
X72908684Y-109787994D01*
X72755545Y-109685670D01*
X72585385Y-109615188D01*
X72404745Y-109579256D01*
X72220567Y-109579256D01*
X72039927Y-109615188D01*
X71869767Y-109685670D01*
X71716628Y-109787994D01*
X71715626Y-109788996D01*
X71015284Y-109088654D01*
X70991422Y-109059578D01*
X70875392Y-108964355D01*
X70743015Y-108893598D01*
X70599378Y-108850026D01*
X70487426Y-108839000D01*
X70487423Y-108839000D01*
X70450000Y-108835314D01*
X70412577Y-108839000D01*
X68740631Y-108839000D01*
X66689284Y-106787654D01*
X66665422Y-106758578D01*
X66549392Y-106663355D01*
X66508072Y-106641269D01*
X66508072Y-106550000D01*
X66504038Y-106509038D01*
X66545000Y-106513072D01*
X68045000Y-106513072D01*
X68169482Y-106500812D01*
X68289180Y-106464502D01*
X68399494Y-106405537D01*
X68452544Y-106362000D01*
X68479770Y-106362000D01*
X69340219Y-107222450D01*
G37*
X69340219Y-107222450D02*
X69364077Y-107251521D01*
X69480107Y-107346744D01*
X69612484Y-107417501D01*
X69756121Y-107461073D01*
X69868073Y-107472099D01*
X69868075Y-107472099D01*
X69905498Y-107475785D01*
X69942921Y-107472099D01*
X71571248Y-107472099D01*
X71670901Y-107538685D01*
X71841061Y-107609167D01*
X72021701Y-107645099D01*
X72205879Y-107645099D01*
X72386519Y-107609167D01*
X72556679Y-107538685D01*
X72656332Y-107472099D01*
X74472303Y-107472099D01*
X74855041Y-107854837D01*
X74853394Y-107863117D01*
X74853394Y-108047295D01*
X74889326Y-108227935D01*
X74959808Y-108398095D01*
X75062132Y-108551234D01*
X75192366Y-108681468D01*
X75345505Y-108783792D01*
X75438001Y-108822105D01*
X75438000Y-110521928D01*
X75400000Y-110521928D01*
X75275518Y-110534188D01*
X75155820Y-110570498D01*
X75045506Y-110629463D01*
X74948815Y-110708815D01*
X74869463Y-110805506D01*
X74810498Y-110915820D01*
X74774188Y-111035518D01*
X74761928Y-111160000D01*
X74761928Y-113340000D01*
X74774188Y-113464482D01*
X74810498Y-113584180D01*
X74869463Y-113694494D01*
X74948815Y-113791185D01*
X75045506Y-113870537D01*
X75155820Y-113929502D01*
X75275518Y-113965812D01*
X75298300Y-113968056D01*
X75298301Y-115072524D01*
X75151852Y-115170378D01*
X75021618Y-115300612D01*
X74919294Y-115453751D01*
X74848812Y-115623911D01*
X74812880Y-115804551D01*
X74812880Y-115988729D01*
X74848812Y-116169369D01*
X74919294Y-116339529D01*
X75021618Y-116492668D01*
X75151852Y-116622902D01*
X75304991Y-116725226D01*
X75475151Y-116795708D01*
X75655791Y-116831640D01*
X75839969Y-116831640D01*
X76020609Y-116795708D01*
X76190769Y-116725226D01*
X76343908Y-116622902D01*
X76474142Y-116492668D01*
X76576466Y-116339529D01*
X76646948Y-116169369D01*
X76672897Y-116038914D01*
X76696945Y-116009612D01*
X76767702Y-115877235D01*
X76811274Y-115733598D01*
X76822300Y-115621646D01*
X76822300Y-115621643D01*
X76825986Y-115584220D01*
X76822300Y-115546797D01*
X76822300Y-114036871D01*
X76836645Y-114019392D01*
X76858731Y-113978072D01*
X77000000Y-113978072D01*
X77124482Y-113965812D01*
X77244180Y-113929502D01*
X77354494Y-113870537D01*
X77409691Y-113825238D01*
X77409691Y-115124257D01*
X77406004Y-115161690D01*
X77420717Y-115311068D01*
X77464289Y-115454705D01*
X77535045Y-115587082D01*
X77597687Y-115663411D01*
X77630269Y-115703112D01*
X77659339Y-115726969D01*
X79058321Y-117125952D01*
X79015000Y-117343740D01*
X79015000Y-117636260D01*
X79072068Y-117923158D01*
X79184010Y-118193411D01*
X79346525Y-118436632D01*
X79553368Y-118643475D01*
X79796589Y-118805990D01*
X80066842Y-118917932D01*
X80353740Y-118975000D01*
X80646260Y-118975000D01*
X80933158Y-118917932D01*
X81203411Y-118805990D01*
X81446632Y-118643475D01*
X81653475Y-118436632D01*
X81815990Y-118193411D01*
X81927932Y-117923158D01*
X81985000Y-117636260D01*
X81985000Y-117343740D01*
X81941679Y-117125952D01*
X82189354Y-116878277D01*
X82218423Y-116854421D01*
X82261130Y-116802382D01*
X82290000Y-116767204D01*
X82290000Y-122290000D01*
X77638072Y-122290000D01*
X77638072Y-120340000D01*
X77625812Y-120215518D01*
X77589502Y-120095820D01*
X77530537Y-119985506D01*
X77451185Y-119888815D01*
X77354494Y-119809463D01*
X77244180Y-119750498D01*
X77124482Y-119714188D01*
X77000000Y-119701928D01*
X75400000Y-119701928D01*
X75275518Y-119714188D01*
X75155820Y-119750498D01*
X75045506Y-119809463D01*
X74948815Y-119888815D01*
X74869463Y-119985506D01*
X74810498Y-120095820D01*
X74774188Y-120215518D01*
X74761928Y-120340000D01*
X74761928Y-120668000D01*
X73193072Y-120668000D01*
X73193072Y-120340000D01*
X73180812Y-120215518D01*
X73144502Y-120095820D01*
X73085537Y-119985506D01*
X73006185Y-119888815D01*
X72909494Y-119809463D01*
X72799180Y-119750498D01*
X72679482Y-119714188D01*
X72555000Y-119701928D01*
X70955000Y-119701928D01*
X70830518Y-119714188D01*
X70710820Y-119750498D01*
X70600506Y-119809463D01*
X70503815Y-119888815D01*
X70424463Y-119985506D01*
X70365498Y-120095820D01*
X70329188Y-120215518D01*
X70316928Y-120340000D01*
X70316928Y-120668000D01*
X69052872Y-120668000D01*
X69052872Y-120340000D01*
X69040612Y-120215518D01*
X69004302Y-120095820D01*
X68945337Y-119985506D01*
X68865985Y-119888815D01*
X68769294Y-119809463D01*
X68658980Y-119750498D01*
X68539282Y-119714188D01*
X68414800Y-119701928D01*
X66814800Y-119701928D01*
X66690318Y-119714188D01*
X66570620Y-119750498D01*
X66460306Y-119809463D01*
X66363615Y-119888815D01*
X66284263Y-119985506D01*
X66225298Y-120095820D01*
X66188988Y-120215518D01*
X66176728Y-120340000D01*
X66176728Y-120668000D01*
X64938072Y-120668000D01*
X64938072Y-120340000D01*
X64925812Y-120215518D01*
X64889502Y-120095820D01*
X64830537Y-119985506D01*
X64751185Y-119888815D01*
X64654494Y-119809463D01*
X64544180Y-119750498D01*
X64424482Y-119714188D01*
X64300000Y-119701928D01*
X64158731Y-119701928D01*
X64136645Y-119660608D01*
X64041422Y-119544578D01*
X64012351Y-119520721D01*
X63329791Y-118838161D01*
X63350686Y-118806889D01*
X63421168Y-118636729D01*
X63457100Y-118456089D01*
X63457100Y-118271911D01*
X63421168Y-118091271D01*
X63350686Y-117921111D01*
X63248362Y-117767972D01*
X63118128Y-117637738D01*
X62964989Y-117535414D01*
X62794829Y-117464932D01*
X62614189Y-117429000D01*
X62430011Y-117429000D01*
X62249371Y-117464932D01*
X62079211Y-117535414D01*
X61926072Y-117637738D01*
X61795838Y-117767972D01*
X61693514Y-117921111D01*
X61623032Y-118091271D01*
X61587100Y-118271911D01*
X61587100Y-118456089D01*
X61623032Y-118636729D01*
X61693514Y-118806889D01*
X61760100Y-118906542D01*
X61760100Y-119070677D01*
X61756414Y-119108100D01*
X61760100Y-119145523D01*
X61760100Y-119145525D01*
X61771126Y-119257477D01*
X61814698Y-119401114D01*
X61827995Y-119425990D01*
X61885455Y-119533492D01*
X61923637Y-119580016D01*
X61980678Y-119649522D01*
X62009754Y-119673384D01*
X62238164Y-119901794D01*
X62169463Y-119985506D01*
X62110498Y-120095820D01*
X62074188Y-120215518D01*
X62061928Y-120340000D01*
X62061928Y-120771269D01*
X62020608Y-120793355D01*
X61904578Y-120888578D01*
X61880716Y-120917654D01*
X61733369Y-121065001D01*
X57938850Y-121065001D01*
X57956476Y-121006890D01*
X57835155Y-120777000D01*
X56642000Y-120777000D01*
X56642000Y-120797000D01*
X56388000Y-120797000D01*
X56388000Y-120777000D01*
X56368000Y-120777000D01*
X56368000Y-120523000D01*
X56388000Y-120523000D01*
X56388000Y-120503000D01*
X56642000Y-120503000D01*
X56642000Y-120523000D01*
X57835155Y-120523000D01*
X57956476Y-120293110D01*
X57911825Y-120145901D01*
X57786641Y-119883080D01*
X57612588Y-119649731D01*
X57396355Y-119454822D01*
X57279466Y-119385195D01*
X57461632Y-119263475D01*
X57668475Y-119056632D01*
X57830990Y-118813411D01*
X57942932Y-118543158D01*
X58000000Y-118256260D01*
X58000000Y-117963740D01*
X57942932Y-117676842D01*
X57830990Y-117406589D01*
X57668475Y-117163368D01*
X57461632Y-116956525D01*
X57287240Y-116840000D01*
X57461632Y-116723475D01*
X57668475Y-116516632D01*
X57830990Y-116273411D01*
X57942932Y-116003158D01*
X58000000Y-115716260D01*
X58000000Y-115423740D01*
X57942932Y-115136842D01*
X57830990Y-114866589D01*
X57668475Y-114623368D01*
X57461632Y-114416525D01*
X57218411Y-114254010D01*
X56948158Y-114142068D01*
X56853409Y-114123221D01*
X62107352Y-108869279D01*
X62136422Y-108845422D01*
X62171526Y-108802648D01*
X62231645Y-108729393D01*
X62277074Y-108644400D01*
X62302402Y-108597015D01*
X62337504Y-108481300D01*
X62395000Y-108411241D01*
X62452498Y-108481302D01*
X62471300Y-108543285D01*
X62471300Y-108626658D01*
X62404714Y-108726311D01*
X62334232Y-108896471D01*
X62298300Y-109077111D01*
X62298300Y-109261289D01*
X62334232Y-109441929D01*
X62404714Y-109612089D01*
X62507038Y-109765228D01*
X62637272Y-109895462D01*
X62790411Y-109997786D01*
X62960571Y-110068268D01*
X63141211Y-110104200D01*
X63224171Y-110104200D01*
X62987654Y-110340716D01*
X62958578Y-110364578D01*
X62920481Y-110411000D01*
X62863355Y-110480608D01*
X62841269Y-110521928D01*
X62700000Y-110521928D01*
X62575518Y-110534188D01*
X62455820Y-110570498D01*
X62345506Y-110629463D01*
X62248815Y-110708815D01*
X62169463Y-110805506D01*
X62110498Y-110915820D01*
X62074188Y-111035518D01*
X62061928Y-111160000D01*
X62061928Y-113340000D01*
X62074188Y-113464482D01*
X62110498Y-113584180D01*
X62169463Y-113694494D01*
X62248815Y-113791185D01*
X62249391Y-113791658D01*
X62234800Y-113865011D01*
X62234800Y-114049189D01*
X62270732Y-114229829D01*
X62341214Y-114399989D01*
X62443538Y-114553128D01*
X62573772Y-114683362D01*
X62726911Y-114785686D01*
X62897071Y-114856168D01*
X63077711Y-114892100D01*
X63261889Y-114892100D01*
X63442529Y-114856168D01*
X63612689Y-114785686D01*
X63765828Y-114683362D01*
X63896062Y-114553128D01*
X63998386Y-114399989D01*
X64068868Y-114229829D01*
X64093797Y-114104502D01*
X64136645Y-114052292D01*
X64176316Y-113978072D01*
X64300000Y-113978072D01*
X64424482Y-113965812D01*
X64544180Y-113929502D01*
X64654494Y-113870537D01*
X64751185Y-113791185D01*
X64830537Y-113694494D01*
X64889502Y-113584180D01*
X64925812Y-113464482D01*
X64938072Y-113340000D01*
X64938072Y-111209059D01*
X65395081Y-110752050D01*
X65512629Y-110728668D01*
X65682789Y-110658186D01*
X65835928Y-110555862D01*
X65966162Y-110425628D01*
X66068486Y-110272489D01*
X66138968Y-110102329D01*
X66174900Y-109921689D01*
X66174900Y-109737511D01*
X66138968Y-109556871D01*
X66068486Y-109386711D01*
X65966162Y-109233572D01*
X65939890Y-109207300D01*
X66311604Y-109207300D01*
X66548000Y-109443697D01*
X66548000Y-110582589D01*
X66460306Y-110629463D01*
X66363615Y-110708815D01*
X66284263Y-110805506D01*
X66225298Y-110915820D01*
X66188988Y-111035518D01*
X66176728Y-111160000D01*
X66176728Y-113340000D01*
X66188988Y-113464482D01*
X66225298Y-113584180D01*
X66284263Y-113694494D01*
X66363615Y-113791185D01*
X66460306Y-113870537D01*
X66480829Y-113881507D01*
X66463900Y-113966611D01*
X66463900Y-114150789D01*
X66499832Y-114331429D01*
X66570314Y-114501589D01*
X66672638Y-114654728D01*
X66802872Y-114784962D01*
X66956011Y-114887286D01*
X67126171Y-114957768D01*
X67306811Y-114993700D01*
X67490989Y-114993700D01*
X67671629Y-114957768D01*
X67841789Y-114887286D01*
X67994928Y-114784962D01*
X68125162Y-114654728D01*
X68227486Y-114501589D01*
X68297968Y-114331429D01*
X68333900Y-114150789D01*
X68333900Y-113978072D01*
X68414800Y-113978072D01*
X68539282Y-113965812D01*
X68658980Y-113929502D01*
X68769294Y-113870537D01*
X68865985Y-113791185D01*
X68945337Y-113694494D01*
X69004302Y-113584180D01*
X69040612Y-113464482D01*
X69052872Y-113340000D01*
X69052872Y-111160000D01*
X69040612Y-111035518D01*
X69004302Y-110915820D01*
X68945337Y-110805506D01*
X68925880Y-110781797D01*
X69028032Y-110628915D01*
X69098514Y-110458755D01*
X69117561Y-110363000D01*
X70134370Y-110363000D01*
X70493164Y-110721794D01*
X70424463Y-110805506D01*
X70365498Y-110915820D01*
X70329188Y-111035518D01*
X70316928Y-111160000D01*
X70316928Y-113340000D01*
X70329188Y-113464482D01*
X70365498Y-113584180D01*
X70424463Y-113694494D01*
X70503815Y-113791185D01*
X70600506Y-113870537D01*
X70710820Y-113929502D01*
X70830518Y-113965812D01*
X70929500Y-113975561D01*
X70929501Y-115087764D01*
X70783052Y-115185618D01*
X70652818Y-115315852D01*
X70550494Y-115468991D01*
X70480012Y-115639151D01*
X70444080Y-115819791D01*
X70444080Y-116003969D01*
X70480012Y-116184609D01*
X70550494Y-116354769D01*
X70652818Y-116507908D01*
X70783052Y-116638142D01*
X70936191Y-116740466D01*
X71106351Y-116810948D01*
X71286991Y-116846880D01*
X71471169Y-116846880D01*
X71651809Y-116810948D01*
X71821969Y-116740466D01*
X71975108Y-116638142D01*
X72105342Y-116507908D01*
X72207666Y-116354769D01*
X72278148Y-116184609D01*
X72304097Y-116054154D01*
X72328145Y-116024852D01*
X72398902Y-115892475D01*
X72442474Y-115748838D01*
X72453500Y-115636886D01*
X72453500Y-115636883D01*
X72457186Y-115599460D01*
X72453500Y-115562037D01*
X72453500Y-113978072D01*
X72555000Y-113978072D01*
X72679482Y-113965812D01*
X72799180Y-113929502D01*
X72909494Y-113870537D01*
X73006185Y-113791185D01*
X73085537Y-113694494D01*
X73144502Y-113584180D01*
X73180812Y-113464482D01*
X73193072Y-113340000D01*
X73193072Y-111160000D01*
X73180812Y-111035518D01*
X73150360Y-110935132D01*
X73211724Y-110786985D01*
X73247656Y-110606345D01*
X73247656Y-110422167D01*
X73211724Y-110241527D01*
X73141242Y-110071367D01*
X73038918Y-109918228D01*
X72908684Y-109787994D01*
X72755545Y-109685670D01*
X72585385Y-109615188D01*
X72404745Y-109579256D01*
X72220567Y-109579256D01*
X72039927Y-109615188D01*
X71869767Y-109685670D01*
X71716628Y-109787994D01*
X71715626Y-109788996D01*
X71015284Y-109088654D01*
X70991422Y-109059578D01*
X70875392Y-108964355D01*
X70743015Y-108893598D01*
X70599378Y-108850026D01*
X70487426Y-108839000D01*
X70487423Y-108839000D01*
X70450000Y-108835314D01*
X70412577Y-108839000D01*
X68740631Y-108839000D01*
X66689284Y-106787654D01*
X66665422Y-106758578D01*
X66549392Y-106663355D01*
X66508072Y-106641269D01*
X66508072Y-106550000D01*
X66504038Y-106509038D01*
X66545000Y-106513072D01*
X68045000Y-106513072D01*
X68169482Y-106500812D01*
X68289180Y-106464502D01*
X68399494Y-106405537D01*
X68452544Y-106362000D01*
X68479770Y-106362000D01*
X69340219Y-107222450D01*
G36*
X47826600Y-119501600D02*
G01*
X47629672Y-119501600D01*
X47629672Y-119207600D01*
X47826600Y-119207600D01*
X47826600Y-119501600D01*
G37*
X47826600Y-119501600D02*
X47629672Y-119501600D01*
X47629672Y-119207600D01*
X47826600Y-119207600D01*
X47826600Y-119501600D01*
G36*
X46069788Y-107046318D02*
G01*
X46057528Y-107170800D01*
X46057528Y-108670800D01*
X46069788Y-108795282D01*
X46106098Y-108914980D01*
X46165063Y-109025294D01*
X46244415Y-109121985D01*
X46341106Y-109201337D01*
X46425896Y-109246659D01*
X46423300Y-109259712D01*
X46423300Y-109296329D01*
X46341106Y-109340263D01*
X46244415Y-109419615D01*
X46165063Y-109516306D01*
X46106098Y-109626620D01*
X46069788Y-109746318D01*
X46057528Y-109870800D01*
X46057528Y-111370800D01*
X46069788Y-111495282D01*
X46106098Y-111614980D01*
X46165063Y-111725294D01*
X46244415Y-111821985D01*
X46341106Y-111901337D01*
X46451420Y-111960302D01*
X46571118Y-111996612D01*
X46695600Y-112008872D01*
X47995600Y-112008872D01*
X48120082Y-111996612D01*
X48239780Y-111960302D01*
X48350094Y-111901337D01*
X48411400Y-111851025D01*
X48411401Y-115394770D01*
X46945004Y-113928374D01*
X46921142Y-113899298D01*
X46805112Y-113804075D01*
X46672735Y-113733318D01*
X46529098Y-113689746D01*
X46417146Y-113678720D01*
X46417143Y-113678720D01*
X46379720Y-113675034D01*
X46342297Y-113678720D01*
X45745032Y-113678720D01*
X45745032Y-113440720D01*
X45732772Y-113316238D01*
X45696462Y-113196540D01*
X45637497Y-113086226D01*
X45558145Y-112989535D01*
X45461454Y-112910183D01*
X45351140Y-112851218D01*
X45231442Y-112814908D01*
X45106960Y-112802648D01*
X43406960Y-112802648D01*
X43282478Y-112814908D01*
X43162780Y-112851218D01*
X43052466Y-112910183D01*
X42955775Y-112989535D01*
X42876423Y-113086226D01*
X42817458Y-113196540D01*
X42810011Y-113221089D01*
X42727002Y-113195908D01*
X42602520Y-113183648D01*
X40902520Y-113183648D01*
X40778038Y-113195908D01*
X40658340Y-113232218D01*
X40548026Y-113291183D01*
X40451335Y-113370535D01*
X40371983Y-113467226D01*
X40313018Y-113577540D01*
X40300181Y-113619859D01*
X40192082Y-113587068D01*
X40094075Y-113577415D01*
X40172462Y-113499028D01*
X40274786Y-113345889D01*
X40345268Y-113175729D01*
X40381200Y-112995089D01*
X40381200Y-112810911D01*
X40372995Y-112769661D01*
X40422094Y-112743417D01*
X40518785Y-112664065D01*
X40598137Y-112567374D01*
X40657102Y-112457060D01*
X40669939Y-112414741D01*
X40778038Y-112447532D01*
X40902520Y-112459792D01*
X42602520Y-112459792D01*
X42727002Y-112447532D01*
X42846700Y-112411222D01*
X42957014Y-112352257D01*
X43053705Y-112272905D01*
X43133057Y-112176214D01*
X43192022Y-112065900D01*
X43199469Y-112041351D01*
X43282478Y-112066532D01*
X43406960Y-112078792D01*
X45106960Y-112078792D01*
X45231442Y-112066532D01*
X45351140Y-112030222D01*
X45461454Y-111971257D01*
X45558145Y-111891905D01*
X45637497Y-111795214D01*
X45696462Y-111684900D01*
X45732772Y-111565202D01*
X45745032Y-111440720D01*
X45745032Y-109440720D01*
X45732772Y-109316238D01*
X45696462Y-109196540D01*
X45637497Y-109086226D01*
X45558145Y-108989535D01*
X45461454Y-108910183D01*
X45351140Y-108851218D01*
X45231442Y-108814908D01*
X45106960Y-108802648D01*
X45018960Y-108802648D01*
X45018960Y-108064970D01*
X46083798Y-107000132D01*
X46069788Y-107046318D01*
G37*
X46069788Y-107046318D02*
X46057528Y-107170800D01*
X46057528Y-108670800D01*
X46069788Y-108795282D01*
X46106098Y-108914980D01*
X46165063Y-109025294D01*
X46244415Y-109121985D01*
X46341106Y-109201337D01*
X46425896Y-109246659D01*
X46423300Y-109259712D01*
X46423300Y-109296329D01*
X46341106Y-109340263D01*
X46244415Y-109419615D01*
X46165063Y-109516306D01*
X46106098Y-109626620D01*
X46069788Y-109746318D01*
X46057528Y-109870800D01*
X46057528Y-111370800D01*
X46069788Y-111495282D01*
X46106098Y-111614980D01*
X46165063Y-111725294D01*
X46244415Y-111821985D01*
X46341106Y-111901337D01*
X46451420Y-111960302D01*
X46571118Y-111996612D01*
X46695600Y-112008872D01*
X47995600Y-112008872D01*
X48120082Y-111996612D01*
X48239780Y-111960302D01*
X48350094Y-111901337D01*
X48411400Y-111851025D01*
X48411401Y-115394770D01*
X46945004Y-113928374D01*
X46921142Y-113899298D01*
X46805112Y-113804075D01*
X46672735Y-113733318D01*
X46529098Y-113689746D01*
X46417146Y-113678720D01*
X46417143Y-113678720D01*
X46379720Y-113675034D01*
X46342297Y-113678720D01*
X45745032Y-113678720D01*
X45745032Y-113440720D01*
X45732772Y-113316238D01*
X45696462Y-113196540D01*
X45637497Y-113086226D01*
X45558145Y-112989535D01*
X45461454Y-112910183D01*
X45351140Y-112851218D01*
X45231442Y-112814908D01*
X45106960Y-112802648D01*
X43406960Y-112802648D01*
X43282478Y-112814908D01*
X43162780Y-112851218D01*
X43052466Y-112910183D01*
X42955775Y-112989535D01*
X42876423Y-113086226D01*
X42817458Y-113196540D01*
X42810011Y-113221089D01*
X42727002Y-113195908D01*
X42602520Y-113183648D01*
X40902520Y-113183648D01*
X40778038Y-113195908D01*
X40658340Y-113232218D01*
X40548026Y-113291183D01*
X40451335Y-113370535D01*
X40371983Y-113467226D01*
X40313018Y-113577540D01*
X40300181Y-113619859D01*
X40192082Y-113587068D01*
X40094075Y-113577415D01*
X40172462Y-113499028D01*
X40274786Y-113345889D01*
X40345268Y-113175729D01*
X40381200Y-112995089D01*
X40381200Y-112810911D01*
X40372995Y-112769661D01*
X40422094Y-112743417D01*
X40518785Y-112664065D01*
X40598137Y-112567374D01*
X40657102Y-112457060D01*
X40669939Y-112414741D01*
X40778038Y-112447532D01*
X40902520Y-112459792D01*
X42602520Y-112459792D01*
X42727002Y-112447532D01*
X42846700Y-112411222D01*
X42957014Y-112352257D01*
X43053705Y-112272905D01*
X43133057Y-112176214D01*
X43192022Y-112065900D01*
X43199469Y-112041351D01*
X43282478Y-112066532D01*
X43406960Y-112078792D01*
X45106960Y-112078792D01*
X45231442Y-112066532D01*
X45351140Y-112030222D01*
X45461454Y-111971257D01*
X45558145Y-111891905D01*
X45637497Y-111795214D01*
X45696462Y-111684900D01*
X45732772Y-111565202D01*
X45745032Y-111440720D01*
X45745032Y-109440720D01*
X45732772Y-109316238D01*
X45696462Y-109196540D01*
X45637497Y-109086226D01*
X45558145Y-108989535D01*
X45461454Y-108910183D01*
X45351140Y-108851218D01*
X45231442Y-108814908D01*
X45106960Y-108802648D01*
X45018960Y-108802648D01*
X45018960Y-108064970D01*
X46083798Y-107000132D01*
X46069788Y-107046318D01*
G36*
X60395518Y-97275812D02*
G01*
X60520000Y-97288072D01*
X60833001Y-97288072D01*
X60833001Y-98120867D01*
X60829314Y-98158300D01*
X60844027Y-98307678D01*
X60887599Y-98451315D01*
X60958355Y-98583692D01*
X61028269Y-98668882D01*
X61053579Y-98699722D01*
X61082649Y-98723579D01*
X62071421Y-99712351D01*
X62095278Y-99741422D01*
X62211308Y-99836645D01*
X62343685Y-99907402D01*
X62487322Y-99950974D01*
X62599274Y-99962000D01*
X62599276Y-99962000D01*
X62636699Y-99965686D01*
X62674122Y-99962000D01*
X63325458Y-99962000D01*
X63425111Y-100028586D01*
X63595271Y-100099068D01*
X63775911Y-100135000D01*
X63960089Y-100135000D01*
X64140729Y-100099068D01*
X64310889Y-100028586D01*
X64410542Y-99962000D01*
X64641768Y-99962000D01*
X64575149Y-100028619D01*
X64546079Y-100052476D01*
X64522222Y-100081546D01*
X64522221Y-100081547D01*
X64450855Y-100168506D01*
X64380099Y-100300883D01*
X64336527Y-100444520D01*
X64321814Y-100593898D01*
X64325501Y-100631331D01*
X64325500Y-104087870D01*
X62693523Y-105719847D01*
X62688621Y-105725820D01*
X62653579Y-105754578D01*
X62558356Y-105870608D01*
X62487599Y-106002985D01*
X62452498Y-106118698D01*
X62395000Y-106188759D01*
X62357000Y-106142456D01*
X62357000Y-104111044D01*
X62423586Y-104011391D01*
X62494068Y-103841231D01*
X62530000Y-103660591D01*
X62530000Y-103476413D01*
X62494068Y-103295773D01*
X62423586Y-103125613D01*
X62321262Y-102972474D01*
X62191028Y-102842240D01*
X62037889Y-102739916D01*
X61867729Y-102669434D01*
X61687089Y-102633502D01*
X61502911Y-102633502D01*
X61322271Y-102669434D01*
X61152111Y-102739916D01*
X60998972Y-102842240D01*
X60868738Y-102972474D01*
X60766414Y-103125613D01*
X60695932Y-103295773D01*
X60687398Y-103338676D01*
X60620186Y-103176411D01*
X60517862Y-103023272D01*
X60387628Y-102893038D01*
X60234489Y-102790714D01*
X60064329Y-102720232D01*
X59883689Y-102684300D01*
X59699511Y-102684300D01*
X59518871Y-102720232D01*
X59348711Y-102790714D01*
X59195572Y-102893038D01*
X59065338Y-103023272D01*
X58963014Y-103176411D01*
X58937503Y-103238000D01*
X57052544Y-103238000D01*
X57006241Y-103200000D01*
X57096185Y-103126185D01*
X57175537Y-103029494D01*
X57187917Y-103006333D01*
X57280000Y-102914250D01*
X57270454Y-102800663D01*
X57270812Y-102799482D01*
X57283072Y-102675000D01*
X57283072Y-102125000D01*
X57270812Y-102000518D01*
X57270655Y-102000000D01*
X57270812Y-101999482D01*
X57283072Y-101875000D01*
X57283072Y-101325000D01*
X57270812Y-101200518D01*
X57270655Y-101200000D01*
X57270812Y-101199482D01*
X57283072Y-101075000D01*
X57283072Y-100525000D01*
X57270812Y-100400518D01*
X57270655Y-100400000D01*
X57270812Y-100399482D01*
X57283072Y-100275000D01*
X57283072Y-99725000D01*
X57270812Y-99600518D01*
X57270655Y-99600000D01*
X57270812Y-99599482D01*
X57283072Y-99475000D01*
X57283072Y-98925000D01*
X57270812Y-98800518D01*
X57270655Y-98800000D01*
X57270812Y-98799482D01*
X57283072Y-98675000D01*
X57283072Y-98125000D01*
X57270812Y-98000518D01*
X57270655Y-98000000D01*
X57270812Y-97999482D01*
X57283072Y-97875000D01*
X57283072Y-97325000D01*
X57279038Y-97284038D01*
X57320000Y-97288072D01*
X57870000Y-97288072D01*
X57994482Y-97275812D01*
X57995000Y-97275655D01*
X57995518Y-97275812D01*
X58120000Y-97288072D01*
X58670000Y-97288072D01*
X58794482Y-97275812D01*
X58795000Y-97275655D01*
X58795518Y-97275812D01*
X58920000Y-97288072D01*
X59470000Y-97288072D01*
X59594482Y-97275812D01*
X59595000Y-97275655D01*
X59595518Y-97275812D01*
X59720000Y-97288072D01*
X60270000Y-97288072D01*
X60394482Y-97275812D01*
X60395000Y-97275655D01*
X60395518Y-97275812D01*
G37*
X60395518Y-97275812D02*
X60520000Y-97288072D01*
X60833001Y-97288072D01*
X60833001Y-98120867D01*
X60829314Y-98158300D01*
X60844027Y-98307678D01*
X60887599Y-98451315D01*
X60958355Y-98583692D01*
X61028269Y-98668882D01*
X61053579Y-98699722D01*
X61082649Y-98723579D01*
X62071421Y-99712351D01*
X62095278Y-99741422D01*
X62211308Y-99836645D01*
X62343685Y-99907402D01*
X62487322Y-99950974D01*
X62599274Y-99962000D01*
X62599276Y-99962000D01*
X62636699Y-99965686D01*
X62674122Y-99962000D01*
X63325458Y-99962000D01*
X63425111Y-100028586D01*
X63595271Y-100099068D01*
X63775911Y-100135000D01*
X63960089Y-100135000D01*
X64140729Y-100099068D01*
X64310889Y-100028586D01*
X64410542Y-99962000D01*
X64641768Y-99962000D01*
X64575149Y-100028619D01*
X64546079Y-100052476D01*
X64522222Y-100081546D01*
X64522221Y-100081547D01*
X64450855Y-100168506D01*
X64380099Y-100300883D01*
X64336527Y-100444520D01*
X64321814Y-100593898D01*
X64325501Y-100631331D01*
X64325500Y-104087870D01*
X62693523Y-105719847D01*
X62688621Y-105725820D01*
X62653579Y-105754578D01*
X62558356Y-105870608D01*
X62487599Y-106002985D01*
X62452498Y-106118698D01*
X62395000Y-106188759D01*
X62357000Y-106142456D01*
X62357000Y-104111044D01*
X62423586Y-104011391D01*
X62494068Y-103841231D01*
X62530000Y-103660591D01*
X62530000Y-103476413D01*
X62494068Y-103295773D01*
X62423586Y-103125613D01*
X62321262Y-102972474D01*
X62191028Y-102842240D01*
X62037889Y-102739916D01*
X61867729Y-102669434D01*
X61687089Y-102633502D01*
X61502911Y-102633502D01*
X61322271Y-102669434D01*
X61152111Y-102739916D01*
X60998972Y-102842240D01*
X60868738Y-102972474D01*
X60766414Y-103125613D01*
X60695932Y-103295773D01*
X60687398Y-103338676D01*
X60620186Y-103176411D01*
X60517862Y-103023272D01*
X60387628Y-102893038D01*
X60234489Y-102790714D01*
X60064329Y-102720232D01*
X59883689Y-102684300D01*
X59699511Y-102684300D01*
X59518871Y-102720232D01*
X59348711Y-102790714D01*
X59195572Y-102893038D01*
X59065338Y-103023272D01*
X58963014Y-103176411D01*
X58937503Y-103238000D01*
X57052544Y-103238000D01*
X57006241Y-103200000D01*
X57096185Y-103126185D01*
X57175537Y-103029494D01*
X57187917Y-103006333D01*
X57280000Y-102914250D01*
X57270454Y-102800663D01*
X57270812Y-102799482D01*
X57283072Y-102675000D01*
X57283072Y-102125000D01*
X57270812Y-102000518D01*
X57270655Y-102000000D01*
X57270812Y-101999482D01*
X57283072Y-101875000D01*
X57283072Y-101325000D01*
X57270812Y-101200518D01*
X57270655Y-101200000D01*
X57270812Y-101199482D01*
X57283072Y-101075000D01*
X57283072Y-100525000D01*
X57270812Y-100400518D01*
X57270655Y-100400000D01*
X57270812Y-100399482D01*
X57283072Y-100275000D01*
X57283072Y-99725000D01*
X57270812Y-99600518D01*
X57270655Y-99600000D01*
X57270812Y-99599482D01*
X57283072Y-99475000D01*
X57283072Y-98925000D01*
X57270812Y-98800518D01*
X57270655Y-98800000D01*
X57270812Y-98799482D01*
X57283072Y-98675000D01*
X57283072Y-98125000D01*
X57270812Y-98000518D01*
X57270655Y-98000000D01*
X57270812Y-97999482D01*
X57283072Y-97875000D01*
X57283072Y-97325000D01*
X57279038Y-97284038D01*
X57320000Y-97288072D01*
X57870000Y-97288072D01*
X57994482Y-97275812D01*
X57995000Y-97275655D01*
X57995518Y-97275812D01*
X58120000Y-97288072D01*
X58670000Y-97288072D01*
X58794482Y-97275812D01*
X58795000Y-97275655D01*
X58795518Y-97275812D01*
X58920000Y-97288072D01*
X59470000Y-97288072D01*
X59594482Y-97275812D01*
X59595000Y-97275655D01*
X59595518Y-97275812D01*
X59720000Y-97288072D01*
X60270000Y-97288072D01*
X60394482Y-97275812D01*
X60395000Y-97275655D01*
X60395518Y-97275812D01*
G36*
X52812000Y-104013000D02*
G01*
X52832000Y-104013000D01*
X52832000Y-104267000D01*
X52812000Y-104267000D01*
X52812000Y-104287000D01*
X52558000Y-104287000D01*
X52558000Y-104267000D01*
X52538000Y-104267000D01*
X52538000Y-104013000D01*
X52558000Y-104013000D01*
X52558000Y-103993000D01*
X52812000Y-103993000D01*
X52812000Y-104013000D01*
G37*
X52812000Y-104013000D02*
X52832000Y-104013000D01*
X52832000Y-104267000D01*
X52812000Y-104267000D01*
X52812000Y-104287000D01*
X52558000Y-104287000D01*
X52558000Y-104267000D01*
X52538000Y-104267000D01*
X52538000Y-104013000D01*
X52558000Y-104013000D01*
X52558000Y-103993000D01*
X52812000Y-103993000D01*
X52812000Y-104013000D01*
G36*
X73834000Y-95885000D02*
G01*
X73854000Y-95885000D01*
X73854000Y-96139000D01*
X73834000Y-96139000D01*
X73834000Y-97138250D01*
X73850750Y-97155000D01*
X73834000Y-97171750D01*
X73834000Y-98171000D01*
X73854000Y-98171000D01*
X73854000Y-98425000D01*
X73834000Y-98425000D01*
X73834000Y-100330000D01*
X73854000Y-100330000D01*
X73854000Y-100584000D01*
X73834000Y-100584000D01*
X73834000Y-101583250D01*
X73850750Y-101600000D01*
X73834000Y-101616750D01*
X73834000Y-102616000D01*
X73854000Y-102616000D01*
X73854000Y-102870000D01*
X73834000Y-102870000D01*
X73834000Y-102890000D01*
X73580000Y-102890000D01*
X73580000Y-102870000D01*
X72480750Y-102870000D01*
X72322000Y-103028750D01*
X72318928Y-103393000D01*
X72331188Y-103517482D01*
X72367498Y-103637180D01*
X72426463Y-103747494D01*
X72505815Y-103844185D01*
X72559833Y-103888517D01*
X71369336Y-103902194D01*
X71384068Y-103866629D01*
X71420000Y-103685989D01*
X71420000Y-103501811D01*
X71384068Y-103321171D01*
X71313586Y-103151011D01*
X71211262Y-102997872D01*
X71081028Y-102867638D01*
X70927889Y-102765314D01*
X70757729Y-102694832D01*
X70640181Y-102671450D01*
X69683030Y-101714300D01*
X70064410Y-101714300D01*
X70079472Y-101729362D01*
X70232611Y-101831686D01*
X70402771Y-101902168D01*
X70583411Y-101938100D01*
X70767589Y-101938100D01*
X70948229Y-101902168D01*
X71118389Y-101831686D01*
X71271528Y-101729362D01*
X71401762Y-101599128D01*
X71504086Y-101445989D01*
X71574568Y-101275829D01*
X71608150Y-101107000D01*
X72318928Y-101107000D01*
X72331188Y-101231482D01*
X72367498Y-101351180D01*
X72426463Y-101461494D01*
X72505815Y-101558185D01*
X72556767Y-101600000D01*
X72505815Y-101641815D01*
X72426463Y-101738506D01*
X72367498Y-101848820D01*
X72331188Y-101968518D01*
X72318928Y-102093000D01*
X72322000Y-102457250D01*
X72480750Y-102616000D01*
X73580000Y-102616000D01*
X73580000Y-101616750D01*
X73563250Y-101600000D01*
X73580000Y-101583250D01*
X73580000Y-100584000D01*
X72480750Y-100584000D01*
X72322000Y-100742750D01*
X72318928Y-101107000D01*
X71608150Y-101107000D01*
X71610500Y-101095189D01*
X71610500Y-100911011D01*
X71574568Y-100730371D01*
X71504086Y-100560211D01*
X71401762Y-100407072D01*
X71271528Y-100276838D01*
X71118389Y-100174514D01*
X70948229Y-100104032D01*
X70767589Y-100068100D01*
X70583411Y-100068100D01*
X70402771Y-100104032D01*
X70232611Y-100174514D01*
X70208986Y-100190300D01*
X68586117Y-100190300D01*
X68575537Y-100170506D01*
X68496185Y-100073815D01*
X68406241Y-100000000D01*
X68496185Y-99926185D01*
X68575537Y-99829494D01*
X68587917Y-99806333D01*
X68680000Y-99714250D01*
X68670454Y-99600663D01*
X68670812Y-99599482D01*
X68683072Y-99475000D01*
X68683072Y-98925000D01*
X68681114Y-98905118D01*
X68805632Y-98780600D01*
X69777358Y-98780600D01*
X69877011Y-98847186D01*
X70047171Y-98917668D01*
X70227811Y-98953600D01*
X70411989Y-98953600D01*
X70440141Y-98948000D01*
X72318928Y-98948000D01*
X72331188Y-99072482D01*
X72367498Y-99192180D01*
X72426463Y-99302494D01*
X72488019Y-99377500D01*
X72426463Y-99452506D01*
X72367498Y-99562820D01*
X72331188Y-99682518D01*
X72318928Y-99807000D01*
X72322000Y-100171250D01*
X72480750Y-100330000D01*
X73580000Y-100330000D01*
X73580000Y-98425000D01*
X72480750Y-98425000D01*
X72322000Y-98583750D01*
X72318928Y-98948000D01*
X70440141Y-98948000D01*
X70592629Y-98917668D01*
X70762789Y-98847186D01*
X70915928Y-98744862D01*
X71046162Y-98614628D01*
X71148486Y-98461489D01*
X71218968Y-98291329D01*
X71254900Y-98110689D01*
X71254900Y-97926511D01*
X71218968Y-97745871D01*
X71195172Y-97688422D01*
X72319756Y-96563839D01*
X72318928Y-96662000D01*
X72331188Y-96786482D01*
X72367498Y-96906180D01*
X72426463Y-97016494D01*
X72505815Y-97113185D01*
X72556767Y-97155000D01*
X72505815Y-97196815D01*
X72426463Y-97293506D01*
X72367498Y-97403820D01*
X72331188Y-97523518D01*
X72318928Y-97648000D01*
X72322000Y-98012250D01*
X72480750Y-98171000D01*
X73580000Y-98171000D01*
X73580000Y-97171750D01*
X73563250Y-97155000D01*
X73580000Y-97138250D01*
X73580000Y-96139000D01*
X73560000Y-96139000D01*
X73560000Y-95885000D01*
X73580000Y-95885000D01*
X73580000Y-95865000D01*
X73834000Y-95865000D01*
X73834000Y-95885000D01*
G37*
X73834000Y-95885000D02*
X73854000Y-95885000D01*
X73854000Y-96139000D01*
X73834000Y-96139000D01*
X73834000Y-97138250D01*
X73850750Y-97155000D01*
X73834000Y-97171750D01*
X73834000Y-98171000D01*
X73854000Y-98171000D01*
X73854000Y-98425000D01*
X73834000Y-98425000D01*
X73834000Y-100330000D01*
X73854000Y-100330000D01*
X73854000Y-100584000D01*
X73834000Y-100584000D01*
X73834000Y-101583250D01*
X73850750Y-101600000D01*
X73834000Y-101616750D01*
X73834000Y-102616000D01*
X73854000Y-102616000D01*
X73854000Y-102870000D01*
X73834000Y-102870000D01*
X73834000Y-102890000D01*
X73580000Y-102890000D01*
X73580000Y-102870000D01*
X72480750Y-102870000D01*
X72322000Y-103028750D01*
X72318928Y-103393000D01*
X72331188Y-103517482D01*
X72367498Y-103637180D01*
X72426463Y-103747494D01*
X72505815Y-103844185D01*
X72559833Y-103888517D01*
X71369336Y-103902194D01*
X71384068Y-103866629D01*
X71420000Y-103685989D01*
X71420000Y-103501811D01*
X71384068Y-103321171D01*
X71313586Y-103151011D01*
X71211262Y-102997872D01*
X71081028Y-102867638D01*
X70927889Y-102765314D01*
X70757729Y-102694832D01*
X70640181Y-102671450D01*
X69683030Y-101714300D01*
X70064410Y-101714300D01*
X70079472Y-101729362D01*
X70232611Y-101831686D01*
X70402771Y-101902168D01*
X70583411Y-101938100D01*
X70767589Y-101938100D01*
X70948229Y-101902168D01*
X71118389Y-101831686D01*
X71271528Y-101729362D01*
X71401762Y-101599128D01*
X71504086Y-101445989D01*
X71574568Y-101275829D01*
X71608150Y-101107000D01*
X72318928Y-101107000D01*
X72331188Y-101231482D01*
X72367498Y-101351180D01*
X72426463Y-101461494D01*
X72505815Y-101558185D01*
X72556767Y-101600000D01*
X72505815Y-101641815D01*
X72426463Y-101738506D01*
X72367498Y-101848820D01*
X72331188Y-101968518D01*
X72318928Y-102093000D01*
X72322000Y-102457250D01*
X72480750Y-102616000D01*
X73580000Y-102616000D01*
X73580000Y-101616750D01*
X73563250Y-101600000D01*
X73580000Y-101583250D01*
X73580000Y-100584000D01*
X72480750Y-100584000D01*
X72322000Y-100742750D01*
X72318928Y-101107000D01*
X71608150Y-101107000D01*
X71610500Y-101095189D01*
X71610500Y-100911011D01*
X71574568Y-100730371D01*
X71504086Y-100560211D01*
X71401762Y-100407072D01*
X71271528Y-100276838D01*
X71118389Y-100174514D01*
X70948229Y-100104032D01*
X70767589Y-100068100D01*
X70583411Y-100068100D01*
X70402771Y-100104032D01*
X70232611Y-100174514D01*
X70208986Y-100190300D01*
X68586117Y-100190300D01*
X68575537Y-100170506D01*
X68496185Y-100073815D01*
X68406241Y-100000000D01*
X68496185Y-99926185D01*
X68575537Y-99829494D01*
X68587917Y-99806333D01*
X68680000Y-99714250D01*
X68670454Y-99600663D01*
X68670812Y-99599482D01*
X68683072Y-99475000D01*
X68683072Y-98925000D01*
X68681114Y-98905118D01*
X68805632Y-98780600D01*
X69777358Y-98780600D01*
X69877011Y-98847186D01*
X70047171Y-98917668D01*
X70227811Y-98953600D01*
X70411989Y-98953600D01*
X70440141Y-98948000D01*
X72318928Y-98948000D01*
X72331188Y-99072482D01*
X72367498Y-99192180D01*
X72426463Y-99302494D01*
X72488019Y-99377500D01*
X72426463Y-99452506D01*
X72367498Y-99562820D01*
X72331188Y-99682518D01*
X72318928Y-99807000D01*
X72322000Y-100171250D01*
X72480750Y-100330000D01*
X73580000Y-100330000D01*
X73580000Y-98425000D01*
X72480750Y-98425000D01*
X72322000Y-98583750D01*
X72318928Y-98948000D01*
X70440141Y-98948000D01*
X70592629Y-98917668D01*
X70762789Y-98847186D01*
X70915928Y-98744862D01*
X71046162Y-98614628D01*
X71148486Y-98461489D01*
X71218968Y-98291329D01*
X71254900Y-98110689D01*
X71254900Y-97926511D01*
X71218968Y-97745871D01*
X71195172Y-97688422D01*
X72319756Y-96563839D01*
X72318928Y-96662000D01*
X72331188Y-96786482D01*
X72367498Y-96906180D01*
X72426463Y-97016494D01*
X72505815Y-97113185D01*
X72556767Y-97155000D01*
X72505815Y-97196815D01*
X72426463Y-97293506D01*
X72367498Y-97403820D01*
X72331188Y-97523518D01*
X72318928Y-97648000D01*
X72322000Y-98012250D01*
X72480750Y-98171000D01*
X73580000Y-98171000D01*
X73580000Y-97171750D01*
X73563250Y-97155000D01*
X73580000Y-97138250D01*
X73580000Y-96139000D01*
X73560000Y-96139000D01*
X73560000Y-95885000D01*
X73580000Y-95885000D01*
X73580000Y-95865000D01*
X73834000Y-95865000D01*
X73834000Y-95885000D01*
G36*
X30726354Y-88163691D02*
G01*
X30771066Y-88218172D01*
X30821578Y-88279721D01*
X30850648Y-88303578D01*
X31283951Y-88736881D01*
X31224010Y-88826589D01*
X31112068Y-89096842D01*
X31055000Y-89383740D01*
X31055000Y-89676260D01*
X31112068Y-89963158D01*
X31224010Y-90233411D01*
X31386525Y-90476632D01*
X31593368Y-90683475D01*
X31767760Y-90800000D01*
X31593368Y-90916525D01*
X31386525Y-91123368D01*
X31224010Y-91366589D01*
X31112068Y-91636842D01*
X31055000Y-91923740D01*
X31055000Y-92216260D01*
X31112068Y-92503158D01*
X31224010Y-92773411D01*
X31386525Y-93016632D01*
X31593368Y-93223475D01*
X31775534Y-93345195D01*
X31658645Y-93414822D01*
X31442412Y-93609731D01*
X31268359Y-93843080D01*
X31143175Y-94105901D01*
X31098524Y-94253110D01*
X31219845Y-94483000D01*
X32413000Y-94483000D01*
X32413000Y-94463000D01*
X32667000Y-94463000D01*
X32667000Y-94483000D01*
X33860155Y-94483000D01*
X33981476Y-94253110D01*
X33936825Y-94105901D01*
X33811641Y-93843080D01*
X33637588Y-93609731D01*
X33421355Y-93414822D01*
X33304466Y-93345195D01*
X33486632Y-93223475D01*
X33693475Y-93016632D01*
X33855990Y-92773411D01*
X33967932Y-92503158D01*
X34025000Y-92216260D01*
X34025000Y-91923740D01*
X33967932Y-91636842D01*
X33855990Y-91366589D01*
X33693475Y-91123368D01*
X33486632Y-90916525D01*
X33312240Y-90800000D01*
X33416863Y-90730093D01*
X34677221Y-91990452D01*
X34701078Y-92019522D01*
X34817108Y-92114745D01*
X34949485Y-92185502D01*
X35093122Y-92229074D01*
X35205074Y-92240100D01*
X35205076Y-92240100D01*
X35242499Y-92243786D01*
X35279922Y-92240100D01*
X37939727Y-92240100D01*
X37990147Y-92493574D01*
X38098320Y-92754727D01*
X38255363Y-92989759D01*
X38455241Y-93189637D01*
X38687759Y-93345000D01*
X38455241Y-93500363D01*
X38255363Y-93700241D01*
X38098320Y-93935273D01*
X37990147Y-94196426D01*
X37935000Y-94473665D01*
X37935000Y-94576559D01*
X37788630Y-94515931D01*
X37607990Y-94479999D01*
X37423812Y-94479999D01*
X37243172Y-94515931D01*
X37073012Y-94586413D01*
X36919873Y-94688737D01*
X36789639Y-94818971D01*
X36687315Y-94972110D01*
X36616833Y-95142270D01*
X36580901Y-95322910D01*
X36580901Y-95507088D01*
X36616833Y-95687728D01*
X36687315Y-95857888D01*
X36789639Y-96011027D01*
X36919873Y-96141261D01*
X37035074Y-96218236D01*
X33972666Y-99280643D01*
X33967932Y-99256842D01*
X33855990Y-98986589D01*
X33693475Y-98743368D01*
X33486632Y-98536525D01*
X33304466Y-98414805D01*
X33421355Y-98345178D01*
X33637588Y-98150269D01*
X33811641Y-97916920D01*
X33936825Y-97654099D01*
X33981476Y-97506890D01*
X33860155Y-97277000D01*
X32667000Y-97277000D01*
X32667000Y-97297000D01*
X32413000Y-97297000D01*
X32413000Y-97277000D01*
X31219845Y-97277000D01*
X31098524Y-97506890D01*
X31143175Y-97654099D01*
X31268359Y-97916920D01*
X31442412Y-98150269D01*
X31658645Y-98345178D01*
X31775534Y-98414805D01*
X31593368Y-98536525D01*
X31386525Y-98743368D01*
X31224010Y-98986589D01*
X31112068Y-99256842D01*
X31055000Y-99543740D01*
X31055000Y-99836260D01*
X31112068Y-100123158D01*
X31224010Y-100393411D01*
X31386525Y-100636632D01*
X31593368Y-100843475D01*
X31836589Y-101005990D01*
X32106842Y-101117932D01*
X32130643Y-101122666D01*
X31836064Y-101417245D01*
X31796696Y-101429187D01*
X31664319Y-101499944D01*
X31548289Y-101595167D01*
X31524432Y-101624237D01*
X30710000Y-102438670D01*
X30710000Y-94966890D01*
X31098524Y-94966890D01*
X31143175Y-95114099D01*
X31268359Y-95376920D01*
X31442412Y-95610269D01*
X31658645Y-95805178D01*
X31784255Y-95880000D01*
X31658645Y-95954822D01*
X31442412Y-96149731D01*
X31268359Y-96383080D01*
X31143175Y-96645901D01*
X31098524Y-96793110D01*
X31219845Y-97023000D01*
X32413000Y-97023000D01*
X32413000Y-94737000D01*
X32667000Y-94737000D01*
X32667000Y-97023000D01*
X33860155Y-97023000D01*
X33981476Y-96793110D01*
X33936825Y-96645901D01*
X33811641Y-96383080D01*
X33637588Y-96149731D01*
X33421355Y-95954822D01*
X33295745Y-95880000D01*
X33421355Y-95805178D01*
X33637588Y-95610269D01*
X33811641Y-95376920D01*
X33936825Y-95114099D01*
X33981476Y-94966890D01*
X33860155Y-94737000D01*
X32667000Y-94737000D01*
X32413000Y-94737000D01*
X31219845Y-94737000D01*
X31098524Y-94966890D01*
X30710000Y-94966890D01*
X30710000Y-88133094D01*
X30726354Y-88163691D01*
G37*
X30726354Y-88163691D02*
X30771066Y-88218172D01*
X30821578Y-88279721D01*
X30850648Y-88303578D01*
X31283951Y-88736881D01*
X31224010Y-88826589D01*
X31112068Y-89096842D01*
X31055000Y-89383740D01*
X31055000Y-89676260D01*
X31112068Y-89963158D01*
X31224010Y-90233411D01*
X31386525Y-90476632D01*
X31593368Y-90683475D01*
X31767760Y-90800000D01*
X31593368Y-90916525D01*
X31386525Y-91123368D01*
X31224010Y-91366589D01*
X31112068Y-91636842D01*
X31055000Y-91923740D01*
X31055000Y-92216260D01*
X31112068Y-92503158D01*
X31224010Y-92773411D01*
X31386525Y-93016632D01*
X31593368Y-93223475D01*
X31775534Y-93345195D01*
X31658645Y-93414822D01*
X31442412Y-93609731D01*
X31268359Y-93843080D01*
X31143175Y-94105901D01*
X31098524Y-94253110D01*
X31219845Y-94483000D01*
X32413000Y-94483000D01*
X32413000Y-94463000D01*
X32667000Y-94463000D01*
X32667000Y-94483000D01*
X33860155Y-94483000D01*
X33981476Y-94253110D01*
X33936825Y-94105901D01*
X33811641Y-93843080D01*
X33637588Y-93609731D01*
X33421355Y-93414822D01*
X33304466Y-93345195D01*
X33486632Y-93223475D01*
X33693475Y-93016632D01*
X33855990Y-92773411D01*
X33967932Y-92503158D01*
X34025000Y-92216260D01*
X34025000Y-91923740D01*
X33967932Y-91636842D01*
X33855990Y-91366589D01*
X33693475Y-91123368D01*
X33486632Y-90916525D01*
X33312240Y-90800000D01*
X33416863Y-90730093D01*
X34677221Y-91990452D01*
X34701078Y-92019522D01*
X34817108Y-92114745D01*
X34949485Y-92185502D01*
X35093122Y-92229074D01*
X35205074Y-92240100D01*
X35205076Y-92240100D01*
X35242499Y-92243786D01*
X35279922Y-92240100D01*
X37939727Y-92240100D01*
X37990147Y-92493574D01*
X38098320Y-92754727D01*
X38255363Y-92989759D01*
X38455241Y-93189637D01*
X38687759Y-93345000D01*
X38455241Y-93500363D01*
X38255363Y-93700241D01*
X38098320Y-93935273D01*
X37990147Y-94196426D01*
X37935000Y-94473665D01*
X37935000Y-94576559D01*
X37788630Y-94515931D01*
X37607990Y-94479999D01*
X37423812Y-94479999D01*
X37243172Y-94515931D01*
X37073012Y-94586413D01*
X36919873Y-94688737D01*
X36789639Y-94818971D01*
X36687315Y-94972110D01*
X36616833Y-95142270D01*
X36580901Y-95322910D01*
X36580901Y-95507088D01*
X36616833Y-95687728D01*
X36687315Y-95857888D01*
X36789639Y-96011027D01*
X36919873Y-96141261D01*
X37035074Y-96218236D01*
X33972666Y-99280643D01*
X33967932Y-99256842D01*
X33855990Y-98986589D01*
X33693475Y-98743368D01*
X33486632Y-98536525D01*
X33304466Y-98414805D01*
X33421355Y-98345178D01*
X33637588Y-98150269D01*
X33811641Y-97916920D01*
X33936825Y-97654099D01*
X33981476Y-97506890D01*
X33860155Y-97277000D01*
X32667000Y-97277000D01*
X32667000Y-97297000D01*
X32413000Y-97297000D01*
X32413000Y-97277000D01*
X31219845Y-97277000D01*
X31098524Y-97506890D01*
X31143175Y-97654099D01*
X31268359Y-97916920D01*
X31442412Y-98150269D01*
X31658645Y-98345178D01*
X31775534Y-98414805D01*
X31593368Y-98536525D01*
X31386525Y-98743368D01*
X31224010Y-98986589D01*
X31112068Y-99256842D01*
X31055000Y-99543740D01*
X31055000Y-99836260D01*
X31112068Y-100123158D01*
X31224010Y-100393411D01*
X31386525Y-100636632D01*
X31593368Y-100843475D01*
X31836589Y-101005990D01*
X32106842Y-101117932D01*
X32130643Y-101122666D01*
X31836064Y-101417245D01*
X31796696Y-101429187D01*
X31664319Y-101499944D01*
X31548289Y-101595167D01*
X31524432Y-101624237D01*
X30710000Y-102438670D01*
X30710000Y-94966890D01*
X31098524Y-94966890D01*
X31143175Y-95114099D01*
X31268359Y-95376920D01*
X31442412Y-95610269D01*
X31658645Y-95805178D01*
X31784255Y-95880000D01*
X31658645Y-95954822D01*
X31442412Y-96149731D01*
X31268359Y-96383080D01*
X31143175Y-96645901D01*
X31098524Y-96793110D01*
X31219845Y-97023000D01*
X32413000Y-97023000D01*
X32413000Y-94737000D01*
X32667000Y-94737000D01*
X32667000Y-97023000D01*
X33860155Y-97023000D01*
X33981476Y-96793110D01*
X33936825Y-96645901D01*
X33811641Y-96383080D01*
X33637588Y-96149731D01*
X33421355Y-95954822D01*
X33295745Y-95880000D01*
X33421355Y-95805178D01*
X33637588Y-95610269D01*
X33811641Y-95376920D01*
X33936825Y-95114099D01*
X33981476Y-94966890D01*
X33860155Y-94737000D01*
X32667000Y-94737000D01*
X32413000Y-94737000D01*
X31219845Y-94737000D01*
X31098524Y-94966890D01*
X30710000Y-94966890D01*
X30710000Y-88133094D01*
X30726354Y-88163691D01*
G36*
X62433000Y-94742456D02*
G01*
X62395000Y-94788759D01*
X62337811Y-94719074D01*
X62302402Y-94602346D01*
X62231645Y-94469969D01*
X62136422Y-94353939D01*
X62107352Y-94330082D01*
X60496230Y-92718961D01*
X61128654Y-92718961D01*
X61166077Y-92722647D01*
X61203500Y-92718961D01*
X61203503Y-92718961D01*
X61315455Y-92707935D01*
X61459092Y-92664363D01*
X61591469Y-92593606D01*
X61707499Y-92498383D01*
X61731361Y-92469307D01*
X62409670Y-91790999D01*
X62433001Y-91790999D01*
X62433000Y-94742456D01*
G37*
X62433000Y-94742456D02*
X62395000Y-94788759D01*
X62337811Y-94719074D01*
X62302402Y-94602346D01*
X62231645Y-94469969D01*
X62136422Y-94353939D01*
X62107352Y-94330082D01*
X60496230Y-92718961D01*
X61128654Y-92718961D01*
X61166077Y-92722647D01*
X61203500Y-92718961D01*
X61203503Y-92718961D01*
X61315455Y-92707935D01*
X61459092Y-92664363D01*
X61591469Y-92593606D01*
X61707499Y-92498383D01*
X61731361Y-92469307D01*
X62409670Y-91790999D01*
X62433001Y-91790999D01*
X62433000Y-94742456D01*
G36*
X55472026Y-55789021D02*
G01*
X55457313Y-55938399D01*
X55461000Y-55975832D01*
X55460999Y-59589576D01*
X55457313Y-59626999D01*
X55460999Y-59664422D01*
X55460999Y-59664424D01*
X55472025Y-59776376D01*
X55515597Y-59920013D01*
X55523552Y-59934895D01*
X55586354Y-60052391D01*
X55607808Y-60078532D01*
X55681577Y-60168421D01*
X55710653Y-60192283D01*
X55730716Y-60212346D01*
X55754578Y-60241422D01*
X55870608Y-60336645D01*
X55938960Y-60373180D01*
X55960498Y-60444180D01*
X55963609Y-60450000D01*
X55960498Y-60455820D01*
X55924188Y-60575518D01*
X55911928Y-60700000D01*
X55911928Y-61700000D01*
X55924188Y-61824482D01*
X55960498Y-61944180D01*
X55963609Y-61950000D01*
X55960498Y-61955820D01*
X55924188Y-62075518D01*
X55911928Y-62200000D01*
X55911928Y-63098400D01*
X55800611Y-63098400D01*
X55619971Y-63134332D01*
X55449811Y-63204814D01*
X55336180Y-63280740D01*
X55319058Y-63282426D01*
X55175421Y-63325998D01*
X55145927Y-63341763D01*
X55043043Y-63396755D01*
X54985256Y-63444180D01*
X54927014Y-63491978D01*
X54903157Y-63521048D01*
X53005454Y-65418752D01*
X52976378Y-65442614D01*
X52944603Y-65481333D01*
X52881155Y-65558644D01*
X52850871Y-65615303D01*
X52810398Y-65691022D01*
X52766826Y-65834659D01*
X52756650Y-65937985D01*
X52752114Y-65984036D01*
X52755800Y-66021460D01*
X52755801Y-67239306D01*
X52686932Y-67405571D01*
X52651000Y-67586211D01*
X52651000Y-67770389D01*
X52686932Y-67951029D01*
X52757414Y-68121189D01*
X52859738Y-68274328D01*
X52989972Y-68404562D01*
X53143111Y-68506886D01*
X53313271Y-68577368D01*
X53493911Y-68613300D01*
X53678089Y-68613300D01*
X53858729Y-68577368D01*
X54028889Y-68506886D01*
X54182028Y-68404562D01*
X54312262Y-68274328D01*
X54414586Y-68121189D01*
X54485068Y-67951029D01*
X54521000Y-67770389D01*
X54521000Y-67586211D01*
X54485068Y-67405571D01*
X54414586Y-67235411D01*
X54312262Y-67082272D01*
X54279800Y-67049810D01*
X54279800Y-66299666D01*
X55642515Y-64936952D01*
X55800611Y-64968400D01*
X55956682Y-64968400D01*
X55924188Y-65075518D01*
X55911928Y-65200000D01*
X55911928Y-66200000D01*
X55924188Y-66324482D01*
X55960498Y-66444180D01*
X55963609Y-66450000D01*
X55960498Y-66455820D01*
X55924188Y-66575518D01*
X55911928Y-66700000D01*
X55911928Y-67700000D01*
X55924188Y-67824482D01*
X55960498Y-67944180D01*
X55963609Y-67950000D01*
X55960498Y-67955820D01*
X55924188Y-68075518D01*
X55911928Y-68200000D01*
X55911928Y-69200000D01*
X55924188Y-69324482D01*
X55960498Y-69444180D01*
X55963609Y-69450000D01*
X55960498Y-69455820D01*
X55924188Y-69575518D01*
X55911928Y-69700000D01*
X55911928Y-70700000D01*
X55924188Y-70824482D01*
X55960498Y-70944180D01*
X55963609Y-70950000D01*
X55960498Y-70955820D01*
X55924188Y-71075518D01*
X55911928Y-71200000D01*
X55911928Y-72200000D01*
X55924188Y-72324482D01*
X55960498Y-72444180D01*
X55963609Y-72450000D01*
X55960498Y-72455820D01*
X55924188Y-72575518D01*
X55911928Y-72700000D01*
X55911928Y-73700000D01*
X55924188Y-73824482D01*
X55960498Y-73944180D01*
X55963609Y-73950000D01*
X55960498Y-73955820D01*
X55924188Y-74075518D01*
X55911928Y-74200000D01*
X55915000Y-74414250D01*
X56073750Y-74573000D01*
X57173000Y-74573000D01*
X57173000Y-74553000D01*
X57427000Y-74553000D01*
X57427000Y-74573000D01*
X57447000Y-74573000D01*
X57447000Y-74827000D01*
X57427000Y-74827000D01*
X57427000Y-75676250D01*
X57585750Y-75835000D01*
X58050000Y-75838072D01*
X58174482Y-75825812D01*
X58294180Y-75789502D01*
X58404494Y-75730537D01*
X58501185Y-75651185D01*
X58580537Y-75554494D01*
X58590531Y-75535797D01*
X58593314Y-75539188D01*
X58664577Y-75626023D01*
X58693653Y-75649885D01*
X59057357Y-76013589D01*
X59049188Y-76040518D01*
X59036928Y-76165000D01*
X59040000Y-76629250D01*
X59198750Y-76788000D01*
X60198000Y-76788000D01*
X60198000Y-76768000D01*
X60452000Y-76768000D01*
X60452000Y-76788000D01*
X61451250Y-76788000D01*
X61610000Y-76629250D01*
X61613072Y-76165000D01*
X61600812Y-76040518D01*
X61582937Y-75981593D01*
X61653128Y-75911402D01*
X61653128Y-77378000D01*
X61665388Y-77502482D01*
X61701698Y-77622180D01*
X61760663Y-77732494D01*
X61840015Y-77829185D01*
X61936706Y-77908537D01*
X62047020Y-77967502D01*
X62081627Y-77978000D01*
X62047020Y-77988498D01*
X61936706Y-78047463D01*
X61840015Y-78126815D01*
X61760663Y-78223506D01*
X61701698Y-78333820D01*
X61665388Y-78453518D01*
X61653128Y-78578000D01*
X61656200Y-79042250D01*
X61814950Y-79201000D01*
X62814200Y-79201000D01*
X62814200Y-79181000D01*
X63068200Y-79181000D01*
X63068200Y-79201000D01*
X64067450Y-79201000D01*
X64226200Y-79042250D01*
X64226291Y-79028548D01*
X64347711Y-79052700D01*
X64531889Y-79052700D01*
X64703707Y-79018523D01*
X64704200Y-79093050D01*
X64862950Y-79251800D01*
X65862200Y-79251800D01*
X65862200Y-79231800D01*
X66116200Y-79231800D01*
X66116200Y-79251800D01*
X67115450Y-79251800D01*
X67217939Y-79149311D01*
X68400900Y-79149311D01*
X68400900Y-79333489D01*
X68436832Y-79514129D01*
X68507314Y-79684289D01*
X68609638Y-79837428D01*
X68739872Y-79967662D01*
X68893011Y-80069986D01*
X69063171Y-80140468D01*
X69180720Y-80163850D01*
X69286928Y-80270058D01*
X69286928Y-80810000D01*
X69299188Y-80934482D01*
X69335498Y-81054180D01*
X69394463Y-81164494D01*
X69473815Y-81261185D01*
X69570506Y-81340537D01*
X69680820Y-81399502D01*
X69800518Y-81435812D01*
X69925000Y-81448072D01*
X72525000Y-81448072D01*
X72649482Y-81435812D01*
X72769180Y-81399502D01*
X72879494Y-81340537D01*
X72976185Y-81261185D01*
X73025000Y-81201704D01*
X73073815Y-81261185D01*
X73170506Y-81340537D01*
X73280820Y-81399502D01*
X73400518Y-81435812D01*
X73525000Y-81448072D01*
X74539250Y-81445000D01*
X74698000Y-81286250D01*
X74698000Y-80137000D01*
X74952000Y-80137000D01*
X74952000Y-81286250D01*
X75110750Y-81445000D01*
X76125000Y-81448072D01*
X76249482Y-81435812D01*
X76369180Y-81399502D01*
X76479494Y-81340537D01*
X76576185Y-81261185D01*
X76655537Y-81164494D01*
X76714502Y-81054180D01*
X76750812Y-80934482D01*
X76763072Y-80810000D01*
X76760000Y-80295750D01*
X76601250Y-80137000D01*
X74952000Y-80137000D01*
X74698000Y-80137000D01*
X74678000Y-80137000D01*
X74678000Y-79883000D01*
X74698000Y-79883000D01*
X74698000Y-78733750D01*
X74952000Y-78733750D01*
X74952000Y-79883000D01*
X76601250Y-79883000D01*
X76760000Y-79724250D01*
X76763072Y-79210000D01*
X76750812Y-79085518D01*
X76714502Y-78965820D01*
X76655537Y-78855506D01*
X76576185Y-78758815D01*
X76479494Y-78679463D01*
X76369180Y-78620498D01*
X76249482Y-78584188D01*
X76125000Y-78571928D01*
X75110750Y-78575000D01*
X74952000Y-78733750D01*
X74698000Y-78733750D01*
X74539250Y-78575000D01*
X73525000Y-78571928D01*
X73400518Y-78584188D01*
X73280820Y-78620498D01*
X73170506Y-78679463D01*
X73073815Y-78758815D01*
X73025000Y-78818296D01*
X72976185Y-78758815D01*
X72879494Y-78679463D01*
X72769180Y-78620498D01*
X72649482Y-78584188D01*
X72525000Y-78571928D01*
X69988718Y-78571928D01*
X69931928Y-78515138D01*
X69778789Y-78412814D01*
X69608629Y-78342332D01*
X69427989Y-78306400D01*
X69243811Y-78306400D01*
X69063171Y-78342332D01*
X68893011Y-78412814D01*
X68739872Y-78515138D01*
X68609638Y-78645372D01*
X68507314Y-78798511D01*
X68436832Y-78968671D01*
X68400900Y-79149311D01*
X67217939Y-79149311D01*
X67274200Y-79093050D01*
X67277272Y-78628800D01*
X67265012Y-78504318D01*
X67228702Y-78384620D01*
X67169737Y-78274306D01*
X67090385Y-78177615D01*
X66993694Y-78098263D01*
X66883380Y-78039298D01*
X66848773Y-78028800D01*
X66883380Y-78018302D01*
X66993694Y-77959337D01*
X67090385Y-77879985D01*
X67169737Y-77783294D01*
X67228702Y-77672980D01*
X67265012Y-77553282D01*
X67277272Y-77428800D01*
X67277272Y-76664629D01*
X67379614Y-76674709D01*
X67379616Y-76674709D01*
X67417039Y-76678395D01*
X67454462Y-76674709D01*
X69760386Y-76674709D01*
X69872338Y-76663683D01*
X70015975Y-76620111D01*
X70148352Y-76549354D01*
X70264382Y-76454131D01*
X70359605Y-76338101D01*
X70430362Y-76205724D01*
X70473934Y-76062087D01*
X70488646Y-75912709D01*
X70473934Y-75763331D01*
X70430362Y-75619694D01*
X70359605Y-75487317D01*
X70264382Y-75371287D01*
X70148352Y-75276064D01*
X70015975Y-75205307D01*
X69872338Y-75161735D01*
X69760386Y-75150709D01*
X67732671Y-75150709D01*
X67670729Y-75088767D01*
X67709372Y-74961379D01*
X67724085Y-74812001D01*
X67709372Y-74662622D01*
X67665800Y-74518985D01*
X67595044Y-74386608D01*
X67539381Y-74318784D01*
X67659571Y-74368568D01*
X67832202Y-74402907D01*
X67838788Y-74469782D01*
X67875098Y-74589480D01*
X67934063Y-74699794D01*
X68013415Y-74796485D01*
X68110106Y-74875837D01*
X68220420Y-74934802D01*
X68340118Y-74971112D01*
X68464600Y-74983372D01*
X71164600Y-74983372D01*
X71289082Y-74971112D01*
X71408780Y-74934802D01*
X71519094Y-74875837D01*
X71615785Y-74796485D01*
X71695137Y-74699794D01*
X71754102Y-74589480D01*
X71790412Y-74469782D01*
X71802672Y-74345300D01*
X71802672Y-69962803D01*
X71980015Y-69939985D01*
X71955888Y-70127505D01*
X72080796Y-70200715D01*
X72217588Y-70248150D01*
X72361004Y-70267988D01*
X72505536Y-70259464D01*
X72645627Y-70222907D01*
X72775894Y-70159723D01*
X72814392Y-70134000D01*
X72822000Y-70141608D01*
X72872530Y-70091078D01*
X72844698Y-70143148D01*
X72793864Y-70310726D01*
X72776700Y-70485000D01*
X72793864Y-70659274D01*
X72844698Y-70826852D01*
X72926528Y-70979944D01*
X72926528Y-74345300D01*
X72938788Y-74469782D01*
X72975098Y-74589480D01*
X73034063Y-74699794D01*
X73113415Y-74796485D01*
X73210106Y-74875837D01*
X73320420Y-74934802D01*
X73440118Y-74971112D01*
X73564600Y-74983372D01*
X76264600Y-74983372D01*
X76389082Y-74971112D01*
X76508780Y-74934802D01*
X76619094Y-74875837D01*
X76715785Y-74796485D01*
X76795137Y-74699794D01*
X76854102Y-74589480D01*
X76890412Y-74469782D01*
X76902672Y-74345300D01*
X76902672Y-66345300D01*
X76890412Y-66220818D01*
X76854102Y-66101120D01*
X76795137Y-65990806D01*
X76715785Y-65894115D01*
X76619094Y-65814763D01*
X76508780Y-65755798D01*
X76389082Y-65719488D01*
X76264600Y-65707228D01*
X75403156Y-65707228D01*
X75438414Y-65529975D01*
X75438414Y-65345797D01*
X75402482Y-65165157D01*
X75332000Y-64994997D01*
X75277053Y-64912762D01*
X75919250Y-64910000D01*
X76078000Y-64751250D01*
X76078000Y-63152000D01*
X76332000Y-63152000D01*
X76332000Y-64751250D01*
X76490750Y-64910000D01*
X77205000Y-64913072D01*
X77329482Y-64900812D01*
X77449180Y-64864502D01*
X77559494Y-64805537D01*
X77656185Y-64726185D01*
X77735537Y-64629494D01*
X77794502Y-64519180D01*
X77830812Y-64399482D01*
X77843072Y-64275000D01*
X77840000Y-63310750D01*
X77681250Y-63152000D01*
X76332000Y-63152000D01*
X76078000Y-63152000D01*
X74728750Y-63152000D01*
X74570000Y-63310750D01*
X74566928Y-64275000D01*
X74579188Y-64399482D01*
X74611522Y-64506072D01*
X74595503Y-64502886D01*
X74411325Y-64502886D01*
X74230685Y-64538818D01*
X74170731Y-64563652D01*
X74194502Y-64519180D01*
X74230812Y-64399482D01*
X74243072Y-64275000D01*
X74243072Y-63178089D01*
X74244000Y-63168667D01*
X74244000Y-61775000D01*
X74566928Y-61775000D01*
X74570000Y-62739250D01*
X74728750Y-62898000D01*
X76078000Y-62898000D01*
X76078000Y-61298750D01*
X76332000Y-61298750D01*
X76332000Y-62898000D01*
X77681250Y-62898000D01*
X77840000Y-62739250D01*
X77840371Y-62622500D01*
X78533828Y-62622500D01*
X78536900Y-63636750D01*
X78695650Y-63795500D01*
X79844900Y-63795500D01*
X79844900Y-62146250D01*
X80098900Y-62146250D01*
X80098900Y-63795500D01*
X81248150Y-63795500D01*
X81406900Y-63636750D01*
X81409972Y-62622500D01*
X81397712Y-62498018D01*
X81361402Y-62378320D01*
X81302437Y-62268006D01*
X81223085Y-62171315D01*
X81126394Y-62091963D01*
X81016080Y-62032998D01*
X80896382Y-61996688D01*
X80771900Y-61984428D01*
X80257650Y-61987500D01*
X80098900Y-62146250D01*
X79844900Y-62146250D01*
X79686150Y-61987500D01*
X79171900Y-61984428D01*
X79047418Y-61996688D01*
X78927720Y-62032998D01*
X78817406Y-62091963D01*
X78720715Y-62171315D01*
X78641363Y-62268006D01*
X78582398Y-62378320D01*
X78546088Y-62498018D01*
X78533828Y-62622500D01*
X77840371Y-62622500D01*
X77843072Y-61775000D01*
X77830812Y-61650518D01*
X77794502Y-61530820D01*
X77735537Y-61420506D01*
X77656185Y-61323815D01*
X77559494Y-61244463D01*
X77449180Y-61185498D01*
X77329482Y-61149188D01*
X77205000Y-61136928D01*
X76490750Y-61140000D01*
X76332000Y-61298750D01*
X76078000Y-61298750D01*
X75919250Y-61140000D01*
X75205000Y-61136928D01*
X75080518Y-61149188D01*
X74960820Y-61185498D01*
X74850506Y-61244463D01*
X74753815Y-61323815D01*
X74674463Y-61420506D01*
X74615498Y-61530820D01*
X74579188Y-61650518D01*
X74566928Y-61775000D01*
X74244000Y-61775000D01*
X74244000Y-61573771D01*
X74271483Y-61568304D01*
X74468940Y-61486515D01*
X74646647Y-61367775D01*
X74797775Y-61216647D01*
X74916515Y-61038940D01*
X74998304Y-60841483D01*
X75040000Y-60631863D01*
X75040000Y-60418137D01*
X74998304Y-60208517D01*
X74916515Y-60011060D01*
X74797775Y-59833353D01*
X74646647Y-59682225D01*
X74468940Y-59563485D01*
X74271483Y-59481696D01*
X74061863Y-59440000D01*
X73848137Y-59440000D01*
X73638517Y-59481696D01*
X73441060Y-59563485D01*
X73365675Y-59613856D01*
X73281362Y-59487672D01*
X73151128Y-59357438D01*
X72997989Y-59255114D01*
X72827829Y-59184632D01*
X72647189Y-59148700D01*
X72463011Y-59148700D01*
X72282371Y-59184632D01*
X72112211Y-59255114D01*
X71959072Y-59357438D01*
X71828838Y-59487672D01*
X71726514Y-59640811D01*
X71656032Y-59810971D01*
X71620100Y-59991611D01*
X71620100Y-60175789D01*
X71656032Y-60356429D01*
X71666100Y-60380736D01*
X71666100Y-60464304D01*
X71661800Y-60507964D01*
X71666100Y-60551624D01*
X71666100Y-60551631D01*
X71672628Y-60617910D01*
X71629016Y-60594599D01*
X71485379Y-60551027D01*
X71373427Y-60540001D01*
X71373424Y-60540001D01*
X71336001Y-60536315D01*
X71298578Y-60540001D01*
X70640000Y-60540001D01*
X70640000Y-60418137D01*
X70598304Y-60208517D01*
X70516515Y-60011060D01*
X70397775Y-59833353D01*
X70246647Y-59682225D01*
X70068940Y-59563485D01*
X69871483Y-59481696D01*
X69661863Y-59440000D01*
X69448137Y-59440000D01*
X69238517Y-59481696D01*
X69041060Y-59563485D01*
X68936757Y-59633178D01*
X68958068Y-59581729D01*
X68994000Y-59401089D01*
X68994000Y-59216911D01*
X68958068Y-59036271D01*
X68918382Y-58940459D01*
X68930812Y-58899482D01*
X68943072Y-58775000D01*
X74566928Y-58775000D01*
X74579188Y-58899482D01*
X74615498Y-59019180D01*
X74674463Y-59129494D01*
X74753815Y-59226185D01*
X74850506Y-59305537D01*
X74960820Y-59364502D01*
X75080518Y-59400812D01*
X75205000Y-59413072D01*
X75919250Y-59410000D01*
X76078000Y-59251250D01*
X76078000Y-57652000D01*
X76332000Y-57652000D01*
X76332000Y-59251250D01*
X76490750Y-59410000D01*
X77205000Y-59413072D01*
X77329482Y-59400812D01*
X77449180Y-59364502D01*
X77559494Y-59305537D01*
X77656185Y-59226185D01*
X77735537Y-59129494D01*
X77794502Y-59019180D01*
X77830812Y-58899482D01*
X77843072Y-58775000D01*
X77840000Y-57810750D01*
X77681250Y-57652000D01*
X76332000Y-57652000D01*
X76078000Y-57652000D01*
X74728750Y-57652000D01*
X74570000Y-57810750D01*
X74566928Y-58775000D01*
X68943072Y-58775000D01*
X68940000Y-57810750D01*
X68781250Y-57652000D01*
X67432000Y-57652000D01*
X67432000Y-57672000D01*
X67178000Y-57672000D01*
X67178000Y-57652000D01*
X67158000Y-57652000D01*
X67158000Y-57398000D01*
X67178000Y-57398000D01*
X67178000Y-57378000D01*
X67432000Y-57378000D01*
X67432000Y-57398000D01*
X68781250Y-57398000D01*
X68940000Y-57239250D01*
X68942793Y-56362600D01*
X74567207Y-56362600D01*
X74570000Y-57239250D01*
X74728750Y-57398000D01*
X76078000Y-57398000D01*
X76078000Y-57378000D01*
X76332000Y-57378000D01*
X76332000Y-57398000D01*
X77681250Y-57398000D01*
X77840000Y-57239250D01*
X77840244Y-57162600D01*
X77943089Y-57162600D01*
X78123729Y-57126668D01*
X78293889Y-57056186D01*
X78393542Y-56989600D01*
X81018798Y-56989600D01*
X81030366Y-57001168D01*
X81183505Y-57103492D01*
X81353665Y-57173974D01*
X81534305Y-57209906D01*
X81718483Y-57209906D01*
X81788000Y-57196078D01*
X81788000Y-64923971D01*
X81740389Y-64914500D01*
X81556211Y-64914500D01*
X81409128Y-64943757D01*
X81406900Y-64208250D01*
X81248150Y-64049500D01*
X80098900Y-64049500D01*
X80098900Y-64069500D01*
X79844900Y-64069500D01*
X79844900Y-64049500D01*
X78695650Y-64049500D01*
X78536900Y-64208250D01*
X78533828Y-65222500D01*
X78546088Y-65346982D01*
X78582398Y-65466680D01*
X78641363Y-65576994D01*
X78720715Y-65673685D01*
X78780196Y-65722500D01*
X78720715Y-65771315D01*
X78641363Y-65868006D01*
X78582398Y-65978320D01*
X78546088Y-66098018D01*
X78533828Y-66222500D01*
X78533828Y-68822500D01*
X78546088Y-68946982D01*
X78582398Y-69066680D01*
X78641363Y-69176994D01*
X78720715Y-69273685D01*
X78817406Y-69353037D01*
X78927720Y-69412002D01*
X79047418Y-69448312D01*
X79171900Y-69460572D01*
X79562233Y-69460572D01*
X79525518Y-69464188D01*
X79405820Y-69500498D01*
X79295506Y-69559463D01*
X79198815Y-69638815D01*
X79119463Y-69735506D01*
X79060498Y-69845820D01*
X79024188Y-69965518D01*
X79011928Y-70090000D01*
X79011928Y-71790000D01*
X79024188Y-71914482D01*
X79060498Y-72034180D01*
X79119463Y-72144494D01*
X79198815Y-72241185D01*
X79295506Y-72320537D01*
X79405820Y-72379502D01*
X79478380Y-72401513D01*
X79346525Y-72533368D01*
X79184010Y-72776589D01*
X79072068Y-73046842D01*
X79015000Y-73333740D01*
X79015000Y-73626260D01*
X79072068Y-73913158D01*
X79184010Y-74183411D01*
X79346525Y-74426632D01*
X79553368Y-74633475D01*
X79727760Y-74750000D01*
X79553368Y-74866525D01*
X79346525Y-75073368D01*
X79184010Y-75316589D01*
X79072068Y-75586842D01*
X79015000Y-75873740D01*
X79015000Y-76166260D01*
X79072068Y-76453158D01*
X79184010Y-76723411D01*
X79346525Y-76966632D01*
X79553368Y-77173475D01*
X79735534Y-77295195D01*
X79618645Y-77364822D01*
X79402412Y-77559731D01*
X79228359Y-77793080D01*
X79103175Y-78055901D01*
X79058524Y-78203110D01*
X79179845Y-78433000D01*
X80373000Y-78433000D01*
X80373000Y-78413000D01*
X80627000Y-78413000D01*
X80627000Y-78433000D01*
X80647000Y-78433000D01*
X80647000Y-78687000D01*
X80627000Y-78687000D01*
X80627000Y-78707000D01*
X80373000Y-78707000D01*
X80373000Y-78687000D01*
X79179845Y-78687000D01*
X79058524Y-78916890D01*
X79103175Y-79064099D01*
X79228359Y-79326920D01*
X79402412Y-79560269D01*
X79618645Y-79755178D01*
X79735534Y-79824805D01*
X79553368Y-79946525D01*
X79346525Y-80153368D01*
X79184010Y-80396589D01*
X79072068Y-80666842D01*
X79015000Y-80953740D01*
X79015000Y-81246260D01*
X79072068Y-81533158D01*
X79184010Y-81803411D01*
X79346525Y-82046632D01*
X79553368Y-82253475D01*
X79727760Y-82370000D01*
X79553368Y-82486525D01*
X79346525Y-82693368D01*
X79184010Y-82936589D01*
X79072068Y-83206842D01*
X79015000Y-83493740D01*
X79015000Y-83786260D01*
X79072068Y-84073158D01*
X79184010Y-84343411D01*
X79346525Y-84586632D01*
X79553368Y-84793475D01*
X79727760Y-84910000D01*
X79553368Y-85026525D01*
X79346525Y-85233368D01*
X79184010Y-85476589D01*
X79072068Y-85746842D01*
X79015000Y-86033740D01*
X79015000Y-86326260D01*
X79072068Y-86613158D01*
X79184010Y-86883411D01*
X79346525Y-87126632D01*
X79553368Y-87333475D01*
X79727760Y-87450000D01*
X79553368Y-87566525D01*
X79346525Y-87773368D01*
X79184010Y-88016589D01*
X79072068Y-88286842D01*
X79015000Y-88573740D01*
X79015000Y-88866260D01*
X79072068Y-89153158D01*
X79184010Y-89423411D01*
X79346525Y-89666632D01*
X79553368Y-89873475D01*
X79727760Y-89990000D01*
X79553368Y-90106525D01*
X79346525Y-90313368D01*
X79184010Y-90556589D01*
X79072068Y-90826842D01*
X79015000Y-91113740D01*
X79015000Y-91406260D01*
X79072068Y-91693158D01*
X79141590Y-91860999D01*
X77010224Y-91860999D01*
X76972801Y-91857313D01*
X76935378Y-91860999D01*
X76935375Y-91860999D01*
X76823423Y-91872025D01*
X76679786Y-91915597D01*
X76643929Y-91934763D01*
X76547408Y-91986354D01*
X76505020Y-92021142D01*
X76431379Y-92081577D01*
X76407517Y-92110653D01*
X75318544Y-93199626D01*
X75308368Y-93148471D01*
X75237886Y-92978311D01*
X75135562Y-92825172D01*
X75005328Y-92694938D01*
X74852189Y-92592614D01*
X74682029Y-92522132D01*
X74514611Y-92488830D01*
X70955859Y-88930078D01*
X71725136Y-88930078D01*
X71824789Y-88996664D01*
X71994949Y-89067146D01*
X72175589Y-89103078D01*
X72359767Y-89103078D01*
X72540407Y-89067146D01*
X72710567Y-88996664D01*
X72863706Y-88894340D01*
X72993940Y-88764106D01*
X73096264Y-88610967D01*
X73166746Y-88440807D01*
X73202678Y-88260167D01*
X73202678Y-88075989D01*
X73166746Y-87895349D01*
X73096264Y-87725189D01*
X72993940Y-87572050D01*
X72863706Y-87441816D01*
X72710567Y-87339492D01*
X72540407Y-87269010D01*
X72359767Y-87233078D01*
X72175589Y-87233078D01*
X71994949Y-87269010D01*
X71824789Y-87339492D01*
X71725136Y-87406078D01*
X70318571Y-87406078D01*
X63861457Y-80948965D01*
X63863104Y-80940685D01*
X63863104Y-80756507D01*
X63844437Y-80662661D01*
X63945694Y-80608537D01*
X64042385Y-80529185D01*
X64121737Y-80432494D01*
X64180702Y-80322180D01*
X64217012Y-80202482D01*
X64224268Y-80128800D01*
X64701128Y-80128800D01*
X64713388Y-80253282D01*
X64749698Y-80372980D01*
X64808663Y-80483294D01*
X64888015Y-80579985D01*
X64984706Y-80659337D01*
X65095020Y-80718302D01*
X65214718Y-80754612D01*
X65339200Y-80766872D01*
X65703450Y-80763800D01*
X65862200Y-80605050D01*
X65862200Y-79505800D01*
X66116200Y-79505800D01*
X66116200Y-80605050D01*
X66274950Y-80763800D01*
X66639200Y-80766872D01*
X66763682Y-80754612D01*
X66883380Y-80718302D01*
X66993694Y-80659337D01*
X67090385Y-80579985D01*
X67169737Y-80483294D01*
X67228702Y-80372980D01*
X67265012Y-80253282D01*
X67277272Y-80128800D01*
X67274200Y-79664550D01*
X67115450Y-79505800D01*
X66116200Y-79505800D01*
X65862200Y-79505800D01*
X64862950Y-79505800D01*
X64704200Y-79664550D01*
X64701128Y-80128800D01*
X64224268Y-80128800D01*
X64229272Y-80078000D01*
X64226200Y-79613750D01*
X64067450Y-79455000D01*
X63068200Y-79455000D01*
X63068200Y-79475000D01*
X62814200Y-79475000D01*
X62814200Y-79455000D01*
X61814950Y-79455000D01*
X61656200Y-79613750D01*
X61653128Y-80078000D01*
X61665388Y-80202482D01*
X61701698Y-80322180D01*
X61760663Y-80432494D01*
X61840015Y-80529185D01*
X61936706Y-80608537D01*
X62014289Y-80650006D01*
X61993104Y-80756507D01*
X61993104Y-80867174D01*
X60920394Y-79794464D01*
X60896532Y-79765388D01*
X60780502Y-79670165D01*
X60648125Y-79599408D01*
X60504488Y-79555836D01*
X60392536Y-79544810D01*
X60392533Y-79544810D01*
X60355110Y-79541124D01*
X60317687Y-79544810D01*
X60257942Y-79544810D01*
X60158289Y-79478224D01*
X60011415Y-79417387D01*
X60083521Y-79309472D01*
X60154003Y-79139312D01*
X60189935Y-78958672D01*
X60189935Y-78774494D01*
X60154003Y-78593854D01*
X60083521Y-78423694D01*
X60001087Y-78300322D01*
X60039250Y-78300000D01*
X60198000Y-78141250D01*
X60198000Y-77042000D01*
X60452000Y-77042000D01*
X60452000Y-78141250D01*
X60610750Y-78300000D01*
X60975000Y-78303072D01*
X61099482Y-78290812D01*
X61219180Y-78254502D01*
X61329494Y-78195537D01*
X61426185Y-78116185D01*
X61505537Y-78019494D01*
X61564502Y-77909180D01*
X61600812Y-77789482D01*
X61613072Y-77665000D01*
X61610000Y-77200750D01*
X61451250Y-77042000D01*
X60452000Y-77042000D01*
X60198000Y-77042000D01*
X59198750Y-77042000D01*
X59040000Y-77200750D01*
X59037202Y-77623539D01*
X58947609Y-77489453D01*
X58817375Y-77359219D01*
X58664236Y-77256895D01*
X58494076Y-77186413D01*
X58313436Y-77150481D01*
X58129258Y-77150481D01*
X57948618Y-77186413D01*
X57778458Y-77256895D01*
X57625319Y-77359219D01*
X57495085Y-77489453D01*
X57392761Y-77642592D01*
X57322279Y-77812752D01*
X57298897Y-77930301D01*
X57129383Y-78099815D01*
X56810400Y-77780832D01*
X56904494Y-77730537D01*
X57001185Y-77651185D01*
X57080537Y-77554494D01*
X57139502Y-77444180D01*
X57175812Y-77324482D01*
X57188072Y-77200000D01*
X57185000Y-76735750D01*
X57026250Y-76577000D01*
X56177000Y-76577000D01*
X56177000Y-76597000D01*
X55923000Y-76597000D01*
X55923000Y-76577000D01*
X55903000Y-76577000D01*
X55903000Y-76323000D01*
X55923000Y-76323000D01*
X55923000Y-76303000D01*
X56177000Y-76303000D01*
X56177000Y-76323000D01*
X57026250Y-76323000D01*
X57185000Y-76164250D01*
X57188072Y-75700000D01*
X57175812Y-75575518D01*
X57173000Y-75566248D01*
X57173000Y-74827000D01*
X56073750Y-74827000D01*
X55915000Y-74985750D01*
X55911928Y-75200000D01*
X55913313Y-75214063D01*
X55764250Y-75065000D01*
X55550000Y-75061928D01*
X55425518Y-75074188D01*
X55305820Y-75110498D01*
X55300000Y-75113609D01*
X55294180Y-75110498D01*
X55174482Y-75074188D01*
X55113877Y-75068219D01*
X55185884Y-75038393D01*
X55339023Y-74936069D01*
X55469257Y-74805835D01*
X55571581Y-74652696D01*
X55642063Y-74482536D01*
X55677995Y-74301896D01*
X55677995Y-74117718D01*
X55642063Y-73937078D01*
X55571581Y-73766918D01*
X55469257Y-73613779D01*
X55339023Y-73483545D01*
X55185884Y-73381221D01*
X55015724Y-73310739D01*
X54835084Y-73274807D01*
X54650906Y-73274807D01*
X54470266Y-73310739D01*
X54300106Y-73381221D01*
X54146967Y-73483545D01*
X54016733Y-73613779D01*
X53914409Y-73766918D01*
X53903408Y-73793477D01*
X53531362Y-73421432D01*
X53531362Y-73275442D01*
X53597948Y-73175789D01*
X53668430Y-73005629D01*
X53704362Y-72824989D01*
X53704362Y-72640811D01*
X53668430Y-72460171D01*
X53597948Y-72290011D01*
X53495624Y-72136872D01*
X53365390Y-72006638D01*
X53212251Y-71904314D01*
X53042091Y-71833832D01*
X52861451Y-71797900D01*
X52677273Y-71797900D01*
X52496633Y-71833832D01*
X52326473Y-71904314D01*
X52173334Y-72006638D01*
X52043100Y-72136872D01*
X51940776Y-72290011D01*
X51870294Y-72460171D01*
X51841953Y-72602651D01*
X51708371Y-72629222D01*
X51538211Y-72699704D01*
X51385072Y-72802028D01*
X51254838Y-72932262D01*
X51152514Y-73085401D01*
X51082032Y-73255561D01*
X51046100Y-73436201D01*
X51046100Y-73620379D01*
X51082032Y-73801019D01*
X51152514Y-73971179D01*
X51219101Y-74070833D01*
X51219100Y-74641457D01*
X51152514Y-74741111D01*
X51082032Y-74911271D01*
X51052064Y-75061928D01*
X51050000Y-75061928D01*
X50925518Y-75074188D01*
X50805820Y-75110498D01*
X50800000Y-75113609D01*
X50794180Y-75110498D01*
X50674482Y-75074188D01*
X50550000Y-75061928D01*
X49550000Y-75061928D01*
X49425518Y-75074188D01*
X49305820Y-75110498D01*
X49300000Y-75113609D01*
X49294180Y-75110498D01*
X49174482Y-75074188D01*
X49050000Y-75061928D01*
X48050000Y-75061928D01*
X47925518Y-75074188D01*
X47805820Y-75110498D01*
X47800000Y-75113609D01*
X47794180Y-75110498D01*
X47674482Y-75074188D01*
X47550000Y-75061928D01*
X46550000Y-75061928D01*
X46425518Y-75074188D01*
X46305820Y-75110498D01*
X46300000Y-75113609D01*
X46294180Y-75110498D01*
X46174482Y-75074188D01*
X46050000Y-75061928D01*
X45835750Y-75065000D01*
X45686687Y-75214063D01*
X45688072Y-75200000D01*
X45685000Y-74985750D01*
X45526250Y-74827000D01*
X44427000Y-74827000D01*
X44427000Y-75566248D01*
X44424188Y-75575518D01*
X44411928Y-75700000D01*
X44415000Y-76164250D01*
X44573750Y-76323000D01*
X45423000Y-76323000D01*
X45423000Y-76303000D01*
X45677000Y-76303000D01*
X45677000Y-76323000D01*
X45697000Y-76323000D01*
X45697000Y-76577000D01*
X45677000Y-76577000D01*
X45677000Y-76597000D01*
X45423000Y-76597000D01*
X45423000Y-76577000D01*
X44573750Y-76577000D01*
X44415000Y-76735750D01*
X44411928Y-77200000D01*
X44424188Y-77324482D01*
X44440860Y-77379442D01*
X42858470Y-77379442D01*
X42410977Y-76931949D01*
X42535000Y-76933072D01*
X42659482Y-76920812D01*
X42779180Y-76884502D01*
X42889494Y-76825537D01*
X42986185Y-76746185D01*
X43065537Y-76649494D01*
X43124502Y-76539180D01*
X43160812Y-76419482D01*
X43173072Y-76295000D01*
X43170000Y-75830750D01*
X43011252Y-75672002D01*
X43124181Y-75672002D01*
X43195506Y-75730537D01*
X43305820Y-75789502D01*
X43425518Y-75825812D01*
X43550000Y-75838072D01*
X44014250Y-75835000D01*
X44173000Y-75676250D01*
X44173000Y-74827000D01*
X44153000Y-74827000D01*
X44153000Y-74573000D01*
X44173000Y-74573000D01*
X44173000Y-74553000D01*
X44427000Y-74553000D01*
X44427000Y-74573000D01*
X45526250Y-74573000D01*
X45685000Y-74414250D01*
X45688072Y-74200000D01*
X45675812Y-74075518D01*
X45639502Y-73955820D01*
X45636391Y-73950000D01*
X45639502Y-73944180D01*
X45661040Y-73873180D01*
X45729392Y-73836645D01*
X45845422Y-73741422D01*
X45869284Y-73712346D01*
X46600646Y-72980984D01*
X46629722Y-72957122D01*
X46713350Y-72855221D01*
X46724945Y-72841093D01*
X46777249Y-72743238D01*
X46795702Y-72708715D01*
X46839274Y-72565078D01*
X46850300Y-72453126D01*
X46850300Y-72453123D01*
X46853986Y-72415700D01*
X46850300Y-72378277D01*
X46850300Y-71434311D01*
X49699900Y-71434311D01*
X49699900Y-71618489D01*
X49735832Y-71799129D01*
X49806314Y-71969289D01*
X49908638Y-72122428D01*
X50038872Y-72252662D01*
X50192011Y-72354986D01*
X50362171Y-72425468D01*
X50542811Y-72461400D01*
X50726989Y-72461400D01*
X50907629Y-72425468D01*
X51077789Y-72354986D01*
X51230928Y-72252662D01*
X51361162Y-72122428D01*
X51463486Y-71969289D01*
X51533968Y-71799129D01*
X51557350Y-71681580D01*
X52482874Y-70756056D01*
X52604729Y-70731817D01*
X52774889Y-70661335D01*
X52804547Y-70641518D01*
X52802914Y-70658100D01*
X52817627Y-70807478D01*
X52861199Y-70951115D01*
X52931955Y-71083492D01*
X53003321Y-71170451D01*
X53073649Y-71240779D01*
X53160608Y-71312144D01*
X53292984Y-71382901D01*
X53436622Y-71426473D01*
X53585999Y-71441186D01*
X53735378Y-71426473D01*
X53879015Y-71382901D01*
X54011392Y-71312144D01*
X54127421Y-71216921D01*
X54222644Y-71100892D01*
X54293401Y-70968515D01*
X54336973Y-70824878D01*
X54351686Y-70675499D01*
X54336973Y-70526122D01*
X54293401Y-70382484D01*
X54222644Y-70250108D01*
X54151279Y-70163149D01*
X54080951Y-70092821D01*
X53993992Y-70021455D01*
X53861615Y-69950699D01*
X53717978Y-69907127D01*
X53568600Y-69892414D01*
X53419222Y-69907127D01*
X53275585Y-69950699D01*
X53260223Y-69958910D01*
X53267000Y-69924838D01*
X53267000Y-69740660D01*
X53231068Y-69560020D01*
X53160586Y-69389860D01*
X53058262Y-69236721D01*
X52928028Y-69106487D01*
X52774889Y-69004163D01*
X52604729Y-68933681D01*
X52424089Y-68897749D01*
X52239911Y-68897749D01*
X52059271Y-68933681D01*
X51889111Y-69004163D01*
X51735972Y-69106487D01*
X51605738Y-69236721D01*
X51503414Y-69389860D01*
X51432932Y-69560020D01*
X51410406Y-69673264D01*
X50479720Y-70603950D01*
X50362171Y-70627332D01*
X50192011Y-70697814D01*
X50038872Y-70800138D01*
X49908638Y-70930372D01*
X49806314Y-71083511D01*
X49735832Y-71253671D01*
X49699900Y-71434311D01*
X46850300Y-71434311D01*
X46850300Y-56687120D01*
X46853986Y-56649697D01*
X46845932Y-56567922D01*
X46839274Y-56500320D01*
X46795702Y-56356683D01*
X46724945Y-56224306D01*
X46629722Y-56108276D01*
X46600653Y-56084420D01*
X46226232Y-55710000D01*
X55495997Y-55710000D01*
X55472026Y-55789021D01*
G37*
X55472026Y-55789021D02*
X55457313Y-55938399D01*
X55461000Y-55975832D01*
X55460999Y-59589576D01*
X55457313Y-59626999D01*
X55460999Y-59664422D01*
X55460999Y-59664424D01*
X55472025Y-59776376D01*
X55515597Y-59920013D01*
X55523552Y-59934895D01*
X55586354Y-60052391D01*
X55607808Y-60078532D01*
X55681577Y-60168421D01*
X55710653Y-60192283D01*
X55730716Y-60212346D01*
X55754578Y-60241422D01*
X55870608Y-60336645D01*
X55938960Y-60373180D01*
X55960498Y-60444180D01*
X55963609Y-60450000D01*
X55960498Y-60455820D01*
X55924188Y-60575518D01*
X55911928Y-60700000D01*
X55911928Y-61700000D01*
X55924188Y-61824482D01*
X55960498Y-61944180D01*
X55963609Y-61950000D01*
X55960498Y-61955820D01*
X55924188Y-62075518D01*
X55911928Y-62200000D01*
X55911928Y-63098400D01*
X55800611Y-63098400D01*
X55619971Y-63134332D01*
X55449811Y-63204814D01*
X55336180Y-63280740D01*
X55319058Y-63282426D01*
X55175421Y-63325998D01*
X55145927Y-63341763D01*
X55043043Y-63396755D01*
X54985256Y-63444180D01*
X54927014Y-63491978D01*
X54903157Y-63521048D01*
X53005454Y-65418752D01*
X52976378Y-65442614D01*
X52944603Y-65481333D01*
X52881155Y-65558644D01*
X52850871Y-65615303D01*
X52810398Y-65691022D01*
X52766826Y-65834659D01*
X52756650Y-65937985D01*
X52752114Y-65984036D01*
X52755800Y-66021460D01*
X52755801Y-67239306D01*
X52686932Y-67405571D01*
X52651000Y-67586211D01*
X52651000Y-67770389D01*
X52686932Y-67951029D01*
X52757414Y-68121189D01*
X52859738Y-68274328D01*
X52989972Y-68404562D01*
X53143111Y-68506886D01*
X53313271Y-68577368D01*
X53493911Y-68613300D01*
X53678089Y-68613300D01*
X53858729Y-68577368D01*
X54028889Y-68506886D01*
X54182028Y-68404562D01*
X54312262Y-68274328D01*
X54414586Y-68121189D01*
X54485068Y-67951029D01*
X54521000Y-67770389D01*
X54521000Y-67586211D01*
X54485068Y-67405571D01*
X54414586Y-67235411D01*
X54312262Y-67082272D01*
X54279800Y-67049810D01*
X54279800Y-66299666D01*
X55642515Y-64936952D01*
X55800611Y-64968400D01*
X55956682Y-64968400D01*
X55924188Y-65075518D01*
X55911928Y-65200000D01*
X55911928Y-66200000D01*
X55924188Y-66324482D01*
X55960498Y-66444180D01*
X55963609Y-66450000D01*
X55960498Y-66455820D01*
X55924188Y-66575518D01*
X55911928Y-66700000D01*
X55911928Y-67700000D01*
X55924188Y-67824482D01*
X55960498Y-67944180D01*
X55963609Y-67950000D01*
X55960498Y-67955820D01*
X55924188Y-68075518D01*
X55911928Y-68200000D01*
X55911928Y-69200000D01*
X55924188Y-69324482D01*
X55960498Y-69444180D01*
X55963609Y-69450000D01*
X55960498Y-69455820D01*
X55924188Y-69575518D01*
X55911928Y-69700000D01*
X55911928Y-70700000D01*
X55924188Y-70824482D01*
X55960498Y-70944180D01*
X55963609Y-70950000D01*
X55960498Y-70955820D01*
X55924188Y-71075518D01*
X55911928Y-71200000D01*
X55911928Y-72200000D01*
X55924188Y-72324482D01*
X55960498Y-72444180D01*
X55963609Y-72450000D01*
X55960498Y-72455820D01*
X55924188Y-72575518D01*
X55911928Y-72700000D01*
X55911928Y-73700000D01*
X55924188Y-73824482D01*
X55960498Y-73944180D01*
X55963609Y-73950000D01*
X55960498Y-73955820D01*
X55924188Y-74075518D01*
X55911928Y-74200000D01*
X55915000Y-74414250D01*
X56073750Y-74573000D01*
X57173000Y-74573000D01*
X57173000Y-74553000D01*
X57427000Y-74553000D01*
X57427000Y-74573000D01*
X57447000Y-74573000D01*
X57447000Y-74827000D01*
X57427000Y-74827000D01*
X57427000Y-75676250D01*
X57585750Y-75835000D01*
X58050000Y-75838072D01*
X58174482Y-75825812D01*
X58294180Y-75789502D01*
X58404494Y-75730537D01*
X58501185Y-75651185D01*
X58580537Y-75554494D01*
X58590531Y-75535797D01*
X58593314Y-75539188D01*
X58664577Y-75626023D01*
X58693653Y-75649885D01*
X59057357Y-76013589D01*
X59049188Y-76040518D01*
X59036928Y-76165000D01*
X59040000Y-76629250D01*
X59198750Y-76788000D01*
X60198000Y-76788000D01*
X60198000Y-76768000D01*
X60452000Y-76768000D01*
X60452000Y-76788000D01*
X61451250Y-76788000D01*
X61610000Y-76629250D01*
X61613072Y-76165000D01*
X61600812Y-76040518D01*
X61582937Y-75981593D01*
X61653128Y-75911402D01*
X61653128Y-77378000D01*
X61665388Y-77502482D01*
X61701698Y-77622180D01*
X61760663Y-77732494D01*
X61840015Y-77829185D01*
X61936706Y-77908537D01*
X62047020Y-77967502D01*
X62081627Y-77978000D01*
X62047020Y-77988498D01*
X61936706Y-78047463D01*
X61840015Y-78126815D01*
X61760663Y-78223506D01*
X61701698Y-78333820D01*
X61665388Y-78453518D01*
X61653128Y-78578000D01*
X61656200Y-79042250D01*
X61814950Y-79201000D01*
X62814200Y-79201000D01*
X62814200Y-79181000D01*
X63068200Y-79181000D01*
X63068200Y-79201000D01*
X64067450Y-79201000D01*
X64226200Y-79042250D01*
X64226291Y-79028548D01*
X64347711Y-79052700D01*
X64531889Y-79052700D01*
X64703707Y-79018523D01*
X64704200Y-79093050D01*
X64862950Y-79251800D01*
X65862200Y-79251800D01*
X65862200Y-79231800D01*
X66116200Y-79231800D01*
X66116200Y-79251800D01*
X67115450Y-79251800D01*
X67217939Y-79149311D01*
X68400900Y-79149311D01*
X68400900Y-79333489D01*
X68436832Y-79514129D01*
X68507314Y-79684289D01*
X68609638Y-79837428D01*
X68739872Y-79967662D01*
X68893011Y-80069986D01*
X69063171Y-80140468D01*
X69180720Y-80163850D01*
X69286928Y-80270058D01*
X69286928Y-80810000D01*
X69299188Y-80934482D01*
X69335498Y-81054180D01*
X69394463Y-81164494D01*
X69473815Y-81261185D01*
X69570506Y-81340537D01*
X69680820Y-81399502D01*
X69800518Y-81435812D01*
X69925000Y-81448072D01*
X72525000Y-81448072D01*
X72649482Y-81435812D01*
X72769180Y-81399502D01*
X72879494Y-81340537D01*
X72976185Y-81261185D01*
X73025000Y-81201704D01*
X73073815Y-81261185D01*
X73170506Y-81340537D01*
X73280820Y-81399502D01*
X73400518Y-81435812D01*
X73525000Y-81448072D01*
X74539250Y-81445000D01*
X74698000Y-81286250D01*
X74698000Y-80137000D01*
X74952000Y-80137000D01*
X74952000Y-81286250D01*
X75110750Y-81445000D01*
X76125000Y-81448072D01*
X76249482Y-81435812D01*
X76369180Y-81399502D01*
X76479494Y-81340537D01*
X76576185Y-81261185D01*
X76655537Y-81164494D01*
X76714502Y-81054180D01*
X76750812Y-80934482D01*
X76763072Y-80810000D01*
X76760000Y-80295750D01*
X76601250Y-80137000D01*
X74952000Y-80137000D01*
X74698000Y-80137000D01*
X74678000Y-80137000D01*
X74678000Y-79883000D01*
X74698000Y-79883000D01*
X74698000Y-78733750D01*
X74952000Y-78733750D01*
X74952000Y-79883000D01*
X76601250Y-79883000D01*
X76760000Y-79724250D01*
X76763072Y-79210000D01*
X76750812Y-79085518D01*
X76714502Y-78965820D01*
X76655537Y-78855506D01*
X76576185Y-78758815D01*
X76479494Y-78679463D01*
X76369180Y-78620498D01*
X76249482Y-78584188D01*
X76125000Y-78571928D01*
X75110750Y-78575000D01*
X74952000Y-78733750D01*
X74698000Y-78733750D01*
X74539250Y-78575000D01*
X73525000Y-78571928D01*
X73400518Y-78584188D01*
X73280820Y-78620498D01*
X73170506Y-78679463D01*
X73073815Y-78758815D01*
X73025000Y-78818296D01*
X72976185Y-78758815D01*
X72879494Y-78679463D01*
X72769180Y-78620498D01*
X72649482Y-78584188D01*
X72525000Y-78571928D01*
X69988718Y-78571928D01*
X69931928Y-78515138D01*
X69778789Y-78412814D01*
X69608629Y-78342332D01*
X69427989Y-78306400D01*
X69243811Y-78306400D01*
X69063171Y-78342332D01*
X68893011Y-78412814D01*
X68739872Y-78515138D01*
X68609638Y-78645372D01*
X68507314Y-78798511D01*
X68436832Y-78968671D01*
X68400900Y-79149311D01*
X67217939Y-79149311D01*
X67274200Y-79093050D01*
X67277272Y-78628800D01*
X67265012Y-78504318D01*
X67228702Y-78384620D01*
X67169737Y-78274306D01*
X67090385Y-78177615D01*
X66993694Y-78098263D01*
X66883380Y-78039298D01*
X66848773Y-78028800D01*
X66883380Y-78018302D01*
X66993694Y-77959337D01*
X67090385Y-77879985D01*
X67169737Y-77783294D01*
X67228702Y-77672980D01*
X67265012Y-77553282D01*
X67277272Y-77428800D01*
X67277272Y-76664629D01*
X67379614Y-76674709D01*
X67379616Y-76674709D01*
X67417039Y-76678395D01*
X67454462Y-76674709D01*
X69760386Y-76674709D01*
X69872338Y-76663683D01*
X70015975Y-76620111D01*
X70148352Y-76549354D01*
X70264382Y-76454131D01*
X70359605Y-76338101D01*
X70430362Y-76205724D01*
X70473934Y-76062087D01*
X70488646Y-75912709D01*
X70473934Y-75763331D01*
X70430362Y-75619694D01*
X70359605Y-75487317D01*
X70264382Y-75371287D01*
X70148352Y-75276064D01*
X70015975Y-75205307D01*
X69872338Y-75161735D01*
X69760386Y-75150709D01*
X67732671Y-75150709D01*
X67670729Y-75088767D01*
X67709372Y-74961379D01*
X67724085Y-74812001D01*
X67709372Y-74662622D01*
X67665800Y-74518985D01*
X67595044Y-74386608D01*
X67539381Y-74318784D01*
X67659571Y-74368568D01*
X67832202Y-74402907D01*
X67838788Y-74469782D01*
X67875098Y-74589480D01*
X67934063Y-74699794D01*
X68013415Y-74796485D01*
X68110106Y-74875837D01*
X68220420Y-74934802D01*
X68340118Y-74971112D01*
X68464600Y-74983372D01*
X71164600Y-74983372D01*
X71289082Y-74971112D01*
X71408780Y-74934802D01*
X71519094Y-74875837D01*
X71615785Y-74796485D01*
X71695137Y-74699794D01*
X71754102Y-74589480D01*
X71790412Y-74469782D01*
X71802672Y-74345300D01*
X71802672Y-69962803D01*
X71980015Y-69939985D01*
X71955888Y-70127505D01*
X72080796Y-70200715D01*
X72217588Y-70248150D01*
X72361004Y-70267988D01*
X72505536Y-70259464D01*
X72645627Y-70222907D01*
X72775894Y-70159723D01*
X72814392Y-70134000D01*
X72822000Y-70141608D01*
X72872530Y-70091078D01*
X72844698Y-70143148D01*
X72793864Y-70310726D01*
X72776700Y-70485000D01*
X72793864Y-70659274D01*
X72844698Y-70826852D01*
X72926528Y-70979944D01*
X72926528Y-74345300D01*
X72938788Y-74469782D01*
X72975098Y-74589480D01*
X73034063Y-74699794D01*
X73113415Y-74796485D01*
X73210106Y-74875837D01*
X73320420Y-74934802D01*
X73440118Y-74971112D01*
X73564600Y-74983372D01*
X76264600Y-74983372D01*
X76389082Y-74971112D01*
X76508780Y-74934802D01*
X76619094Y-74875837D01*
X76715785Y-74796485D01*
X76795137Y-74699794D01*
X76854102Y-74589480D01*
X76890412Y-74469782D01*
X76902672Y-74345300D01*
X76902672Y-66345300D01*
X76890412Y-66220818D01*
X76854102Y-66101120D01*
X76795137Y-65990806D01*
X76715785Y-65894115D01*
X76619094Y-65814763D01*
X76508780Y-65755798D01*
X76389082Y-65719488D01*
X76264600Y-65707228D01*
X75403156Y-65707228D01*
X75438414Y-65529975D01*
X75438414Y-65345797D01*
X75402482Y-65165157D01*
X75332000Y-64994997D01*
X75277053Y-64912762D01*
X75919250Y-64910000D01*
X76078000Y-64751250D01*
X76078000Y-63152000D01*
X76332000Y-63152000D01*
X76332000Y-64751250D01*
X76490750Y-64910000D01*
X77205000Y-64913072D01*
X77329482Y-64900812D01*
X77449180Y-64864502D01*
X77559494Y-64805537D01*
X77656185Y-64726185D01*
X77735537Y-64629494D01*
X77794502Y-64519180D01*
X77830812Y-64399482D01*
X77843072Y-64275000D01*
X77840000Y-63310750D01*
X77681250Y-63152000D01*
X76332000Y-63152000D01*
X76078000Y-63152000D01*
X74728750Y-63152000D01*
X74570000Y-63310750D01*
X74566928Y-64275000D01*
X74579188Y-64399482D01*
X74611522Y-64506072D01*
X74595503Y-64502886D01*
X74411325Y-64502886D01*
X74230685Y-64538818D01*
X74170731Y-64563652D01*
X74194502Y-64519180D01*
X74230812Y-64399482D01*
X74243072Y-64275000D01*
X74243072Y-63178089D01*
X74244000Y-63168667D01*
X74244000Y-61775000D01*
X74566928Y-61775000D01*
X74570000Y-62739250D01*
X74728750Y-62898000D01*
X76078000Y-62898000D01*
X76078000Y-61298750D01*
X76332000Y-61298750D01*
X76332000Y-62898000D01*
X77681250Y-62898000D01*
X77840000Y-62739250D01*
X77840371Y-62622500D01*
X78533828Y-62622500D01*
X78536900Y-63636750D01*
X78695650Y-63795500D01*
X79844900Y-63795500D01*
X79844900Y-62146250D01*
X80098900Y-62146250D01*
X80098900Y-63795500D01*
X81248150Y-63795500D01*
X81406900Y-63636750D01*
X81409972Y-62622500D01*
X81397712Y-62498018D01*
X81361402Y-62378320D01*
X81302437Y-62268006D01*
X81223085Y-62171315D01*
X81126394Y-62091963D01*
X81016080Y-62032998D01*
X80896382Y-61996688D01*
X80771900Y-61984428D01*
X80257650Y-61987500D01*
X80098900Y-62146250D01*
X79844900Y-62146250D01*
X79686150Y-61987500D01*
X79171900Y-61984428D01*
X79047418Y-61996688D01*
X78927720Y-62032998D01*
X78817406Y-62091963D01*
X78720715Y-62171315D01*
X78641363Y-62268006D01*
X78582398Y-62378320D01*
X78546088Y-62498018D01*
X78533828Y-62622500D01*
X77840371Y-62622500D01*
X77843072Y-61775000D01*
X77830812Y-61650518D01*
X77794502Y-61530820D01*
X77735537Y-61420506D01*
X77656185Y-61323815D01*
X77559494Y-61244463D01*
X77449180Y-61185498D01*
X77329482Y-61149188D01*
X77205000Y-61136928D01*
X76490750Y-61140000D01*
X76332000Y-61298750D01*
X76078000Y-61298750D01*
X75919250Y-61140000D01*
X75205000Y-61136928D01*
X75080518Y-61149188D01*
X74960820Y-61185498D01*
X74850506Y-61244463D01*
X74753815Y-61323815D01*
X74674463Y-61420506D01*
X74615498Y-61530820D01*
X74579188Y-61650518D01*
X74566928Y-61775000D01*
X74244000Y-61775000D01*
X74244000Y-61573771D01*
X74271483Y-61568304D01*
X74468940Y-61486515D01*
X74646647Y-61367775D01*
X74797775Y-61216647D01*
X74916515Y-61038940D01*
X74998304Y-60841483D01*
X75040000Y-60631863D01*
X75040000Y-60418137D01*
X74998304Y-60208517D01*
X74916515Y-60011060D01*
X74797775Y-59833353D01*
X74646647Y-59682225D01*
X74468940Y-59563485D01*
X74271483Y-59481696D01*
X74061863Y-59440000D01*
X73848137Y-59440000D01*
X73638517Y-59481696D01*
X73441060Y-59563485D01*
X73365675Y-59613856D01*
X73281362Y-59487672D01*
X73151128Y-59357438D01*
X72997989Y-59255114D01*
X72827829Y-59184632D01*
X72647189Y-59148700D01*
X72463011Y-59148700D01*
X72282371Y-59184632D01*
X72112211Y-59255114D01*
X71959072Y-59357438D01*
X71828838Y-59487672D01*
X71726514Y-59640811D01*
X71656032Y-59810971D01*
X71620100Y-59991611D01*
X71620100Y-60175789D01*
X71656032Y-60356429D01*
X71666100Y-60380736D01*
X71666100Y-60464304D01*
X71661800Y-60507964D01*
X71666100Y-60551624D01*
X71666100Y-60551631D01*
X71672628Y-60617910D01*
X71629016Y-60594599D01*
X71485379Y-60551027D01*
X71373427Y-60540001D01*
X71373424Y-60540001D01*
X71336001Y-60536315D01*
X71298578Y-60540001D01*
X70640000Y-60540001D01*
X70640000Y-60418137D01*
X70598304Y-60208517D01*
X70516515Y-60011060D01*
X70397775Y-59833353D01*
X70246647Y-59682225D01*
X70068940Y-59563485D01*
X69871483Y-59481696D01*
X69661863Y-59440000D01*
X69448137Y-59440000D01*
X69238517Y-59481696D01*
X69041060Y-59563485D01*
X68936757Y-59633178D01*
X68958068Y-59581729D01*
X68994000Y-59401089D01*
X68994000Y-59216911D01*
X68958068Y-59036271D01*
X68918382Y-58940459D01*
X68930812Y-58899482D01*
X68943072Y-58775000D01*
X74566928Y-58775000D01*
X74579188Y-58899482D01*
X74615498Y-59019180D01*
X74674463Y-59129494D01*
X74753815Y-59226185D01*
X74850506Y-59305537D01*
X74960820Y-59364502D01*
X75080518Y-59400812D01*
X75205000Y-59413072D01*
X75919250Y-59410000D01*
X76078000Y-59251250D01*
X76078000Y-57652000D01*
X76332000Y-57652000D01*
X76332000Y-59251250D01*
X76490750Y-59410000D01*
X77205000Y-59413072D01*
X77329482Y-59400812D01*
X77449180Y-59364502D01*
X77559494Y-59305537D01*
X77656185Y-59226185D01*
X77735537Y-59129494D01*
X77794502Y-59019180D01*
X77830812Y-58899482D01*
X77843072Y-58775000D01*
X77840000Y-57810750D01*
X77681250Y-57652000D01*
X76332000Y-57652000D01*
X76078000Y-57652000D01*
X74728750Y-57652000D01*
X74570000Y-57810750D01*
X74566928Y-58775000D01*
X68943072Y-58775000D01*
X68940000Y-57810750D01*
X68781250Y-57652000D01*
X67432000Y-57652000D01*
X67432000Y-57672000D01*
X67178000Y-57672000D01*
X67178000Y-57652000D01*
X67158000Y-57652000D01*
X67158000Y-57398000D01*
X67178000Y-57398000D01*
X67178000Y-57378000D01*
X67432000Y-57378000D01*
X67432000Y-57398000D01*
X68781250Y-57398000D01*
X68940000Y-57239250D01*
X68942793Y-56362600D01*
X74567207Y-56362600D01*
X74570000Y-57239250D01*
X74728750Y-57398000D01*
X76078000Y-57398000D01*
X76078000Y-57378000D01*
X76332000Y-57378000D01*
X76332000Y-57398000D01*
X77681250Y-57398000D01*
X77840000Y-57239250D01*
X77840244Y-57162600D01*
X77943089Y-57162600D01*
X78123729Y-57126668D01*
X78293889Y-57056186D01*
X78393542Y-56989600D01*
X81018798Y-56989600D01*
X81030366Y-57001168D01*
X81183505Y-57103492D01*
X81353665Y-57173974D01*
X81534305Y-57209906D01*
X81718483Y-57209906D01*
X81788000Y-57196078D01*
X81788000Y-64923971D01*
X81740389Y-64914500D01*
X81556211Y-64914500D01*
X81409128Y-64943757D01*
X81406900Y-64208250D01*
X81248150Y-64049500D01*
X80098900Y-64049500D01*
X80098900Y-64069500D01*
X79844900Y-64069500D01*
X79844900Y-64049500D01*
X78695650Y-64049500D01*
X78536900Y-64208250D01*
X78533828Y-65222500D01*
X78546088Y-65346982D01*
X78582398Y-65466680D01*
X78641363Y-65576994D01*
X78720715Y-65673685D01*
X78780196Y-65722500D01*
X78720715Y-65771315D01*
X78641363Y-65868006D01*
X78582398Y-65978320D01*
X78546088Y-66098018D01*
X78533828Y-66222500D01*
X78533828Y-68822500D01*
X78546088Y-68946982D01*
X78582398Y-69066680D01*
X78641363Y-69176994D01*
X78720715Y-69273685D01*
X78817406Y-69353037D01*
X78927720Y-69412002D01*
X79047418Y-69448312D01*
X79171900Y-69460572D01*
X79562233Y-69460572D01*
X79525518Y-69464188D01*
X79405820Y-69500498D01*
X79295506Y-69559463D01*
X79198815Y-69638815D01*
X79119463Y-69735506D01*
X79060498Y-69845820D01*
X79024188Y-69965518D01*
X79011928Y-70090000D01*
X79011928Y-71790000D01*
X79024188Y-71914482D01*
X79060498Y-72034180D01*
X79119463Y-72144494D01*
X79198815Y-72241185D01*
X79295506Y-72320537D01*
X79405820Y-72379502D01*
X79478380Y-72401513D01*
X79346525Y-72533368D01*
X79184010Y-72776589D01*
X79072068Y-73046842D01*
X79015000Y-73333740D01*
X79015000Y-73626260D01*
X79072068Y-73913158D01*
X79184010Y-74183411D01*
X79346525Y-74426632D01*
X79553368Y-74633475D01*
X79727760Y-74750000D01*
X79553368Y-74866525D01*
X79346525Y-75073368D01*
X79184010Y-75316589D01*
X79072068Y-75586842D01*
X79015000Y-75873740D01*
X79015000Y-76166260D01*
X79072068Y-76453158D01*
X79184010Y-76723411D01*
X79346525Y-76966632D01*
X79553368Y-77173475D01*
X79735534Y-77295195D01*
X79618645Y-77364822D01*
X79402412Y-77559731D01*
X79228359Y-77793080D01*
X79103175Y-78055901D01*
X79058524Y-78203110D01*
X79179845Y-78433000D01*
X80373000Y-78433000D01*
X80373000Y-78413000D01*
X80627000Y-78413000D01*
X80627000Y-78433000D01*
X80647000Y-78433000D01*
X80647000Y-78687000D01*
X80627000Y-78687000D01*
X80627000Y-78707000D01*
X80373000Y-78707000D01*
X80373000Y-78687000D01*
X79179845Y-78687000D01*
X79058524Y-78916890D01*
X79103175Y-79064099D01*
X79228359Y-79326920D01*
X79402412Y-79560269D01*
X79618645Y-79755178D01*
X79735534Y-79824805D01*
X79553368Y-79946525D01*
X79346525Y-80153368D01*
X79184010Y-80396589D01*
X79072068Y-80666842D01*
X79015000Y-80953740D01*
X79015000Y-81246260D01*
X79072068Y-81533158D01*
X79184010Y-81803411D01*
X79346525Y-82046632D01*
X79553368Y-82253475D01*
X79727760Y-82370000D01*
X79553368Y-82486525D01*
X79346525Y-82693368D01*
X79184010Y-82936589D01*
X79072068Y-83206842D01*
X79015000Y-83493740D01*
X79015000Y-83786260D01*
X79072068Y-84073158D01*
X79184010Y-84343411D01*
X79346525Y-84586632D01*
X79553368Y-84793475D01*
X79727760Y-84910000D01*
X79553368Y-85026525D01*
X79346525Y-85233368D01*
X79184010Y-85476589D01*
X79072068Y-85746842D01*
X79015000Y-86033740D01*
X79015000Y-86326260D01*
X79072068Y-86613158D01*
X79184010Y-86883411D01*
X79346525Y-87126632D01*
X79553368Y-87333475D01*
X79727760Y-87450000D01*
X79553368Y-87566525D01*
X79346525Y-87773368D01*
X79184010Y-88016589D01*
X79072068Y-88286842D01*
X79015000Y-88573740D01*
X79015000Y-88866260D01*
X79072068Y-89153158D01*
X79184010Y-89423411D01*
X79346525Y-89666632D01*
X79553368Y-89873475D01*
X79727760Y-89990000D01*
X79553368Y-90106525D01*
X79346525Y-90313368D01*
X79184010Y-90556589D01*
X79072068Y-90826842D01*
X79015000Y-91113740D01*
X79015000Y-91406260D01*
X79072068Y-91693158D01*
X79141590Y-91860999D01*
X77010224Y-91860999D01*
X76972801Y-91857313D01*
X76935378Y-91860999D01*
X76935375Y-91860999D01*
X76823423Y-91872025D01*
X76679786Y-91915597D01*
X76643929Y-91934763D01*
X76547408Y-91986354D01*
X76505020Y-92021142D01*
X76431379Y-92081577D01*
X76407517Y-92110653D01*
X75318544Y-93199626D01*
X75308368Y-93148471D01*
X75237886Y-92978311D01*
X75135562Y-92825172D01*
X75005328Y-92694938D01*
X74852189Y-92592614D01*
X74682029Y-92522132D01*
X74514611Y-92488830D01*
X70955859Y-88930078D01*
X71725136Y-88930078D01*
X71824789Y-88996664D01*
X71994949Y-89067146D01*
X72175589Y-89103078D01*
X72359767Y-89103078D01*
X72540407Y-89067146D01*
X72710567Y-88996664D01*
X72863706Y-88894340D01*
X72993940Y-88764106D01*
X73096264Y-88610967D01*
X73166746Y-88440807D01*
X73202678Y-88260167D01*
X73202678Y-88075989D01*
X73166746Y-87895349D01*
X73096264Y-87725189D01*
X72993940Y-87572050D01*
X72863706Y-87441816D01*
X72710567Y-87339492D01*
X72540407Y-87269010D01*
X72359767Y-87233078D01*
X72175589Y-87233078D01*
X71994949Y-87269010D01*
X71824789Y-87339492D01*
X71725136Y-87406078D01*
X70318571Y-87406078D01*
X63861457Y-80948965D01*
X63863104Y-80940685D01*
X63863104Y-80756507D01*
X63844437Y-80662661D01*
X63945694Y-80608537D01*
X64042385Y-80529185D01*
X64121737Y-80432494D01*
X64180702Y-80322180D01*
X64217012Y-80202482D01*
X64224268Y-80128800D01*
X64701128Y-80128800D01*
X64713388Y-80253282D01*
X64749698Y-80372980D01*
X64808663Y-80483294D01*
X64888015Y-80579985D01*
X64984706Y-80659337D01*
X65095020Y-80718302D01*
X65214718Y-80754612D01*
X65339200Y-80766872D01*
X65703450Y-80763800D01*
X65862200Y-80605050D01*
X65862200Y-79505800D01*
X66116200Y-79505800D01*
X66116200Y-80605050D01*
X66274950Y-80763800D01*
X66639200Y-80766872D01*
X66763682Y-80754612D01*
X66883380Y-80718302D01*
X66993694Y-80659337D01*
X67090385Y-80579985D01*
X67169737Y-80483294D01*
X67228702Y-80372980D01*
X67265012Y-80253282D01*
X67277272Y-80128800D01*
X67274200Y-79664550D01*
X67115450Y-79505800D01*
X66116200Y-79505800D01*
X65862200Y-79505800D01*
X64862950Y-79505800D01*
X64704200Y-79664550D01*
X64701128Y-80128800D01*
X64224268Y-80128800D01*
X64229272Y-80078000D01*
X64226200Y-79613750D01*
X64067450Y-79455000D01*
X63068200Y-79455000D01*
X63068200Y-79475000D01*
X62814200Y-79475000D01*
X62814200Y-79455000D01*
X61814950Y-79455000D01*
X61656200Y-79613750D01*
X61653128Y-80078000D01*
X61665388Y-80202482D01*
X61701698Y-80322180D01*
X61760663Y-80432494D01*
X61840015Y-80529185D01*
X61936706Y-80608537D01*
X62014289Y-80650006D01*
X61993104Y-80756507D01*
X61993104Y-80867174D01*
X60920394Y-79794464D01*
X60896532Y-79765388D01*
X60780502Y-79670165D01*
X60648125Y-79599408D01*
X60504488Y-79555836D01*
X60392536Y-79544810D01*
X60392533Y-79544810D01*
X60355110Y-79541124D01*
X60317687Y-79544810D01*
X60257942Y-79544810D01*
X60158289Y-79478224D01*
X60011415Y-79417387D01*
X60083521Y-79309472D01*
X60154003Y-79139312D01*
X60189935Y-78958672D01*
X60189935Y-78774494D01*
X60154003Y-78593854D01*
X60083521Y-78423694D01*
X60001087Y-78300322D01*
X60039250Y-78300000D01*
X60198000Y-78141250D01*
X60198000Y-77042000D01*
X60452000Y-77042000D01*
X60452000Y-78141250D01*
X60610750Y-78300000D01*
X60975000Y-78303072D01*
X61099482Y-78290812D01*
X61219180Y-78254502D01*
X61329494Y-78195537D01*
X61426185Y-78116185D01*
X61505537Y-78019494D01*
X61564502Y-77909180D01*
X61600812Y-77789482D01*
X61613072Y-77665000D01*
X61610000Y-77200750D01*
X61451250Y-77042000D01*
X60452000Y-77042000D01*
X60198000Y-77042000D01*
X59198750Y-77042000D01*
X59040000Y-77200750D01*
X59037202Y-77623539D01*
X58947609Y-77489453D01*
X58817375Y-77359219D01*
X58664236Y-77256895D01*
X58494076Y-77186413D01*
X58313436Y-77150481D01*
X58129258Y-77150481D01*
X57948618Y-77186413D01*
X57778458Y-77256895D01*
X57625319Y-77359219D01*
X57495085Y-77489453D01*
X57392761Y-77642592D01*
X57322279Y-77812752D01*
X57298897Y-77930301D01*
X57129383Y-78099815D01*
X56810400Y-77780832D01*
X56904494Y-77730537D01*
X57001185Y-77651185D01*
X57080537Y-77554494D01*
X57139502Y-77444180D01*
X57175812Y-77324482D01*
X57188072Y-77200000D01*
X57185000Y-76735750D01*
X57026250Y-76577000D01*
X56177000Y-76577000D01*
X56177000Y-76597000D01*
X55923000Y-76597000D01*
X55923000Y-76577000D01*
X55903000Y-76577000D01*
X55903000Y-76323000D01*
X55923000Y-76323000D01*
X55923000Y-76303000D01*
X56177000Y-76303000D01*
X56177000Y-76323000D01*
X57026250Y-76323000D01*
X57185000Y-76164250D01*
X57188072Y-75700000D01*
X57175812Y-75575518D01*
X57173000Y-75566248D01*
X57173000Y-74827000D01*
X56073750Y-74827000D01*
X55915000Y-74985750D01*
X55911928Y-75200000D01*
X55913313Y-75214063D01*
X55764250Y-75065000D01*
X55550000Y-75061928D01*
X55425518Y-75074188D01*
X55305820Y-75110498D01*
X55300000Y-75113609D01*
X55294180Y-75110498D01*
X55174482Y-75074188D01*
X55113877Y-75068219D01*
X55185884Y-75038393D01*
X55339023Y-74936069D01*
X55469257Y-74805835D01*
X55571581Y-74652696D01*
X55642063Y-74482536D01*
X55677995Y-74301896D01*
X55677995Y-74117718D01*
X55642063Y-73937078D01*
X55571581Y-73766918D01*
X55469257Y-73613779D01*
X55339023Y-73483545D01*
X55185884Y-73381221D01*
X55015724Y-73310739D01*
X54835084Y-73274807D01*
X54650906Y-73274807D01*
X54470266Y-73310739D01*
X54300106Y-73381221D01*
X54146967Y-73483545D01*
X54016733Y-73613779D01*
X53914409Y-73766918D01*
X53903408Y-73793477D01*
X53531362Y-73421432D01*
X53531362Y-73275442D01*
X53597948Y-73175789D01*
X53668430Y-73005629D01*
X53704362Y-72824989D01*
X53704362Y-72640811D01*
X53668430Y-72460171D01*
X53597948Y-72290011D01*
X53495624Y-72136872D01*
X53365390Y-72006638D01*
X53212251Y-71904314D01*
X53042091Y-71833832D01*
X52861451Y-71797900D01*
X52677273Y-71797900D01*
X52496633Y-71833832D01*
X52326473Y-71904314D01*
X52173334Y-72006638D01*
X52043100Y-72136872D01*
X51940776Y-72290011D01*
X51870294Y-72460171D01*
X51841953Y-72602651D01*
X51708371Y-72629222D01*
X51538211Y-72699704D01*
X51385072Y-72802028D01*
X51254838Y-72932262D01*
X51152514Y-73085401D01*
X51082032Y-73255561D01*
X51046100Y-73436201D01*
X51046100Y-73620379D01*
X51082032Y-73801019D01*
X51152514Y-73971179D01*
X51219101Y-74070833D01*
X51219100Y-74641457D01*
X51152514Y-74741111D01*
X51082032Y-74911271D01*
X51052064Y-75061928D01*
X51050000Y-75061928D01*
X50925518Y-75074188D01*
X50805820Y-75110498D01*
X50800000Y-75113609D01*
X50794180Y-75110498D01*
X50674482Y-75074188D01*
X50550000Y-75061928D01*
X49550000Y-75061928D01*
X49425518Y-75074188D01*
X49305820Y-75110498D01*
X49300000Y-75113609D01*
X49294180Y-75110498D01*
X49174482Y-75074188D01*
X49050000Y-75061928D01*
X48050000Y-75061928D01*
X47925518Y-75074188D01*
X47805820Y-75110498D01*
X47800000Y-75113609D01*
X47794180Y-75110498D01*
X47674482Y-75074188D01*
X47550000Y-75061928D01*
X46550000Y-75061928D01*
X46425518Y-75074188D01*
X46305820Y-75110498D01*
X46300000Y-75113609D01*
X46294180Y-75110498D01*
X46174482Y-75074188D01*
X46050000Y-75061928D01*
X45835750Y-75065000D01*
X45686687Y-75214063D01*
X45688072Y-75200000D01*
X45685000Y-74985750D01*
X45526250Y-74827000D01*
X44427000Y-74827000D01*
X44427000Y-75566248D01*
X44424188Y-75575518D01*
X44411928Y-75700000D01*
X44415000Y-76164250D01*
X44573750Y-76323000D01*
X45423000Y-76323000D01*
X45423000Y-76303000D01*
X45677000Y-76303000D01*
X45677000Y-76323000D01*
X45697000Y-76323000D01*
X45697000Y-76577000D01*
X45677000Y-76577000D01*
X45677000Y-76597000D01*
X45423000Y-76597000D01*
X45423000Y-76577000D01*
X44573750Y-76577000D01*
X44415000Y-76735750D01*
X44411928Y-77200000D01*
X44424188Y-77324482D01*
X44440860Y-77379442D01*
X42858470Y-77379442D01*
X42410977Y-76931949D01*
X42535000Y-76933072D01*
X42659482Y-76920812D01*
X42779180Y-76884502D01*
X42889494Y-76825537D01*
X42986185Y-76746185D01*
X43065537Y-76649494D01*
X43124502Y-76539180D01*
X43160812Y-76419482D01*
X43173072Y-76295000D01*
X43170000Y-75830750D01*
X43011252Y-75672002D01*
X43124181Y-75672002D01*
X43195506Y-75730537D01*
X43305820Y-75789502D01*
X43425518Y-75825812D01*
X43550000Y-75838072D01*
X44014250Y-75835000D01*
X44173000Y-75676250D01*
X44173000Y-74827000D01*
X44153000Y-74827000D01*
X44153000Y-74573000D01*
X44173000Y-74573000D01*
X44173000Y-74553000D01*
X44427000Y-74553000D01*
X44427000Y-74573000D01*
X45526250Y-74573000D01*
X45685000Y-74414250D01*
X45688072Y-74200000D01*
X45675812Y-74075518D01*
X45639502Y-73955820D01*
X45636391Y-73950000D01*
X45639502Y-73944180D01*
X45661040Y-73873180D01*
X45729392Y-73836645D01*
X45845422Y-73741422D01*
X45869284Y-73712346D01*
X46600646Y-72980984D01*
X46629722Y-72957122D01*
X46713350Y-72855221D01*
X46724945Y-72841093D01*
X46777249Y-72743238D01*
X46795702Y-72708715D01*
X46839274Y-72565078D01*
X46850300Y-72453126D01*
X46850300Y-72453123D01*
X46853986Y-72415700D01*
X46850300Y-72378277D01*
X46850300Y-71434311D01*
X49699900Y-71434311D01*
X49699900Y-71618489D01*
X49735832Y-71799129D01*
X49806314Y-71969289D01*
X49908638Y-72122428D01*
X50038872Y-72252662D01*
X50192011Y-72354986D01*
X50362171Y-72425468D01*
X50542811Y-72461400D01*
X50726989Y-72461400D01*
X50907629Y-72425468D01*
X51077789Y-72354986D01*
X51230928Y-72252662D01*
X51361162Y-72122428D01*
X51463486Y-71969289D01*
X51533968Y-71799129D01*
X51557350Y-71681580D01*
X52482874Y-70756056D01*
X52604729Y-70731817D01*
X52774889Y-70661335D01*
X52804547Y-70641518D01*
X52802914Y-70658100D01*
X52817627Y-70807478D01*
X52861199Y-70951115D01*
X52931955Y-71083492D01*
X53003321Y-71170451D01*
X53073649Y-71240779D01*
X53160608Y-71312144D01*
X53292984Y-71382901D01*
X53436622Y-71426473D01*
X53585999Y-71441186D01*
X53735378Y-71426473D01*
X53879015Y-71382901D01*
X54011392Y-71312144D01*
X54127421Y-71216921D01*
X54222644Y-71100892D01*
X54293401Y-70968515D01*
X54336973Y-70824878D01*
X54351686Y-70675499D01*
X54336973Y-70526122D01*
X54293401Y-70382484D01*
X54222644Y-70250108D01*
X54151279Y-70163149D01*
X54080951Y-70092821D01*
X53993992Y-70021455D01*
X53861615Y-69950699D01*
X53717978Y-69907127D01*
X53568600Y-69892414D01*
X53419222Y-69907127D01*
X53275585Y-69950699D01*
X53260223Y-69958910D01*
X53267000Y-69924838D01*
X53267000Y-69740660D01*
X53231068Y-69560020D01*
X53160586Y-69389860D01*
X53058262Y-69236721D01*
X52928028Y-69106487D01*
X52774889Y-69004163D01*
X52604729Y-68933681D01*
X52424089Y-68897749D01*
X52239911Y-68897749D01*
X52059271Y-68933681D01*
X51889111Y-69004163D01*
X51735972Y-69106487D01*
X51605738Y-69236721D01*
X51503414Y-69389860D01*
X51432932Y-69560020D01*
X51410406Y-69673264D01*
X50479720Y-70603950D01*
X50362171Y-70627332D01*
X50192011Y-70697814D01*
X50038872Y-70800138D01*
X49908638Y-70930372D01*
X49806314Y-71083511D01*
X49735832Y-71253671D01*
X49699900Y-71434311D01*
X46850300Y-71434311D01*
X46850300Y-56687120D01*
X46853986Y-56649697D01*
X46845932Y-56567922D01*
X46839274Y-56500320D01*
X46795702Y-56356683D01*
X46724945Y-56224306D01*
X46629722Y-56108276D01*
X46600653Y-56084420D01*
X46226232Y-55710000D01*
X55495997Y-55710000D01*
X55472026Y-55789021D01*
G36*
X61552617Y-90487577D02*
G01*
X61528760Y-90516648D01*
X60925176Y-91120232D01*
X60925000Y-91090750D01*
X60766250Y-90932000D01*
X59327000Y-90932000D01*
X59327000Y-90952000D01*
X59073000Y-90952000D01*
X59073000Y-90932000D01*
X59053000Y-90932000D01*
X59053000Y-90678000D01*
X59073000Y-90678000D01*
X59073000Y-90658000D01*
X59327000Y-90658000D01*
X59327000Y-90678000D01*
X60766250Y-90678000D01*
X60925000Y-90519250D01*
X60925493Y-90436709D01*
X61614600Y-90436709D01*
X61552617Y-90487577D01*
G37*
X61552617Y-90487577D02*
X61528760Y-90516648D01*
X60925176Y-91120232D01*
X60925000Y-91090750D01*
X60766250Y-90932000D01*
X59327000Y-90932000D01*
X59327000Y-90952000D01*
X59073000Y-90952000D01*
X59073000Y-90932000D01*
X59053000Y-90932000D01*
X59053000Y-90678000D01*
X59073000Y-90678000D01*
X59073000Y-90658000D01*
X59327000Y-90658000D01*
X59327000Y-90678000D01*
X60766250Y-90678000D01*
X60925000Y-90519250D01*
X60925493Y-90436709D01*
X61614600Y-90436709D01*
X61552617Y-90487577D01*
G36*
X38018754Y-89051913D02*
G01*
X37978096Y-89185961D01*
X38100085Y-89408000D01*
X39243000Y-89408000D01*
X39243000Y-89388000D01*
X39497000Y-89388000D01*
X39497000Y-89408000D01*
X40639915Y-89408000D01*
X40761904Y-89185961D01*
X40721246Y-89051913D01*
X40641883Y-88884001D01*
X45718117Y-88884001D01*
X45638754Y-89051913D01*
X45598096Y-89185961D01*
X45720085Y-89408000D01*
X46863000Y-89408000D01*
X46863000Y-89388000D01*
X47117000Y-89388000D01*
X47117000Y-89408000D01*
X48259915Y-89408000D01*
X48380282Y-89188913D01*
X48634369Y-89443000D01*
X48575506Y-89474463D01*
X48478815Y-89553815D01*
X48399463Y-89650506D01*
X48340498Y-89760820D01*
X48331146Y-89791651D01*
X48259915Y-89662000D01*
X47117000Y-89662000D01*
X47117000Y-89682000D01*
X46863000Y-89682000D01*
X46863000Y-89662000D01*
X46491608Y-89662000D01*
X46401052Y-89613597D01*
X46257415Y-89570025D01*
X46145463Y-89558999D01*
X46145460Y-89558999D01*
X46108037Y-89555313D01*
X46070614Y-89558999D01*
X45132242Y-89558999D01*
X45032589Y-89492413D01*
X44862429Y-89421931D01*
X44681789Y-89385999D01*
X44497611Y-89385999D01*
X44316971Y-89421931D01*
X44146811Y-89492413D01*
X43993672Y-89594737D01*
X43863438Y-89724971D01*
X43761114Y-89878110D01*
X43690632Y-90048270D01*
X43654700Y-90228910D01*
X43654700Y-90413088D01*
X43666975Y-90474800D01*
X40515392Y-90474800D01*
X40478425Y-90437833D01*
X40601037Y-90272420D01*
X40721246Y-90018087D01*
X40761904Y-89884039D01*
X40639915Y-89662000D01*
X39497000Y-89662000D01*
X39497000Y-89682000D01*
X39243000Y-89682000D01*
X39243000Y-89662000D01*
X38100085Y-89662000D01*
X37978096Y-89884039D01*
X38018754Y-90018087D01*
X38138963Y-90272420D01*
X38261575Y-90437833D01*
X37983308Y-90716100D01*
X36052498Y-90716100D01*
X36053327Y-90714860D01*
X36123809Y-90544700D01*
X36159741Y-90364060D01*
X36159741Y-90179882D01*
X36123809Y-89999242D01*
X36053327Y-89829082D01*
X35951003Y-89675943D01*
X35820769Y-89545709D01*
X35667630Y-89443385D01*
X35497470Y-89372903D01*
X35446258Y-89362716D01*
X35495646Y-89288801D01*
X35566128Y-89118641D01*
X35602060Y-88938001D01*
X35602060Y-88884001D01*
X38098117Y-88884001D01*
X38018754Y-89051913D01*
G37*
X38018754Y-89051913D02*
X37978096Y-89185961D01*
X38100085Y-89408000D01*
X39243000Y-89408000D01*
X39243000Y-89388000D01*
X39497000Y-89388000D01*
X39497000Y-89408000D01*
X40639915Y-89408000D01*
X40761904Y-89185961D01*
X40721246Y-89051913D01*
X40641883Y-88884001D01*
X45718117Y-88884001D01*
X45638754Y-89051913D01*
X45598096Y-89185961D01*
X45720085Y-89408000D01*
X46863000Y-89408000D01*
X46863000Y-89388000D01*
X47117000Y-89388000D01*
X47117000Y-89408000D01*
X48259915Y-89408000D01*
X48380282Y-89188913D01*
X48634369Y-89443000D01*
X48575506Y-89474463D01*
X48478815Y-89553815D01*
X48399463Y-89650506D01*
X48340498Y-89760820D01*
X48331146Y-89791651D01*
X48259915Y-89662000D01*
X47117000Y-89662000D01*
X47117000Y-89682000D01*
X46863000Y-89682000D01*
X46863000Y-89662000D01*
X46491608Y-89662000D01*
X46401052Y-89613597D01*
X46257415Y-89570025D01*
X46145463Y-89558999D01*
X46145460Y-89558999D01*
X46108037Y-89555313D01*
X46070614Y-89558999D01*
X45132242Y-89558999D01*
X45032589Y-89492413D01*
X44862429Y-89421931D01*
X44681789Y-89385999D01*
X44497611Y-89385999D01*
X44316971Y-89421931D01*
X44146811Y-89492413D01*
X43993672Y-89594737D01*
X43863438Y-89724971D01*
X43761114Y-89878110D01*
X43690632Y-90048270D01*
X43654700Y-90228910D01*
X43654700Y-90413088D01*
X43666975Y-90474800D01*
X40515392Y-90474800D01*
X40478425Y-90437833D01*
X40601037Y-90272420D01*
X40721246Y-90018087D01*
X40761904Y-89884039D01*
X40639915Y-89662000D01*
X39497000Y-89662000D01*
X39497000Y-89682000D01*
X39243000Y-89682000D01*
X39243000Y-89662000D01*
X38100085Y-89662000D01*
X37978096Y-89884039D01*
X38018754Y-90018087D01*
X38138963Y-90272420D01*
X38261575Y-90437833D01*
X37983308Y-90716100D01*
X36052498Y-90716100D01*
X36053327Y-90714860D01*
X36123809Y-90544700D01*
X36159741Y-90364060D01*
X36159741Y-90179882D01*
X36123809Y-89999242D01*
X36053327Y-89829082D01*
X35951003Y-89675943D01*
X35820769Y-89545709D01*
X35667630Y-89443385D01*
X35497470Y-89372903D01*
X35446258Y-89362716D01*
X35495646Y-89288801D01*
X35566128Y-89118641D01*
X35602060Y-88938001D01*
X35602060Y-88884001D01*
X38098117Y-88884001D01*
X38018754Y-89051913D01*
G36*
X42473877Y-85029708D02*
G01*
X42497734Y-85058778D01*
X42613764Y-85154001D01*
X42746141Y-85224758D01*
X42889778Y-85268330D01*
X42978005Y-85277019D01*
X43081155Y-85345942D01*
X43251315Y-85416424D01*
X43431955Y-85452356D01*
X43616133Y-85452356D01*
X43796773Y-85416424D01*
X43966933Y-85345942D01*
X44083695Y-85267925D01*
X44972615Y-86156845D01*
X44996477Y-86185921D01*
X45055051Y-86233991D01*
X45112506Y-86281144D01*
X45157806Y-86305357D01*
X45244884Y-86351901D01*
X45388521Y-86395473D01*
X45500473Y-86406499D01*
X45500476Y-86406499D01*
X45537899Y-86410185D01*
X45575322Y-86406499D01*
X45688577Y-86406499D01*
X45638754Y-86511913D01*
X45598096Y-86645961D01*
X45720085Y-86868000D01*
X46863000Y-86868000D01*
X46863000Y-86848000D01*
X47117000Y-86848000D01*
X47117000Y-86868000D01*
X48259915Y-86868000D01*
X48381904Y-86645961D01*
X48341246Y-86511913D01*
X48291423Y-86406499D01*
X48564057Y-86406499D01*
X48663710Y-86473085D01*
X48833870Y-86543567D01*
X49014510Y-86579499D01*
X49198688Y-86579499D01*
X49379328Y-86543567D01*
X49530301Y-86481033D01*
X49530900Y-86620350D01*
X49689650Y-86779100D01*
X50888900Y-86779100D01*
X50888900Y-86759100D01*
X51142900Y-86759100D01*
X51142900Y-86779100D01*
X52342150Y-86779100D01*
X52500900Y-86620350D01*
X52503972Y-85906100D01*
X52491712Y-85781618D01*
X52480786Y-85745600D01*
X52543089Y-85745600D01*
X52723729Y-85709668D01*
X52893889Y-85639186D01*
X53047028Y-85536862D01*
X53060600Y-85523290D01*
X53060601Y-87847768D01*
X52516370Y-88392000D01*
X52274785Y-88392000D01*
X52317085Y-88357285D01*
X52396437Y-88260594D01*
X52455402Y-88150280D01*
X52491712Y-88030582D01*
X52503972Y-87906100D01*
X52500900Y-87191850D01*
X52342150Y-87033100D01*
X51142900Y-87033100D01*
X51142900Y-87053100D01*
X50888900Y-87053100D01*
X50888900Y-87033100D01*
X49689650Y-87033100D01*
X49530900Y-87191850D01*
X49527828Y-87906100D01*
X49540088Y-88030582D01*
X49576398Y-88150280D01*
X49635363Y-88260594D01*
X49714715Y-88357285D01*
X49811406Y-88436637D01*
X49921720Y-88495602D01*
X50041418Y-88531912D01*
X50159678Y-88543559D01*
X50075578Y-88612578D01*
X50051720Y-88641649D01*
X50020000Y-88673369D01*
X48956285Y-87609655D01*
X48932423Y-87580579D01*
X48816393Y-87485356D01*
X48684016Y-87414599D01*
X48540379Y-87371027D01*
X48428427Y-87360001D01*
X48428424Y-87360001D01*
X48391001Y-87356315D01*
X48377786Y-87357617D01*
X48381904Y-87344039D01*
X48259915Y-87122000D01*
X47117000Y-87122000D01*
X47117000Y-87142000D01*
X46863000Y-87142000D01*
X46863000Y-87122000D01*
X45720085Y-87122000D01*
X45598096Y-87344039D01*
X45602937Y-87360001D01*
X40757063Y-87360001D01*
X40761904Y-87344039D01*
X40639916Y-87122002D01*
X40805000Y-87122002D01*
X40805000Y-87066400D01*
X40960689Y-87066400D01*
X41141329Y-87030468D01*
X41311489Y-86959986D01*
X41464628Y-86857662D01*
X41594862Y-86727428D01*
X41697186Y-86574289D01*
X41767668Y-86404129D01*
X41803600Y-86223489D01*
X41803600Y-86039311D01*
X41767668Y-85858671D01*
X41697186Y-85688511D01*
X41594862Y-85535372D01*
X41464628Y-85405138D01*
X41311489Y-85302814D01*
X41275000Y-85287700D01*
X41275000Y-83830830D01*
X42473877Y-85029708D01*
G37*
X42473877Y-85029708D02*
X42497734Y-85058778D01*
X42613764Y-85154001D01*
X42746141Y-85224758D01*
X42889778Y-85268330D01*
X42978005Y-85277019D01*
X43081155Y-85345942D01*
X43251315Y-85416424D01*
X43431955Y-85452356D01*
X43616133Y-85452356D01*
X43796773Y-85416424D01*
X43966933Y-85345942D01*
X44083695Y-85267925D01*
X44972615Y-86156845D01*
X44996477Y-86185921D01*
X45055051Y-86233991D01*
X45112506Y-86281144D01*
X45157806Y-86305357D01*
X45244884Y-86351901D01*
X45388521Y-86395473D01*
X45500473Y-86406499D01*
X45500476Y-86406499D01*
X45537899Y-86410185D01*
X45575322Y-86406499D01*
X45688577Y-86406499D01*
X45638754Y-86511913D01*
X45598096Y-86645961D01*
X45720085Y-86868000D01*
X46863000Y-86868000D01*
X46863000Y-86848000D01*
X47117000Y-86848000D01*
X47117000Y-86868000D01*
X48259915Y-86868000D01*
X48381904Y-86645961D01*
X48341246Y-86511913D01*
X48291423Y-86406499D01*
X48564057Y-86406499D01*
X48663710Y-86473085D01*
X48833870Y-86543567D01*
X49014510Y-86579499D01*
X49198688Y-86579499D01*
X49379328Y-86543567D01*
X49530301Y-86481033D01*
X49530900Y-86620350D01*
X49689650Y-86779100D01*
X50888900Y-86779100D01*
X50888900Y-86759100D01*
X51142900Y-86759100D01*
X51142900Y-86779100D01*
X52342150Y-86779100D01*
X52500900Y-86620350D01*
X52503972Y-85906100D01*
X52491712Y-85781618D01*
X52480786Y-85745600D01*
X52543089Y-85745600D01*
X52723729Y-85709668D01*
X52893889Y-85639186D01*
X53047028Y-85536862D01*
X53060600Y-85523290D01*
X53060601Y-87847768D01*
X52516370Y-88392000D01*
X52274785Y-88392000D01*
X52317085Y-88357285D01*
X52396437Y-88260594D01*
X52455402Y-88150280D01*
X52491712Y-88030582D01*
X52503972Y-87906100D01*
X52500900Y-87191850D01*
X52342150Y-87033100D01*
X51142900Y-87033100D01*
X51142900Y-87053100D01*
X50888900Y-87053100D01*
X50888900Y-87033100D01*
X49689650Y-87033100D01*
X49530900Y-87191850D01*
X49527828Y-87906100D01*
X49540088Y-88030582D01*
X49576398Y-88150280D01*
X49635363Y-88260594D01*
X49714715Y-88357285D01*
X49811406Y-88436637D01*
X49921720Y-88495602D01*
X50041418Y-88531912D01*
X50159678Y-88543559D01*
X50075578Y-88612578D01*
X50051720Y-88641649D01*
X50020000Y-88673369D01*
X48956285Y-87609655D01*
X48932423Y-87580579D01*
X48816393Y-87485356D01*
X48684016Y-87414599D01*
X48540379Y-87371027D01*
X48428427Y-87360001D01*
X48428424Y-87360001D01*
X48391001Y-87356315D01*
X48377786Y-87357617D01*
X48381904Y-87344039D01*
X48259915Y-87122000D01*
X47117000Y-87122000D01*
X47117000Y-87142000D01*
X46863000Y-87142000D01*
X46863000Y-87122000D01*
X45720085Y-87122000D01*
X45598096Y-87344039D01*
X45602937Y-87360001D01*
X40757063Y-87360001D01*
X40761904Y-87344039D01*
X40639916Y-87122002D01*
X40805000Y-87122002D01*
X40805000Y-87066400D01*
X40960689Y-87066400D01*
X41141329Y-87030468D01*
X41311489Y-86959986D01*
X41464628Y-86857662D01*
X41594862Y-86727428D01*
X41697186Y-86574289D01*
X41767668Y-86404129D01*
X41803600Y-86223489D01*
X41803600Y-86039311D01*
X41767668Y-85858671D01*
X41697186Y-85688511D01*
X41594862Y-85535372D01*
X41464628Y-85405138D01*
X41311489Y-85302814D01*
X41275000Y-85287700D01*
X41275000Y-83830830D01*
X42473877Y-85029708D01*
G36*
X35285250Y-85029281D02*
G01*
X35308632Y-85146829D01*
X35379114Y-85316989D01*
X35481438Y-85470128D01*
X35611672Y-85600362D01*
X35764811Y-85702686D01*
X35934971Y-85773168D01*
X36115611Y-85809100D01*
X36299789Y-85809100D01*
X36480429Y-85773168D01*
X36650589Y-85702686D01*
X36803728Y-85600362D01*
X36933962Y-85470128D01*
X37036286Y-85316989D01*
X37106768Y-85146829D01*
X37142700Y-84966189D01*
X37142700Y-84934575D01*
X37204971Y-84960368D01*
X37385611Y-84996300D01*
X37569789Y-84996300D01*
X37750429Y-84960368D01*
X37920589Y-84889886D01*
X37984851Y-84846948D01*
X37990147Y-84873574D01*
X38098320Y-85134727D01*
X38255363Y-85369759D01*
X38455241Y-85569637D01*
X38690273Y-85726680D01*
X38700865Y-85731067D01*
X38514869Y-85842615D01*
X38306481Y-86031586D01*
X38138963Y-86257580D01*
X38018754Y-86511913D01*
X37978096Y-86645961D01*
X38100085Y-86868000D01*
X39243000Y-86868000D01*
X39243000Y-86848000D01*
X39497000Y-86848000D01*
X39497000Y-86868000D01*
X39517000Y-86868000D01*
X39517000Y-87122000D01*
X39497000Y-87122000D01*
X39497000Y-87142000D01*
X39243000Y-87142000D01*
X39243000Y-87122000D01*
X38100085Y-87122000D01*
X37978096Y-87344039D01*
X37982937Y-87360001D01*
X35451190Y-87360001D01*
X35443068Y-87319171D01*
X35372586Y-87149011D01*
X35270262Y-86995872D01*
X35140028Y-86865638D01*
X35090100Y-86832277D01*
X35090100Y-84834131D01*
X35285250Y-85029281D01*
G37*
X35285250Y-85029281D02*
X35308632Y-85146829D01*
X35379114Y-85316989D01*
X35481438Y-85470128D01*
X35611672Y-85600362D01*
X35764811Y-85702686D01*
X35934971Y-85773168D01*
X36115611Y-85809100D01*
X36299789Y-85809100D01*
X36480429Y-85773168D01*
X36650589Y-85702686D01*
X36803728Y-85600362D01*
X36933962Y-85470128D01*
X37036286Y-85316989D01*
X37106768Y-85146829D01*
X37142700Y-84966189D01*
X37142700Y-84934575D01*
X37204971Y-84960368D01*
X37385611Y-84996300D01*
X37569789Y-84996300D01*
X37750429Y-84960368D01*
X37920589Y-84889886D01*
X37984851Y-84846948D01*
X37990147Y-84873574D01*
X38098320Y-85134727D01*
X38255363Y-85369759D01*
X38455241Y-85569637D01*
X38690273Y-85726680D01*
X38700865Y-85731067D01*
X38514869Y-85842615D01*
X38306481Y-86031586D01*
X38138963Y-86257580D01*
X38018754Y-86511913D01*
X37978096Y-86645961D01*
X38100085Y-86868000D01*
X39243000Y-86868000D01*
X39243000Y-86848000D01*
X39497000Y-86848000D01*
X39497000Y-86868000D01*
X39517000Y-86868000D01*
X39517000Y-87122000D01*
X39497000Y-87122000D01*
X39497000Y-87142000D01*
X39243000Y-87142000D01*
X39243000Y-87122000D01*
X38100085Y-87122000D01*
X37978096Y-87344039D01*
X37982937Y-87360001D01*
X35451190Y-87360001D01*
X35443068Y-87319171D01*
X35372586Y-87149011D01*
X35270262Y-86995872D01*
X35140028Y-86865638D01*
X35090100Y-86832277D01*
X35090100Y-84834131D01*
X35285250Y-85029281D01*
G36*
X55372000Y-85598000D02*
G01*
X55392000Y-85598000D01*
X55392000Y-85852000D01*
X55372000Y-85852000D01*
X55372000Y-85872000D01*
X55118000Y-85872000D01*
X55118000Y-85852000D01*
X55098000Y-85852000D01*
X55098000Y-85598000D01*
X55118000Y-85598000D01*
X55118000Y-85578000D01*
X55372000Y-85578000D01*
X55372000Y-85598000D01*
G37*
X55372000Y-85598000D02*
X55392000Y-85598000D01*
X55392000Y-85852000D01*
X55372000Y-85852000D01*
X55372000Y-85872000D01*
X55118000Y-85872000D01*
X55118000Y-85852000D01*
X55098000Y-85852000D01*
X55098000Y-85598000D01*
X55118000Y-85598000D01*
X55118000Y-85578000D01*
X55372000Y-85578000D01*
X55372000Y-85598000D01*
G36*
X56631525Y-84131632D02*
G01*
X56838368Y-84338475D01*
X57012760Y-84455000D01*
X56838368Y-84571525D01*
X56631525Y-84778368D01*
X56509805Y-84960534D01*
X56440178Y-84843645D01*
X56245269Y-84627412D01*
X56015594Y-84456100D01*
X56191632Y-84338475D01*
X56398475Y-84131632D01*
X56515000Y-83957240D01*
X56631525Y-84131632D01*
G37*
X56631525Y-84131632D02*
X56838368Y-84338475D01*
X57012760Y-84455000D01*
X56838368Y-84571525D01*
X56631525Y-84778368D01*
X56509805Y-84960534D01*
X56440178Y-84843645D01*
X56245269Y-84627412D01*
X56015594Y-84456100D01*
X56191632Y-84338475D01*
X56398475Y-84131632D01*
X56515000Y-83957240D01*
X56631525Y-84131632D01*
G36*
X57639019Y-80116797D02*
G01*
X57661720Y-80114561D01*
X57641797Y-80214721D01*
X57641797Y-80398899D01*
X57677729Y-80579539D01*
X57748211Y-80749699D01*
X57850535Y-80902838D01*
X57980769Y-81033072D01*
X58133908Y-81135396D01*
X58304068Y-81205878D01*
X58421617Y-81229260D01*
X58710004Y-81517647D01*
X58733866Y-81546723D01*
X58849896Y-81641946D01*
X58982273Y-81712703D01*
X59125910Y-81756275D01*
X59197472Y-81763323D01*
X59120506Y-81804463D01*
X59023815Y-81883815D01*
X58944463Y-81980506D01*
X58885498Y-82090820D01*
X58863487Y-82163380D01*
X58731632Y-82031525D01*
X58488411Y-81869010D01*
X58218158Y-81757068D01*
X57931260Y-81700000D01*
X57638740Y-81700000D01*
X57351842Y-81757068D01*
X57081589Y-81869010D01*
X56838368Y-82031525D01*
X56631525Y-82238368D01*
X56515000Y-82412760D01*
X56398475Y-82238368D01*
X56191632Y-82031525D01*
X55948411Y-81869010D01*
X55678158Y-81757068D01*
X55535141Y-81728620D01*
X56468441Y-80795320D01*
X56585989Y-80771938D01*
X56756149Y-80701456D01*
X56909288Y-80599132D01*
X57039522Y-80468898D01*
X57141846Y-80315759D01*
X57212328Y-80145599D01*
X57218790Y-80113111D01*
X57601587Y-80113110D01*
X57639019Y-80116797D01*
G37*
X57639019Y-80116797D02*
X57661720Y-80114561D01*
X57641797Y-80214721D01*
X57641797Y-80398899D01*
X57677729Y-80579539D01*
X57748211Y-80749699D01*
X57850535Y-80902838D01*
X57980769Y-81033072D01*
X58133908Y-81135396D01*
X58304068Y-81205878D01*
X58421617Y-81229260D01*
X58710004Y-81517647D01*
X58733866Y-81546723D01*
X58849896Y-81641946D01*
X58982273Y-81712703D01*
X59125910Y-81756275D01*
X59197472Y-81763323D01*
X59120506Y-81804463D01*
X59023815Y-81883815D01*
X58944463Y-81980506D01*
X58885498Y-82090820D01*
X58863487Y-82163380D01*
X58731632Y-82031525D01*
X58488411Y-81869010D01*
X58218158Y-81757068D01*
X57931260Y-81700000D01*
X57638740Y-81700000D01*
X57351842Y-81757068D01*
X57081589Y-81869010D01*
X56838368Y-82031525D01*
X56631525Y-82238368D01*
X56515000Y-82412760D01*
X56398475Y-82238368D01*
X56191632Y-82031525D01*
X55948411Y-81869010D01*
X55678158Y-81757068D01*
X55535141Y-81728620D01*
X56468441Y-80795320D01*
X56585989Y-80771938D01*
X56756149Y-80701456D01*
X56909288Y-80599132D01*
X57039522Y-80468898D01*
X57141846Y-80315759D01*
X57212328Y-80145599D01*
X57218790Y-80113111D01*
X57601587Y-80113110D01*
X57639019Y-80116797D01*
G36*
X42037000Y-75418000D02*
G01*
X42057000Y-75418000D01*
X42057000Y-75672000D01*
X42037000Y-75672000D01*
X42037000Y-75692000D01*
X41783000Y-75692000D01*
X41783000Y-75672000D01*
X41763000Y-75672000D01*
X41763000Y-75418000D01*
X41783000Y-75418000D01*
X41783000Y-75398000D01*
X42037000Y-75398000D01*
X42037000Y-75418000D01*
G37*
X42037000Y-75418000D02*
X42057000Y-75418000D01*
X42057000Y-75672000D01*
X42037000Y-75672000D01*
X42037000Y-75692000D01*
X41783000Y-75692000D01*
X41783000Y-75672000D01*
X41763000Y-75672000D01*
X41763000Y-75418000D01*
X41783000Y-75418000D01*
X41783000Y-75398000D01*
X42037000Y-75398000D01*
X42037000Y-75418000D01*
G36*
X64262000Y-73723000D02*
G01*
X64282000Y-73723000D01*
X64282000Y-73977000D01*
X64262000Y-73977000D01*
X64262000Y-73997000D01*
X64008000Y-73997000D01*
X64008000Y-73977000D01*
X63988000Y-73977000D01*
X63988000Y-73723000D01*
X64008000Y-73723000D01*
X64008000Y-73703000D01*
X64262000Y-73703000D01*
X64262000Y-73723000D01*
G37*
X64262000Y-73723000D02*
X64282000Y-73723000D01*
X64282000Y-73977000D01*
X64262000Y-73977000D01*
X64262000Y-73997000D01*
X64008000Y-73997000D01*
X64008000Y-73977000D01*
X63988000Y-73977000D01*
X63988000Y-73723000D01*
X64008000Y-73723000D01*
X64008000Y-73703000D01*
X64262000Y-73703000D01*
X64262000Y-73723000D01*
G36*
X67488162Y-67632398D02*
G01*
X67346972Y-67726738D01*
X67216738Y-67856972D01*
X67114414Y-68010111D01*
X67043932Y-68180271D01*
X67008000Y-68360911D01*
X67008000Y-68545089D01*
X67043932Y-68725729D01*
X67114414Y-68895889D01*
X67128008Y-68916235D01*
X67031472Y-68980738D01*
X66901238Y-69110972D01*
X66798914Y-69264111D01*
X66728432Y-69434271D01*
X66701777Y-69568274D01*
X66588553Y-69475354D01*
X66456176Y-69404597D01*
X66312539Y-69361025D01*
X66200587Y-69349999D01*
X66200584Y-69349999D01*
X66163161Y-69346313D01*
X66125738Y-69349999D01*
X65955123Y-69349999D01*
X65917700Y-69346313D01*
X65880277Y-69349999D01*
X65880275Y-69349999D01*
X65768323Y-69361025D01*
X65624686Y-69404597D01*
X65623072Y-69405460D01*
X65623072Y-68850000D01*
X65610812Y-68725518D01*
X65586531Y-68645473D01*
X65639180Y-68629502D01*
X65749494Y-68570537D01*
X65846185Y-68491185D01*
X65925537Y-68394494D01*
X65984502Y-68284180D01*
X66020812Y-68164482D01*
X66033072Y-68040000D01*
X66030000Y-67575750D01*
X65871250Y-67417000D01*
X64897000Y-67417000D01*
X64897000Y-67437000D01*
X64643000Y-67437000D01*
X64643000Y-67417000D01*
X64623000Y-67417000D01*
X64623000Y-67163000D01*
X64643000Y-67163000D01*
X64643000Y-67143000D01*
X64897000Y-67143000D01*
X64897000Y-67163000D01*
X65871250Y-67163000D01*
X66030000Y-67004250D01*
X66033072Y-66540000D01*
X66020812Y-66415518D01*
X65984502Y-66295820D01*
X65925537Y-66185506D01*
X65846185Y-66088815D01*
X65786704Y-66040000D01*
X65846185Y-65991185D01*
X65846530Y-65990765D01*
X67488162Y-67632398D01*
G37*
X67488162Y-67632398D02*
X67346972Y-67726738D01*
X67216738Y-67856972D01*
X67114414Y-68010111D01*
X67043932Y-68180271D01*
X67008000Y-68360911D01*
X67008000Y-68545089D01*
X67043932Y-68725729D01*
X67114414Y-68895889D01*
X67128008Y-68916235D01*
X67031472Y-68980738D01*
X66901238Y-69110972D01*
X66798914Y-69264111D01*
X66728432Y-69434271D01*
X66701777Y-69568274D01*
X66588553Y-69475354D01*
X66456176Y-69404597D01*
X66312539Y-69361025D01*
X66200587Y-69349999D01*
X66200584Y-69349999D01*
X66163161Y-69346313D01*
X66125738Y-69349999D01*
X65955123Y-69349999D01*
X65917700Y-69346313D01*
X65880277Y-69349999D01*
X65880275Y-69349999D01*
X65768323Y-69361025D01*
X65624686Y-69404597D01*
X65623072Y-69405460D01*
X65623072Y-68850000D01*
X65610812Y-68725518D01*
X65586531Y-68645473D01*
X65639180Y-68629502D01*
X65749494Y-68570537D01*
X65846185Y-68491185D01*
X65925537Y-68394494D01*
X65984502Y-68284180D01*
X66020812Y-68164482D01*
X66033072Y-68040000D01*
X66030000Y-67575750D01*
X65871250Y-67417000D01*
X64897000Y-67417000D01*
X64897000Y-67437000D01*
X64643000Y-67437000D01*
X64643000Y-67417000D01*
X64623000Y-67417000D01*
X64623000Y-67163000D01*
X64643000Y-67163000D01*
X64643000Y-67143000D01*
X64897000Y-67143000D01*
X64897000Y-67163000D01*
X65871250Y-67163000D01*
X66030000Y-67004250D01*
X66033072Y-66540000D01*
X66020812Y-66415518D01*
X65984502Y-66295820D01*
X65925537Y-66185506D01*
X65846185Y-66088815D01*
X65786704Y-66040000D01*
X65846185Y-65991185D01*
X65846530Y-65990765D01*
X67488162Y-67632398D01*
G36*
X72069414Y-65576771D02*
G01*
X71998932Y-65746931D01*
X71963000Y-65927571D01*
X71963000Y-66111749D01*
X71998932Y-66292389D01*
X72069414Y-66462549D01*
X72171738Y-66615688D01*
X72301972Y-66745922D01*
X72455111Y-66848246D01*
X72625271Y-66918728D01*
X72805911Y-66954660D01*
X72926528Y-66954660D01*
X72926528Y-67203734D01*
X72799985Y-67220015D01*
X72824112Y-67032495D01*
X72699204Y-66959285D01*
X72562412Y-66911850D01*
X72418996Y-66892012D01*
X72274464Y-66900536D01*
X72134373Y-66937093D01*
X72004106Y-67000277D01*
X71955888Y-67032495D01*
X71980015Y-67220015D01*
X71802672Y-67197197D01*
X71802672Y-66345300D01*
X71790412Y-66220818D01*
X71754102Y-66101120D01*
X71695137Y-65990806D01*
X71615785Y-65894115D01*
X71519094Y-65814763D01*
X71408780Y-65755798D01*
X71289082Y-65719488D01*
X71164600Y-65707228D01*
X70010300Y-65707228D01*
X70010300Y-65633611D01*
X69975886Y-65460601D01*
X72017675Y-65460601D01*
X72055098Y-65464287D01*
X72092521Y-65460601D01*
X72092524Y-65460601D01*
X72150876Y-65454854D01*
X72069414Y-65576771D01*
G37*
X72069414Y-65576771D02*
X71998932Y-65746931D01*
X71963000Y-65927571D01*
X71963000Y-66111749D01*
X71998932Y-66292389D01*
X72069414Y-66462549D01*
X72171738Y-66615688D01*
X72301972Y-66745922D01*
X72455111Y-66848246D01*
X72625271Y-66918728D01*
X72805911Y-66954660D01*
X72926528Y-66954660D01*
X72926528Y-67203734D01*
X72799985Y-67220015D01*
X72824112Y-67032495D01*
X72699204Y-66959285D01*
X72562412Y-66911850D01*
X72418996Y-66892012D01*
X72274464Y-66900536D01*
X72134373Y-66937093D01*
X72004106Y-67000277D01*
X71955888Y-67032495D01*
X71980015Y-67220015D01*
X71802672Y-67197197D01*
X71802672Y-66345300D01*
X71790412Y-66220818D01*
X71754102Y-66101120D01*
X71695137Y-65990806D01*
X71615785Y-65894115D01*
X71519094Y-65814763D01*
X71408780Y-65755798D01*
X71289082Y-65719488D01*
X71164600Y-65707228D01*
X70010300Y-65707228D01*
X70010300Y-65633611D01*
X69975886Y-65460601D01*
X72017675Y-65460601D01*
X72055098Y-65464287D01*
X72092521Y-65460601D01*
X72092524Y-65460601D01*
X72150876Y-65454854D01*
X72069414Y-65576771D01*
G36*
X62302506Y-60414742D02*
G01*
X62330341Y-60448659D01*
X62364258Y-60476494D01*
X62364259Y-60476495D01*
X62383882Y-60492599D01*
X62465709Y-60559753D01*
X62620149Y-60642303D01*
X62656409Y-60653302D01*
X62787725Y-60693136D01*
X62804325Y-60694771D01*
X62918333Y-60706000D01*
X62918340Y-60706000D01*
X62962000Y-60710300D01*
X63005660Y-60706000D01*
X66148740Y-60706000D01*
X66192400Y-60710300D01*
X66236060Y-60706000D01*
X66236067Y-60706000D01*
X66366674Y-60693136D01*
X66446661Y-60668873D01*
X66528629Y-60652568D01*
X66698789Y-60582086D01*
X66851928Y-60479762D01*
X66982162Y-60349528D01*
X67084486Y-60196389D01*
X67124010Y-60100969D01*
X67124010Y-60190487D01*
X67120324Y-60227910D01*
X67124010Y-60265333D01*
X67124010Y-60265335D01*
X67135036Y-60377287D01*
X67178608Y-60520924D01*
X67206817Y-60573699D01*
X67249365Y-60653302D01*
X67282056Y-60693136D01*
X67344588Y-60769332D01*
X67373664Y-60793194D01*
X67719914Y-61139444D01*
X67590750Y-61140000D01*
X67432000Y-61298750D01*
X67432000Y-62898000D01*
X68781250Y-62898000D01*
X68940000Y-62739250D01*
X68942145Y-62065919D01*
X68960100Y-62067687D01*
X68997523Y-62064001D01*
X69267256Y-62064001D01*
X69270000Y-62839250D01*
X69428750Y-62998000D01*
X70032000Y-62998000D01*
X70032000Y-62978000D01*
X70066928Y-62978000D01*
X70066928Y-63272000D01*
X70032000Y-63272000D01*
X70032000Y-63252000D01*
X69428750Y-63252000D01*
X69270000Y-63410750D01*
X69268138Y-63936601D01*
X68941994Y-63936601D01*
X68940000Y-63310750D01*
X68781250Y-63152000D01*
X67432000Y-63152000D01*
X67432000Y-63172000D01*
X67178000Y-63172000D01*
X67178000Y-63152000D01*
X65828750Y-63152000D01*
X65670000Y-63310750D01*
X65669503Y-63466706D01*
X65639180Y-63450498D01*
X65519482Y-63414188D01*
X65395000Y-63401928D01*
X64145000Y-63401928D01*
X64020518Y-63414188D01*
X63900820Y-63450498D01*
X63790506Y-63509463D01*
X63693815Y-63588815D01*
X63614463Y-63685506D01*
X63594320Y-63723190D01*
X63392184Y-63521054D01*
X63368322Y-63491978D01*
X63252292Y-63396755D01*
X63119915Y-63325998D01*
X62976278Y-63282426D01*
X62864326Y-63271400D01*
X62864323Y-63271400D01*
X62826900Y-63267714D01*
X62789477Y-63271400D01*
X62388578Y-63271400D01*
X62398072Y-63175000D01*
X62398072Y-61775000D01*
X65666928Y-61775000D01*
X65670000Y-62739250D01*
X65828750Y-62898000D01*
X67178000Y-62898000D01*
X67178000Y-61298750D01*
X67019250Y-61140000D01*
X66305000Y-61136928D01*
X66180518Y-61149188D01*
X66060820Y-61185498D01*
X65950506Y-61244463D01*
X65853815Y-61323815D01*
X65774463Y-61420506D01*
X65715498Y-61530820D01*
X65679188Y-61650518D01*
X65666928Y-61775000D01*
X62398072Y-61775000D01*
X62398072Y-60995000D01*
X62385812Y-60870518D01*
X62349502Y-60750820D01*
X62290537Y-60640506D01*
X62211185Y-60543815D01*
X62114494Y-60464463D01*
X62004180Y-60405498D01*
X61884482Y-60369188D01*
X61760000Y-60356928D01*
X61345659Y-60356928D01*
X60211802Y-59223072D01*
X61110837Y-59223072D01*
X62302506Y-60414742D01*
G37*
X62302506Y-60414742D02*
X62330341Y-60448659D01*
X62364258Y-60476494D01*
X62364259Y-60476495D01*
X62383882Y-60492599D01*
X62465709Y-60559753D01*
X62620149Y-60642303D01*
X62656409Y-60653302D01*
X62787725Y-60693136D01*
X62804325Y-60694771D01*
X62918333Y-60706000D01*
X62918340Y-60706000D01*
X62962000Y-60710300D01*
X63005660Y-60706000D01*
X66148740Y-60706000D01*
X66192400Y-60710300D01*
X66236060Y-60706000D01*
X66236067Y-60706000D01*
X66366674Y-60693136D01*
X66446661Y-60668873D01*
X66528629Y-60652568D01*
X66698789Y-60582086D01*
X66851928Y-60479762D01*
X66982162Y-60349528D01*
X67084486Y-60196389D01*
X67124010Y-60100969D01*
X67124010Y-60190487D01*
X67120324Y-60227910D01*
X67124010Y-60265333D01*
X67124010Y-60265335D01*
X67135036Y-60377287D01*
X67178608Y-60520924D01*
X67206817Y-60573699D01*
X67249365Y-60653302D01*
X67282056Y-60693136D01*
X67344588Y-60769332D01*
X67373664Y-60793194D01*
X67719914Y-61139444D01*
X67590750Y-61140000D01*
X67432000Y-61298750D01*
X67432000Y-62898000D01*
X68781250Y-62898000D01*
X68940000Y-62739250D01*
X68942145Y-62065919D01*
X68960100Y-62067687D01*
X68997523Y-62064001D01*
X69267256Y-62064001D01*
X69270000Y-62839250D01*
X69428750Y-62998000D01*
X70032000Y-62998000D01*
X70032000Y-62978000D01*
X70066928Y-62978000D01*
X70066928Y-63272000D01*
X70032000Y-63272000D01*
X70032000Y-63252000D01*
X69428750Y-63252000D01*
X69270000Y-63410750D01*
X69268138Y-63936601D01*
X68941994Y-63936601D01*
X68940000Y-63310750D01*
X68781250Y-63152000D01*
X67432000Y-63152000D01*
X67432000Y-63172000D01*
X67178000Y-63172000D01*
X67178000Y-63152000D01*
X65828750Y-63152000D01*
X65670000Y-63310750D01*
X65669503Y-63466706D01*
X65639180Y-63450498D01*
X65519482Y-63414188D01*
X65395000Y-63401928D01*
X64145000Y-63401928D01*
X64020518Y-63414188D01*
X63900820Y-63450498D01*
X63790506Y-63509463D01*
X63693815Y-63588815D01*
X63614463Y-63685506D01*
X63594320Y-63723190D01*
X63392184Y-63521054D01*
X63368322Y-63491978D01*
X63252292Y-63396755D01*
X63119915Y-63325998D01*
X62976278Y-63282426D01*
X62864326Y-63271400D01*
X62864323Y-63271400D01*
X62826900Y-63267714D01*
X62789477Y-63271400D01*
X62388578Y-63271400D01*
X62398072Y-63175000D01*
X62398072Y-61775000D01*
X65666928Y-61775000D01*
X65670000Y-62739250D01*
X65828750Y-62898000D01*
X67178000Y-62898000D01*
X67178000Y-61298750D01*
X67019250Y-61140000D01*
X66305000Y-61136928D01*
X66180518Y-61149188D01*
X66060820Y-61185498D01*
X65950506Y-61244463D01*
X65853815Y-61323815D01*
X65774463Y-61420506D01*
X65715498Y-61530820D01*
X65679188Y-61650518D01*
X65666928Y-61775000D01*
X62398072Y-61775000D01*
X62398072Y-60995000D01*
X62385812Y-60870518D01*
X62349502Y-60750820D01*
X62290537Y-60640506D01*
X62211185Y-60543815D01*
X62114494Y-60464463D01*
X62004180Y-60405498D01*
X61884482Y-60369188D01*
X61760000Y-60356928D01*
X61345659Y-60356928D01*
X60211802Y-59223072D01*
X61110837Y-59223072D01*
X62302506Y-60414742D01*
G36*
X64157000Y-57658000D02*
G01*
X64177000Y-57658000D01*
X64177000Y-57912000D01*
X64157000Y-57912000D01*
X64157000Y-57932000D01*
X63903000Y-57932000D01*
X63903000Y-57912000D01*
X63883000Y-57912000D01*
X63883000Y-57658000D01*
X63903000Y-57658000D01*
X63903000Y-57638000D01*
X64157000Y-57638000D01*
X64157000Y-57658000D01*
G37*
X64157000Y-57658000D02*
X64177000Y-57658000D01*
X64177000Y-57912000D01*
X64157000Y-57912000D01*
X64157000Y-57932000D01*
X63903000Y-57932000D01*
X63903000Y-57912000D01*
X63883000Y-57912000D01*
X63883000Y-57658000D01*
X63903000Y-57658000D01*
X63903000Y-57638000D01*
X64157000Y-57638000D01*
X64157000Y-57658000D01*
M02*
