G04 #@! TF.GenerationSoftware,KiCad,Pcbnew,(5.1.5)-3*
G04 #@! TF.CreationDate,2023-05-21T11:01:34-04:00*
G04 #@! TF.ProjectId,In_Board_Gnia,496e5f42-6f61-4726-945f-476e69612e6b,rev?*
G04 #@! TF.SameCoordinates,Original*
G04 #@! TF.FileFunction,Soldermask,Bot*
G04 #@! TF.FilePolarity,Negative*
%FSLAX46Y46*%
G04 Gerber Fmt 4.6, Leading zero omitted, Abs format (unit mm)*
G04 Created by KiCad (PCBNEW (5.1.5)-3) date 2023-05-21 11:01:34*
%MOMM*%
%LPD*%
G04 APERTURE LIST*
%ADD10R,2.100000X2.100000*%
%ADD11O,2.100000X2.100000*%
%ADD12R,1.650000X1.900000*%
%ADD13R,1.900000X1.650000*%
%ADD14R,2.200000X2.900000*%
%ADD15R,1.470000X2.200000*%
%ADD16O,1.470000X2.200000*%
%ADD17R,2.900000X2.200000*%
%ADD18C,1.300000*%
%ADD19O,2.398980X2.398980*%
%ADD20R,2.398980X2.398980*%
%ADD21C,1.500000*%
%ADD22R,1.200000X2.300000*%
%ADD23R,2.300000X1.200000*%
%ADD24R,2.100000X2.400000*%
%ADD25R,2.400000X2.100000*%
%ADD26R,2.020000X2.020000*%
%ADD27C,2.020000*%
%ADD28R,1.000000X0.650000*%
%ADD29R,2.050000X2.800000*%
%ADD30C,0.600000*%
%ADD31R,0.650000X0.900000*%
%ADD32R,1.600000X2.600000*%
%ADD33R,6.200000X6.800000*%
%ADD34R,2.000000X2.000000*%
%ADD35O,2.000000X2.000000*%
%ADD36R,2.150000X0.850000*%
G04 APERTURE END LIST*
D10*
X80500000Y-99710000D03*
D11*
X80500000Y-102250000D03*
X80500000Y-104790000D03*
X80500000Y-107330000D03*
X80500000Y-109870000D03*
X80500000Y-112410000D03*
X80500000Y-114950000D03*
X80500000Y-117490000D03*
D12*
X64998600Y-118531960D03*
X64998600Y-116031960D03*
X69270880Y-118531960D03*
X69270880Y-116031960D03*
X73553320Y-118511640D03*
X73553320Y-116011640D03*
X69850000Y-105430000D03*
X69850000Y-107930000D03*
D13*
X73640000Y-71755000D03*
X71140000Y-71755000D03*
D12*
X60706000Y-68560000D03*
X60706000Y-66060000D03*
X58293000Y-73553000D03*
X58293000Y-76053000D03*
D13*
X63480000Y-110490000D03*
X60980000Y-110490000D03*
D12*
X69850000Y-102215000D03*
X69850000Y-99715000D03*
X53340000Y-106025000D03*
X53340000Y-103525000D03*
D13*
X60980000Y-93345000D03*
X63480000Y-93345000D03*
D12*
X44196000Y-104160000D03*
X44196000Y-106660000D03*
D14*
X80010000Y-60788300D03*
X80010000Y-56788300D03*
X38735000Y-71025000D03*
X38735000Y-75025000D03*
D15*
X46456600Y-119354600D03*
D16*
X47726600Y-119354600D03*
X48996600Y-119354600D03*
X50266600Y-119354600D03*
D17*
X59722000Y-57658000D03*
X63722000Y-57658000D03*
D10*
X80500000Y-70940000D03*
D11*
X80500000Y-73480000D03*
X80500000Y-76020000D03*
X80500000Y-78560000D03*
X80500000Y-81100000D03*
X80500000Y-83640000D03*
X80500000Y-86180000D03*
X80500000Y-88720000D03*
X80500000Y-91260000D03*
X80500000Y-93800000D03*
D10*
X32540000Y-81910000D03*
D11*
X32540000Y-84450000D03*
X32540000Y-86990000D03*
X32540000Y-89530000D03*
X32540000Y-92070000D03*
X32540000Y-94610000D03*
X32540000Y-97150000D03*
X32540000Y-99690000D03*
D18*
X73955000Y-60525000D03*
X69555000Y-60525000D03*
D10*
X32540000Y-104800000D03*
D11*
X32540000Y-107340000D03*
X32540000Y-109880000D03*
X32540000Y-112420000D03*
X32540000Y-114960000D03*
X32540000Y-117500000D03*
D19*
X32842200Y-62865000D03*
D20*
X32842200Y-65405000D03*
D21*
X35382200Y-65405000D03*
X35382200Y-62865000D03*
D19*
X32842200Y-70827900D03*
D20*
X32842200Y-73367900D03*
D21*
X35382200Y-73367900D03*
X35382200Y-70827900D03*
D10*
X60325000Y-83185000D03*
D11*
X60325000Y-85725000D03*
X57785000Y-83185000D03*
X57785000Y-85725000D03*
X55245000Y-83185000D03*
X55245000Y-85725000D03*
D10*
X53975000Y-115570000D03*
D11*
X56515000Y-115570000D03*
X53975000Y-118110000D03*
X56515000Y-118110000D03*
X53975000Y-120650000D03*
X56515000Y-120650000D03*
D10*
X35560000Y-57150000D03*
D11*
X38100000Y-57150000D03*
D22*
X41590000Y-114530000D03*
X39690000Y-114530000D03*
X40640000Y-111530000D03*
D23*
X36714300Y-105496400D03*
X36714300Y-103596400D03*
X39714300Y-104546400D03*
D22*
X55742800Y-89940000D03*
X57642800Y-89940000D03*
X56692800Y-92940000D03*
X35245000Y-78510000D03*
X37145000Y-78510000D03*
X36195000Y-81510000D03*
X35524400Y-86422100D03*
X37424400Y-86422100D03*
X36474400Y-89422100D03*
X35245000Y-93750000D03*
X37145000Y-93750000D03*
X36195000Y-96750000D03*
D24*
X62905640Y-120094760D03*
X62905640Y-116094760D03*
X67122040Y-120120160D03*
X67122040Y-116120160D03*
D25*
X76376280Y-102682040D03*
X72376280Y-102682040D03*
X76371200Y-100342700D03*
X72371200Y-100342700D03*
X76371200Y-98056700D03*
X72371200Y-98056700D03*
X76383900Y-95758000D03*
X72383900Y-95758000D03*
D24*
X66040000Y-64675000D03*
X66040000Y-68675000D03*
X71379080Y-119911880D03*
X71379080Y-115911880D03*
X75747880Y-119896640D03*
X75747880Y-115896640D03*
D25*
X68040000Y-71247000D03*
X64040000Y-71247000D03*
D24*
X63627000Y-68675000D03*
X63627000Y-64675000D03*
X66014600Y-75241400D03*
X66014600Y-79241400D03*
X62941200Y-79216000D03*
X62941200Y-75216000D03*
X43815000Y-114395000D03*
X43815000Y-110395000D03*
D25*
X40747700Y-107619800D03*
X36747700Y-107619800D03*
D24*
X36512500Y-110395000D03*
X36512500Y-114395000D03*
X44246800Y-86645500D03*
X44246800Y-82645500D03*
X53594000Y-93922600D03*
X53594000Y-89922600D03*
X49923700Y-93960700D03*
X49923700Y-89960700D03*
X44450000Y-92615000D03*
X44450000Y-96615000D03*
X41910000Y-84257900D03*
X41910000Y-80257900D03*
X59690000Y-120110000D03*
X59690000Y-116110000D03*
X57962800Y-65995800D03*
X57962800Y-69995800D03*
X50850800Y-111397800D03*
X50850800Y-107397800D03*
X47320200Y-111397800D03*
X47320200Y-107397800D03*
D25*
X43085000Y-99695000D03*
X47085000Y-99695000D03*
X40100000Y-99695000D03*
X36100000Y-99695000D03*
D24*
X41910000Y-94075000D03*
X41910000Y-90075000D03*
D25*
X53917600Y-79730600D03*
X49917600Y-79730600D03*
X54070000Y-76835000D03*
X50070000Y-76835000D03*
X60230000Y-61595000D03*
X64230000Y-61595000D03*
D26*
X37465000Y-120650000D03*
D27*
X40005000Y-120650000D03*
X42545000Y-120650000D03*
D28*
X70990000Y-69580000D03*
X70990000Y-69080000D03*
X70990000Y-68580000D03*
X70990000Y-68080000D03*
X70990000Y-67580000D03*
X73790000Y-67580000D03*
X73790000Y-68080000D03*
X73790000Y-68580000D03*
X73790000Y-69080000D03*
X73790000Y-69580000D03*
D29*
X72390000Y-68580000D03*
D30*
X72390000Y-69530000D03*
X72390000Y-67630000D03*
X72965000Y-68580000D03*
X71815000Y-68580000D03*
D31*
X72640000Y-70030000D03*
X72140000Y-70030000D03*
X72640000Y-67130000D03*
X72140000Y-67130000D03*
D32*
X70745000Y-74540000D03*
X75305000Y-74540000D03*
D33*
X73025000Y-80840000D03*
D34*
X46990000Y-97155000D03*
D35*
X39370000Y-79375000D03*
X46990000Y-94615000D03*
X39370000Y-81915000D03*
X46990000Y-92075000D03*
X39370000Y-84455000D03*
X46990000Y-89535000D03*
X39370000Y-86995000D03*
X46990000Y-86995000D03*
X39370000Y-89535000D03*
X46990000Y-84455000D03*
X39370000Y-92075000D03*
X46990000Y-81915000D03*
X39370000Y-94615000D03*
X46990000Y-79375000D03*
X39370000Y-97155000D03*
D36*
X47835000Y-73440000D03*
X47835000Y-72790000D03*
X47835000Y-72140000D03*
X47835000Y-71490000D03*
X47835000Y-70840000D03*
X47835000Y-70190000D03*
X47835000Y-69540000D03*
X47835000Y-68890000D03*
X47835000Y-68240000D03*
X47835000Y-67590000D03*
X47835000Y-66940000D03*
X47835000Y-66290000D03*
X47835000Y-65640000D03*
X47835000Y-64990000D03*
X55035000Y-64990000D03*
X55035000Y-65640000D03*
X55035000Y-66290000D03*
X55035000Y-66940000D03*
X55035000Y-67590000D03*
X55035000Y-68240000D03*
X55035000Y-68890000D03*
X55035000Y-69540000D03*
X55035000Y-70190000D03*
X55035000Y-70840000D03*
X55035000Y-71490000D03*
X55035000Y-72140000D03*
X55035000Y-72790000D03*
X55035000Y-73440000D03*
M02*
