%FSLAX45Y45*%
G04 Gerber Fmt 4.5, Leading zero omitted, Abs format (unit mm)*
G04 Created by KiCad (PCBNEW (5.1.5)-3) date 2023-05-21 11:01:55*
%MOMM*%
%LPD*%
G04 APERTURE LIST*
%TA.AperFunction,Profile*%
%ADD10C,0.150000*%
%TD*%
%ADD11C,0.200000*%
%ADD12C,0.300000*%
G04 APERTURE END LIST*
D10*
X3000000Y-5500000D02*
X3000000Y-12300000D01*
X8300000Y-5500000D02*
X3000000Y-5500000D01*
X8300000Y-12300000D02*
X8300000Y-5500000D01*
X3000000Y-12300000D02*
X8300000Y-12300000D01*
D11*
X6910500Y-6007500D02*
X7000500Y-6097500D01*
X7000500Y-6007500D02*
X6910500Y-6097500D01*
X7350500Y-6007500D02*
X7440500Y-6097500D01*
X7440500Y-6007500D02*
X7350500Y-6097500D01*
X3593220Y-7082790D02*
G75*
G03X3593220Y-7082790I-55000J0D01*
G01*
X3593220Y-7336790D02*
G75*
G03X3593220Y-7336790I-55000J0D01*
G01*
X3593220Y-6286500D02*
G75*
G03X3593220Y-6286500I-55000J0D01*
G01*
X3593220Y-6540500D02*
G75*
G03X3593220Y-6540500I-55000J0D01*
G01*
D12*
X3278928Y-12773214D02*
X3278928Y-12473214D01*
X3350357Y-12473214D01*
X3393214Y-12487500D01*
X3421786Y-12516071D01*
X3436071Y-12544643D01*
X3450357Y-12601786D01*
X3450357Y-12644643D01*
X3436071Y-12701786D01*
X3421786Y-12730357D01*
X3393214Y-12758929D01*
X3350357Y-12773214D01*
X3278928Y-12773214D01*
X3578928Y-12773214D02*
X3578928Y-12573214D01*
X3578928Y-12630357D02*
X3593214Y-12601786D01*
X3607500Y-12587500D01*
X3636071Y-12573214D01*
X3664643Y-12573214D01*
X3764643Y-12773214D02*
X3764643Y-12573214D01*
X3764643Y-12473214D02*
X3750357Y-12487500D01*
X3764643Y-12501786D01*
X3778928Y-12487500D01*
X3764643Y-12473214D01*
X3764643Y-12501786D01*
X3950357Y-12773214D02*
X3921786Y-12758929D01*
X3907500Y-12730357D01*
X3907500Y-12473214D01*
X4107500Y-12773214D02*
X4078928Y-12758929D01*
X4064643Y-12730357D01*
X4064643Y-12473214D01*
X4450357Y-12773214D02*
X4450357Y-12473214D01*
X4550357Y-12687500D01*
X4650357Y-12473214D01*
X4650357Y-12773214D01*
X4921786Y-12773214D02*
X4921786Y-12616071D01*
X4907500Y-12587500D01*
X4878928Y-12573214D01*
X4821786Y-12573214D01*
X4793214Y-12587500D01*
X4921786Y-12758929D02*
X4893214Y-12773214D01*
X4821786Y-12773214D01*
X4793214Y-12758929D01*
X4778928Y-12730357D01*
X4778928Y-12701786D01*
X4793214Y-12673214D01*
X4821786Y-12658929D01*
X4893214Y-12658929D01*
X4921786Y-12644643D01*
X5064643Y-12573214D02*
X5064643Y-12873214D01*
X5064643Y-12587500D02*
X5093214Y-12573214D01*
X5150357Y-12573214D01*
X5178928Y-12587500D01*
X5193214Y-12601786D01*
X5207500Y-12630357D01*
X5207500Y-12716071D01*
X5193214Y-12744643D01*
X5178928Y-12758929D01*
X5150357Y-12773214D01*
X5093214Y-12773214D01*
X5064643Y-12758929D01*
X5336071Y-12744643D02*
X5350357Y-12758929D01*
X5336071Y-12773214D01*
X5321786Y-12758929D01*
X5336071Y-12744643D01*
X5336071Y-12773214D01*
X5336071Y-12587500D02*
X5350357Y-12601786D01*
X5336071Y-12616071D01*
X5321786Y-12601786D01*
X5336071Y-12587500D01*
X5336071Y-12616071D01*
X2902500Y-13222500D02*
X2992500Y-13312500D01*
X2992500Y-13222500D02*
X2902500Y-13312500D01*
X3336071Y-13103214D02*
X3364643Y-13103214D01*
X3393214Y-13117500D01*
X3407500Y-13131786D01*
X3421786Y-13160357D01*
X3436071Y-13217500D01*
X3436071Y-13288929D01*
X3421786Y-13346071D01*
X3407500Y-13374643D01*
X3393214Y-13388929D01*
X3364643Y-13403214D01*
X3336071Y-13403214D01*
X3307500Y-13388929D01*
X3293214Y-13374643D01*
X3278928Y-13346071D01*
X3264643Y-13288929D01*
X3264643Y-13217500D01*
X3278928Y-13160357D01*
X3293214Y-13131786D01*
X3307500Y-13117500D01*
X3336071Y-13103214D01*
X3564643Y-13374643D02*
X3578928Y-13388929D01*
X3564643Y-13403214D01*
X3550357Y-13388929D01*
X3564643Y-13374643D01*
X3564643Y-13403214D01*
X3721786Y-13403214D02*
X3778928Y-13403214D01*
X3807500Y-13388929D01*
X3821786Y-13374643D01*
X3850357Y-13331786D01*
X3864643Y-13274643D01*
X3864643Y-13160357D01*
X3850357Y-13131786D01*
X3836071Y-13117500D01*
X3807500Y-13103214D01*
X3750357Y-13103214D01*
X3721786Y-13117500D01*
X3707500Y-13131786D01*
X3693214Y-13160357D01*
X3693214Y-13231786D01*
X3707500Y-13260357D01*
X3721786Y-13274643D01*
X3750357Y-13288929D01*
X3807500Y-13288929D01*
X3836071Y-13274643D01*
X3850357Y-13260357D01*
X3864643Y-13231786D01*
X4050357Y-13103214D02*
X4078928Y-13103214D01*
X4107500Y-13117500D01*
X4121786Y-13131786D01*
X4136071Y-13160357D01*
X4150357Y-13217500D01*
X4150357Y-13288929D01*
X4136071Y-13346071D01*
X4121786Y-13374643D01*
X4107500Y-13388929D01*
X4078928Y-13403214D01*
X4050357Y-13403214D01*
X4021786Y-13388929D01*
X4007500Y-13374643D01*
X3993214Y-13346071D01*
X3978928Y-13288929D01*
X3978928Y-13217500D01*
X3993214Y-13160357D01*
X4007500Y-13131786D01*
X4021786Y-13117500D01*
X4050357Y-13103214D01*
X4278928Y-13403214D02*
X4278928Y-13203214D01*
X4278928Y-13231786D02*
X4293214Y-13217500D01*
X4321786Y-13203214D01*
X4364643Y-13203214D01*
X4393214Y-13217500D01*
X4407500Y-13246071D01*
X4407500Y-13403214D01*
X4407500Y-13246071D02*
X4421786Y-13217500D01*
X4450357Y-13203214D01*
X4493214Y-13203214D01*
X4521786Y-13217500D01*
X4536071Y-13246071D01*
X4536071Y-13403214D01*
X4678928Y-13403214D02*
X4678928Y-13203214D01*
X4678928Y-13231786D02*
X4693214Y-13217500D01*
X4721786Y-13203214D01*
X4764643Y-13203214D01*
X4793214Y-13217500D01*
X4807500Y-13246071D01*
X4807500Y-13403214D01*
X4807500Y-13246071D02*
X4821786Y-13217500D01*
X4850357Y-13203214D01*
X4893214Y-13203214D01*
X4921786Y-13217500D01*
X4936071Y-13246071D01*
X4936071Y-13403214D01*
X5521786Y-13088929D02*
X5264643Y-13474643D01*
X5907500Y-13103214D02*
X5936071Y-13103214D01*
X5964643Y-13117500D01*
X5978928Y-13131786D01*
X5993214Y-13160357D01*
X6007500Y-13217500D01*
X6007500Y-13288929D01*
X5993214Y-13346071D01*
X5978928Y-13374643D01*
X5964643Y-13388929D01*
X5936071Y-13403214D01*
X5907500Y-13403214D01*
X5878928Y-13388929D01*
X5864643Y-13374643D01*
X5850357Y-13346071D01*
X5836071Y-13288929D01*
X5836071Y-13217500D01*
X5850357Y-13160357D01*
X5864643Y-13131786D01*
X5878928Y-13117500D01*
X5907500Y-13103214D01*
X6136071Y-13374643D02*
X6150357Y-13388929D01*
X6136071Y-13403214D01*
X6121786Y-13388929D01*
X6136071Y-13374643D01*
X6136071Y-13403214D01*
X6336071Y-13103214D02*
X6364643Y-13103214D01*
X6393214Y-13117500D01*
X6407500Y-13131786D01*
X6421786Y-13160357D01*
X6436071Y-13217500D01*
X6436071Y-13288929D01*
X6421786Y-13346071D01*
X6407500Y-13374643D01*
X6393214Y-13388929D01*
X6364643Y-13403214D01*
X6336071Y-13403214D01*
X6307500Y-13388929D01*
X6293214Y-13374643D01*
X6278928Y-13346071D01*
X6264643Y-13288929D01*
X6264643Y-13217500D01*
X6278928Y-13160357D01*
X6293214Y-13131786D01*
X6307500Y-13117500D01*
X6336071Y-13103214D01*
X6536071Y-13103214D02*
X6721786Y-13103214D01*
X6621786Y-13217500D01*
X6664643Y-13217500D01*
X6693214Y-13231786D01*
X6707500Y-13246071D01*
X6721786Y-13274643D01*
X6721786Y-13346071D01*
X6707500Y-13374643D01*
X6693214Y-13388929D01*
X6664643Y-13403214D01*
X6578928Y-13403214D01*
X6550357Y-13388929D01*
X6536071Y-13374643D01*
X6993214Y-13103214D02*
X6850357Y-13103214D01*
X6836071Y-13246071D01*
X6850357Y-13231786D01*
X6878928Y-13217500D01*
X6950357Y-13217500D01*
X6978928Y-13231786D01*
X6993214Y-13246071D01*
X7007500Y-13274643D01*
X7007500Y-13346071D01*
X6993214Y-13374643D01*
X6978928Y-13388929D01*
X6950357Y-13403214D01*
X6878928Y-13403214D01*
X6850357Y-13388929D01*
X6836071Y-13374643D01*
X7121786Y-13103214D02*
X7121786Y-13160357D01*
X7236071Y-13103214D02*
X7236071Y-13160357D01*
X7678928Y-13517500D02*
X7664643Y-13503214D01*
X7636071Y-13460357D01*
X7621786Y-13431786D01*
X7607500Y-13388929D01*
X7593214Y-13317500D01*
X7593214Y-13260357D01*
X7607500Y-13188929D01*
X7621786Y-13146071D01*
X7636071Y-13117500D01*
X7664643Y-13074643D01*
X7678928Y-13060357D01*
X7778928Y-13131786D02*
X7793214Y-13117500D01*
X7821786Y-13103214D01*
X7893214Y-13103214D01*
X7921786Y-13117500D01*
X7936071Y-13131786D01*
X7950357Y-13160357D01*
X7950357Y-13188929D01*
X7936071Y-13231786D01*
X7764643Y-13403214D01*
X7950357Y-13403214D01*
X8307500Y-13403214D02*
X8307500Y-13103214D01*
X8436071Y-13403214D02*
X8436071Y-13246071D01*
X8421786Y-13217500D01*
X8393214Y-13203214D01*
X8350357Y-13203214D01*
X8321786Y-13217500D01*
X8307500Y-13231786D01*
X8621786Y-13403214D02*
X8593214Y-13388929D01*
X8578928Y-13374643D01*
X8564643Y-13346071D01*
X8564643Y-13260357D01*
X8578928Y-13231786D01*
X8593214Y-13217500D01*
X8621786Y-13203214D01*
X8664643Y-13203214D01*
X8693214Y-13217500D01*
X8707500Y-13231786D01*
X8721786Y-13260357D01*
X8721786Y-13346071D01*
X8707500Y-13374643D01*
X8693214Y-13388929D01*
X8664643Y-13403214D01*
X8621786Y-13403214D01*
X8893214Y-13403214D02*
X8864643Y-13388929D01*
X8850357Y-13360357D01*
X8850357Y-13103214D01*
X9121786Y-13388929D02*
X9093214Y-13403214D01*
X9036071Y-13403214D01*
X9007500Y-13388929D01*
X8993214Y-13360357D01*
X8993214Y-13246071D01*
X9007500Y-13217500D01*
X9036071Y-13203214D01*
X9093214Y-13203214D01*
X9121786Y-13217500D01*
X9136071Y-13246071D01*
X9136071Y-13274643D01*
X8993214Y-13303214D01*
X9250357Y-13388929D02*
X9278928Y-13403214D01*
X9336071Y-13403214D01*
X9364643Y-13388929D01*
X9378928Y-13360357D01*
X9378928Y-13346071D01*
X9364643Y-13317500D01*
X9336071Y-13303214D01*
X9293214Y-13303214D01*
X9264643Y-13288929D01*
X9250357Y-13260357D01*
X9250357Y-13246071D01*
X9264643Y-13217500D01*
X9293214Y-13203214D01*
X9336071Y-13203214D01*
X9364643Y-13217500D01*
X9478928Y-13517500D02*
X9493214Y-13503214D01*
X9521786Y-13460357D01*
X9536071Y-13431786D01*
X9550357Y-13388929D01*
X9564643Y-13317500D01*
X9564643Y-13260357D01*
X9550357Y-13188929D01*
X9536071Y-13146071D01*
X9521786Y-13117500D01*
X9493214Y-13074643D01*
X9478928Y-13060357D01*
X10021786Y-13517500D02*
X10007500Y-13503214D01*
X9978928Y-13460357D01*
X9964643Y-13431786D01*
X9950357Y-13388929D01*
X9936071Y-13317500D01*
X9936071Y-13260357D01*
X9950357Y-13188929D01*
X9964643Y-13146071D01*
X9978928Y-13117500D01*
X10007500Y-13074643D01*
X10021786Y-13060357D01*
X10136071Y-13203214D02*
X10136071Y-13403214D01*
X10136071Y-13231786D02*
X10150357Y-13217500D01*
X10178928Y-13203214D01*
X10221786Y-13203214D01*
X10250357Y-13217500D01*
X10264643Y-13246071D01*
X10264643Y-13403214D01*
X10450357Y-13403214D02*
X10421786Y-13388929D01*
X10407500Y-13374643D01*
X10393214Y-13346071D01*
X10393214Y-13260357D01*
X10407500Y-13231786D01*
X10421786Y-13217500D01*
X10450357Y-13203214D01*
X10493214Y-13203214D01*
X10521786Y-13217500D01*
X10536071Y-13231786D01*
X10550357Y-13260357D01*
X10550357Y-13346071D01*
X10536071Y-13374643D01*
X10521786Y-13388929D01*
X10493214Y-13403214D01*
X10450357Y-13403214D01*
X10636071Y-13203214D02*
X10750357Y-13203214D01*
X10678928Y-13103214D02*
X10678928Y-13360357D01*
X10693214Y-13388929D01*
X10721786Y-13403214D01*
X10750357Y-13403214D01*
X11078928Y-13203214D02*
X11078928Y-13503214D01*
X11078928Y-13217500D02*
X11107500Y-13203214D01*
X11164643Y-13203214D01*
X11193214Y-13217500D01*
X11207500Y-13231786D01*
X11221786Y-13260357D01*
X11221786Y-13346071D01*
X11207500Y-13374643D01*
X11193214Y-13388929D01*
X11164643Y-13403214D01*
X11107500Y-13403214D01*
X11078928Y-13388929D01*
X11393214Y-13403214D02*
X11364643Y-13388929D01*
X11350357Y-13360357D01*
X11350357Y-13103214D01*
X11636071Y-13403214D02*
X11636071Y-13246071D01*
X11621786Y-13217500D01*
X11593214Y-13203214D01*
X11536071Y-13203214D01*
X11507500Y-13217500D01*
X11636071Y-13388929D02*
X11607500Y-13403214D01*
X11536071Y-13403214D01*
X11507500Y-13388929D01*
X11493214Y-13360357D01*
X11493214Y-13331786D01*
X11507500Y-13303214D01*
X11536071Y-13288929D01*
X11607500Y-13288929D01*
X11636071Y-13274643D01*
X11736071Y-13203214D02*
X11850357Y-13203214D01*
X11778928Y-13103214D02*
X11778928Y-13360357D01*
X11793214Y-13388929D01*
X11821786Y-13403214D01*
X11850357Y-13403214D01*
X12064643Y-13388929D02*
X12036071Y-13403214D01*
X11978928Y-13403214D01*
X11950357Y-13388929D01*
X11936071Y-13360357D01*
X11936071Y-13246071D01*
X11950357Y-13217500D01*
X11978928Y-13203214D01*
X12036071Y-13203214D01*
X12064643Y-13217500D01*
X12078928Y-13246071D01*
X12078928Y-13274643D01*
X11936071Y-13303214D01*
X12336071Y-13403214D02*
X12336071Y-13103214D01*
X12336071Y-13388929D02*
X12307500Y-13403214D01*
X12250357Y-13403214D01*
X12221786Y-13388929D01*
X12207500Y-13374643D01*
X12193214Y-13346071D01*
X12193214Y-13260357D01*
X12207500Y-13231786D01*
X12221786Y-13217500D01*
X12250357Y-13203214D01*
X12307500Y-13203214D01*
X12336071Y-13217500D01*
X12450357Y-13517500D02*
X12464643Y-13503214D01*
X12493214Y-13460357D01*
X12507500Y-13431786D01*
X12521786Y-13388929D01*
X12536071Y-13317500D01*
X12536071Y-13260357D01*
X12521786Y-13188929D01*
X12507500Y-13146071D01*
X12493214Y-13117500D01*
X12464643Y-13074643D01*
X12450357Y-13060357D01*
X2992500Y-13663500D02*
G75*
G03X2992500Y-13663500I-55000J0D01*
G01*
X3436071Y-13799214D02*
X3264643Y-13799214D01*
X3350357Y-13799214D02*
X3350357Y-13499214D01*
X3321786Y-13542071D01*
X3293214Y-13570643D01*
X3264643Y-13584929D01*
X3564643Y-13770643D02*
X3578928Y-13784929D01*
X3564643Y-13799214D01*
X3550357Y-13784929D01*
X3564643Y-13770643D01*
X3564643Y-13799214D01*
X3864643Y-13799214D02*
X3693214Y-13799214D01*
X3778928Y-13799214D02*
X3778928Y-13499214D01*
X3750357Y-13542071D01*
X3721786Y-13570643D01*
X3693214Y-13584929D01*
X4050357Y-13499214D02*
X4078928Y-13499214D01*
X4107500Y-13513500D01*
X4121786Y-13527786D01*
X4136071Y-13556357D01*
X4150357Y-13613500D01*
X4150357Y-13684929D01*
X4136071Y-13742071D01*
X4121786Y-13770643D01*
X4107500Y-13784929D01*
X4078928Y-13799214D01*
X4050357Y-13799214D01*
X4021786Y-13784929D01*
X4007500Y-13770643D01*
X3993214Y-13742071D01*
X3978928Y-13684929D01*
X3978928Y-13613500D01*
X3993214Y-13556357D01*
X4007500Y-13527786D01*
X4021786Y-13513500D01*
X4050357Y-13499214D01*
X4278928Y-13799214D02*
X4278928Y-13599214D01*
X4278928Y-13627786D02*
X4293214Y-13613500D01*
X4321786Y-13599214D01*
X4364643Y-13599214D01*
X4393214Y-13613500D01*
X4407500Y-13642071D01*
X4407500Y-13799214D01*
X4407500Y-13642071D02*
X4421786Y-13613500D01*
X4450357Y-13599214D01*
X4493214Y-13599214D01*
X4521786Y-13613500D01*
X4536071Y-13642071D01*
X4536071Y-13799214D01*
X4678928Y-13799214D02*
X4678928Y-13599214D01*
X4678928Y-13627786D02*
X4693214Y-13613500D01*
X4721786Y-13599214D01*
X4764643Y-13599214D01*
X4793214Y-13613500D01*
X4807500Y-13642071D01*
X4807500Y-13799214D01*
X4807500Y-13642071D02*
X4821786Y-13613500D01*
X4850357Y-13599214D01*
X4893214Y-13599214D01*
X4921786Y-13613500D01*
X4936071Y-13642071D01*
X4936071Y-13799214D01*
X5521786Y-13484929D02*
X5264643Y-13870643D01*
X5907500Y-13499214D02*
X5936071Y-13499214D01*
X5964643Y-13513500D01*
X5978928Y-13527786D01*
X5993214Y-13556357D01*
X6007500Y-13613500D01*
X6007500Y-13684929D01*
X5993214Y-13742071D01*
X5978928Y-13770643D01*
X5964643Y-13784929D01*
X5936071Y-13799214D01*
X5907500Y-13799214D01*
X5878928Y-13784929D01*
X5864643Y-13770643D01*
X5850357Y-13742071D01*
X5836071Y-13684929D01*
X5836071Y-13613500D01*
X5850357Y-13556357D01*
X5864643Y-13527786D01*
X5878928Y-13513500D01*
X5907500Y-13499214D01*
X6136071Y-13770643D02*
X6150357Y-13784929D01*
X6136071Y-13799214D01*
X6121786Y-13784929D01*
X6136071Y-13770643D01*
X6136071Y-13799214D01*
X6336071Y-13499214D02*
X6364643Y-13499214D01*
X6393214Y-13513500D01*
X6407500Y-13527786D01*
X6421786Y-13556357D01*
X6436071Y-13613500D01*
X6436071Y-13684929D01*
X6421786Y-13742071D01*
X6407500Y-13770643D01*
X6393214Y-13784929D01*
X6364643Y-13799214D01*
X6336071Y-13799214D01*
X6307500Y-13784929D01*
X6293214Y-13770643D01*
X6278928Y-13742071D01*
X6264643Y-13684929D01*
X6264643Y-13613500D01*
X6278928Y-13556357D01*
X6293214Y-13527786D01*
X6307500Y-13513500D01*
X6336071Y-13499214D01*
X6693214Y-13599214D02*
X6693214Y-13799214D01*
X6621786Y-13484929D02*
X6550357Y-13699214D01*
X6736071Y-13699214D01*
X6821786Y-13499214D02*
X7007500Y-13499214D01*
X6907500Y-13613500D01*
X6950357Y-13613500D01*
X6978928Y-13627786D01*
X6993214Y-13642071D01*
X7007500Y-13670643D01*
X7007500Y-13742071D01*
X6993214Y-13770643D01*
X6978928Y-13784929D01*
X6950357Y-13799214D01*
X6864643Y-13799214D01*
X6836071Y-13784929D01*
X6821786Y-13770643D01*
X7121786Y-13499214D02*
X7121786Y-13556357D01*
X7236071Y-13499214D02*
X7236071Y-13556357D01*
X7678928Y-13913500D02*
X7664643Y-13899214D01*
X7636071Y-13856357D01*
X7621786Y-13827786D01*
X7607500Y-13784929D01*
X7593214Y-13713500D01*
X7593214Y-13656357D01*
X7607500Y-13584929D01*
X7621786Y-13542071D01*
X7636071Y-13513500D01*
X7664643Y-13470643D01*
X7678928Y-13456357D01*
X7921786Y-13599214D02*
X7921786Y-13799214D01*
X7850357Y-13484929D02*
X7778928Y-13699214D01*
X7964643Y-13699214D01*
X8307500Y-13799214D02*
X8307500Y-13499214D01*
X8436071Y-13799214D02*
X8436071Y-13642071D01*
X8421786Y-13613500D01*
X8393214Y-13599214D01*
X8350357Y-13599214D01*
X8321786Y-13613500D01*
X8307500Y-13627786D01*
X8621786Y-13799214D02*
X8593214Y-13784929D01*
X8578928Y-13770643D01*
X8564643Y-13742071D01*
X8564643Y-13656357D01*
X8578928Y-13627786D01*
X8593214Y-13613500D01*
X8621786Y-13599214D01*
X8664643Y-13599214D01*
X8693214Y-13613500D01*
X8707500Y-13627786D01*
X8721786Y-13656357D01*
X8721786Y-13742071D01*
X8707500Y-13770643D01*
X8693214Y-13784929D01*
X8664643Y-13799214D01*
X8621786Y-13799214D01*
X8893214Y-13799214D02*
X8864643Y-13784929D01*
X8850357Y-13756357D01*
X8850357Y-13499214D01*
X9121786Y-13784929D02*
X9093214Y-13799214D01*
X9036071Y-13799214D01*
X9007500Y-13784929D01*
X8993214Y-13756357D01*
X8993214Y-13642071D01*
X9007500Y-13613500D01*
X9036071Y-13599214D01*
X9093214Y-13599214D01*
X9121786Y-13613500D01*
X9136071Y-13642071D01*
X9136071Y-13670643D01*
X8993214Y-13699214D01*
X9250357Y-13784929D02*
X9278928Y-13799214D01*
X9336071Y-13799214D01*
X9364643Y-13784929D01*
X9378928Y-13756357D01*
X9378928Y-13742071D01*
X9364643Y-13713500D01*
X9336071Y-13699214D01*
X9293214Y-13699214D01*
X9264643Y-13684929D01*
X9250357Y-13656357D01*
X9250357Y-13642071D01*
X9264643Y-13613500D01*
X9293214Y-13599214D01*
X9336071Y-13599214D01*
X9364643Y-13613500D01*
X9478928Y-13913500D02*
X9493214Y-13899214D01*
X9521786Y-13856357D01*
X9536071Y-13827786D01*
X9550357Y-13784929D01*
X9564643Y-13713500D01*
X9564643Y-13656357D01*
X9550357Y-13584929D01*
X9536071Y-13542071D01*
X9521786Y-13513500D01*
X9493214Y-13470643D01*
X9478928Y-13456357D01*
X10021786Y-13913500D02*
X10007500Y-13899214D01*
X9978928Y-13856357D01*
X9964643Y-13827786D01*
X9950357Y-13784929D01*
X9936071Y-13713500D01*
X9936071Y-13656357D01*
X9950357Y-13584929D01*
X9964643Y-13542071D01*
X9978928Y-13513500D01*
X10007500Y-13470643D01*
X10021786Y-13456357D01*
X10136071Y-13599214D02*
X10136071Y-13799214D01*
X10136071Y-13627786D02*
X10150357Y-13613500D01*
X10178928Y-13599214D01*
X10221786Y-13599214D01*
X10250357Y-13613500D01*
X10264643Y-13642071D01*
X10264643Y-13799214D01*
X10450357Y-13799214D02*
X10421786Y-13784929D01*
X10407500Y-13770643D01*
X10393214Y-13742071D01*
X10393214Y-13656357D01*
X10407500Y-13627786D01*
X10421786Y-13613500D01*
X10450357Y-13599214D01*
X10493214Y-13599214D01*
X10521786Y-13613500D01*
X10536071Y-13627786D01*
X10550357Y-13656357D01*
X10550357Y-13742071D01*
X10536071Y-13770643D01*
X10521786Y-13784929D01*
X10493214Y-13799214D01*
X10450357Y-13799214D01*
X10636071Y-13599214D02*
X10750357Y-13599214D01*
X10678928Y-13499214D02*
X10678928Y-13756357D01*
X10693214Y-13784929D01*
X10721786Y-13799214D01*
X10750357Y-13799214D01*
X11078928Y-13599214D02*
X11078928Y-13899214D01*
X11078928Y-13613500D02*
X11107500Y-13599214D01*
X11164643Y-13599214D01*
X11193214Y-13613500D01*
X11207500Y-13627786D01*
X11221786Y-13656357D01*
X11221786Y-13742071D01*
X11207500Y-13770643D01*
X11193214Y-13784929D01*
X11164643Y-13799214D01*
X11107500Y-13799214D01*
X11078928Y-13784929D01*
X11393214Y-13799214D02*
X11364643Y-13784929D01*
X11350357Y-13756357D01*
X11350357Y-13499214D01*
X11636071Y-13799214D02*
X11636071Y-13642071D01*
X11621786Y-13613500D01*
X11593214Y-13599214D01*
X11536071Y-13599214D01*
X11507500Y-13613500D01*
X11636071Y-13784929D02*
X11607500Y-13799214D01*
X11536071Y-13799214D01*
X11507500Y-13784929D01*
X11493214Y-13756357D01*
X11493214Y-13727786D01*
X11507500Y-13699214D01*
X11536071Y-13684929D01*
X11607500Y-13684929D01*
X11636071Y-13670643D01*
X11736071Y-13599214D02*
X11850357Y-13599214D01*
X11778928Y-13499214D02*
X11778928Y-13756357D01*
X11793214Y-13784929D01*
X11821786Y-13799214D01*
X11850357Y-13799214D01*
X12064643Y-13784929D02*
X12036071Y-13799214D01*
X11978928Y-13799214D01*
X11950357Y-13784929D01*
X11936071Y-13756357D01*
X11936071Y-13642071D01*
X11950357Y-13613500D01*
X11978928Y-13599214D01*
X12036071Y-13599214D01*
X12064643Y-13613500D01*
X12078928Y-13642071D01*
X12078928Y-13670643D01*
X11936071Y-13699214D01*
X12336071Y-13799214D02*
X12336071Y-13499214D01*
X12336071Y-13784929D02*
X12307500Y-13799214D01*
X12250357Y-13799214D01*
X12221786Y-13784929D01*
X12207500Y-13770643D01*
X12193214Y-13742071D01*
X12193214Y-13656357D01*
X12207500Y-13627786D01*
X12221786Y-13613500D01*
X12250357Y-13599214D01*
X12307500Y-13599214D01*
X12336071Y-13613500D01*
X12450357Y-13913500D02*
X12464643Y-13899214D01*
X12493214Y-13856357D01*
X12507500Y-13827786D01*
X12521786Y-13784929D01*
X12536071Y-13713500D01*
X12536071Y-13656357D01*
X12521786Y-13584929D01*
X12507500Y-13542071D01*
X12493214Y-13513500D01*
X12464643Y-13470643D01*
X12450357Y-13456357D01*
M02*
