%FSLAX45Y45*%
G04 Gerber Fmt 4.5, Leading zero omitted, Abs format (unit mm)*
G04 Created by KiCad (PCBNEW (5.1.5)-3) date 2022-12-25 19:53:28*
%MOMM*%
%LPD*%
G04 APERTURE LIST*
%TA.AperFunction,Profile*%
%ADD10C,0.100000*%
%TD*%
%ADD11C,0.200000*%
%ADD12C,0.300000*%
G04 APERTURE END LIST*
D10*
X6667500Y-8763000D02*
X10541000Y-8763000D01*
X10541000Y-8763000D02*
X10541000Y-11176000D01*
X6667500Y-11176000D02*
X6667500Y-8763000D01*
X10541000Y-11176000D02*
X6667500Y-11176000D01*
D11*
X9973000Y-9084000D02*
X10093000Y-9204000D01*
X10093000Y-9084000D02*
X9973000Y-9204000D01*
X9973000Y-9434000D02*
X10093000Y-9554000D01*
X10093000Y-9434000D02*
X9973000Y-9554000D01*
X9973000Y-10290500D02*
X10093000Y-10410500D01*
X10093000Y-10290500D02*
X9973000Y-10410500D01*
X9973000Y-10640500D02*
X10093000Y-10760500D01*
X10093000Y-10640500D02*
X9973000Y-10760500D01*
D12*
X6948928Y-11646714D02*
X6948928Y-11346714D01*
X7020357Y-11346714D01*
X7063214Y-11361000D01*
X7091786Y-11389571D01*
X7106071Y-11418143D01*
X7120357Y-11475286D01*
X7120357Y-11518143D01*
X7106071Y-11575286D01*
X7091786Y-11603857D01*
X7063214Y-11632429D01*
X7020357Y-11646714D01*
X6948928Y-11646714D01*
X7248928Y-11646714D02*
X7248928Y-11446714D01*
X7248928Y-11503857D02*
X7263214Y-11475286D01*
X7277500Y-11461000D01*
X7306071Y-11446714D01*
X7334643Y-11446714D01*
X7434643Y-11646714D02*
X7434643Y-11446714D01*
X7434643Y-11346714D02*
X7420357Y-11361000D01*
X7434643Y-11375286D01*
X7448928Y-11361000D01*
X7434643Y-11346714D01*
X7434643Y-11375286D01*
X7620357Y-11646714D02*
X7591786Y-11632429D01*
X7577500Y-11603857D01*
X7577500Y-11346714D01*
X7777500Y-11646714D02*
X7748928Y-11632429D01*
X7734643Y-11603857D01*
X7734643Y-11346714D01*
X8120357Y-11646714D02*
X8120357Y-11346714D01*
X8220357Y-11561000D01*
X8320357Y-11346714D01*
X8320357Y-11646714D01*
X8591786Y-11646714D02*
X8591786Y-11489571D01*
X8577500Y-11461000D01*
X8548928Y-11446714D01*
X8491786Y-11446714D01*
X8463214Y-11461000D01*
X8591786Y-11632429D02*
X8563214Y-11646714D01*
X8491786Y-11646714D01*
X8463214Y-11632429D01*
X8448928Y-11603857D01*
X8448928Y-11575286D01*
X8463214Y-11546714D01*
X8491786Y-11532429D01*
X8563214Y-11532429D01*
X8591786Y-11518143D01*
X8734643Y-11446714D02*
X8734643Y-11746714D01*
X8734643Y-11461000D02*
X8763214Y-11446714D01*
X8820357Y-11446714D01*
X8848928Y-11461000D01*
X8863214Y-11475286D01*
X8877500Y-11503857D01*
X8877500Y-11589571D01*
X8863214Y-11618143D01*
X8848928Y-11632429D01*
X8820357Y-11646714D01*
X8763214Y-11646714D01*
X8734643Y-11632429D01*
X9006071Y-11618143D02*
X9020357Y-11632429D01*
X9006071Y-11646714D01*
X8991786Y-11632429D01*
X9006071Y-11618143D01*
X9006071Y-11646714D01*
X9006071Y-11461000D02*
X9020357Y-11475286D01*
X9006071Y-11489571D01*
X8991786Y-11475286D01*
X9006071Y-11461000D01*
X9006071Y-11489571D01*
X6542500Y-12081000D02*
X6662500Y-12201000D01*
X6662500Y-12081000D02*
X6542500Y-12201000D01*
X7106071Y-12276714D02*
X6934643Y-12276714D01*
X7020357Y-12276714D02*
X7020357Y-11976714D01*
X6991786Y-12019571D01*
X6963214Y-12048143D01*
X6934643Y-12062429D01*
X7234643Y-12248143D02*
X7248928Y-12262429D01*
X7234643Y-12276714D01*
X7220357Y-12262429D01*
X7234643Y-12248143D01*
X7234643Y-12276714D01*
X7363214Y-12005286D02*
X7377500Y-11991000D01*
X7406071Y-11976714D01*
X7477500Y-11976714D01*
X7506071Y-11991000D01*
X7520357Y-12005286D01*
X7534643Y-12033857D01*
X7534643Y-12062429D01*
X7520357Y-12105286D01*
X7348928Y-12276714D01*
X7534643Y-12276714D01*
X7720357Y-11976714D02*
X7748928Y-11976714D01*
X7777500Y-11991000D01*
X7791786Y-12005286D01*
X7806071Y-12033857D01*
X7820357Y-12091000D01*
X7820357Y-12162429D01*
X7806071Y-12219571D01*
X7791786Y-12248143D01*
X7777500Y-12262429D01*
X7748928Y-12276714D01*
X7720357Y-12276714D01*
X7691786Y-12262429D01*
X7677500Y-12248143D01*
X7663214Y-12219571D01*
X7648928Y-12162429D01*
X7648928Y-12091000D01*
X7663214Y-12033857D01*
X7677500Y-12005286D01*
X7691786Y-11991000D01*
X7720357Y-11976714D01*
X7948928Y-12276714D02*
X7948928Y-12076714D01*
X7948928Y-12105286D02*
X7963214Y-12091000D01*
X7991786Y-12076714D01*
X8034643Y-12076714D01*
X8063214Y-12091000D01*
X8077500Y-12119571D01*
X8077500Y-12276714D01*
X8077500Y-12119571D02*
X8091786Y-12091000D01*
X8120357Y-12076714D01*
X8163214Y-12076714D01*
X8191786Y-12091000D01*
X8206071Y-12119571D01*
X8206071Y-12276714D01*
X8348928Y-12276714D02*
X8348928Y-12076714D01*
X8348928Y-12105286D02*
X8363214Y-12091000D01*
X8391786Y-12076714D01*
X8434643Y-12076714D01*
X8463214Y-12091000D01*
X8477500Y-12119571D01*
X8477500Y-12276714D01*
X8477500Y-12119571D02*
X8491786Y-12091000D01*
X8520357Y-12076714D01*
X8563214Y-12076714D01*
X8591786Y-12091000D01*
X8606071Y-12119571D01*
X8606071Y-12276714D01*
X9191786Y-11962429D02*
X8934643Y-12348143D01*
X9577500Y-11976714D02*
X9606071Y-11976714D01*
X9634643Y-11991000D01*
X9648928Y-12005286D01*
X9663214Y-12033857D01*
X9677500Y-12091000D01*
X9677500Y-12162429D01*
X9663214Y-12219571D01*
X9648928Y-12248143D01*
X9634643Y-12262429D01*
X9606071Y-12276714D01*
X9577500Y-12276714D01*
X9548928Y-12262429D01*
X9534643Y-12248143D01*
X9520357Y-12219571D01*
X9506071Y-12162429D01*
X9506071Y-12091000D01*
X9520357Y-12033857D01*
X9534643Y-12005286D01*
X9548928Y-11991000D01*
X9577500Y-11976714D01*
X9806071Y-12248143D02*
X9820357Y-12262429D01*
X9806071Y-12276714D01*
X9791786Y-12262429D01*
X9806071Y-12248143D01*
X9806071Y-12276714D01*
X10006071Y-11976714D02*
X10034643Y-11976714D01*
X10063214Y-11991000D01*
X10077500Y-12005286D01*
X10091786Y-12033857D01*
X10106071Y-12091000D01*
X10106071Y-12162429D01*
X10091786Y-12219571D01*
X10077500Y-12248143D01*
X10063214Y-12262429D01*
X10034643Y-12276714D01*
X10006071Y-12276714D01*
X9977500Y-12262429D01*
X9963214Y-12248143D01*
X9948928Y-12219571D01*
X9934643Y-12162429D01*
X9934643Y-12091000D01*
X9948928Y-12033857D01*
X9963214Y-12005286D01*
X9977500Y-11991000D01*
X10006071Y-11976714D01*
X10363214Y-12076714D02*
X10363214Y-12276714D01*
X10291786Y-11962429D02*
X10220357Y-12176714D01*
X10406071Y-12176714D01*
X10491786Y-11976714D02*
X10691786Y-11976714D01*
X10563214Y-12276714D01*
X10791786Y-11976714D02*
X10791786Y-12033857D01*
X10906071Y-11976714D02*
X10906071Y-12033857D01*
X11348928Y-12391000D02*
X11334643Y-12376714D01*
X11306071Y-12333857D01*
X11291786Y-12305286D01*
X11277500Y-12262429D01*
X11263214Y-12191000D01*
X11263214Y-12133857D01*
X11277500Y-12062429D01*
X11291786Y-12019571D01*
X11306071Y-11991000D01*
X11334643Y-11948143D01*
X11348928Y-11933857D01*
X11591786Y-12076714D02*
X11591786Y-12276714D01*
X11520357Y-11962429D02*
X11448928Y-12176714D01*
X11634643Y-12176714D01*
X11977500Y-12276714D02*
X11977500Y-11976714D01*
X12106071Y-12276714D02*
X12106071Y-12119571D01*
X12091786Y-12091000D01*
X12063214Y-12076714D01*
X12020357Y-12076714D01*
X11991786Y-12091000D01*
X11977500Y-12105286D01*
X12291786Y-12276714D02*
X12263214Y-12262429D01*
X12248928Y-12248143D01*
X12234643Y-12219571D01*
X12234643Y-12133857D01*
X12248928Y-12105286D01*
X12263214Y-12091000D01*
X12291786Y-12076714D01*
X12334643Y-12076714D01*
X12363214Y-12091000D01*
X12377500Y-12105286D01*
X12391786Y-12133857D01*
X12391786Y-12219571D01*
X12377500Y-12248143D01*
X12363214Y-12262429D01*
X12334643Y-12276714D01*
X12291786Y-12276714D01*
X12563214Y-12276714D02*
X12534643Y-12262429D01*
X12520357Y-12233857D01*
X12520357Y-11976714D01*
X12791786Y-12262429D02*
X12763214Y-12276714D01*
X12706071Y-12276714D01*
X12677500Y-12262429D01*
X12663214Y-12233857D01*
X12663214Y-12119571D01*
X12677500Y-12091000D01*
X12706071Y-12076714D01*
X12763214Y-12076714D01*
X12791786Y-12091000D01*
X12806071Y-12119571D01*
X12806071Y-12148143D01*
X12663214Y-12176714D01*
X12920357Y-12262429D02*
X12948928Y-12276714D01*
X13006071Y-12276714D01*
X13034643Y-12262429D01*
X13048928Y-12233857D01*
X13048928Y-12219571D01*
X13034643Y-12191000D01*
X13006071Y-12176714D01*
X12963214Y-12176714D01*
X12934643Y-12162429D01*
X12920357Y-12133857D01*
X12920357Y-12119571D01*
X12934643Y-12091000D01*
X12963214Y-12076714D01*
X13006071Y-12076714D01*
X13034643Y-12091000D01*
X13148928Y-12391000D02*
X13163214Y-12376714D01*
X13191786Y-12333857D01*
X13206071Y-12305286D01*
X13220357Y-12262429D01*
X13234643Y-12191000D01*
X13234643Y-12133857D01*
X13220357Y-12062429D01*
X13206071Y-12019571D01*
X13191786Y-11991000D01*
X13163214Y-11948143D01*
X13148928Y-11933857D01*
M02*
