G04 #@! TF.GenerationSoftware,KiCad,Pcbnew,(5.1.5)-3*
G04 #@! TF.CreationDate,2022-12-25T19:48:09-05:00*
G04 #@! TF.ProjectId,_autosave-Fuente_Alimentaci_n,5f617574-6f73-4617-9665-2d4675656e74,rev?*
G04 #@! TF.SameCoordinates,Original*
G04 #@! TF.FileFunction,Soldermask,Bot*
G04 #@! TF.FilePolarity,Negative*
%FSLAX46Y46*%
G04 Gerber Fmt 4.6, Leading zero omitted, Abs format (unit mm)*
G04 Created by KiCad (PCBNEW (5.1.5)-3) date 2022-12-25 19:48:09*
%MOMM*%
%LPD*%
G04 APERTURE LIST*
%ADD10C,0.100000*%
G04 APERTURE END LIST*
D10*
G36*
X101416425Y-106067760D02*
G01*
X101416428Y-106067761D01*
X101416429Y-106067761D01*
X101595693Y-106122140D01*
X101595696Y-106122142D01*
X101595697Y-106122142D01*
X101760903Y-106210446D01*
X101905712Y-106329288D01*
X102024554Y-106474097D01*
X102112858Y-106639303D01*
X102112860Y-106639307D01*
X102167239Y-106818571D01*
X102167240Y-106818575D01*
X102185601Y-107005000D01*
X102167240Y-107191425D01*
X102167239Y-107191428D01*
X102167239Y-107191429D01*
X102112860Y-107370693D01*
X102112858Y-107370696D01*
X102112858Y-107370697D01*
X102024554Y-107535903D01*
X101905712Y-107680712D01*
X101760903Y-107799554D01*
X101595697Y-107887858D01*
X101595693Y-107887860D01*
X101416429Y-107942239D01*
X101416428Y-107942239D01*
X101416425Y-107942240D01*
X101276718Y-107956000D01*
X99383282Y-107956000D01*
X99243575Y-107942240D01*
X99243572Y-107942239D01*
X99243571Y-107942239D01*
X99064307Y-107887860D01*
X99064303Y-107887858D01*
X98899097Y-107799554D01*
X98754288Y-107680712D01*
X98635446Y-107535903D01*
X98547142Y-107370697D01*
X98547142Y-107370696D01*
X98547140Y-107370693D01*
X98492761Y-107191429D01*
X98492761Y-107191428D01*
X98492760Y-107191425D01*
X98474399Y-107005000D01*
X98492760Y-106818575D01*
X98492761Y-106818571D01*
X98547140Y-106639307D01*
X98547142Y-106639303D01*
X98635446Y-106474097D01*
X98754288Y-106329288D01*
X98899097Y-106210446D01*
X99064303Y-106122142D01*
X99064304Y-106122142D01*
X99064307Y-106122140D01*
X99243571Y-106067761D01*
X99243572Y-106067761D01*
X99243575Y-106067760D01*
X99383282Y-106054000D01*
X101276718Y-106054000D01*
X101416425Y-106067760D01*
G37*
G36*
X102040915Y-102557934D02*
G01*
X102073424Y-102567795D01*
X102103382Y-102583809D01*
X102129641Y-102605359D01*
X102151191Y-102631618D01*
X102167205Y-102661576D01*
X102177066Y-102694085D01*
X102181000Y-102734029D01*
X102181000Y-104275971D01*
X102177066Y-104315915D01*
X102167205Y-104348424D01*
X102151191Y-104378382D01*
X102129641Y-104404641D01*
X102103382Y-104426191D01*
X102073424Y-104442205D01*
X102040915Y-104452066D01*
X102000971Y-104456000D01*
X98659029Y-104456000D01*
X98619085Y-104452066D01*
X98586576Y-104442205D01*
X98556618Y-104426191D01*
X98530359Y-104404641D01*
X98508809Y-104378382D01*
X98492795Y-104348424D01*
X98482934Y-104315915D01*
X98479000Y-104275971D01*
X98479000Y-102734029D01*
X98482934Y-102694085D01*
X98492795Y-102661576D01*
X98508809Y-102631618D01*
X98530359Y-102605359D01*
X98556618Y-102583809D01*
X98586576Y-102567795D01*
X98619085Y-102557934D01*
X98659029Y-102554000D01*
X102000971Y-102554000D01*
X102040915Y-102557934D01*
G37*
G36*
X101416425Y-94002760D02*
G01*
X101416428Y-94002761D01*
X101416429Y-94002761D01*
X101595693Y-94057140D01*
X101595696Y-94057142D01*
X101595697Y-94057142D01*
X101760903Y-94145446D01*
X101905712Y-94264288D01*
X102024554Y-94409097D01*
X102112858Y-94574303D01*
X102112860Y-94574307D01*
X102167239Y-94753571D01*
X102167240Y-94753575D01*
X102185601Y-94940000D01*
X102167240Y-95126425D01*
X102167239Y-95126428D01*
X102167239Y-95126429D01*
X102112860Y-95305693D01*
X102112858Y-95305696D01*
X102112858Y-95305697D01*
X102024554Y-95470903D01*
X101905712Y-95615712D01*
X101760903Y-95734554D01*
X101595697Y-95822858D01*
X101595693Y-95822860D01*
X101416429Y-95877239D01*
X101416428Y-95877239D01*
X101416425Y-95877240D01*
X101276718Y-95891000D01*
X99383282Y-95891000D01*
X99243575Y-95877240D01*
X99243572Y-95877239D01*
X99243571Y-95877239D01*
X99064307Y-95822860D01*
X99064303Y-95822858D01*
X98899097Y-95734554D01*
X98754288Y-95615712D01*
X98635446Y-95470903D01*
X98547142Y-95305697D01*
X98547142Y-95305696D01*
X98547140Y-95305693D01*
X98492761Y-95126429D01*
X98492761Y-95126428D01*
X98492760Y-95126425D01*
X98474399Y-94940000D01*
X98492760Y-94753575D01*
X98492761Y-94753571D01*
X98547140Y-94574307D01*
X98547142Y-94574303D01*
X98635446Y-94409097D01*
X98754288Y-94264288D01*
X98899097Y-94145446D01*
X99064303Y-94057142D01*
X99064304Y-94057142D01*
X99064307Y-94057140D01*
X99243571Y-94002761D01*
X99243572Y-94002761D01*
X99243575Y-94002760D01*
X99383282Y-93989000D01*
X101276718Y-93989000D01*
X101416425Y-94002760D01*
G37*
G36*
X102040915Y-90492934D02*
G01*
X102073424Y-90502795D01*
X102103382Y-90518809D01*
X102129641Y-90540359D01*
X102151191Y-90566618D01*
X102167205Y-90596576D01*
X102177066Y-90629085D01*
X102181000Y-90669029D01*
X102181000Y-92210971D01*
X102177066Y-92250915D01*
X102167205Y-92283424D01*
X102151191Y-92313382D01*
X102129641Y-92339641D01*
X102103382Y-92361191D01*
X102073424Y-92377205D01*
X102040915Y-92387066D01*
X102000971Y-92391000D01*
X98659029Y-92391000D01*
X98619085Y-92387066D01*
X98586576Y-92377205D01*
X98556618Y-92361191D01*
X98530359Y-92339641D01*
X98508809Y-92313382D01*
X98492795Y-92283424D01*
X98482934Y-92250915D01*
X98479000Y-92210971D01*
X98479000Y-90669029D01*
X98482934Y-90629085D01*
X98492795Y-90596576D01*
X98508809Y-90566618D01*
X98530359Y-90540359D01*
X98556618Y-90518809D01*
X98586576Y-90502795D01*
X98619085Y-90492934D01*
X98659029Y-90489000D01*
X102000971Y-90489000D01*
X102040915Y-90492934D01*
G37*
M02*
