G04 #@! TF.GenerationSoftware,KiCad,Pcbnew,(5.1.5)-3*
G04 #@! TF.CreationDate,2022-12-25T19:48:09-05:00*
G04 #@! TF.ProjectId,_autosave-Fuente_Alimentaci_n,5f617574-6f73-4617-9665-2d4675656e74,rev?*
G04 #@! TF.SameCoordinates,Original*
G04 #@! TF.FileFunction,Legend,Top*
G04 #@! TF.FilePolarity,Positive*
%FSLAX46Y46*%
G04 Gerber Fmt 4.6, Leading zero omitted, Abs format (unit mm)*
G04 Created by KiCad (PCBNEW (5.1.5)-3) date 2022-12-25 19:48:09*
%MOMM*%
%LPD*%
G04 APERTURE LIST*
%ADD10C,0.120000*%
%ADD11C,0.010000*%
%ADD12C,0.150000*%
G04 APERTURE END LIST*
D10*
X84085000Y-94275000D02*
X82285000Y-94275000D01*
X82285000Y-97495000D02*
X84735000Y-97495000D01*
X86920000Y-96261422D02*
X86920000Y-96778578D01*
X88340000Y-96261422D02*
X88340000Y-96778578D01*
X89460000Y-96778578D02*
X89460000Y-96261422D01*
X90880000Y-96778578D02*
X90880000Y-96261422D01*
X72195000Y-102235000D02*
X72195000Y-101855000D01*
X68145000Y-102235000D02*
X67885000Y-102235000D01*
X72195000Y-102235000D02*
X70425000Y-102235000D01*
X72195000Y-94615000D02*
X72195000Y-94995000D01*
X70425000Y-94615000D02*
X72195000Y-94615000D01*
X67885000Y-94615000D02*
X68145000Y-94615000D01*
X79751422Y-89460000D02*
X80268578Y-89460000D01*
X79751422Y-90880000D02*
X80268578Y-90880000D01*
X105080000Y-100555000D02*
X105080000Y-102555000D01*
X103830000Y-100555000D02*
X105080000Y-100555000D01*
X98080000Y-108505000D02*
X98080000Y-107755000D01*
X102380000Y-108505000D02*
X98080000Y-108505000D01*
X102380000Y-107755000D02*
X102380000Y-108505000D01*
X102730000Y-107755000D02*
X102380000Y-107755000D01*
X102730000Y-108255000D02*
X102730000Y-107755000D01*
X103730000Y-108505000D02*
X102730000Y-108255000D01*
X103730000Y-105505000D02*
X103730000Y-108505000D01*
X102730000Y-105755000D02*
X103730000Y-105505000D01*
X102730000Y-106255000D02*
X102730000Y-105755000D01*
X102380000Y-106255000D02*
X102730000Y-106255000D01*
X102380000Y-105505000D02*
X102380000Y-106255000D01*
X98080000Y-105505000D02*
X102380000Y-105505000D01*
X98080000Y-106255000D02*
X98080000Y-105505000D01*
X98080000Y-105005000D02*
X98080000Y-104255000D01*
X102380000Y-105005000D02*
X98080000Y-105005000D01*
X102380000Y-104255000D02*
X102380000Y-105005000D01*
X102730000Y-104255000D02*
X102380000Y-104255000D01*
X102730000Y-104755000D02*
X102730000Y-104255000D01*
X103730000Y-105005000D02*
X102730000Y-104755000D01*
X103730000Y-102005000D02*
X103730000Y-105005000D01*
X102730000Y-102255000D02*
X103730000Y-102005000D01*
X102730000Y-102755000D02*
X102730000Y-102255000D01*
X102380000Y-102755000D02*
X102730000Y-102755000D01*
X102380000Y-102005000D02*
X102380000Y-102755000D01*
X98080000Y-102005000D02*
X102380000Y-102005000D01*
X98080000Y-102755000D02*
X98080000Y-102005000D01*
X104690000Y-109565000D02*
X104690000Y-100945000D01*
X97220000Y-109565000D02*
X104690000Y-109565000D01*
X97220000Y-100945000D02*
X97220000Y-109565000D01*
X104690000Y-100945000D02*
X97220000Y-100945000D01*
X98080155Y-107754647D02*
G75*
G03X98080000Y-106255000I-1700155J749647D01*
G01*
X98080155Y-104254647D02*
G75*
G03X98080000Y-102755000I-1700155J749647D01*
G01*
X75210000Y-97510000D02*
X76410000Y-97510000D01*
X79730000Y-97510000D02*
X78530000Y-97510000D01*
X79730000Y-94054437D02*
X79730000Y-97510000D01*
X75210000Y-94054437D02*
X75210000Y-97510000D01*
X76274437Y-92990000D02*
X76410000Y-92990000D01*
X78665563Y-92990000D02*
X78530000Y-92990000D01*
X78665563Y-92990000D02*
X79730000Y-94054437D01*
X76274437Y-92990000D02*
X75210000Y-94054437D01*
X79030000Y-92250000D02*
X79030000Y-92750000D01*
X79280000Y-92500000D02*
X78780000Y-92500000D01*
X80220000Y-103410000D02*
X80220000Y-102910000D01*
X80470000Y-103160000D02*
X79970000Y-103160000D01*
X79730000Y-100404437D02*
X78665563Y-99340000D01*
X79730000Y-102795563D02*
X78665563Y-103860000D01*
X79730000Y-102795563D02*
X79730000Y-102660000D01*
X79730000Y-100404437D02*
X79730000Y-100540000D01*
X78665563Y-99340000D02*
X75210000Y-99340000D01*
X78665563Y-103860000D02*
X75210000Y-103860000D01*
X75210000Y-103860000D02*
X75210000Y-102660000D01*
X75210000Y-99340000D02*
X75210000Y-100540000D01*
X91085000Y-106400000D02*
X92285000Y-106400000D01*
X95605000Y-106400000D02*
X94405000Y-106400000D01*
X95605000Y-102944437D02*
X95605000Y-106400000D01*
X91085000Y-102944437D02*
X91085000Y-106400000D01*
X92149437Y-101880000D02*
X92285000Y-101880000D01*
X94540563Y-101880000D02*
X94405000Y-101880000D01*
X94540563Y-101880000D02*
X95605000Y-102944437D01*
X92149437Y-101880000D02*
X91085000Y-102944437D01*
X94905000Y-101140000D02*
X94905000Y-101640000D01*
X95155000Y-101390000D02*
X94655000Y-101390000D01*
X82960000Y-89155000D02*
X82960000Y-92455000D01*
X82960000Y-92455000D02*
X88360000Y-92455000D01*
X82960000Y-89155000D02*
X88360000Y-89155000D01*
X98080155Y-92189647D02*
G75*
G03X98080000Y-90690000I-1700155J749647D01*
G01*
X98080155Y-95689647D02*
G75*
G03X98080000Y-94190000I-1700155J749647D01*
G01*
X104690000Y-88880000D02*
X97220000Y-88880000D01*
X97220000Y-88880000D02*
X97220000Y-97500000D01*
X97220000Y-97500000D02*
X104690000Y-97500000D01*
X104690000Y-97500000D02*
X104690000Y-88880000D01*
X98080000Y-90690000D02*
X98080000Y-89940000D01*
X98080000Y-89940000D02*
X102380000Y-89940000D01*
X102380000Y-89940000D02*
X102380000Y-90690000D01*
X102380000Y-90690000D02*
X102730000Y-90690000D01*
X102730000Y-90690000D02*
X102730000Y-90190000D01*
X102730000Y-90190000D02*
X103730000Y-89940000D01*
X103730000Y-89940000D02*
X103730000Y-92940000D01*
X103730000Y-92940000D02*
X102730000Y-92690000D01*
X102730000Y-92690000D02*
X102730000Y-92190000D01*
X102730000Y-92190000D02*
X102380000Y-92190000D01*
X102380000Y-92190000D02*
X102380000Y-92940000D01*
X102380000Y-92940000D02*
X98080000Y-92940000D01*
X98080000Y-92940000D02*
X98080000Y-92190000D01*
X98080000Y-94190000D02*
X98080000Y-93440000D01*
X98080000Y-93440000D02*
X102380000Y-93440000D01*
X102380000Y-93440000D02*
X102380000Y-94190000D01*
X102380000Y-94190000D02*
X102730000Y-94190000D01*
X102730000Y-94190000D02*
X102730000Y-93690000D01*
X102730000Y-93690000D02*
X103730000Y-93440000D01*
X103730000Y-93440000D02*
X103730000Y-96440000D01*
X103730000Y-96440000D02*
X102730000Y-96190000D01*
X102730000Y-96190000D02*
X102730000Y-95690000D01*
X102730000Y-95690000D02*
X102380000Y-95690000D01*
X102380000Y-95690000D02*
X102380000Y-96440000D01*
X102380000Y-96440000D02*
X98080000Y-96440000D01*
X98080000Y-96440000D02*
X98080000Y-95690000D01*
X103830000Y-88490000D02*
X105080000Y-88490000D01*
X105080000Y-88490000D02*
X105080000Y-90490000D01*
X94690000Y-98166422D02*
X94690000Y-98683578D01*
X93270000Y-98166422D02*
X93270000Y-98683578D01*
X94690000Y-94873578D02*
X94690000Y-94356422D01*
X93270000Y-94873578D02*
X93270000Y-94356422D01*
X80220000Y-109760000D02*
X80220000Y-109260000D01*
X80470000Y-109510000D02*
X79970000Y-109510000D01*
X79730000Y-106754437D02*
X78665563Y-105690000D01*
X79730000Y-109145563D02*
X78665563Y-110210000D01*
X79730000Y-109145563D02*
X79730000Y-109010000D01*
X79730000Y-106754437D02*
X79730000Y-106890000D01*
X78665563Y-105690000D02*
X75210000Y-105690000D01*
X78665563Y-110210000D02*
X75210000Y-110210000D01*
X75210000Y-110210000D02*
X75210000Y-109010000D01*
X75210000Y-105690000D02*
X75210000Y-106890000D01*
X89175000Y-103805000D02*
X89175000Y-102305000D01*
X89175000Y-102305000D02*
X88905000Y-102305000D01*
X88905000Y-102305000D02*
X88905000Y-99475000D01*
X82275000Y-103805000D02*
X82275000Y-102305000D01*
X82275000Y-102305000D02*
X82545000Y-102305000D01*
X82545000Y-102305000D02*
X82545000Y-101205000D01*
D11*
G36*
X73022585Y-110351072D02*
G01*
X73074904Y-110354855D01*
X73109676Y-110363849D01*
X73130820Y-110380254D01*
X73142258Y-110406271D01*
X73147909Y-110444099D01*
X73149417Y-110462893D01*
X73155052Y-110540800D01*
X73090026Y-110540800D01*
X73051863Y-110540019D01*
X73032623Y-110535149D01*
X73025828Y-110522394D01*
X73025000Y-110502700D01*
X73025000Y-110464600D01*
X72947956Y-110464600D01*
X72905546Y-110465088D01*
X72882895Y-110468347D01*
X72874365Y-110477070D01*
X72874315Y-110493946D01*
X72874931Y-110499450D01*
X72879913Y-110516998D01*
X72893130Y-110533890D01*
X72918547Y-110553345D01*
X72960127Y-110578582D01*
X72999404Y-110600549D01*
X73050654Y-110629936D01*
X73094516Y-110657301D01*
X73125481Y-110679079D01*
X73136871Y-110689524D01*
X73146613Y-110715469D01*
X73150476Y-110761092D01*
X73149621Y-110811805D01*
X73146499Y-110863292D01*
X73139691Y-110899733D01*
X73125343Y-110923728D01*
X73099602Y-110937873D01*
X73058614Y-110944766D01*
X72998526Y-110947007D01*
X72948800Y-110947200D01*
X72874465Y-110946024D01*
X72822434Y-110942292D01*
X72789707Y-110935698D01*
X72777302Y-110929685D01*
X72762679Y-110911844D01*
X72753518Y-110880611D01*
X72748126Y-110830119D01*
X72747995Y-110828085D01*
X72742641Y-110744000D01*
X72885300Y-110744000D01*
X72885300Y-110832900D01*
X73026609Y-110832900D01*
X73022629Y-110791905D01*
X73019061Y-110772952D01*
X73009873Y-110756610D01*
X72991106Y-110739454D01*
X72958803Y-110718058D01*
X72909005Y-110688997D01*
X72893666Y-110680307D01*
X72842150Y-110649858D01*
X72798482Y-110621538D01*
X72767785Y-110598826D01*
X72755782Y-110586650D01*
X72749961Y-110562757D01*
X72747138Y-110522358D01*
X72747908Y-110474613D01*
X72751682Y-110427191D01*
X72759360Y-110393667D01*
X72774830Y-110371636D01*
X72801980Y-110358692D01*
X72844697Y-110352429D01*
X72906870Y-110350442D01*
X72948800Y-110350300D01*
X73022585Y-110351072D01*
G37*
X73022585Y-110351072D02*
X73074904Y-110354855D01*
X73109676Y-110363849D01*
X73130820Y-110380254D01*
X73142258Y-110406271D01*
X73147909Y-110444099D01*
X73149417Y-110462893D01*
X73155052Y-110540800D01*
X73090026Y-110540800D01*
X73051863Y-110540019D01*
X73032623Y-110535149D01*
X73025828Y-110522394D01*
X73025000Y-110502700D01*
X73025000Y-110464600D01*
X72947956Y-110464600D01*
X72905546Y-110465088D01*
X72882895Y-110468347D01*
X72874365Y-110477070D01*
X72874315Y-110493946D01*
X72874931Y-110499450D01*
X72879913Y-110516998D01*
X72893130Y-110533890D01*
X72918547Y-110553345D01*
X72960127Y-110578582D01*
X72999404Y-110600549D01*
X73050654Y-110629936D01*
X73094516Y-110657301D01*
X73125481Y-110679079D01*
X73136871Y-110689524D01*
X73146613Y-110715469D01*
X73150476Y-110761092D01*
X73149621Y-110811805D01*
X73146499Y-110863292D01*
X73139691Y-110899733D01*
X73125343Y-110923728D01*
X73099602Y-110937873D01*
X73058614Y-110944766D01*
X72998526Y-110947007D01*
X72948800Y-110947200D01*
X72874465Y-110946024D01*
X72822434Y-110942292D01*
X72789707Y-110935698D01*
X72777302Y-110929685D01*
X72762679Y-110911844D01*
X72753518Y-110880611D01*
X72748126Y-110830119D01*
X72747995Y-110828085D01*
X72742641Y-110744000D01*
X72885300Y-110744000D01*
X72885300Y-110832900D01*
X73026609Y-110832900D01*
X73022629Y-110791905D01*
X73019061Y-110772952D01*
X73009873Y-110756610D01*
X72991106Y-110739454D01*
X72958803Y-110718058D01*
X72909005Y-110688997D01*
X72893666Y-110680307D01*
X72842150Y-110649858D01*
X72798482Y-110621538D01*
X72767785Y-110598826D01*
X72755782Y-110586650D01*
X72749961Y-110562757D01*
X72747138Y-110522358D01*
X72747908Y-110474613D01*
X72751682Y-110427191D01*
X72759360Y-110393667D01*
X72774830Y-110371636D01*
X72801980Y-110358692D01*
X72844697Y-110352429D01*
X72906870Y-110350442D01*
X72948800Y-110350300D01*
X73022585Y-110351072D01*
G36*
X72224900Y-110947200D02*
G01*
X72155050Y-110947200D01*
X72111577Y-110945143D01*
X72089650Y-110938382D01*
X72085200Y-110929817D01*
X72081561Y-110920845D01*
X72067063Y-110918957D01*
X72036329Y-110924140D01*
X72012175Y-110929618D01*
X71961917Y-110940457D01*
X71927121Y-110944675D01*
X71898890Y-110942860D01*
X71878652Y-110938412D01*
X71858766Y-110929242D01*
X71843625Y-110911457D01*
X71832644Y-110882076D01*
X71825236Y-110838119D01*
X71820817Y-110776606D01*
X71818898Y-110698520D01*
X71960101Y-110698520D01*
X71960271Y-110753127D01*
X71961404Y-110793825D01*
X71963419Y-110815235D01*
X71963753Y-110816353D01*
X71977077Y-110830225D01*
X72003995Y-110830639D01*
X72045204Y-110818957D01*
X72085200Y-110805015D01*
X72085200Y-110463208D01*
X71964550Y-110470950D01*
X71960976Y-110635378D01*
X71960101Y-110698520D01*
X71818898Y-110698520D01*
X71818800Y-110694557D01*
X71818500Y-110632299D01*
X71818644Y-110542819D01*
X71820317Y-110475472D01*
X71825376Y-110426993D01*
X71835681Y-110394116D01*
X71853089Y-110373577D01*
X71879460Y-110362111D01*
X71916650Y-110356453D01*
X71966520Y-110353337D01*
X71977611Y-110352761D01*
X72085200Y-110347114D01*
X72085200Y-110020100D01*
X72224900Y-110020100D01*
X72224900Y-110947200D01*
G37*
X72224900Y-110947200D02*
X72155050Y-110947200D01*
X72111577Y-110945143D01*
X72089650Y-110938382D01*
X72085200Y-110929817D01*
X72081561Y-110920845D01*
X72067063Y-110918957D01*
X72036329Y-110924140D01*
X72012175Y-110929618D01*
X71961917Y-110940457D01*
X71927121Y-110944675D01*
X71898890Y-110942860D01*
X71878652Y-110938412D01*
X71858766Y-110929242D01*
X71843625Y-110911457D01*
X71832644Y-110882076D01*
X71825236Y-110838119D01*
X71820817Y-110776606D01*
X71818898Y-110698520D01*
X71960101Y-110698520D01*
X71960271Y-110753127D01*
X71961404Y-110793825D01*
X71963419Y-110815235D01*
X71963753Y-110816353D01*
X71977077Y-110830225D01*
X72003995Y-110830639D01*
X72045204Y-110818957D01*
X72085200Y-110805015D01*
X72085200Y-110463208D01*
X71964550Y-110470950D01*
X71960976Y-110635378D01*
X71960101Y-110698520D01*
X71818898Y-110698520D01*
X71818800Y-110694557D01*
X71818500Y-110632299D01*
X71818644Y-110542819D01*
X71820317Y-110475472D01*
X71825376Y-110426993D01*
X71835681Y-110394116D01*
X71853089Y-110373577D01*
X71879460Y-110362111D01*
X71916650Y-110356453D01*
X71966520Y-110353337D01*
X71977611Y-110352761D01*
X72085200Y-110347114D01*
X72085200Y-110020100D01*
X72224900Y-110020100D01*
X72224900Y-110947200D01*
G36*
X71511272Y-110350300D02*
G01*
X71586055Y-110350767D01*
X71639260Y-110354151D01*
X71674707Y-110363426D01*
X71696218Y-110381565D01*
X71707613Y-110411541D01*
X71712715Y-110456327D01*
X71714977Y-110508803D01*
X71716334Y-110577634D01*
X71712215Y-110625100D01*
X71699105Y-110655160D01*
X71673489Y-110671772D01*
X71631853Y-110678897D01*
X71570681Y-110680492D01*
X71562531Y-110680500D01*
X71450200Y-110680500D01*
X71450200Y-110832900D01*
X71589900Y-110832900D01*
X71589900Y-110744000D01*
X71719858Y-110744000D01*
X71714504Y-110828085D01*
X71710467Y-110873362D01*
X71702474Y-110905429D01*
X71686645Y-110926558D01*
X71659102Y-110939024D01*
X71615967Y-110945098D01*
X71553361Y-110947055D01*
X71511272Y-110947200D01*
X71445973Y-110946757D01*
X71401039Y-110944943D01*
X71371442Y-110941029D01*
X71352156Y-110934288D01*
X71338153Y-110923992D01*
X71335900Y-110921800D01*
X71327125Y-110911456D01*
X71320636Y-110898037D01*
X71316090Y-110877871D01*
X71313145Y-110847282D01*
X71311459Y-110802599D01*
X71310692Y-110740148D01*
X71310500Y-110656255D01*
X71310500Y-110648750D01*
X71310427Y-110554198D01*
X71311559Y-110482021D01*
X71312998Y-110464600D01*
X71450200Y-110464600D01*
X71450200Y-110604300D01*
X71577200Y-110604300D01*
X71577200Y-110464600D01*
X71450200Y-110464600D01*
X71312998Y-110464600D01*
X71315922Y-110429207D01*
X71325542Y-110392744D01*
X71342445Y-110369621D01*
X71368658Y-110356824D01*
X71406207Y-110351344D01*
X71457118Y-110350166D01*
X71511272Y-110350300D01*
G37*
X71511272Y-110350300D02*
X71586055Y-110350767D01*
X71639260Y-110354151D01*
X71674707Y-110363426D01*
X71696218Y-110381565D01*
X71707613Y-110411541D01*
X71712715Y-110456327D01*
X71714977Y-110508803D01*
X71716334Y-110577634D01*
X71712215Y-110625100D01*
X71699105Y-110655160D01*
X71673489Y-110671772D01*
X71631853Y-110678897D01*
X71570681Y-110680492D01*
X71562531Y-110680500D01*
X71450200Y-110680500D01*
X71450200Y-110832900D01*
X71589900Y-110832900D01*
X71589900Y-110744000D01*
X71719858Y-110744000D01*
X71714504Y-110828085D01*
X71710467Y-110873362D01*
X71702474Y-110905429D01*
X71686645Y-110926558D01*
X71659102Y-110939024D01*
X71615967Y-110945098D01*
X71553361Y-110947055D01*
X71511272Y-110947200D01*
X71445973Y-110946757D01*
X71401039Y-110944943D01*
X71371442Y-110941029D01*
X71352156Y-110934288D01*
X71338153Y-110923992D01*
X71335900Y-110921800D01*
X71327125Y-110911456D01*
X71320636Y-110898037D01*
X71316090Y-110877871D01*
X71313145Y-110847282D01*
X71311459Y-110802599D01*
X71310692Y-110740148D01*
X71310500Y-110656255D01*
X71310500Y-110648750D01*
X71310427Y-110554198D01*
X71311559Y-110482021D01*
X71312998Y-110464600D01*
X71450200Y-110464600D01*
X71450200Y-110604300D01*
X71577200Y-110604300D01*
X71577200Y-110464600D01*
X71450200Y-110464600D01*
X71312998Y-110464600D01*
X71315922Y-110429207D01*
X71325542Y-110392744D01*
X71342445Y-110369621D01*
X71368658Y-110356824D01*
X71406207Y-110351344D01*
X71457118Y-110350166D01*
X71511272Y-110350300D01*
G36*
X71188532Y-110353720D02*
G01*
X71201586Y-110363965D01*
X71210304Y-110374280D01*
X71223306Y-110396248D01*
X71230773Y-110426640D01*
X71233941Y-110472143D01*
X71234300Y-110504106D01*
X71234300Y-110604300D01*
X71094600Y-110604300D01*
X71094600Y-110533594D01*
X71093914Y-110493585D01*
X71090206Y-110473552D01*
X71080998Y-110468077D01*
X71066025Y-110471101D01*
X71032880Y-110480546D01*
X71015225Y-110485513D01*
X71007257Y-110489801D01*
X71001443Y-110499896D01*
X70997449Y-110519301D01*
X70994943Y-110551524D01*
X70993592Y-110600068D01*
X70993062Y-110668439D01*
X70993000Y-110719455D01*
X70993000Y-110947200D01*
X70853300Y-110947200D01*
X70853300Y-110350300D01*
X70922091Y-110350300D01*
X70960987Y-110352527D01*
X70987877Y-110358257D01*
X70995275Y-110363476D01*
X71009418Y-110369275D01*
X71046108Y-110367562D01*
X71092988Y-110360650D01*
X71140922Y-110352840D01*
X71170540Y-110350270D01*
X71188532Y-110353720D01*
G37*
X71188532Y-110353720D02*
X71201586Y-110363965D01*
X71210304Y-110374280D01*
X71223306Y-110396248D01*
X71230773Y-110426640D01*
X71233941Y-110472143D01*
X71234300Y-110504106D01*
X71234300Y-110604300D01*
X71094600Y-110604300D01*
X71094600Y-110533594D01*
X71093914Y-110493585D01*
X71090206Y-110473552D01*
X71080998Y-110468077D01*
X71066025Y-110471101D01*
X71032880Y-110480546D01*
X71015225Y-110485513D01*
X71007257Y-110489801D01*
X71001443Y-110499896D01*
X70997449Y-110519301D01*
X70994943Y-110551524D01*
X70993592Y-110600068D01*
X70993062Y-110668439D01*
X70993000Y-110719455D01*
X70993000Y-110947200D01*
X70853300Y-110947200D01*
X70853300Y-110350300D01*
X70922091Y-110350300D01*
X70960987Y-110352527D01*
X70987877Y-110358257D01*
X70995275Y-110363476D01*
X71009418Y-110369275D01*
X71046108Y-110367562D01*
X71092988Y-110360650D01*
X71140922Y-110352840D01*
X71170540Y-110350270D01*
X71188532Y-110353720D01*
G36*
X70802500Y-110147100D02*
G01*
X70561200Y-110147100D01*
X70561200Y-110413800D01*
X70764400Y-110413800D01*
X70764400Y-110540800D01*
X70561200Y-110540800D01*
X70561200Y-110947200D01*
X70421500Y-110947200D01*
X70421500Y-110020100D01*
X70802500Y-110020100D01*
X70802500Y-110147100D01*
G37*
X70802500Y-110147100D02*
X70561200Y-110147100D01*
X70561200Y-110413800D01*
X70764400Y-110413800D01*
X70764400Y-110540800D01*
X70561200Y-110540800D01*
X70561200Y-110947200D01*
X70421500Y-110947200D01*
X70421500Y-110020100D01*
X70802500Y-110020100D01*
X70802500Y-110147100D01*
G36*
X70319900Y-110947200D02*
G01*
X70180200Y-110947200D01*
X70180200Y-110794800D01*
X70319900Y-110794800D01*
X70319900Y-110947200D01*
G37*
X70319900Y-110947200D02*
X70180200Y-110947200D01*
X70180200Y-110794800D01*
X70319900Y-110794800D01*
X70319900Y-110947200D01*
G36*
X69811900Y-110378453D02*
G01*
X69840475Y-110371345D01*
X69867859Y-110366364D01*
X69910622Y-110360493D01*
X69952956Y-110355700D01*
X69992237Y-110352317D01*
X70022337Y-110353082D01*
X70044480Y-110360853D01*
X70059885Y-110378487D01*
X70069775Y-110408843D01*
X70075372Y-110454778D01*
X70077898Y-110519150D01*
X70078574Y-110604817D01*
X70078600Y-110649607D01*
X70078776Y-110742635D01*
X70077696Y-110813390D01*
X70072948Y-110864971D01*
X70062118Y-110900478D01*
X70042794Y-110923010D01*
X70012564Y-110935669D01*
X69969015Y-110941553D01*
X69909733Y-110943763D01*
X69848707Y-110944984D01*
X69672200Y-110949119D01*
X69672200Y-110597750D01*
X69811798Y-110597750D01*
X69811900Y-110663001D01*
X69811900Y-110834291D01*
X69872225Y-110830420D01*
X69932550Y-110826550D01*
X69936080Y-110644487D01*
X69939610Y-110462425D01*
X69897980Y-110470811D01*
X69863728Y-110477518D01*
X69839980Y-110484314D01*
X69824825Y-110495467D01*
X69816350Y-110515245D01*
X69812645Y-110547917D01*
X69811798Y-110597750D01*
X69672200Y-110597750D01*
X69672200Y-110020100D01*
X69811900Y-110020100D01*
X69811900Y-110378453D01*
G37*
X69811900Y-110378453D02*
X69840475Y-110371345D01*
X69867859Y-110366364D01*
X69910622Y-110360493D01*
X69952956Y-110355700D01*
X69992237Y-110352317D01*
X70022337Y-110353082D01*
X70044480Y-110360853D01*
X70059885Y-110378487D01*
X70069775Y-110408843D01*
X70075372Y-110454778D01*
X70077898Y-110519150D01*
X70078574Y-110604817D01*
X70078600Y-110649607D01*
X70078776Y-110742635D01*
X70077696Y-110813390D01*
X70072948Y-110864971D01*
X70062118Y-110900478D01*
X70042794Y-110923010D01*
X70012564Y-110935669D01*
X69969015Y-110941553D01*
X69909733Y-110943763D01*
X69848707Y-110944984D01*
X69672200Y-110949119D01*
X69672200Y-110597750D01*
X69811798Y-110597750D01*
X69811900Y-110663001D01*
X69811900Y-110834291D01*
X69872225Y-110830420D01*
X69932550Y-110826550D01*
X69936080Y-110644487D01*
X69939610Y-110462425D01*
X69897980Y-110470811D01*
X69863728Y-110477518D01*
X69839980Y-110484314D01*
X69824825Y-110495467D01*
X69816350Y-110515245D01*
X69812645Y-110547917D01*
X69811798Y-110597750D01*
X69672200Y-110597750D01*
X69672200Y-110020100D01*
X69811900Y-110020100D01*
X69811900Y-110378453D01*
G36*
X69065426Y-110022611D02*
G01*
X69131753Y-110026450D01*
X69180485Y-110191550D01*
X69201367Y-110262329D01*
X69222355Y-110333521D01*
X69241029Y-110396911D01*
X69254967Y-110444286D01*
X69255136Y-110444861D01*
X69270989Y-110492781D01*
X69283057Y-110515703D01*
X69290920Y-110514711D01*
X69297363Y-110497212D01*
X69309457Y-110459367D01*
X69325953Y-110405273D01*
X69345605Y-110339031D01*
X69367162Y-110264737D01*
X69369017Y-110258272D01*
X69437250Y-110020195D01*
X69503925Y-110020147D01*
X69570600Y-110020100D01*
X69570600Y-110947200D01*
X69431436Y-110947200D01*
X69424550Y-110445550D01*
X69373038Y-110648750D01*
X69353945Y-110723652D01*
X69339579Y-110777431D01*
X69328427Y-110813586D01*
X69318977Y-110835617D01*
X69309717Y-110847022D01*
X69299134Y-110851300D01*
X69285717Y-110851949D01*
X69285210Y-110851950D01*
X69271643Y-110851347D01*
X69260957Y-110847202D01*
X69251625Y-110836012D01*
X69242117Y-110814271D01*
X69230905Y-110778475D01*
X69216459Y-110725120D01*
X69197250Y-110650701D01*
X69197021Y-110649809D01*
X69145150Y-110447669D01*
X69141706Y-110697434D01*
X69138263Y-110947200D01*
X68999100Y-110947200D01*
X68999100Y-110018772D01*
X69065426Y-110022611D01*
G37*
X69065426Y-110022611D02*
X69131753Y-110026450D01*
X69180485Y-110191550D01*
X69201367Y-110262329D01*
X69222355Y-110333521D01*
X69241029Y-110396911D01*
X69254967Y-110444286D01*
X69255136Y-110444861D01*
X69270989Y-110492781D01*
X69283057Y-110515703D01*
X69290920Y-110514711D01*
X69297363Y-110497212D01*
X69309457Y-110459367D01*
X69325953Y-110405273D01*
X69345605Y-110339031D01*
X69367162Y-110264737D01*
X69369017Y-110258272D01*
X69437250Y-110020195D01*
X69503925Y-110020147D01*
X69570600Y-110020100D01*
X69570600Y-110947200D01*
X69431436Y-110947200D01*
X69424550Y-110445550D01*
X69373038Y-110648750D01*
X69353945Y-110723652D01*
X69339579Y-110777431D01*
X69328427Y-110813586D01*
X69318977Y-110835617D01*
X69309717Y-110847022D01*
X69299134Y-110851300D01*
X69285717Y-110851949D01*
X69285210Y-110851950D01*
X69271643Y-110851347D01*
X69260957Y-110847202D01*
X69251625Y-110836012D01*
X69242117Y-110814271D01*
X69230905Y-110778475D01*
X69216459Y-110725120D01*
X69197250Y-110650701D01*
X69197021Y-110649809D01*
X69145150Y-110447669D01*
X69141706Y-110697434D01*
X69138263Y-110947200D01*
X68999100Y-110947200D01*
X68999100Y-110018772D01*
X69065426Y-110022611D01*
G36*
X67957700Y-110378453D02*
G01*
X67986275Y-110371345D01*
X68013659Y-110366364D01*
X68056422Y-110360493D01*
X68098756Y-110355700D01*
X68138037Y-110352317D01*
X68168137Y-110353082D01*
X68190280Y-110360853D01*
X68205685Y-110378487D01*
X68215575Y-110408843D01*
X68221172Y-110454778D01*
X68223698Y-110519150D01*
X68224374Y-110604817D01*
X68224400Y-110649607D01*
X68224576Y-110742635D01*
X68223496Y-110813390D01*
X68218748Y-110864971D01*
X68207918Y-110900478D01*
X68188594Y-110923010D01*
X68158364Y-110935669D01*
X68114815Y-110941553D01*
X68055533Y-110943763D01*
X67994507Y-110944984D01*
X67818000Y-110949119D01*
X67818000Y-110597750D01*
X67957598Y-110597750D01*
X67957700Y-110663001D01*
X67957700Y-110834291D01*
X68018025Y-110830420D01*
X68078350Y-110826550D01*
X68081880Y-110644487D01*
X68085410Y-110462425D01*
X68043780Y-110470811D01*
X68009528Y-110477518D01*
X67985780Y-110484314D01*
X67970625Y-110495467D01*
X67962150Y-110515245D01*
X67958445Y-110547917D01*
X67957598Y-110597750D01*
X67818000Y-110597750D01*
X67818000Y-110020100D01*
X67957700Y-110020100D01*
X67957700Y-110378453D01*
G37*
X67957700Y-110378453D02*
X67986275Y-110371345D01*
X68013659Y-110366364D01*
X68056422Y-110360493D01*
X68098756Y-110355700D01*
X68138037Y-110352317D01*
X68168137Y-110353082D01*
X68190280Y-110360853D01*
X68205685Y-110378487D01*
X68215575Y-110408843D01*
X68221172Y-110454778D01*
X68223698Y-110519150D01*
X68224374Y-110604817D01*
X68224400Y-110649607D01*
X68224576Y-110742635D01*
X68223496Y-110813390D01*
X68218748Y-110864971D01*
X68207918Y-110900478D01*
X68188594Y-110923010D01*
X68158364Y-110935669D01*
X68114815Y-110941553D01*
X68055533Y-110943763D01*
X67994507Y-110944984D01*
X67818000Y-110949119D01*
X67818000Y-110597750D01*
X67957598Y-110597750D01*
X67957700Y-110663001D01*
X67957700Y-110834291D01*
X68018025Y-110830420D01*
X68078350Y-110826550D01*
X68081880Y-110644487D01*
X68085410Y-110462425D01*
X68043780Y-110470811D01*
X68009528Y-110477518D01*
X67985780Y-110484314D01*
X67970625Y-110495467D01*
X67962150Y-110515245D01*
X67958445Y-110547917D01*
X67957598Y-110597750D01*
X67818000Y-110597750D01*
X67818000Y-110020100D01*
X67957700Y-110020100D01*
X67957700Y-110378453D01*
G36*
X72452275Y-110543975D02*
G01*
X72462431Y-110610882D01*
X72471494Y-110668260D01*
X72478742Y-110711714D01*
X72483453Y-110736850D01*
X72484703Y-110741277D01*
X72487873Y-110731069D01*
X72493804Y-110700609D01*
X72501707Y-110654794D01*
X72510788Y-110598523D01*
X72520259Y-110536694D01*
X72529327Y-110474205D01*
X72537071Y-110416975D01*
X72545672Y-110350300D01*
X72613886Y-110350300D01*
X72651628Y-110351901D01*
X72676394Y-110356024D01*
X72682086Y-110359825D01*
X72679378Y-110374110D01*
X72671708Y-110410123D01*
X72659748Y-110464825D01*
X72644169Y-110535177D01*
X72625642Y-110618139D01*
X72604839Y-110710673D01*
X72593186Y-110762265D01*
X72571485Y-110858311D01*
X72551701Y-110946107D01*
X72534501Y-111022669D01*
X72520554Y-111085012D01*
X72510528Y-111130154D01*
X72505092Y-111155110D01*
X72504300Y-111159140D01*
X72492797Y-111161291D01*
X72463076Y-111162729D01*
X72433091Y-111163100D01*
X72390533Y-111161355D01*
X72370125Y-111155627D01*
X72367862Y-111147225D01*
X72373499Y-111127810D01*
X72382938Y-111090989D01*
X72394306Y-111044110D01*
X72396307Y-111035620D01*
X72418773Y-110939891D01*
X72353554Y-110654620D01*
X72334960Y-110572882D01*
X72318432Y-110499459D01*
X72304769Y-110437958D01*
X72294768Y-110391984D01*
X72289226Y-110365146D01*
X72288368Y-110359825D01*
X72299852Y-110354530D01*
X72329350Y-110351072D01*
X72355907Y-110350299D01*
X72423415Y-110350299D01*
X72452275Y-110543975D01*
G37*
X72452275Y-110543975D02*
X72462431Y-110610882D01*
X72471494Y-110668260D01*
X72478742Y-110711714D01*
X72483453Y-110736850D01*
X72484703Y-110741277D01*
X72487873Y-110731069D01*
X72493804Y-110700609D01*
X72501707Y-110654794D01*
X72510788Y-110598523D01*
X72520259Y-110536694D01*
X72529327Y-110474205D01*
X72537071Y-110416975D01*
X72545672Y-110350300D01*
X72613886Y-110350300D01*
X72651628Y-110351901D01*
X72676394Y-110356024D01*
X72682086Y-110359825D01*
X72679378Y-110374110D01*
X72671708Y-110410123D01*
X72659748Y-110464825D01*
X72644169Y-110535177D01*
X72625642Y-110618139D01*
X72604839Y-110710673D01*
X72593186Y-110762265D01*
X72571485Y-110858311D01*
X72551701Y-110946107D01*
X72534501Y-111022669D01*
X72520554Y-111085012D01*
X72510528Y-111130154D01*
X72505092Y-111155110D01*
X72504300Y-111159140D01*
X72492797Y-111161291D01*
X72463076Y-111162729D01*
X72433091Y-111163100D01*
X72390533Y-111161355D01*
X72370125Y-111155627D01*
X72367862Y-111147225D01*
X72373499Y-111127810D01*
X72382938Y-111090989D01*
X72394306Y-111044110D01*
X72396307Y-111035620D01*
X72418773Y-110939891D01*
X72353554Y-110654620D01*
X72334960Y-110572882D01*
X72318432Y-110499459D01*
X72304769Y-110437958D01*
X72294768Y-110391984D01*
X72289226Y-110365146D01*
X72288368Y-110359825D01*
X72299852Y-110354530D01*
X72329350Y-110351072D01*
X72355907Y-110350299D01*
X72423415Y-110350299D01*
X72452275Y-110543975D01*
G36*
X68451775Y-110543975D02*
G01*
X68461931Y-110610882D01*
X68470994Y-110668260D01*
X68478242Y-110711714D01*
X68482953Y-110736850D01*
X68484203Y-110741277D01*
X68487373Y-110731069D01*
X68493304Y-110700609D01*
X68501207Y-110654794D01*
X68510288Y-110598523D01*
X68519759Y-110536694D01*
X68528827Y-110474205D01*
X68536571Y-110416975D01*
X68545172Y-110350300D01*
X68613386Y-110350300D01*
X68651128Y-110351901D01*
X68675894Y-110356024D01*
X68681586Y-110359825D01*
X68678878Y-110374110D01*
X68671208Y-110410123D01*
X68659248Y-110464825D01*
X68643669Y-110535177D01*
X68625142Y-110618139D01*
X68604339Y-110710673D01*
X68592686Y-110762265D01*
X68570985Y-110858311D01*
X68551201Y-110946107D01*
X68534001Y-111022669D01*
X68520054Y-111085012D01*
X68510028Y-111130154D01*
X68504592Y-111155110D01*
X68503800Y-111159140D01*
X68492297Y-111161291D01*
X68462576Y-111162729D01*
X68432591Y-111163100D01*
X68390033Y-111161355D01*
X68369625Y-111155627D01*
X68367362Y-111147225D01*
X68372999Y-111127810D01*
X68382438Y-111090989D01*
X68393806Y-111044110D01*
X68395807Y-111035620D01*
X68418273Y-110939891D01*
X68353054Y-110654620D01*
X68334460Y-110572882D01*
X68317932Y-110499459D01*
X68304269Y-110437958D01*
X68294268Y-110391984D01*
X68288726Y-110365146D01*
X68287868Y-110359825D01*
X68299352Y-110354530D01*
X68328850Y-110351072D01*
X68355407Y-110350299D01*
X68422915Y-110350299D01*
X68451775Y-110543975D01*
G37*
X68451775Y-110543975D02*
X68461931Y-110610882D01*
X68470994Y-110668260D01*
X68478242Y-110711714D01*
X68482953Y-110736850D01*
X68484203Y-110741277D01*
X68487373Y-110731069D01*
X68493304Y-110700609D01*
X68501207Y-110654794D01*
X68510288Y-110598523D01*
X68519759Y-110536694D01*
X68528827Y-110474205D01*
X68536571Y-110416975D01*
X68545172Y-110350300D01*
X68613386Y-110350300D01*
X68651128Y-110351901D01*
X68675894Y-110356024D01*
X68681586Y-110359825D01*
X68678878Y-110374110D01*
X68671208Y-110410123D01*
X68659248Y-110464825D01*
X68643669Y-110535177D01*
X68625142Y-110618139D01*
X68604339Y-110710673D01*
X68592686Y-110762265D01*
X68570985Y-110858311D01*
X68551201Y-110946107D01*
X68534001Y-111022669D01*
X68520054Y-111085012D01*
X68510028Y-111130154D01*
X68504592Y-111155110D01*
X68503800Y-111159140D01*
X68492297Y-111161291D01*
X68462576Y-111162729D01*
X68432591Y-111163100D01*
X68390033Y-111161355D01*
X68369625Y-111155627D01*
X68367362Y-111147225D01*
X68372999Y-111127810D01*
X68382438Y-111090989D01*
X68393806Y-111044110D01*
X68395807Y-111035620D01*
X68418273Y-110939891D01*
X68353054Y-110654620D01*
X68334460Y-110572882D01*
X68317932Y-110499459D01*
X68304269Y-110437958D01*
X68294268Y-110391984D01*
X68288726Y-110365146D01*
X68287868Y-110359825D01*
X68299352Y-110354530D01*
X68328850Y-110351072D01*
X68355407Y-110350299D01*
X68422915Y-110350299D01*
X68451775Y-110543975D01*
G36*
X70624270Y-103249172D02*
G01*
X70639175Y-103250035D01*
X70650877Y-103252110D01*
X70662006Y-103255868D01*
X70675194Y-103261779D01*
X70675512Y-103261930D01*
X70706870Y-103281323D01*
X70733709Y-103307093D01*
X70754476Y-103337687D01*
X70757703Y-103344121D01*
X70763537Y-103357064D01*
X70767317Y-103367990D01*
X70769485Y-103379403D01*
X70770481Y-103393807D01*
X70770746Y-103413705D01*
X70770750Y-103418216D01*
X70770581Y-103439326D01*
X70769789Y-103454378D01*
X70767950Y-103465782D01*
X70764637Y-103475944D01*
X70759424Y-103487272D01*
X70758050Y-103490021D01*
X70739947Y-103518046D01*
X70715906Y-103543642D01*
X70688455Y-103564288D01*
X70677344Y-103570468D01*
X70663746Y-103576698D01*
X70651392Y-103580611D01*
X70637329Y-103582826D01*
X70618600Y-103583964D01*
X70612000Y-103584177D01*
X70586867Y-103584062D01*
X70566466Y-103582275D01*
X70554850Y-103579731D01*
X70519201Y-103563671D01*
X70488671Y-103540946D01*
X70463728Y-103511966D01*
X70449790Y-103488066D01*
X70443673Y-103474983D01*
X70439770Y-103464155D01*
X70437605Y-103452988D01*
X70436704Y-103438891D01*
X70436591Y-103419269D01*
X70436610Y-103416100D01*
X70437009Y-103394784D01*
X70438173Y-103379321D01*
X70440544Y-103367104D01*
X70444568Y-103355525D01*
X70448424Y-103346797D01*
X70463016Y-103322635D01*
X70483332Y-103298849D01*
X70506893Y-103277921D01*
X70531222Y-103262332D01*
X70534230Y-103260865D01*
X70546722Y-103255450D01*
X70557992Y-103252001D01*
X70570629Y-103250077D01*
X70587226Y-103249236D01*
X70603533Y-103249051D01*
X70624270Y-103249172D01*
G37*
X70624270Y-103249172D02*
X70639175Y-103250035D01*
X70650877Y-103252110D01*
X70662006Y-103255868D01*
X70675194Y-103261779D01*
X70675512Y-103261930D01*
X70706870Y-103281323D01*
X70733709Y-103307093D01*
X70754476Y-103337687D01*
X70757703Y-103344121D01*
X70763537Y-103357064D01*
X70767317Y-103367990D01*
X70769485Y-103379403D01*
X70770481Y-103393807D01*
X70770746Y-103413705D01*
X70770750Y-103418216D01*
X70770581Y-103439326D01*
X70769789Y-103454378D01*
X70767950Y-103465782D01*
X70764637Y-103475944D01*
X70759424Y-103487272D01*
X70758050Y-103490021D01*
X70739947Y-103518046D01*
X70715906Y-103543642D01*
X70688455Y-103564288D01*
X70677344Y-103570468D01*
X70663746Y-103576698D01*
X70651392Y-103580611D01*
X70637329Y-103582826D01*
X70618600Y-103583964D01*
X70612000Y-103584177D01*
X70586867Y-103584062D01*
X70566466Y-103582275D01*
X70554850Y-103579731D01*
X70519201Y-103563671D01*
X70488671Y-103540946D01*
X70463728Y-103511966D01*
X70449790Y-103488066D01*
X70443673Y-103474983D01*
X70439770Y-103464155D01*
X70437605Y-103452988D01*
X70436704Y-103438891D01*
X70436591Y-103419269D01*
X70436610Y-103416100D01*
X70437009Y-103394784D01*
X70438173Y-103379321D01*
X70440544Y-103367104D01*
X70444568Y-103355525D01*
X70448424Y-103346797D01*
X70463016Y-103322635D01*
X70483332Y-103298849D01*
X70506893Y-103277921D01*
X70531222Y-103262332D01*
X70534230Y-103260865D01*
X70546722Y-103255450D01*
X70557992Y-103252001D01*
X70570629Y-103250077D01*
X70587226Y-103249236D01*
X70603533Y-103249051D01*
X70624270Y-103249172D01*
G36*
X71467965Y-105120873D02*
G01*
X71497809Y-105124043D01*
X71523354Y-105129827D01*
X71524283Y-105130125D01*
X71567444Y-105148272D01*
X71605530Y-105172622D01*
X71638025Y-105202481D01*
X71664410Y-105237155D01*
X71684167Y-105275951D01*
X71696778Y-105318176D01*
X71701724Y-105363136D01*
X71701777Y-105367667D01*
X71700217Y-105403547D01*
X71694883Y-105434523D01*
X71685136Y-105463555D01*
X71677658Y-105479776D01*
X71653947Y-105518987D01*
X71624929Y-105552059D01*
X71590063Y-105579465D01*
X71548808Y-105601677D01*
X71529067Y-105609713D01*
X71512911Y-105613933D01*
X71491059Y-105617218D01*
X71466248Y-105619398D01*
X71441214Y-105620304D01*
X71418695Y-105619765D01*
X71401517Y-105617632D01*
X71357506Y-105603905D01*
X71317255Y-105583093D01*
X71281552Y-105555917D01*
X71251187Y-105523097D01*
X71226948Y-105485350D01*
X71209625Y-105443398D01*
X71209305Y-105442362D01*
X71203566Y-105415531D01*
X71200699Y-105384133D01*
X71200766Y-105351587D01*
X71203828Y-105321312D01*
X71206903Y-105306505D01*
X71221964Y-105265074D01*
X71244277Y-105227082D01*
X71273052Y-105193333D01*
X71307494Y-105164631D01*
X71346810Y-105141779D01*
X71383335Y-105127597D01*
X71407659Y-105122595D01*
X71436892Y-105120372D01*
X71467965Y-105120873D01*
G37*
X71467965Y-105120873D02*
X71497809Y-105124043D01*
X71523354Y-105129827D01*
X71524283Y-105130125D01*
X71567444Y-105148272D01*
X71605530Y-105172622D01*
X71638025Y-105202481D01*
X71664410Y-105237155D01*
X71684167Y-105275951D01*
X71696778Y-105318176D01*
X71701724Y-105363136D01*
X71701777Y-105367667D01*
X71700217Y-105403547D01*
X71694883Y-105434523D01*
X71685136Y-105463555D01*
X71677658Y-105479776D01*
X71653947Y-105518987D01*
X71624929Y-105552059D01*
X71590063Y-105579465D01*
X71548808Y-105601677D01*
X71529067Y-105609713D01*
X71512911Y-105613933D01*
X71491059Y-105617218D01*
X71466248Y-105619398D01*
X71441214Y-105620304D01*
X71418695Y-105619765D01*
X71401517Y-105617632D01*
X71357506Y-105603905D01*
X71317255Y-105583093D01*
X71281552Y-105555917D01*
X71251187Y-105523097D01*
X71226948Y-105485350D01*
X71209625Y-105443398D01*
X71209305Y-105442362D01*
X71203566Y-105415531D01*
X71200699Y-105384133D01*
X71200766Y-105351587D01*
X71203828Y-105321312D01*
X71206903Y-105306505D01*
X71221964Y-105265074D01*
X71244277Y-105227082D01*
X71273052Y-105193333D01*
X71307494Y-105164631D01*
X71346810Y-105141779D01*
X71383335Y-105127597D01*
X71407659Y-105122595D01*
X71436892Y-105120372D01*
X71467965Y-105120873D01*
G36*
X69819297Y-105133918D02*
G01*
X69860946Y-105144072D01*
X69898989Y-105161483D01*
X69934318Y-105186517D01*
X69953716Y-105204471D01*
X69982121Y-105237087D01*
X70002869Y-105270598D01*
X70016574Y-105306511D01*
X70023850Y-105346332D01*
X70025459Y-105380367D01*
X70024934Y-105407185D01*
X70023198Y-105427792D01*
X70020013Y-105444384D01*
X70017646Y-105452333D01*
X69998878Y-105495560D01*
X69973452Y-105534200D01*
X69942088Y-105567552D01*
X69905508Y-105594915D01*
X69864432Y-105615587D01*
X69841823Y-105623375D01*
X69815137Y-105628567D01*
X69783818Y-105630494D01*
X69751008Y-105629249D01*
X69719847Y-105624926D01*
X69697600Y-105619105D01*
X69659142Y-105603021D01*
X69626019Y-105582252D01*
X69595655Y-105555127D01*
X69590606Y-105549790D01*
X69562118Y-105513506D01*
X69541660Y-105474696D01*
X69529054Y-105432906D01*
X69524122Y-105387681D01*
X69524033Y-105380366D01*
X69527908Y-105334211D01*
X69539551Y-105291413D01*
X69558992Y-105251895D01*
X69586260Y-105215581D01*
X69588132Y-105213518D01*
X69620028Y-105183417D01*
X69654626Y-105160377D01*
X69694015Y-105143017D01*
X69695244Y-105142586D01*
X69713541Y-105136729D01*
X69729537Y-105133135D01*
X69746591Y-105131288D01*
X69768063Y-105130676D01*
X69773148Y-105130656D01*
X69819297Y-105133918D01*
G37*
X69819297Y-105133918D02*
X69860946Y-105144072D01*
X69898989Y-105161483D01*
X69934318Y-105186517D01*
X69953716Y-105204471D01*
X69982121Y-105237087D01*
X70002869Y-105270598D01*
X70016574Y-105306511D01*
X70023850Y-105346332D01*
X70025459Y-105380367D01*
X70024934Y-105407185D01*
X70023198Y-105427792D01*
X70020013Y-105444384D01*
X70017646Y-105452333D01*
X69998878Y-105495560D01*
X69973452Y-105534200D01*
X69942088Y-105567552D01*
X69905508Y-105594915D01*
X69864432Y-105615587D01*
X69841823Y-105623375D01*
X69815137Y-105628567D01*
X69783818Y-105630494D01*
X69751008Y-105629249D01*
X69719847Y-105624926D01*
X69697600Y-105619105D01*
X69659142Y-105603021D01*
X69626019Y-105582252D01*
X69595655Y-105555127D01*
X69590606Y-105549790D01*
X69562118Y-105513506D01*
X69541660Y-105474696D01*
X69529054Y-105432906D01*
X69524122Y-105387681D01*
X69524033Y-105380366D01*
X69527908Y-105334211D01*
X69539551Y-105291413D01*
X69558992Y-105251895D01*
X69586260Y-105215581D01*
X69588132Y-105213518D01*
X69620028Y-105183417D01*
X69654626Y-105160377D01*
X69694015Y-105143017D01*
X69695244Y-105142586D01*
X69713541Y-105136729D01*
X69729537Y-105133135D01*
X69746591Y-105131288D01*
X69768063Y-105130676D01*
X69773148Y-105130656D01*
X69819297Y-105133918D01*
G36*
X70698300Y-106002769D02*
G01*
X70749266Y-106002847D01*
X70798440Y-106002968D01*
X70845140Y-106003131D01*
X70888684Y-106003335D01*
X70928389Y-106003582D01*
X70963574Y-106003871D01*
X70993556Y-106004202D01*
X71017653Y-106004576D01*
X71035184Y-106004992D01*
X71045465Y-106005451D01*
X71048012Y-106005841D01*
X71046192Y-106010889D01*
X71041397Y-106021342D01*
X71034594Y-106035112D01*
X71033247Y-106037748D01*
X71001934Y-106089896D01*
X70964655Y-106136091D01*
X70921615Y-106176179D01*
X70873016Y-106210007D01*
X70819063Y-106237419D01*
X70759960Y-106258263D01*
X70732361Y-106265316D01*
X70713945Y-106268501D01*
X70689364Y-106271328D01*
X70660812Y-106273683D01*
X70630483Y-106275453D01*
X70600574Y-106276527D01*
X70573278Y-106276791D01*
X70550792Y-106276132D01*
X70540033Y-106275187D01*
X70474575Y-106263134D01*
X70413826Y-106244196D01*
X70357946Y-106218431D01*
X70325906Y-106199113D01*
X70304809Y-106183145D01*
X70281582Y-106162354D01*
X70258576Y-106139097D01*
X70238140Y-106115734D01*
X70224193Y-106097024D01*
X70214510Y-106081569D01*
X70204546Y-106064141D01*
X70195134Y-106046411D01*
X70187110Y-106030047D01*
X70181309Y-106016718D01*
X70178566Y-106008094D01*
X70178646Y-106005989D01*
X70183071Y-106005495D01*
X70195253Y-106005041D01*
X70214513Y-106004627D01*
X70240166Y-106004254D01*
X70271531Y-106003921D01*
X70307927Y-106003629D01*
X70348669Y-106003377D01*
X70393078Y-106003167D01*
X70440469Y-106002997D01*
X70490162Y-106002869D01*
X70541473Y-106002782D01*
X70593722Y-106002736D01*
X70646225Y-106002731D01*
X70698300Y-106002769D01*
G37*
X70698300Y-106002769D02*
X70749266Y-106002847D01*
X70798440Y-106002968D01*
X70845140Y-106003131D01*
X70888684Y-106003335D01*
X70928389Y-106003582D01*
X70963574Y-106003871D01*
X70993556Y-106004202D01*
X71017653Y-106004576D01*
X71035184Y-106004992D01*
X71045465Y-106005451D01*
X71048012Y-106005841D01*
X71046192Y-106010889D01*
X71041397Y-106021342D01*
X71034594Y-106035112D01*
X71033247Y-106037748D01*
X71001934Y-106089896D01*
X70964655Y-106136091D01*
X70921615Y-106176179D01*
X70873016Y-106210007D01*
X70819063Y-106237419D01*
X70759960Y-106258263D01*
X70732361Y-106265316D01*
X70713945Y-106268501D01*
X70689364Y-106271328D01*
X70660812Y-106273683D01*
X70630483Y-106275453D01*
X70600574Y-106276527D01*
X70573278Y-106276791D01*
X70550792Y-106276132D01*
X70540033Y-106275187D01*
X70474575Y-106263134D01*
X70413826Y-106244196D01*
X70357946Y-106218431D01*
X70325906Y-106199113D01*
X70304809Y-106183145D01*
X70281582Y-106162354D01*
X70258576Y-106139097D01*
X70238140Y-106115734D01*
X70224193Y-106097024D01*
X70214510Y-106081569D01*
X70204546Y-106064141D01*
X70195134Y-106046411D01*
X70187110Y-106030047D01*
X70181309Y-106016718D01*
X70178566Y-106008094D01*
X70178646Y-106005989D01*
X70183071Y-106005495D01*
X70195253Y-106005041D01*
X70214513Y-106004627D01*
X70240166Y-106004254D01*
X70271531Y-106003921D01*
X70307927Y-106003629D01*
X70348669Y-106003377D01*
X70393078Y-106003167D01*
X70440469Y-106002997D01*
X70490162Y-106002869D01*
X70541473Y-106002782D01*
X70593722Y-106002736D01*
X70646225Y-106002731D01*
X70698300Y-106002769D01*
G36*
X70629080Y-103782947D02*
G01*
X70643159Y-103784896D01*
X70655433Y-103788966D01*
X70665185Y-103793678D01*
X70687867Y-103809085D01*
X70708515Y-103829497D01*
X70724040Y-103851834D01*
X70724622Y-103852939D01*
X70727896Y-103861765D01*
X70730546Y-103875000D01*
X70732730Y-103893831D01*
X70734608Y-103919441D01*
X70735347Y-103932567D01*
X70738089Y-103976470D01*
X70741493Y-104013529D01*
X70745891Y-104045358D01*
X70751614Y-104073573D01*
X70758995Y-104099787D01*
X70768367Y-104125617D01*
X70780060Y-104152678D01*
X70781047Y-104154816D01*
X70809485Y-104206640D01*
X70844214Y-104252851D01*
X70885255Y-104293464D01*
X70932628Y-104328494D01*
X70986354Y-104357956D01*
X71046455Y-104381865D01*
X71112950Y-104400236D01*
X71126350Y-104403110D01*
X71137294Y-104405247D01*
X71148454Y-104407145D01*
X71160403Y-104408823D01*
X71173717Y-104410299D01*
X71188970Y-104411594D01*
X71206737Y-104412727D01*
X71227591Y-104413716D01*
X71252109Y-104414582D01*
X71280863Y-104415342D01*
X71314429Y-104416018D01*
X71353382Y-104416627D01*
X71398295Y-104417189D01*
X71449743Y-104417723D01*
X71508301Y-104418248D01*
X71574544Y-104418785D01*
X71600483Y-104418985D01*
X71679874Y-104419641D01*
X71750829Y-104420331D01*
X71813379Y-104421055D01*
X71867553Y-104421815D01*
X71913383Y-104422611D01*
X71950899Y-104423442D01*
X71980131Y-104424311D01*
X72001111Y-104425217D01*
X72013868Y-104426161D01*
X72017467Y-104426715D01*
X72032747Y-104430280D01*
X72051161Y-104434311D01*
X72061917Y-104436549D01*
X72079564Y-104440486D01*
X72099829Y-104445564D01*
X72120629Y-104451195D01*
X72139883Y-104456792D01*
X72155511Y-104461766D01*
X72165430Y-104465529D01*
X72166634Y-104466133D01*
X72174770Y-104469562D01*
X72178160Y-104470200D01*
X72184999Y-104472085D01*
X72197787Y-104477264D01*
X72215015Y-104485027D01*
X72235175Y-104494661D01*
X72256757Y-104505455D01*
X72278253Y-104516696D01*
X72288400Y-104522208D01*
X72345086Y-104557764D01*
X72400025Y-104600612D01*
X72452151Y-104649606D01*
X72500396Y-104703598D01*
X72543694Y-104761441D01*
X72580980Y-104821989D01*
X72598252Y-104855433D01*
X72613695Y-104888572D01*
X72625809Y-104917463D01*
X72635638Y-104945108D01*
X72644231Y-104974506D01*
X72652634Y-105008658D01*
X72654379Y-105016300D01*
X72659192Y-105037569D01*
X72663745Y-105057665D01*
X72667470Y-105074077D01*
X72669510Y-105083036D01*
X72671200Y-105094269D01*
X72672441Y-105109984D01*
X72673223Y-105128317D01*
X72673537Y-105147408D01*
X72673374Y-105165392D01*
X72672726Y-105180408D01*
X72671584Y-105190594D01*
X72670043Y-105194100D01*
X72666308Y-105197608D01*
X72661029Y-105206472D01*
X72658587Y-105211542D01*
X72645868Y-105232115D01*
X72627296Y-105252335D01*
X72605239Y-105269836D01*
X72592589Y-105277390D01*
X72580744Y-105283136D01*
X72570094Y-105286683D01*
X72557921Y-105288546D01*
X72541503Y-105289239D01*
X72529700Y-105289309D01*
X72509731Y-105289031D01*
X72495522Y-105287861D01*
X72484373Y-105285296D01*
X72473585Y-105280833D01*
X72467414Y-105277696D01*
X72437367Y-105258409D01*
X72414634Y-105235833D01*
X72403938Y-105219978D01*
X72396512Y-105207522D01*
X72389933Y-105197428D01*
X72387369Y-105193989D01*
X72384518Y-105187119D01*
X72381388Y-105174060D01*
X72378469Y-105157058D01*
X72377198Y-105147423D01*
X72366683Y-105084844D01*
X72350341Y-105027821D01*
X72327690Y-104975346D01*
X72298250Y-104926410D01*
X72261540Y-104880006D01*
X72237714Y-104854834D01*
X72210133Y-104828808D01*
X72183275Y-104806940D01*
X72155011Y-104787819D01*
X72123212Y-104770037D01*
X72085746Y-104752183D01*
X72076351Y-104748027D01*
X72052270Y-104739341D01*
X72021384Y-104731173D01*
X71985357Y-104723943D01*
X71973017Y-104721897D01*
X71964835Y-104721277D01*
X71948594Y-104720688D01*
X71924691Y-104720128D01*
X71893522Y-104719598D01*
X71855484Y-104719099D01*
X71810973Y-104718628D01*
X71760387Y-104718188D01*
X71704122Y-104717778D01*
X71642575Y-104717397D01*
X71576142Y-104717046D01*
X71505220Y-104716725D01*
X71430207Y-104716434D01*
X71351498Y-104716173D01*
X71269490Y-104715941D01*
X71184581Y-104715739D01*
X71097166Y-104715567D01*
X71007643Y-104715425D01*
X70916408Y-104715312D01*
X70823858Y-104715229D01*
X70730390Y-104715176D01*
X70636400Y-104715153D01*
X70542285Y-104715160D01*
X70448442Y-104715196D01*
X70355267Y-104715262D01*
X70263158Y-104715357D01*
X70172511Y-104715483D01*
X70083722Y-104715638D01*
X69997189Y-104715823D01*
X69913307Y-104716037D01*
X69832475Y-104716281D01*
X69755088Y-104716555D01*
X69681543Y-104716859D01*
X69612237Y-104717192D01*
X69547567Y-104717555D01*
X69487930Y-104717948D01*
X69433721Y-104718370D01*
X69385338Y-104718822D01*
X69343178Y-104719303D01*
X69307637Y-104719815D01*
X69279112Y-104720355D01*
X69258000Y-104720926D01*
X69244697Y-104721526D01*
X69240400Y-104721936D01*
X69213930Y-104726553D01*
X69193403Y-104730688D01*
X69176364Y-104734956D01*
X69160361Y-104739974D01*
X69142940Y-104746357D01*
X69142750Y-104746430D01*
X69087449Y-104771907D01*
X69035921Y-104804095D01*
X68988867Y-104842232D01*
X68946991Y-104885556D01*
X68910997Y-104933302D01*
X68881588Y-104984708D01*
X68859466Y-105039012D01*
X68852983Y-105060750D01*
X68850143Y-105071490D01*
X68847604Y-105081698D01*
X68845349Y-105091886D01*
X68843362Y-105102567D01*
X68841625Y-105114253D01*
X68840121Y-105127457D01*
X68838835Y-105142691D01*
X68837749Y-105160468D01*
X68836846Y-105181300D01*
X68836110Y-105205699D01*
X68835523Y-105234178D01*
X68835070Y-105267250D01*
X68834733Y-105305426D01*
X68834495Y-105349219D01*
X68834341Y-105399143D01*
X68834252Y-105455708D01*
X68834213Y-105519428D01*
X68834206Y-105590815D01*
X68834210Y-105634367D01*
X68834221Y-105712439D01*
X68834253Y-105782550D01*
X68834332Y-105845204D01*
X68834486Y-105900907D01*
X68834743Y-105950164D01*
X68835129Y-105993480D01*
X68835672Y-106031360D01*
X68836399Y-106064309D01*
X68837338Y-106092832D01*
X68838515Y-106117435D01*
X68839959Y-106138622D01*
X68841696Y-106156899D01*
X68843755Y-106172770D01*
X68846161Y-106186742D01*
X68848942Y-106199318D01*
X68852127Y-106211004D01*
X68855741Y-106222306D01*
X68859813Y-106233728D01*
X68864369Y-106245775D01*
X68867746Y-106254550D01*
X68893279Y-106309145D01*
X68926441Y-106360127D01*
X68967174Y-106407429D01*
X69015423Y-106450989D01*
X69071128Y-106490741D01*
X69085883Y-106499878D01*
X69107935Y-106511051D01*
X69136255Y-106522215D01*
X69168672Y-106532714D01*
X69203011Y-106541892D01*
X69237101Y-106549093D01*
X69261181Y-106552801D01*
X69269055Y-106553288D01*
X69284635Y-106553747D01*
X69307966Y-106554176D01*
X69339094Y-106554576D01*
X69378062Y-106554947D01*
X69424917Y-106555289D01*
X69479702Y-106555602D01*
X69542463Y-106555887D01*
X69613245Y-106556143D01*
X69692093Y-106556371D01*
X69779051Y-106556572D01*
X69874165Y-106556744D01*
X69977480Y-106556888D01*
X70089039Y-106557005D01*
X70208889Y-106557094D01*
X70337074Y-106557156D01*
X70473640Y-106557190D01*
X70607381Y-106557198D01*
X70734394Y-106557195D01*
X70853225Y-106557189D01*
X70964159Y-106557178D01*
X71067483Y-106557158D01*
X71163480Y-106557126D01*
X71252436Y-106557077D01*
X71334635Y-106557010D01*
X71410364Y-106556920D01*
X71479908Y-106556804D01*
X71543550Y-106556659D01*
X71601577Y-106556480D01*
X71654274Y-106556265D01*
X71701925Y-106556011D01*
X71744815Y-106555713D01*
X71783231Y-106555369D01*
X71817457Y-106554975D01*
X71847778Y-106554528D01*
X71874479Y-106554023D01*
X71897845Y-106553459D01*
X71918162Y-106552830D01*
X71935714Y-106552135D01*
X71950787Y-106551369D01*
X71963665Y-106550529D01*
X71974635Y-106549612D01*
X71983980Y-106548614D01*
X71991986Y-106547532D01*
X71998939Y-106546362D01*
X72005123Y-106545101D01*
X72010823Y-106543746D01*
X72016325Y-106542292D01*
X72021913Y-106540738D01*
X72023817Y-106540204D01*
X72085819Y-106518715D01*
X72142987Y-106490392D01*
X72195045Y-106455458D01*
X72241715Y-106414132D01*
X72282723Y-106366636D01*
X72317791Y-106313191D01*
X72325597Y-106298926D01*
X72340182Y-106268716D01*
X72352672Y-106236860D01*
X72364202Y-106200373D01*
X72367409Y-106188933D01*
X72370142Y-106177318D01*
X72372155Y-106164313D01*
X72373543Y-106148460D01*
X72374401Y-106128302D01*
X72374826Y-106102382D01*
X72374918Y-106074633D01*
X72374870Y-106045291D01*
X72374650Y-106022925D01*
X72374105Y-106006045D01*
X72373083Y-105993162D01*
X72371433Y-105982785D01*
X72369002Y-105973424D01*
X72365639Y-105963589D01*
X72362829Y-105956100D01*
X72343093Y-105914205D01*
X72318233Y-105878789D01*
X72288432Y-105850070D01*
X72258270Y-105830514D01*
X72235483Y-105818516D01*
X72104250Y-105816295D01*
X72062760Y-105815504D01*
X72028721Y-105814528D01*
X72001120Y-105813148D01*
X71978939Y-105811145D01*
X71961166Y-105808301D01*
X71946783Y-105804397D01*
X71934778Y-105799214D01*
X71924134Y-105792532D01*
X71913836Y-105784134D01*
X71902870Y-105773801D01*
X71901673Y-105772630D01*
X71878053Y-105744284D01*
X71862556Y-105713636D01*
X71855224Y-105680819D01*
X71856097Y-105645964D01*
X71858594Y-105632188D01*
X71870214Y-105598449D01*
X71888683Y-105569229D01*
X71913275Y-105545262D01*
X71943267Y-105527279D01*
X71972142Y-105517326D01*
X71987933Y-105513888D01*
X72001063Y-105512460D01*
X72014994Y-105512964D01*
X72033191Y-105515322D01*
X72036710Y-105515863D01*
X72046977Y-105517156D01*
X72059921Y-105518187D01*
X72076248Y-105518965D01*
X72096664Y-105519497D01*
X72121876Y-105519789D01*
X72152589Y-105519851D01*
X72189510Y-105519688D01*
X72233344Y-105519308D01*
X72284799Y-105518720D01*
X72295819Y-105518580D01*
X72349600Y-105517932D01*
X72395660Y-105517496D01*
X72434740Y-105517319D01*
X72467584Y-105517446D01*
X72494936Y-105517921D01*
X72517536Y-105518791D01*
X72536130Y-105520101D01*
X72551459Y-105521896D01*
X72564266Y-105524223D01*
X72575295Y-105527125D01*
X72585288Y-105530649D01*
X72594989Y-105534840D01*
X72599893Y-105537166D01*
X72626135Y-105554286D01*
X72648445Y-105577634D01*
X72663030Y-105601273D01*
X72673633Y-105623251D01*
X72673633Y-105897565D01*
X72673569Y-105951551D01*
X72673381Y-106001518D01*
X72673079Y-106046893D01*
X72672670Y-106087102D01*
X72672161Y-106121571D01*
X72671562Y-106149727D01*
X72670880Y-106170996D01*
X72670124Y-106184804D01*
X72669510Y-106189931D01*
X72666902Y-106201440D01*
X72663015Y-106218700D01*
X72658416Y-106239197D01*
X72654507Y-106256666D01*
X72635512Y-106324389D01*
X72609124Y-106392085D01*
X72576232Y-106457962D01*
X72537726Y-106520231D01*
X72496973Y-106574148D01*
X72446017Y-106629087D01*
X72389356Y-106679168D01*
X72328006Y-106723783D01*
X72262983Y-106762327D01*
X72195304Y-106794194D01*
X72125985Y-106818777D01*
X72060228Y-106834704D01*
X72041909Y-106838415D01*
X72025324Y-106842285D01*
X72013353Y-106845629D01*
X72011117Y-106846417D01*
X72007712Y-106846908D01*
X71999984Y-106847371D01*
X71987733Y-106847804D01*
X71970761Y-106848210D01*
X71948870Y-106848589D01*
X71921861Y-106848941D01*
X71889536Y-106849268D01*
X71851697Y-106849571D01*
X71808146Y-106849849D01*
X71758683Y-106850104D01*
X71703111Y-106850336D01*
X71641231Y-106850547D01*
X71572845Y-106850737D01*
X71497754Y-106850907D01*
X71415761Y-106851057D01*
X71326667Y-106851188D01*
X71230273Y-106851301D01*
X71126382Y-106851398D01*
X71014794Y-106851478D01*
X70895312Y-106851542D01*
X70767737Y-106851591D01*
X70647983Y-106851623D01*
X70541079Y-106851641D01*
X70436120Y-106851650D01*
X70333440Y-106851650D01*
X70233368Y-106851641D01*
X70136237Y-106851624D01*
X70042378Y-106851599D01*
X69952122Y-106851566D01*
X69865800Y-106851525D01*
X69783745Y-106851477D01*
X69706287Y-106851421D01*
X69633757Y-106851359D01*
X69566488Y-106851291D01*
X69504811Y-106851216D01*
X69449056Y-106851135D01*
X69399556Y-106851049D01*
X69356641Y-106850957D01*
X69320643Y-106850860D01*
X69291894Y-106850758D01*
X69270725Y-106850651D01*
X69257466Y-106850540D01*
X69253152Y-106850463D01*
X69234375Y-106849494D01*
X69218695Y-106848018D01*
X69208084Y-106846262D01*
X69204681Y-106844941D01*
X69197766Y-106841963D01*
X69188271Y-106840867D01*
X69175981Y-106839617D01*
X69157628Y-106836207D01*
X69135184Y-106831142D01*
X69110621Y-106824927D01*
X69085911Y-106818070D01*
X69063028Y-106811077D01*
X69043942Y-106804453D01*
X69039317Y-106802640D01*
X69027455Y-106797912D01*
X69018150Y-106794334D01*
X69001199Y-106787167D01*
X68979334Y-106776658D01*
X68954805Y-106763978D01*
X68929861Y-106750298D01*
X68906751Y-106736789D01*
X68901733Y-106733706D01*
X68835549Y-106687675D01*
X68775147Y-106635510D01*
X68720772Y-106577483D01*
X68672669Y-106513863D01*
X68631082Y-106444922D01*
X68618263Y-106419896D01*
X68604210Y-106388918D01*
X68590250Y-106354016D01*
X68577264Y-106317719D01*
X68566131Y-106282554D01*
X68557730Y-106251050D01*
X68554859Y-106237616D01*
X68551417Y-106220120D01*
X68547836Y-106202788D01*
X68545961Y-106194164D01*
X68545379Y-106187348D01*
X68544841Y-106172689D01*
X68544348Y-106150809D01*
X68543899Y-106122332D01*
X68543495Y-106087880D01*
X68543135Y-106048076D01*
X68542820Y-106003545D01*
X68542549Y-105954908D01*
X68542323Y-105902789D01*
X68542141Y-105847810D01*
X68542004Y-105790595D01*
X68541911Y-105731767D01*
X68541862Y-105671949D01*
X68541858Y-105611764D01*
X68541899Y-105551834D01*
X68541984Y-105492783D01*
X68542113Y-105435234D01*
X68542287Y-105379810D01*
X68542506Y-105327134D01*
X68542768Y-105277830D01*
X68543076Y-105232519D01*
X68543427Y-105191825D01*
X68543824Y-105156371D01*
X68544264Y-105126780D01*
X68544750Y-105103676D01*
X68545279Y-105087680D01*
X68545853Y-105079417D01*
X68545961Y-105078802D01*
X68549108Y-105064164D01*
X68552779Y-105046196D01*
X68554909Y-105035350D01*
X68559043Y-105015916D01*
X68564165Y-104994843D01*
X68569749Y-104973985D01*
X68575268Y-104955191D01*
X68580194Y-104940314D01*
X68584002Y-104931207D01*
X68584969Y-104929728D01*
X68588335Y-104921932D01*
X68588467Y-104920319D01*
X68590126Y-104913841D01*
X68594444Y-104902383D01*
X68599574Y-104890474D01*
X68636913Y-104816372D01*
X68678561Y-104749286D01*
X68724940Y-104688711D01*
X68776467Y-104634141D01*
X68833563Y-104585074D01*
X68882683Y-104550000D01*
X68911113Y-104531720D01*
X68936489Y-104516559D01*
X68961100Y-104503349D01*
X68987236Y-104490926D01*
X69017185Y-104478122D01*
X69047783Y-104465899D01*
X69078819Y-104455167D01*
X69114629Y-104445106D01*
X69151526Y-104436747D01*
X69153617Y-104436338D01*
X69171386Y-104432710D01*
X69189237Y-104428791D01*
X69198067Y-104426710D01*
X69206080Y-104425752D01*
X69222204Y-104424831D01*
X69246480Y-104423949D01*
X69278949Y-104423104D01*
X69319651Y-104422295D01*
X69368628Y-104421522D01*
X69425921Y-104420784D01*
X69491572Y-104420080D01*
X69565620Y-104419410D01*
X69619283Y-104418984D01*
X69681646Y-104418470D01*
X69741019Y-104417898D01*
X69796849Y-104417275D01*
X69848582Y-104416612D01*
X69895663Y-104415918D01*
X69937538Y-104415202D01*
X69973652Y-104414473D01*
X70003452Y-104413742D01*
X70026383Y-104413016D01*
X70041890Y-104412307D01*
X70048966Y-104411702D01*
X70098966Y-104402874D01*
X70142888Y-104392546D01*
X70183081Y-104380022D01*
X70221894Y-104364608D01*
X70245866Y-104353505D01*
X70298665Y-104323396D01*
X70345555Y-104287319D01*
X70386332Y-104245478D01*
X70420791Y-104198075D01*
X70443361Y-104156933D01*
X70461221Y-104112753D01*
X70473955Y-104064937D01*
X70481781Y-104012365D01*
X70484917Y-103953917D01*
X70485000Y-103941833D01*
X70485502Y-103910958D01*
X70487304Y-103886815D01*
X70490843Y-103867713D01*
X70496562Y-103851960D01*
X70504899Y-103837866D01*
X70515487Y-103824651D01*
X70529254Y-103811424D01*
X70545522Y-103799104D01*
X70554328Y-103793806D01*
X70567465Y-103787698D01*
X70579874Y-103784227D01*
X70594884Y-103782710D01*
X70609883Y-103782447D01*
X70629080Y-103782947D01*
G37*
X70629080Y-103782947D02*
X70643159Y-103784896D01*
X70655433Y-103788966D01*
X70665185Y-103793678D01*
X70687867Y-103809085D01*
X70708515Y-103829497D01*
X70724040Y-103851834D01*
X70724622Y-103852939D01*
X70727896Y-103861765D01*
X70730546Y-103875000D01*
X70732730Y-103893831D01*
X70734608Y-103919441D01*
X70735347Y-103932567D01*
X70738089Y-103976470D01*
X70741493Y-104013529D01*
X70745891Y-104045358D01*
X70751614Y-104073573D01*
X70758995Y-104099787D01*
X70768367Y-104125617D01*
X70780060Y-104152678D01*
X70781047Y-104154816D01*
X70809485Y-104206640D01*
X70844214Y-104252851D01*
X70885255Y-104293464D01*
X70932628Y-104328494D01*
X70986354Y-104357956D01*
X71046455Y-104381865D01*
X71112950Y-104400236D01*
X71126350Y-104403110D01*
X71137294Y-104405247D01*
X71148454Y-104407145D01*
X71160403Y-104408823D01*
X71173717Y-104410299D01*
X71188970Y-104411594D01*
X71206737Y-104412727D01*
X71227591Y-104413716D01*
X71252109Y-104414582D01*
X71280863Y-104415342D01*
X71314429Y-104416018D01*
X71353382Y-104416627D01*
X71398295Y-104417189D01*
X71449743Y-104417723D01*
X71508301Y-104418248D01*
X71574544Y-104418785D01*
X71600483Y-104418985D01*
X71679874Y-104419641D01*
X71750829Y-104420331D01*
X71813379Y-104421055D01*
X71867553Y-104421815D01*
X71913383Y-104422611D01*
X71950899Y-104423442D01*
X71980131Y-104424311D01*
X72001111Y-104425217D01*
X72013868Y-104426161D01*
X72017467Y-104426715D01*
X72032747Y-104430280D01*
X72051161Y-104434311D01*
X72061917Y-104436549D01*
X72079564Y-104440486D01*
X72099829Y-104445564D01*
X72120629Y-104451195D01*
X72139883Y-104456792D01*
X72155511Y-104461766D01*
X72165430Y-104465529D01*
X72166634Y-104466133D01*
X72174770Y-104469562D01*
X72178160Y-104470200D01*
X72184999Y-104472085D01*
X72197787Y-104477264D01*
X72215015Y-104485027D01*
X72235175Y-104494661D01*
X72256757Y-104505455D01*
X72278253Y-104516696D01*
X72288400Y-104522208D01*
X72345086Y-104557764D01*
X72400025Y-104600612D01*
X72452151Y-104649606D01*
X72500396Y-104703598D01*
X72543694Y-104761441D01*
X72580980Y-104821989D01*
X72598252Y-104855433D01*
X72613695Y-104888572D01*
X72625809Y-104917463D01*
X72635638Y-104945108D01*
X72644231Y-104974506D01*
X72652634Y-105008658D01*
X72654379Y-105016300D01*
X72659192Y-105037569D01*
X72663745Y-105057665D01*
X72667470Y-105074077D01*
X72669510Y-105083036D01*
X72671200Y-105094269D01*
X72672441Y-105109984D01*
X72673223Y-105128317D01*
X72673537Y-105147408D01*
X72673374Y-105165392D01*
X72672726Y-105180408D01*
X72671584Y-105190594D01*
X72670043Y-105194100D01*
X72666308Y-105197608D01*
X72661029Y-105206472D01*
X72658587Y-105211542D01*
X72645868Y-105232115D01*
X72627296Y-105252335D01*
X72605239Y-105269836D01*
X72592589Y-105277390D01*
X72580744Y-105283136D01*
X72570094Y-105286683D01*
X72557921Y-105288546D01*
X72541503Y-105289239D01*
X72529700Y-105289309D01*
X72509731Y-105289031D01*
X72495522Y-105287861D01*
X72484373Y-105285296D01*
X72473585Y-105280833D01*
X72467414Y-105277696D01*
X72437367Y-105258409D01*
X72414634Y-105235833D01*
X72403938Y-105219978D01*
X72396512Y-105207522D01*
X72389933Y-105197428D01*
X72387369Y-105193989D01*
X72384518Y-105187119D01*
X72381388Y-105174060D01*
X72378469Y-105157058D01*
X72377198Y-105147423D01*
X72366683Y-105084844D01*
X72350341Y-105027821D01*
X72327690Y-104975346D01*
X72298250Y-104926410D01*
X72261540Y-104880006D01*
X72237714Y-104854834D01*
X72210133Y-104828808D01*
X72183275Y-104806940D01*
X72155011Y-104787819D01*
X72123212Y-104770037D01*
X72085746Y-104752183D01*
X72076351Y-104748027D01*
X72052270Y-104739341D01*
X72021384Y-104731173D01*
X71985357Y-104723943D01*
X71973017Y-104721897D01*
X71964835Y-104721277D01*
X71948594Y-104720688D01*
X71924691Y-104720128D01*
X71893522Y-104719598D01*
X71855484Y-104719099D01*
X71810973Y-104718628D01*
X71760387Y-104718188D01*
X71704122Y-104717778D01*
X71642575Y-104717397D01*
X71576142Y-104717046D01*
X71505220Y-104716725D01*
X71430207Y-104716434D01*
X71351498Y-104716173D01*
X71269490Y-104715941D01*
X71184581Y-104715739D01*
X71097166Y-104715567D01*
X71007643Y-104715425D01*
X70916408Y-104715312D01*
X70823858Y-104715229D01*
X70730390Y-104715176D01*
X70636400Y-104715153D01*
X70542285Y-104715160D01*
X70448442Y-104715196D01*
X70355267Y-104715262D01*
X70263158Y-104715357D01*
X70172511Y-104715483D01*
X70083722Y-104715638D01*
X69997189Y-104715823D01*
X69913307Y-104716037D01*
X69832475Y-104716281D01*
X69755088Y-104716555D01*
X69681543Y-104716859D01*
X69612237Y-104717192D01*
X69547567Y-104717555D01*
X69487930Y-104717948D01*
X69433721Y-104718370D01*
X69385338Y-104718822D01*
X69343178Y-104719303D01*
X69307637Y-104719815D01*
X69279112Y-104720355D01*
X69258000Y-104720926D01*
X69244697Y-104721526D01*
X69240400Y-104721936D01*
X69213930Y-104726553D01*
X69193403Y-104730688D01*
X69176364Y-104734956D01*
X69160361Y-104739974D01*
X69142940Y-104746357D01*
X69142750Y-104746430D01*
X69087449Y-104771907D01*
X69035921Y-104804095D01*
X68988867Y-104842232D01*
X68946991Y-104885556D01*
X68910997Y-104933302D01*
X68881588Y-104984708D01*
X68859466Y-105039012D01*
X68852983Y-105060750D01*
X68850143Y-105071490D01*
X68847604Y-105081698D01*
X68845349Y-105091886D01*
X68843362Y-105102567D01*
X68841625Y-105114253D01*
X68840121Y-105127457D01*
X68838835Y-105142691D01*
X68837749Y-105160468D01*
X68836846Y-105181300D01*
X68836110Y-105205699D01*
X68835523Y-105234178D01*
X68835070Y-105267250D01*
X68834733Y-105305426D01*
X68834495Y-105349219D01*
X68834341Y-105399143D01*
X68834252Y-105455708D01*
X68834213Y-105519428D01*
X68834206Y-105590815D01*
X68834210Y-105634367D01*
X68834221Y-105712439D01*
X68834253Y-105782550D01*
X68834332Y-105845204D01*
X68834486Y-105900907D01*
X68834743Y-105950164D01*
X68835129Y-105993480D01*
X68835672Y-106031360D01*
X68836399Y-106064309D01*
X68837338Y-106092832D01*
X68838515Y-106117435D01*
X68839959Y-106138622D01*
X68841696Y-106156899D01*
X68843755Y-106172770D01*
X68846161Y-106186742D01*
X68848942Y-106199318D01*
X68852127Y-106211004D01*
X68855741Y-106222306D01*
X68859813Y-106233728D01*
X68864369Y-106245775D01*
X68867746Y-106254550D01*
X68893279Y-106309145D01*
X68926441Y-106360127D01*
X68967174Y-106407429D01*
X69015423Y-106450989D01*
X69071128Y-106490741D01*
X69085883Y-106499878D01*
X69107935Y-106511051D01*
X69136255Y-106522215D01*
X69168672Y-106532714D01*
X69203011Y-106541892D01*
X69237101Y-106549093D01*
X69261181Y-106552801D01*
X69269055Y-106553288D01*
X69284635Y-106553747D01*
X69307966Y-106554176D01*
X69339094Y-106554576D01*
X69378062Y-106554947D01*
X69424917Y-106555289D01*
X69479702Y-106555602D01*
X69542463Y-106555887D01*
X69613245Y-106556143D01*
X69692093Y-106556371D01*
X69779051Y-106556572D01*
X69874165Y-106556744D01*
X69977480Y-106556888D01*
X70089039Y-106557005D01*
X70208889Y-106557094D01*
X70337074Y-106557156D01*
X70473640Y-106557190D01*
X70607381Y-106557198D01*
X70734394Y-106557195D01*
X70853225Y-106557189D01*
X70964159Y-106557178D01*
X71067483Y-106557158D01*
X71163480Y-106557126D01*
X71252436Y-106557077D01*
X71334635Y-106557010D01*
X71410364Y-106556920D01*
X71479908Y-106556804D01*
X71543550Y-106556659D01*
X71601577Y-106556480D01*
X71654274Y-106556265D01*
X71701925Y-106556011D01*
X71744815Y-106555713D01*
X71783231Y-106555369D01*
X71817457Y-106554975D01*
X71847778Y-106554528D01*
X71874479Y-106554023D01*
X71897845Y-106553459D01*
X71918162Y-106552830D01*
X71935714Y-106552135D01*
X71950787Y-106551369D01*
X71963665Y-106550529D01*
X71974635Y-106549612D01*
X71983980Y-106548614D01*
X71991986Y-106547532D01*
X71998939Y-106546362D01*
X72005123Y-106545101D01*
X72010823Y-106543746D01*
X72016325Y-106542292D01*
X72021913Y-106540738D01*
X72023817Y-106540204D01*
X72085819Y-106518715D01*
X72142987Y-106490392D01*
X72195045Y-106455458D01*
X72241715Y-106414132D01*
X72282723Y-106366636D01*
X72317791Y-106313191D01*
X72325597Y-106298926D01*
X72340182Y-106268716D01*
X72352672Y-106236860D01*
X72364202Y-106200373D01*
X72367409Y-106188933D01*
X72370142Y-106177318D01*
X72372155Y-106164313D01*
X72373543Y-106148460D01*
X72374401Y-106128302D01*
X72374826Y-106102382D01*
X72374918Y-106074633D01*
X72374870Y-106045291D01*
X72374650Y-106022925D01*
X72374105Y-106006045D01*
X72373083Y-105993162D01*
X72371433Y-105982785D01*
X72369002Y-105973424D01*
X72365639Y-105963589D01*
X72362829Y-105956100D01*
X72343093Y-105914205D01*
X72318233Y-105878789D01*
X72288432Y-105850070D01*
X72258270Y-105830514D01*
X72235483Y-105818516D01*
X72104250Y-105816295D01*
X72062760Y-105815504D01*
X72028721Y-105814528D01*
X72001120Y-105813148D01*
X71978939Y-105811145D01*
X71961166Y-105808301D01*
X71946783Y-105804397D01*
X71934778Y-105799214D01*
X71924134Y-105792532D01*
X71913836Y-105784134D01*
X71902870Y-105773801D01*
X71901673Y-105772630D01*
X71878053Y-105744284D01*
X71862556Y-105713636D01*
X71855224Y-105680819D01*
X71856097Y-105645964D01*
X71858594Y-105632188D01*
X71870214Y-105598449D01*
X71888683Y-105569229D01*
X71913275Y-105545262D01*
X71943267Y-105527279D01*
X71972142Y-105517326D01*
X71987933Y-105513888D01*
X72001063Y-105512460D01*
X72014994Y-105512964D01*
X72033191Y-105515322D01*
X72036710Y-105515863D01*
X72046977Y-105517156D01*
X72059921Y-105518187D01*
X72076248Y-105518965D01*
X72096664Y-105519497D01*
X72121876Y-105519789D01*
X72152589Y-105519851D01*
X72189510Y-105519688D01*
X72233344Y-105519308D01*
X72284799Y-105518720D01*
X72295819Y-105518580D01*
X72349600Y-105517932D01*
X72395660Y-105517496D01*
X72434740Y-105517319D01*
X72467584Y-105517446D01*
X72494936Y-105517921D01*
X72517536Y-105518791D01*
X72536130Y-105520101D01*
X72551459Y-105521896D01*
X72564266Y-105524223D01*
X72575295Y-105527125D01*
X72585288Y-105530649D01*
X72594989Y-105534840D01*
X72599893Y-105537166D01*
X72626135Y-105554286D01*
X72648445Y-105577634D01*
X72663030Y-105601273D01*
X72673633Y-105623251D01*
X72673633Y-105897565D01*
X72673569Y-105951551D01*
X72673381Y-106001518D01*
X72673079Y-106046893D01*
X72672670Y-106087102D01*
X72672161Y-106121571D01*
X72671562Y-106149727D01*
X72670880Y-106170996D01*
X72670124Y-106184804D01*
X72669510Y-106189931D01*
X72666902Y-106201440D01*
X72663015Y-106218700D01*
X72658416Y-106239197D01*
X72654507Y-106256666D01*
X72635512Y-106324389D01*
X72609124Y-106392085D01*
X72576232Y-106457962D01*
X72537726Y-106520231D01*
X72496973Y-106574148D01*
X72446017Y-106629087D01*
X72389356Y-106679168D01*
X72328006Y-106723783D01*
X72262983Y-106762327D01*
X72195304Y-106794194D01*
X72125985Y-106818777D01*
X72060228Y-106834704D01*
X72041909Y-106838415D01*
X72025324Y-106842285D01*
X72013353Y-106845629D01*
X72011117Y-106846417D01*
X72007712Y-106846908D01*
X71999984Y-106847371D01*
X71987733Y-106847804D01*
X71970761Y-106848210D01*
X71948870Y-106848589D01*
X71921861Y-106848941D01*
X71889536Y-106849268D01*
X71851697Y-106849571D01*
X71808146Y-106849849D01*
X71758683Y-106850104D01*
X71703111Y-106850336D01*
X71641231Y-106850547D01*
X71572845Y-106850737D01*
X71497754Y-106850907D01*
X71415761Y-106851057D01*
X71326667Y-106851188D01*
X71230273Y-106851301D01*
X71126382Y-106851398D01*
X71014794Y-106851478D01*
X70895312Y-106851542D01*
X70767737Y-106851591D01*
X70647983Y-106851623D01*
X70541079Y-106851641D01*
X70436120Y-106851650D01*
X70333440Y-106851650D01*
X70233368Y-106851641D01*
X70136237Y-106851624D01*
X70042378Y-106851599D01*
X69952122Y-106851566D01*
X69865800Y-106851525D01*
X69783745Y-106851477D01*
X69706287Y-106851421D01*
X69633757Y-106851359D01*
X69566488Y-106851291D01*
X69504811Y-106851216D01*
X69449056Y-106851135D01*
X69399556Y-106851049D01*
X69356641Y-106850957D01*
X69320643Y-106850860D01*
X69291894Y-106850758D01*
X69270725Y-106850651D01*
X69257466Y-106850540D01*
X69253152Y-106850463D01*
X69234375Y-106849494D01*
X69218695Y-106848018D01*
X69208084Y-106846262D01*
X69204681Y-106844941D01*
X69197766Y-106841963D01*
X69188271Y-106840867D01*
X69175981Y-106839617D01*
X69157628Y-106836207D01*
X69135184Y-106831142D01*
X69110621Y-106824927D01*
X69085911Y-106818070D01*
X69063028Y-106811077D01*
X69043942Y-106804453D01*
X69039317Y-106802640D01*
X69027455Y-106797912D01*
X69018150Y-106794334D01*
X69001199Y-106787167D01*
X68979334Y-106776658D01*
X68954805Y-106763978D01*
X68929861Y-106750298D01*
X68906751Y-106736789D01*
X68901733Y-106733706D01*
X68835549Y-106687675D01*
X68775147Y-106635510D01*
X68720772Y-106577483D01*
X68672669Y-106513863D01*
X68631082Y-106444922D01*
X68618263Y-106419896D01*
X68604210Y-106388918D01*
X68590250Y-106354016D01*
X68577264Y-106317719D01*
X68566131Y-106282554D01*
X68557730Y-106251050D01*
X68554859Y-106237616D01*
X68551417Y-106220120D01*
X68547836Y-106202788D01*
X68545961Y-106194164D01*
X68545379Y-106187348D01*
X68544841Y-106172689D01*
X68544348Y-106150809D01*
X68543899Y-106122332D01*
X68543495Y-106087880D01*
X68543135Y-106048076D01*
X68542820Y-106003545D01*
X68542549Y-105954908D01*
X68542323Y-105902789D01*
X68542141Y-105847810D01*
X68542004Y-105790595D01*
X68541911Y-105731767D01*
X68541862Y-105671949D01*
X68541858Y-105611764D01*
X68541899Y-105551834D01*
X68541984Y-105492783D01*
X68542113Y-105435234D01*
X68542287Y-105379810D01*
X68542506Y-105327134D01*
X68542768Y-105277830D01*
X68543076Y-105232519D01*
X68543427Y-105191825D01*
X68543824Y-105156371D01*
X68544264Y-105126780D01*
X68544750Y-105103676D01*
X68545279Y-105087680D01*
X68545853Y-105079417D01*
X68545961Y-105078802D01*
X68549108Y-105064164D01*
X68552779Y-105046196D01*
X68554909Y-105035350D01*
X68559043Y-105015916D01*
X68564165Y-104994843D01*
X68569749Y-104973985D01*
X68575268Y-104955191D01*
X68580194Y-104940314D01*
X68584002Y-104931207D01*
X68584969Y-104929728D01*
X68588335Y-104921932D01*
X68588467Y-104920319D01*
X68590126Y-104913841D01*
X68594444Y-104902383D01*
X68599574Y-104890474D01*
X68636913Y-104816372D01*
X68678561Y-104749286D01*
X68724940Y-104688711D01*
X68776467Y-104634141D01*
X68833563Y-104585074D01*
X68882683Y-104550000D01*
X68911113Y-104531720D01*
X68936489Y-104516559D01*
X68961100Y-104503349D01*
X68987236Y-104490926D01*
X69017185Y-104478122D01*
X69047783Y-104465899D01*
X69078819Y-104455167D01*
X69114629Y-104445106D01*
X69151526Y-104436747D01*
X69153617Y-104436338D01*
X69171386Y-104432710D01*
X69189237Y-104428791D01*
X69198067Y-104426710D01*
X69206080Y-104425752D01*
X69222204Y-104424831D01*
X69246480Y-104423949D01*
X69278949Y-104423104D01*
X69319651Y-104422295D01*
X69368628Y-104421522D01*
X69425921Y-104420784D01*
X69491572Y-104420080D01*
X69565620Y-104419410D01*
X69619283Y-104418984D01*
X69681646Y-104418470D01*
X69741019Y-104417898D01*
X69796849Y-104417275D01*
X69848582Y-104416612D01*
X69895663Y-104415918D01*
X69937538Y-104415202D01*
X69973652Y-104414473D01*
X70003452Y-104413742D01*
X70026383Y-104413016D01*
X70041890Y-104412307D01*
X70048966Y-104411702D01*
X70098966Y-104402874D01*
X70142888Y-104392546D01*
X70183081Y-104380022D01*
X70221894Y-104364608D01*
X70245866Y-104353505D01*
X70298665Y-104323396D01*
X70345555Y-104287319D01*
X70386332Y-104245478D01*
X70420791Y-104198075D01*
X70443361Y-104156933D01*
X70461221Y-104112753D01*
X70473955Y-104064937D01*
X70481781Y-104012365D01*
X70484917Y-103953917D01*
X70485000Y-103941833D01*
X70485502Y-103910958D01*
X70487304Y-103886815D01*
X70490843Y-103867713D01*
X70496562Y-103851960D01*
X70504899Y-103837866D01*
X70515487Y-103824651D01*
X70529254Y-103811424D01*
X70545522Y-103799104D01*
X70554328Y-103793806D01*
X70567465Y-103787698D01*
X70579874Y-103784227D01*
X70594884Y-103782710D01*
X70609883Y-103782447D01*
X70629080Y-103782947D01*
G36*
X70804617Y-107452583D02*
G01*
X70768433Y-107453794D01*
X70751668Y-107454017D01*
X70738262Y-107453565D01*
X70730366Y-107452535D01*
X70729274Y-107452030D01*
X70728574Y-107447240D01*
X70727933Y-107434977D01*
X70727370Y-107416235D01*
X70726906Y-107392008D01*
X70726560Y-107363289D01*
X70726353Y-107331073D01*
X70726300Y-107303711D01*
X70726300Y-107158367D01*
X70806843Y-107158367D01*
X70804617Y-107452583D01*
G37*
X70804617Y-107452583D02*
X70768433Y-107453794D01*
X70751668Y-107454017D01*
X70738262Y-107453565D01*
X70730366Y-107452535D01*
X70729274Y-107452030D01*
X70728574Y-107447240D01*
X70727933Y-107434977D01*
X70727370Y-107416235D01*
X70726906Y-107392008D01*
X70726560Y-107363289D01*
X70726353Y-107331073D01*
X70726300Y-107303711D01*
X70726300Y-107158367D01*
X70806843Y-107158367D01*
X70804617Y-107452583D01*
G36*
X70620467Y-107454700D02*
G01*
X70587305Y-107454700D01*
X70571288Y-107454362D01*
X70558715Y-107453468D01*
X70551845Y-107452193D01*
X70551322Y-107451878D01*
X70550658Y-107447124D01*
X70550050Y-107434897D01*
X70549516Y-107416188D01*
X70549075Y-107391989D01*
X70548747Y-107363294D01*
X70548550Y-107331094D01*
X70548500Y-107303711D01*
X70548500Y-107158367D01*
X70620467Y-107158367D01*
X70620467Y-107454700D01*
G37*
X70620467Y-107454700D02*
X70587305Y-107454700D01*
X70571288Y-107454362D01*
X70558715Y-107453468D01*
X70551845Y-107452193D01*
X70551322Y-107451878D01*
X70550658Y-107447124D01*
X70550050Y-107434897D01*
X70549516Y-107416188D01*
X70549075Y-107391989D01*
X70548747Y-107363294D01*
X70548550Y-107331094D01*
X70548500Y-107303711D01*
X70548500Y-107158367D01*
X70620467Y-107158367D01*
X70620467Y-107454700D01*
G36*
X71244151Y-107068978D02*
G01*
X71247055Y-107069766D01*
X71287210Y-107084050D01*
X71322093Y-107103615D01*
X71353879Y-107129712D01*
X71357525Y-107133279D01*
X71383614Y-107164218D01*
X71404132Y-107198940D01*
X71417922Y-107235326D01*
X71421385Y-107250353D01*
X71426261Y-107276722D01*
X71507022Y-107277869D01*
X71587783Y-107279017D01*
X71587783Y-107329817D01*
X71425601Y-107332113D01*
X71420328Y-107354248D01*
X71406367Y-107395155D01*
X71385261Y-107432572D01*
X71357911Y-107465590D01*
X71325220Y-107493298D01*
X71288087Y-107514788D01*
X71247414Y-107529148D01*
X71247000Y-107529251D01*
X71227355Y-107532504D01*
X71203057Y-107534211D01*
X71177150Y-107534378D01*
X71152674Y-107533010D01*
X71132670Y-107530109D01*
X71128467Y-107529074D01*
X71089232Y-107513974D01*
X71051015Y-107490982D01*
X71034558Y-107478317D01*
X71006268Y-107454982D01*
X70958359Y-107453783D01*
X70910450Y-107452583D01*
X70909337Y-107305475D01*
X70908223Y-107158367D01*
X70994087Y-107158367D01*
X71022308Y-107131744D01*
X71053204Y-107105865D01*
X71084403Y-107086828D01*
X71118289Y-107073269D01*
X71131068Y-107069607D01*
X71169917Y-107062413D01*
X71206702Y-107062202D01*
X71244151Y-107068978D01*
G37*
X71244151Y-107068978D02*
X71247055Y-107069766D01*
X71287210Y-107084050D01*
X71322093Y-107103615D01*
X71353879Y-107129712D01*
X71357525Y-107133279D01*
X71383614Y-107164218D01*
X71404132Y-107198940D01*
X71417922Y-107235326D01*
X71421385Y-107250353D01*
X71426261Y-107276722D01*
X71507022Y-107277869D01*
X71587783Y-107279017D01*
X71587783Y-107329817D01*
X71425601Y-107332113D01*
X71420328Y-107354248D01*
X71406367Y-107395155D01*
X71385261Y-107432572D01*
X71357911Y-107465590D01*
X71325220Y-107493298D01*
X71288087Y-107514788D01*
X71247414Y-107529148D01*
X71247000Y-107529251D01*
X71227355Y-107532504D01*
X71203057Y-107534211D01*
X71177150Y-107534378D01*
X71152674Y-107533010D01*
X71132670Y-107530109D01*
X71128467Y-107529074D01*
X71089232Y-107513974D01*
X71051015Y-107490982D01*
X71034558Y-107478317D01*
X71006268Y-107454982D01*
X70958359Y-107453783D01*
X70910450Y-107452583D01*
X70909337Y-107305475D01*
X70908223Y-107158367D01*
X70994087Y-107158367D01*
X71022308Y-107131744D01*
X71053204Y-107105865D01*
X71084403Y-107086828D01*
X71118289Y-107073269D01*
X71131068Y-107069607D01*
X71169917Y-107062413D01*
X71206702Y-107062202D01*
X71244151Y-107068978D01*
G36*
X70045081Y-107062460D02*
G01*
X70082888Y-107069766D01*
X70123727Y-107084363D01*
X70159082Y-107104345D01*
X70190716Y-107130716D01*
X70191919Y-107131908D01*
X70218457Y-107158367D01*
X70489343Y-107158367D01*
X70488230Y-107305475D01*
X70487116Y-107452583D01*
X70205172Y-107454815D01*
X70186035Y-107473152D01*
X70167750Y-107487921D01*
X70144580Y-107502686D01*
X70119444Y-107515877D01*
X70095263Y-107525922D01*
X70079450Y-107530461D01*
X70059288Y-107533240D01*
X70034872Y-107534511D01*
X70009230Y-107534311D01*
X69985394Y-107532678D01*
X69966394Y-107529650D01*
X69963972Y-107529030D01*
X69924634Y-107514089D01*
X69888420Y-107492350D01*
X69856358Y-107464866D01*
X69829474Y-107432691D01*
X69808797Y-107396877D01*
X69795354Y-107358480D01*
X69794632Y-107355375D01*
X69789426Y-107332111D01*
X69627750Y-107329817D01*
X69627750Y-107279017D01*
X69708131Y-107276900D01*
X69736094Y-107276119D01*
X69756728Y-107275364D01*
X69771166Y-107274487D01*
X69780545Y-107273342D01*
X69786000Y-107271781D01*
X69788665Y-107269657D01*
X69789676Y-107266823D01*
X69789757Y-107266317D01*
X69800228Y-107223771D01*
X69818566Y-107183979D01*
X69844432Y-107147598D01*
X69858193Y-107132758D01*
X69890006Y-107105236D01*
X69923452Y-107085054D01*
X69960458Y-107071091D01*
X69967538Y-107069180D01*
X70007224Y-107062196D01*
X70045081Y-107062460D01*
G37*
X70045081Y-107062460D02*
X70082888Y-107069766D01*
X70123727Y-107084363D01*
X70159082Y-107104345D01*
X70190716Y-107130716D01*
X70191919Y-107131908D01*
X70218457Y-107158367D01*
X70489343Y-107158367D01*
X70488230Y-107305475D01*
X70487116Y-107452583D01*
X70205172Y-107454815D01*
X70186035Y-107473152D01*
X70167750Y-107487921D01*
X70144580Y-107502686D01*
X70119444Y-107515877D01*
X70095263Y-107525922D01*
X70079450Y-107530461D01*
X70059288Y-107533240D01*
X70034872Y-107534511D01*
X70009230Y-107534311D01*
X69985394Y-107532678D01*
X69966394Y-107529650D01*
X69963972Y-107529030D01*
X69924634Y-107514089D01*
X69888420Y-107492350D01*
X69856358Y-107464866D01*
X69829474Y-107432691D01*
X69808797Y-107396877D01*
X69795354Y-107358480D01*
X69794632Y-107355375D01*
X69789426Y-107332111D01*
X69627750Y-107329817D01*
X69627750Y-107279017D01*
X69708131Y-107276900D01*
X69736094Y-107276119D01*
X69756728Y-107275364D01*
X69771166Y-107274487D01*
X69780545Y-107273342D01*
X69786000Y-107271781D01*
X69788665Y-107269657D01*
X69789676Y-107266823D01*
X69789757Y-107266317D01*
X69800228Y-107223771D01*
X69818566Y-107183979D01*
X69844432Y-107147598D01*
X69858193Y-107132758D01*
X69890006Y-107105236D01*
X69923452Y-107085054D01*
X69960458Y-107071091D01*
X69967538Y-107069180D01*
X70007224Y-107062196D01*
X70045081Y-107062460D01*
G36*
X71740431Y-107768297D02*
G01*
X71762586Y-107775675D01*
X71780847Y-107788871D01*
X71792755Y-107802697D01*
X71808317Y-107830644D01*
X71816515Y-107861099D01*
X71817346Y-107892478D01*
X71810807Y-107923198D01*
X71796893Y-107951676D01*
X71793103Y-107957131D01*
X71775308Y-107974573D01*
X71752288Y-107987030D01*
X71726100Y-107993839D01*
X71698800Y-107994335D01*
X71685204Y-107991967D01*
X71660834Y-107981780D01*
X71639770Y-107964690D01*
X71623402Y-107942040D01*
X71615957Y-107925026D01*
X71613023Y-107910758D01*
X71611470Y-107891400D01*
X71611324Y-107870223D01*
X71612613Y-107850495D01*
X71615202Y-107836040D01*
X71625603Y-107813197D01*
X71642127Y-107792444D01*
X71661569Y-107777224D01*
X71673541Y-107771013D01*
X71685015Y-107767560D01*
X71699304Y-107766133D01*
X71712667Y-107765948D01*
X71740431Y-107768297D01*
G37*
X71740431Y-107768297D02*
X71762586Y-107775675D01*
X71780847Y-107788871D01*
X71792755Y-107802697D01*
X71808317Y-107830644D01*
X71816515Y-107861099D01*
X71817346Y-107892478D01*
X71810807Y-107923198D01*
X71796893Y-107951676D01*
X71793103Y-107957131D01*
X71775308Y-107974573D01*
X71752288Y-107987030D01*
X71726100Y-107993839D01*
X71698800Y-107994335D01*
X71685204Y-107991967D01*
X71660834Y-107981780D01*
X71639770Y-107964690D01*
X71623402Y-107942040D01*
X71615957Y-107925026D01*
X71613023Y-107910758D01*
X71611470Y-107891400D01*
X71611324Y-107870223D01*
X71612613Y-107850495D01*
X71615202Y-107836040D01*
X71625603Y-107813197D01*
X71642127Y-107792444D01*
X71661569Y-107777224D01*
X71673541Y-107771013D01*
X71685015Y-107767560D01*
X71699304Y-107766133D01*
X71712667Y-107765948D01*
X71740431Y-107768297D01*
G36*
X68663130Y-107749660D02*
G01*
X68670614Y-107751437D01*
X68685814Y-107758728D01*
X68702291Y-107771408D01*
X68717770Y-107787179D01*
X68729974Y-107803747D01*
X68736355Y-107817732D01*
X68737089Y-107823699D01*
X68737741Y-107835957D01*
X68738311Y-107854696D01*
X68738800Y-107880104D01*
X68739209Y-107912370D01*
X68739539Y-107951685D01*
X68739792Y-107998238D01*
X68739969Y-108052217D01*
X68740071Y-108113812D01*
X68740099Y-108183213D01*
X68740054Y-108260609D01*
X68739938Y-108346189D01*
X68739855Y-108391224D01*
X68738750Y-108947616D01*
X68726050Y-108967916D01*
X68714925Y-108982532D01*
X68701243Y-108996375D01*
X68694945Y-109001450D01*
X68684675Y-109008224D01*
X68675239Y-109012325D01*
X68663787Y-109014525D01*
X68647467Y-109015596D01*
X68642029Y-109015787D01*
X68618117Y-109015524D01*
X68600694Y-109013101D01*
X68594817Y-109011131D01*
X68571358Y-108996102D01*
X68552225Y-108975028D01*
X68543453Y-108959823D01*
X68533516Y-108938483D01*
X68533567Y-108381800D01*
X68533579Y-108301696D01*
X68533602Y-108229621D01*
X68533643Y-108165136D01*
X68533707Y-108107802D01*
X68533800Y-108057181D01*
X68533929Y-108012834D01*
X68534098Y-107974323D01*
X68534315Y-107941210D01*
X68534585Y-107913055D01*
X68534914Y-107889422D01*
X68535308Y-107869870D01*
X68535773Y-107853962D01*
X68536314Y-107841259D01*
X68536938Y-107831323D01*
X68537651Y-107823716D01*
X68538459Y-107817998D01*
X68539367Y-107813732D01*
X68540381Y-107810478D01*
X68541331Y-107808183D01*
X68551717Y-107791899D01*
X68567119Y-107775266D01*
X68584673Y-107761022D01*
X68599381Y-107752738D01*
X68617791Y-107748152D01*
X68640261Y-107747103D01*
X68663130Y-107749660D01*
G37*
X68663130Y-107749660D02*
X68670614Y-107751437D01*
X68685814Y-107758728D01*
X68702291Y-107771408D01*
X68717770Y-107787179D01*
X68729974Y-107803747D01*
X68736355Y-107817732D01*
X68737089Y-107823699D01*
X68737741Y-107835957D01*
X68738311Y-107854696D01*
X68738800Y-107880104D01*
X68739209Y-107912370D01*
X68739539Y-107951685D01*
X68739792Y-107998238D01*
X68739969Y-108052217D01*
X68740071Y-108113812D01*
X68740099Y-108183213D01*
X68740054Y-108260609D01*
X68739938Y-108346189D01*
X68739855Y-108391224D01*
X68738750Y-108947616D01*
X68726050Y-108967916D01*
X68714925Y-108982532D01*
X68701243Y-108996375D01*
X68694945Y-109001450D01*
X68684675Y-109008224D01*
X68675239Y-109012325D01*
X68663787Y-109014525D01*
X68647467Y-109015596D01*
X68642029Y-109015787D01*
X68618117Y-109015524D01*
X68600694Y-109013101D01*
X68594817Y-109011131D01*
X68571358Y-108996102D01*
X68552225Y-108975028D01*
X68543453Y-108959823D01*
X68533516Y-108938483D01*
X68533567Y-108381800D01*
X68533579Y-108301696D01*
X68533602Y-108229621D01*
X68533643Y-108165136D01*
X68533707Y-108107802D01*
X68533800Y-108057181D01*
X68533929Y-108012834D01*
X68534098Y-107974323D01*
X68534315Y-107941210D01*
X68534585Y-107913055D01*
X68534914Y-107889422D01*
X68535308Y-107869870D01*
X68535773Y-107853962D01*
X68536314Y-107841259D01*
X68536938Y-107831323D01*
X68537651Y-107823716D01*
X68538459Y-107817998D01*
X68539367Y-107813732D01*
X68540381Y-107810478D01*
X68541331Y-107808183D01*
X68551717Y-107791899D01*
X68567119Y-107775266D01*
X68584673Y-107761022D01*
X68599381Y-107752738D01*
X68617791Y-107748152D01*
X68640261Y-107747103D01*
X68663130Y-107749660D01*
G36*
X71739719Y-108048669D02*
G01*
X71762634Y-108057654D01*
X71783461Y-108073862D01*
X71789975Y-108080674D01*
X71794620Y-108085755D01*
X71798733Y-108090445D01*
X71802344Y-108095265D01*
X71805487Y-108100737D01*
X71808194Y-108107380D01*
X71810498Y-108115715D01*
X71812431Y-108126263D01*
X71814025Y-108139544D01*
X71815313Y-108156079D01*
X71816327Y-108176389D01*
X71817099Y-108200994D01*
X71817663Y-108230415D01*
X71818051Y-108265172D01*
X71818294Y-108305787D01*
X71818426Y-108352779D01*
X71818479Y-108406670D01*
X71818485Y-108467979D01*
X71818476Y-108537228D01*
X71818476Y-108538143D01*
X71818427Y-108615793D01*
X71818287Y-108685084D01*
X71818056Y-108746127D01*
X71817732Y-108799028D01*
X71817315Y-108843897D01*
X71816803Y-108880842D01*
X71816194Y-108909970D01*
X71815488Y-108931392D01*
X71814684Y-108945214D01*
X71813892Y-108951183D01*
X71802695Y-108977411D01*
X71785109Y-108999247D01*
X71762480Y-109015568D01*
X71736152Y-109025250D01*
X71722892Y-109027186D01*
X71706008Y-109027502D01*
X71689858Y-109026213D01*
X71682137Y-109024696D01*
X71666202Y-109017244D01*
X71649034Y-109004585D01*
X71633246Y-108989055D01*
X71621450Y-108972990D01*
X71619019Y-108968280D01*
X71617733Y-108965120D01*
X71616596Y-108961302D01*
X71615600Y-108956312D01*
X71614736Y-108949636D01*
X71613992Y-108940759D01*
X71613361Y-108929169D01*
X71612833Y-108914351D01*
X71612398Y-108895790D01*
X71612048Y-108872973D01*
X71611772Y-108845385D01*
X71611562Y-108812513D01*
X71611407Y-108773842D01*
X71611300Y-108728858D01*
X71611229Y-108677048D01*
X71611187Y-108617896D01*
X71611163Y-108550890D01*
X71611159Y-108537239D01*
X71611135Y-108467354D01*
X71611115Y-108405424D01*
X71611129Y-108350941D01*
X71611207Y-108303392D01*
X71611377Y-108262268D01*
X71611670Y-108227058D01*
X71612115Y-108197251D01*
X71612742Y-108172337D01*
X71613579Y-108151805D01*
X71614658Y-108135146D01*
X71616006Y-108121847D01*
X71617654Y-108111400D01*
X71619631Y-108103292D01*
X71621967Y-108097014D01*
X71624692Y-108092055D01*
X71627834Y-108087905D01*
X71631423Y-108084053D01*
X71635489Y-108079989D01*
X71637739Y-108077687D01*
X71659069Y-108059948D01*
X71682662Y-108049656D01*
X71710405Y-108046011D01*
X71712654Y-108045984D01*
X71739719Y-108048669D01*
G37*
X71739719Y-108048669D02*
X71762634Y-108057654D01*
X71783461Y-108073862D01*
X71789975Y-108080674D01*
X71794620Y-108085755D01*
X71798733Y-108090445D01*
X71802344Y-108095265D01*
X71805487Y-108100737D01*
X71808194Y-108107380D01*
X71810498Y-108115715D01*
X71812431Y-108126263D01*
X71814025Y-108139544D01*
X71815313Y-108156079D01*
X71816327Y-108176389D01*
X71817099Y-108200994D01*
X71817663Y-108230415D01*
X71818051Y-108265172D01*
X71818294Y-108305787D01*
X71818426Y-108352779D01*
X71818479Y-108406670D01*
X71818485Y-108467979D01*
X71818476Y-108537228D01*
X71818476Y-108538143D01*
X71818427Y-108615793D01*
X71818287Y-108685084D01*
X71818056Y-108746127D01*
X71817732Y-108799028D01*
X71817315Y-108843897D01*
X71816803Y-108880842D01*
X71816194Y-108909970D01*
X71815488Y-108931392D01*
X71814684Y-108945214D01*
X71813892Y-108951183D01*
X71802695Y-108977411D01*
X71785109Y-108999247D01*
X71762480Y-109015568D01*
X71736152Y-109025250D01*
X71722892Y-109027186D01*
X71706008Y-109027502D01*
X71689858Y-109026213D01*
X71682137Y-109024696D01*
X71666202Y-109017244D01*
X71649034Y-109004585D01*
X71633246Y-108989055D01*
X71621450Y-108972990D01*
X71619019Y-108968280D01*
X71617733Y-108965120D01*
X71616596Y-108961302D01*
X71615600Y-108956312D01*
X71614736Y-108949636D01*
X71613992Y-108940759D01*
X71613361Y-108929169D01*
X71612833Y-108914351D01*
X71612398Y-108895790D01*
X71612048Y-108872973D01*
X71611772Y-108845385D01*
X71611562Y-108812513D01*
X71611407Y-108773842D01*
X71611300Y-108728858D01*
X71611229Y-108677048D01*
X71611187Y-108617896D01*
X71611163Y-108550890D01*
X71611159Y-108537239D01*
X71611135Y-108467354D01*
X71611115Y-108405424D01*
X71611129Y-108350941D01*
X71611207Y-108303392D01*
X71611377Y-108262268D01*
X71611670Y-108227058D01*
X71612115Y-108197251D01*
X71612742Y-108172337D01*
X71613579Y-108151805D01*
X71614658Y-108135146D01*
X71616006Y-108121847D01*
X71617654Y-108111400D01*
X71619631Y-108103292D01*
X71621967Y-108097014D01*
X71624692Y-108092055D01*
X71627834Y-108087905D01*
X71631423Y-108084053D01*
X71635489Y-108079989D01*
X71637739Y-108077687D01*
X71659069Y-108059948D01*
X71682662Y-108049656D01*
X71710405Y-108046011D01*
X71712654Y-108045984D01*
X71739719Y-108048669D01*
G36*
X72177449Y-108048066D02*
G01*
X72231250Y-108048416D01*
X72281130Y-108048849D01*
X72323439Y-108049340D01*
X72359075Y-108050006D01*
X72388934Y-108050963D01*
X72413912Y-108052328D01*
X72434906Y-108054217D01*
X72452812Y-108056746D01*
X72468526Y-108060032D01*
X72482946Y-108064191D01*
X72496967Y-108069340D01*
X72511485Y-108075595D01*
X72527398Y-108083073D01*
X72538167Y-108088282D01*
X72560432Y-108099862D01*
X72578236Y-108111343D01*
X72594965Y-108125151D01*
X72610366Y-108140026D01*
X72632858Y-108164914D01*
X72649268Y-108187930D01*
X72654556Y-108197650D01*
X72666763Y-108223050D01*
X72670313Y-108383917D01*
X72671161Y-108429077D01*
X72671852Y-108479460D01*
X72672368Y-108532514D01*
X72672691Y-108585690D01*
X72672801Y-108636437D01*
X72672681Y-108682204D01*
X72672575Y-108697183D01*
X72672203Y-108737610D01*
X72671803Y-108770497D01*
X72671326Y-108796771D01*
X72670720Y-108817357D01*
X72669934Y-108833184D01*
X72668917Y-108845177D01*
X72667620Y-108854262D01*
X72665990Y-108861368D01*
X72663977Y-108867419D01*
X72663107Y-108869619D01*
X72652336Y-108890688D01*
X72637192Y-108913450D01*
X72619789Y-108935144D01*
X72602241Y-108953008D01*
X72594369Y-108959425D01*
X72554540Y-108984291D01*
X72509259Y-109004981D01*
X72460893Y-109020559D01*
X72417517Y-109029315D01*
X72404082Y-109030549D01*
X72383772Y-109031534D01*
X72358176Y-109032268D01*
X72328881Y-109032750D01*
X72297476Y-109032978D01*
X72265548Y-109032952D01*
X72234686Y-109032670D01*
X72206478Y-109032131D01*
X72182512Y-109031332D01*
X72164376Y-109030274D01*
X72157167Y-109029542D01*
X72110200Y-109020218D01*
X72065972Y-109005378D01*
X72025334Y-108985636D01*
X71989138Y-108961610D01*
X71958238Y-108933916D01*
X71933485Y-108903169D01*
X71915732Y-108869985D01*
X71909072Y-108850217D01*
X71907044Y-108837916D01*
X71905406Y-108818644D01*
X71904154Y-108793789D01*
X71903284Y-108764737D01*
X71902793Y-108732875D01*
X71902676Y-108699589D01*
X71902874Y-108673500D01*
X72111364Y-108673500D01*
X72111579Y-108703639D01*
X72112717Y-108802169D01*
X72129650Y-108808257D01*
X72147950Y-108814127D01*
X72166928Y-108818573D01*
X72187992Y-108821732D01*
X72212552Y-108823740D01*
X72242014Y-108824733D01*
X72277787Y-108824847D01*
X72298983Y-108824610D01*
X72331110Y-108824036D01*
X72356273Y-108823295D01*
X72375974Y-108822261D01*
X72391715Y-108820807D01*
X72405000Y-108818805D01*
X72417330Y-108816129D01*
X72425790Y-108813899D01*
X72441767Y-108809339D01*
X72454552Y-108805445D01*
X72461978Y-108802886D01*
X72462832Y-108802482D01*
X72463786Y-108797836D01*
X72464635Y-108785931D01*
X72465339Y-108767974D01*
X72465857Y-108745172D01*
X72466150Y-108718732D01*
X72466200Y-108701733D01*
X72466200Y-108603067D01*
X72435508Y-108588822D01*
X72404817Y-108574578D01*
X72301100Y-108574497D01*
X72267978Y-108574529D01*
X72241905Y-108574748D01*
X72221462Y-108575254D01*
X72205231Y-108576143D01*
X72191795Y-108577515D01*
X72179736Y-108579468D01*
X72167636Y-108582100D01*
X72158358Y-108584406D01*
X72140913Y-108589295D01*
X72126464Y-108594131D01*
X72117086Y-108598180D01*
X72114887Y-108599752D01*
X72113307Y-108606116D01*
X72112189Y-108620691D01*
X72111538Y-108643234D01*
X72111364Y-108673500D01*
X71902874Y-108673500D01*
X71902930Y-108666268D01*
X71903552Y-108634296D01*
X71904536Y-108605062D01*
X71905879Y-108579953D01*
X71907578Y-108560354D01*
X71909629Y-108547653D01*
X71909912Y-108546610D01*
X71925063Y-108509803D01*
X71947775Y-108476274D01*
X71977687Y-108446308D01*
X72014443Y-108420186D01*
X72057683Y-108398191D01*
X72107048Y-108380606D01*
X72127533Y-108375090D01*
X72146120Y-108371798D01*
X72171436Y-108369190D01*
X72201966Y-108367264D01*
X72236197Y-108366015D01*
X72272612Y-108365439D01*
X72309699Y-108365532D01*
X72345943Y-108366290D01*
X72379829Y-108367709D01*
X72409844Y-108369785D01*
X72434471Y-108372514D01*
X72452198Y-108375892D01*
X72452442Y-108375958D01*
X72456527Y-108376809D01*
X72459236Y-108375799D01*
X72460853Y-108371563D01*
X72461658Y-108362737D01*
X72461935Y-108347956D01*
X72461967Y-108329930D01*
X72461967Y-108281307D01*
X72435508Y-108269127D01*
X72409050Y-108256947D01*
X72214317Y-108254815D01*
X72168666Y-108254308D01*
X72130693Y-108253845D01*
X72099609Y-108253384D01*
X72074623Y-108252880D01*
X72054949Y-108252289D01*
X72039795Y-108251568D01*
X72028374Y-108250672D01*
X72019896Y-108249557D01*
X72013573Y-108248181D01*
X72008616Y-108246497D01*
X72004235Y-108244464D01*
X72001373Y-108242961D01*
X71984363Y-108229921D01*
X71969105Y-108210928D01*
X71957412Y-108188498D01*
X71953409Y-108176548D01*
X71950270Y-108150807D01*
X71953773Y-108124752D01*
X71963061Y-108100076D01*
X71977277Y-108078476D01*
X71995567Y-108061647D01*
X72016599Y-108051422D01*
X72024735Y-108050194D01*
X72040056Y-108049237D01*
X72062774Y-108048549D01*
X72093103Y-108048127D01*
X72131257Y-108047967D01*
X72177449Y-108048066D01*
G37*
X72177449Y-108048066D02*
X72231250Y-108048416D01*
X72281130Y-108048849D01*
X72323439Y-108049340D01*
X72359075Y-108050006D01*
X72388934Y-108050963D01*
X72413912Y-108052328D01*
X72434906Y-108054217D01*
X72452812Y-108056746D01*
X72468526Y-108060032D01*
X72482946Y-108064191D01*
X72496967Y-108069340D01*
X72511485Y-108075595D01*
X72527398Y-108083073D01*
X72538167Y-108088282D01*
X72560432Y-108099862D01*
X72578236Y-108111343D01*
X72594965Y-108125151D01*
X72610366Y-108140026D01*
X72632858Y-108164914D01*
X72649268Y-108187930D01*
X72654556Y-108197650D01*
X72666763Y-108223050D01*
X72670313Y-108383917D01*
X72671161Y-108429077D01*
X72671852Y-108479460D01*
X72672368Y-108532514D01*
X72672691Y-108585690D01*
X72672801Y-108636437D01*
X72672681Y-108682204D01*
X72672575Y-108697183D01*
X72672203Y-108737610D01*
X72671803Y-108770497D01*
X72671326Y-108796771D01*
X72670720Y-108817357D01*
X72669934Y-108833184D01*
X72668917Y-108845177D01*
X72667620Y-108854262D01*
X72665990Y-108861368D01*
X72663977Y-108867419D01*
X72663107Y-108869619D01*
X72652336Y-108890688D01*
X72637192Y-108913450D01*
X72619789Y-108935144D01*
X72602241Y-108953008D01*
X72594369Y-108959425D01*
X72554540Y-108984291D01*
X72509259Y-109004981D01*
X72460893Y-109020559D01*
X72417517Y-109029315D01*
X72404082Y-109030549D01*
X72383772Y-109031534D01*
X72358176Y-109032268D01*
X72328881Y-109032750D01*
X72297476Y-109032978D01*
X72265548Y-109032952D01*
X72234686Y-109032670D01*
X72206478Y-109032131D01*
X72182512Y-109031332D01*
X72164376Y-109030274D01*
X72157167Y-109029542D01*
X72110200Y-109020218D01*
X72065972Y-109005378D01*
X72025334Y-108985636D01*
X71989138Y-108961610D01*
X71958238Y-108933916D01*
X71933485Y-108903169D01*
X71915732Y-108869985D01*
X71909072Y-108850217D01*
X71907044Y-108837916D01*
X71905406Y-108818644D01*
X71904154Y-108793789D01*
X71903284Y-108764737D01*
X71902793Y-108732875D01*
X71902676Y-108699589D01*
X71902874Y-108673500D01*
X72111364Y-108673500D01*
X72111579Y-108703639D01*
X72112717Y-108802169D01*
X72129650Y-108808257D01*
X72147950Y-108814127D01*
X72166928Y-108818573D01*
X72187992Y-108821732D01*
X72212552Y-108823740D01*
X72242014Y-108824733D01*
X72277787Y-108824847D01*
X72298983Y-108824610D01*
X72331110Y-108824036D01*
X72356273Y-108823295D01*
X72375974Y-108822261D01*
X72391715Y-108820807D01*
X72405000Y-108818805D01*
X72417330Y-108816129D01*
X72425790Y-108813899D01*
X72441767Y-108809339D01*
X72454552Y-108805445D01*
X72461978Y-108802886D01*
X72462832Y-108802482D01*
X72463786Y-108797836D01*
X72464635Y-108785931D01*
X72465339Y-108767974D01*
X72465857Y-108745172D01*
X72466150Y-108718732D01*
X72466200Y-108701733D01*
X72466200Y-108603067D01*
X72435508Y-108588822D01*
X72404817Y-108574578D01*
X72301100Y-108574497D01*
X72267978Y-108574529D01*
X72241905Y-108574748D01*
X72221462Y-108575254D01*
X72205231Y-108576143D01*
X72191795Y-108577515D01*
X72179736Y-108579468D01*
X72167636Y-108582100D01*
X72158358Y-108584406D01*
X72140913Y-108589295D01*
X72126464Y-108594131D01*
X72117086Y-108598180D01*
X72114887Y-108599752D01*
X72113307Y-108606116D01*
X72112189Y-108620691D01*
X72111538Y-108643234D01*
X72111364Y-108673500D01*
X71902874Y-108673500D01*
X71902930Y-108666268D01*
X71903552Y-108634296D01*
X71904536Y-108605062D01*
X71905879Y-108579953D01*
X71907578Y-108560354D01*
X71909629Y-108547653D01*
X71909912Y-108546610D01*
X71925063Y-108509803D01*
X71947775Y-108476274D01*
X71977687Y-108446308D01*
X72014443Y-108420186D01*
X72057683Y-108398191D01*
X72107048Y-108380606D01*
X72127533Y-108375090D01*
X72146120Y-108371798D01*
X72171436Y-108369190D01*
X72201966Y-108367264D01*
X72236197Y-108366015D01*
X72272612Y-108365439D01*
X72309699Y-108365532D01*
X72345943Y-108366290D01*
X72379829Y-108367709D01*
X72409844Y-108369785D01*
X72434471Y-108372514D01*
X72452198Y-108375892D01*
X72452442Y-108375958D01*
X72456527Y-108376809D01*
X72459236Y-108375799D01*
X72460853Y-108371563D01*
X72461658Y-108362737D01*
X72461935Y-108347956D01*
X72461967Y-108329930D01*
X72461967Y-108281307D01*
X72435508Y-108269127D01*
X72409050Y-108256947D01*
X72214317Y-108254815D01*
X72168666Y-108254308D01*
X72130693Y-108253845D01*
X72099609Y-108253384D01*
X72074623Y-108252880D01*
X72054949Y-108252289D01*
X72039795Y-108251568D01*
X72028374Y-108250672D01*
X72019896Y-108249557D01*
X72013573Y-108248181D01*
X72008616Y-108246497D01*
X72004235Y-108244464D01*
X72001373Y-108242961D01*
X71984363Y-108229921D01*
X71969105Y-108210928D01*
X71957412Y-108188498D01*
X71953409Y-108176548D01*
X71950270Y-108150807D01*
X71953773Y-108124752D01*
X71963061Y-108100076D01*
X71977277Y-108078476D01*
X71995567Y-108061647D01*
X72016599Y-108051422D01*
X72024735Y-108050194D01*
X72040056Y-108049237D01*
X72062774Y-108048549D01*
X72093103Y-108048127D01*
X72131257Y-108047967D01*
X72177449Y-108048066D01*
G36*
X71159040Y-108051720D02*
G01*
X71198302Y-108052163D01*
X71231186Y-108053057D01*
X71258734Y-108054528D01*
X71281990Y-108056701D01*
X71301997Y-108059703D01*
X71319796Y-108063660D01*
X71336432Y-108068699D01*
X71352947Y-108074945D01*
X71370384Y-108082526D01*
X71371332Y-108082958D01*
X71415193Y-108106594D01*
X71452434Y-108134338D01*
X71482729Y-108165808D01*
X71505750Y-108200625D01*
X71521169Y-108238409D01*
X71526838Y-108263598D01*
X71527694Y-108273411D01*
X71528408Y-108290598D01*
X71528984Y-108314371D01*
X71529430Y-108343944D01*
X71529750Y-108378532D01*
X71529949Y-108417348D01*
X71530032Y-108459607D01*
X71530006Y-108504521D01*
X71529876Y-108551306D01*
X71529646Y-108599174D01*
X71529323Y-108647340D01*
X71528912Y-108695018D01*
X71528418Y-108741421D01*
X71527846Y-108785764D01*
X71527202Y-108827260D01*
X71526491Y-108865123D01*
X71525720Y-108898568D01*
X71524892Y-108926807D01*
X71524013Y-108949055D01*
X71523090Y-108964526D01*
X71522126Y-108972434D01*
X71521979Y-108972916D01*
X71511398Y-108990620D01*
X71493754Y-109007878D01*
X71475600Y-109020353D01*
X71463762Y-109026509D01*
X71452316Y-109029933D01*
X71437975Y-109031348D01*
X71424800Y-109031532D01*
X71401940Y-109030281D01*
X71383952Y-109025827D01*
X71367507Y-109016908D01*
X71350574Y-109003407D01*
X71345535Y-108999086D01*
X71341134Y-108995176D01*
X71337329Y-108991104D01*
X71334077Y-108986301D01*
X71331336Y-108980195D01*
X71329065Y-108972216D01*
X71327222Y-108961792D01*
X71325765Y-108948353D01*
X71324652Y-108931328D01*
X71323841Y-108910146D01*
X71323290Y-108884236D01*
X71322958Y-108853027D01*
X71322801Y-108815948D01*
X71322780Y-108772429D01*
X71322850Y-108721899D01*
X71322971Y-108663786D01*
X71323044Y-108628446D01*
X71323694Y-108297243D01*
X71313762Y-108287311D01*
X71303379Y-108280430D01*
X71286569Y-108273383D01*
X71269835Y-108268206D01*
X71259226Y-108265503D01*
X71248977Y-108263387D01*
X71237889Y-108261786D01*
X71224760Y-108260630D01*
X71208391Y-108259848D01*
X71187580Y-108259369D01*
X71161127Y-108259123D01*
X71127832Y-108259038D01*
X71114232Y-108259033D01*
X71072800Y-108259180D01*
X71038764Y-108259704D01*
X71011055Y-108260732D01*
X70988606Y-108262391D01*
X70970349Y-108264807D01*
X70955217Y-108268107D01*
X70942141Y-108272418D01*
X70930053Y-108277864D01*
X70922867Y-108281711D01*
X70906217Y-108291049D01*
X70904100Y-108625350D01*
X70901983Y-108959650D01*
X70892309Y-108979286D01*
X70877589Y-109000078D01*
X70857099Y-109016380D01*
X70832622Y-109027527D01*
X70805939Y-109032855D01*
X70778835Y-109031701D01*
X70762823Y-109027518D01*
X70742943Y-109017442D01*
X70723211Y-109002416D01*
X70707524Y-108985552D01*
X70705979Y-108983360D01*
X70704629Y-108980828D01*
X70703458Y-108977406D01*
X70702456Y-108972546D01*
X70701608Y-108965699D01*
X70700901Y-108956316D01*
X70700324Y-108943849D01*
X70699862Y-108927749D01*
X70699504Y-108907467D01*
X70699235Y-108882455D01*
X70699043Y-108852163D01*
X70698915Y-108816043D01*
X70698838Y-108773547D01*
X70698799Y-108724124D01*
X70698785Y-108667228D01*
X70698783Y-108615380D01*
X70698783Y-108256917D01*
X70709367Y-108228193D01*
X70728108Y-108189460D01*
X70754287Y-108154654D01*
X70787772Y-108123909D01*
X70828430Y-108097361D01*
X70846950Y-108087814D01*
X70865851Y-108079016D01*
X70883293Y-108071757D01*
X70900345Y-108065893D01*
X70918077Y-108061276D01*
X70937558Y-108057762D01*
X70959857Y-108055203D01*
X70986046Y-108053454D01*
X71017193Y-108052369D01*
X71054367Y-108051802D01*
X71098639Y-108051608D01*
X71112356Y-108051600D01*
X71159040Y-108051720D01*
G37*
X71159040Y-108051720D02*
X71198302Y-108052163D01*
X71231186Y-108053057D01*
X71258734Y-108054528D01*
X71281990Y-108056701D01*
X71301997Y-108059703D01*
X71319796Y-108063660D01*
X71336432Y-108068699D01*
X71352947Y-108074945D01*
X71370384Y-108082526D01*
X71371332Y-108082958D01*
X71415193Y-108106594D01*
X71452434Y-108134338D01*
X71482729Y-108165808D01*
X71505750Y-108200625D01*
X71521169Y-108238409D01*
X71526838Y-108263598D01*
X71527694Y-108273411D01*
X71528408Y-108290598D01*
X71528984Y-108314371D01*
X71529430Y-108343944D01*
X71529750Y-108378532D01*
X71529949Y-108417348D01*
X71530032Y-108459607D01*
X71530006Y-108504521D01*
X71529876Y-108551306D01*
X71529646Y-108599174D01*
X71529323Y-108647340D01*
X71528912Y-108695018D01*
X71528418Y-108741421D01*
X71527846Y-108785764D01*
X71527202Y-108827260D01*
X71526491Y-108865123D01*
X71525720Y-108898568D01*
X71524892Y-108926807D01*
X71524013Y-108949055D01*
X71523090Y-108964526D01*
X71522126Y-108972434D01*
X71521979Y-108972916D01*
X71511398Y-108990620D01*
X71493754Y-109007878D01*
X71475600Y-109020353D01*
X71463762Y-109026509D01*
X71452316Y-109029933D01*
X71437975Y-109031348D01*
X71424800Y-109031532D01*
X71401940Y-109030281D01*
X71383952Y-109025827D01*
X71367507Y-109016908D01*
X71350574Y-109003407D01*
X71345535Y-108999086D01*
X71341134Y-108995176D01*
X71337329Y-108991104D01*
X71334077Y-108986301D01*
X71331336Y-108980195D01*
X71329065Y-108972216D01*
X71327222Y-108961792D01*
X71325765Y-108948353D01*
X71324652Y-108931328D01*
X71323841Y-108910146D01*
X71323290Y-108884236D01*
X71322958Y-108853027D01*
X71322801Y-108815948D01*
X71322780Y-108772429D01*
X71322850Y-108721899D01*
X71322971Y-108663786D01*
X71323044Y-108628446D01*
X71323694Y-108297243D01*
X71313762Y-108287311D01*
X71303379Y-108280430D01*
X71286569Y-108273383D01*
X71269835Y-108268206D01*
X71259226Y-108265503D01*
X71248977Y-108263387D01*
X71237889Y-108261786D01*
X71224760Y-108260630D01*
X71208391Y-108259848D01*
X71187580Y-108259369D01*
X71161127Y-108259123D01*
X71127832Y-108259038D01*
X71114232Y-108259033D01*
X71072800Y-108259180D01*
X71038764Y-108259704D01*
X71011055Y-108260732D01*
X70988606Y-108262391D01*
X70970349Y-108264807D01*
X70955217Y-108268107D01*
X70942141Y-108272418D01*
X70930053Y-108277864D01*
X70922867Y-108281711D01*
X70906217Y-108291049D01*
X70904100Y-108625350D01*
X70901983Y-108959650D01*
X70892309Y-108979286D01*
X70877589Y-109000078D01*
X70857099Y-109016380D01*
X70832622Y-109027527D01*
X70805939Y-109032855D01*
X70778835Y-109031701D01*
X70762823Y-109027518D01*
X70742943Y-109017442D01*
X70723211Y-109002416D01*
X70707524Y-108985552D01*
X70705979Y-108983360D01*
X70704629Y-108980828D01*
X70703458Y-108977406D01*
X70702456Y-108972546D01*
X70701608Y-108965699D01*
X70700901Y-108956316D01*
X70700324Y-108943849D01*
X70699862Y-108927749D01*
X70699504Y-108907467D01*
X70699235Y-108882455D01*
X70699043Y-108852163D01*
X70698915Y-108816043D01*
X70698838Y-108773547D01*
X70698799Y-108724124D01*
X70698785Y-108667228D01*
X70698783Y-108615380D01*
X70698783Y-108256917D01*
X70709367Y-108228193D01*
X70728108Y-108189460D01*
X70754287Y-108154654D01*
X70787772Y-108123909D01*
X70828430Y-108097361D01*
X70846950Y-108087814D01*
X70865851Y-108079016D01*
X70883293Y-108071757D01*
X70900345Y-108065893D01*
X70918077Y-108061276D01*
X70937558Y-108057762D01*
X70959857Y-108055203D01*
X70986046Y-108053454D01*
X71017193Y-108052369D01*
X71054367Y-108051802D01*
X71098639Y-108051608D01*
X71112356Y-108051600D01*
X71159040Y-108051720D01*
G36*
X70396508Y-107756077D02*
G01*
X70442059Y-107776428D01*
X70484006Y-107803526D01*
X70521397Y-107836428D01*
X70553284Y-107874193D01*
X70578717Y-107915879D01*
X70593885Y-107951734D01*
X70599137Y-107968070D01*
X70602566Y-107982272D01*
X70604546Y-107997040D01*
X70605449Y-108015078D01*
X70605650Y-108036908D01*
X70605650Y-108087833D01*
X70590625Y-108108762D01*
X70571064Y-108129528D01*
X70547602Y-108144026D01*
X70521761Y-108152019D01*
X70495062Y-108153272D01*
X70469028Y-108147550D01*
X70445182Y-108134618D01*
X70441604Y-108131809D01*
X70422633Y-108112189D01*
X70409791Y-108089052D01*
X70402293Y-108060798D01*
X70400693Y-108048507D01*
X70395436Y-108019611D01*
X70385643Y-107996660D01*
X70370473Y-107977980D01*
X70361458Y-107970360D01*
X70354105Y-107965060D01*
X70346703Y-107960741D01*
X70338346Y-107957313D01*
X70328123Y-107954686D01*
X70315126Y-107952769D01*
X70298447Y-107951472D01*
X70277177Y-107950704D01*
X70250408Y-107950376D01*
X70217232Y-107950396D01*
X70176738Y-107950675D01*
X70164681Y-107950780D01*
X70015813Y-107952117D01*
X69997583Y-107964935D01*
X69983640Y-107976703D01*
X69970363Y-107990969D01*
X69966535Y-107995989D01*
X69953716Y-108014226D01*
X69952589Y-108382801D01*
X69952395Y-108447081D01*
X69952238Y-108503445D01*
X69952131Y-108552444D01*
X69952083Y-108594626D01*
X69952105Y-108630542D01*
X69952210Y-108660743D01*
X69952408Y-108685778D01*
X69952710Y-108706199D01*
X69953128Y-108722555D01*
X69953672Y-108735396D01*
X69954353Y-108745272D01*
X69955183Y-108752735D01*
X69956172Y-108758333D01*
X69957333Y-108762618D01*
X69958675Y-108766139D01*
X69960210Y-108769447D01*
X69960396Y-108769831D01*
X69973930Y-108789704D01*
X69992843Y-108806839D01*
X70014337Y-108818929D01*
X70023707Y-108822011D01*
X70034221Y-108823527D01*
X70052291Y-108824654D01*
X70078107Y-108825396D01*
X70111862Y-108825757D01*
X70153748Y-108825740D01*
X70188754Y-108825500D01*
X70227820Y-108825130D01*
X70259340Y-108824760D01*
X70284233Y-108824327D01*
X70303422Y-108823773D01*
X70317826Y-108823036D01*
X70328366Y-108822056D01*
X70335961Y-108820772D01*
X70341534Y-108819125D01*
X70346003Y-108817053D01*
X70349596Y-108814928D01*
X70368932Y-108798061D01*
X70384676Y-108774040D01*
X70396423Y-108743555D01*
X70400079Y-108728933D01*
X70401328Y-108718697D01*
X70402330Y-108701705D01*
X70403032Y-108679666D01*
X70403378Y-108654289D01*
X70403315Y-108627333D01*
X70402450Y-108544783D01*
X70315666Y-108542497D01*
X70283077Y-108541469D01*
X70257910Y-108540255D01*
X70239122Y-108538762D01*
X70225671Y-108536901D01*
X70216513Y-108534580D01*
X70214066Y-108533614D01*
X70188911Y-108518132D01*
X70170045Y-108497234D01*
X70157922Y-108471640D01*
X70152998Y-108442069D01*
X70152909Y-108436833D01*
X70156009Y-108409165D01*
X70165707Y-108385598D01*
X70182889Y-108364071D01*
X70185136Y-108361872D01*
X70192674Y-108355010D01*
X70200184Y-108349438D01*
X70208608Y-108345020D01*
X70218888Y-108341624D01*
X70231966Y-108339117D01*
X70248783Y-108337364D01*
X70270281Y-108336233D01*
X70297403Y-108335590D01*
X70331090Y-108335301D01*
X70372283Y-108335233D01*
X70373140Y-108335233D01*
X70411982Y-108335380D01*
X70447043Y-108335803D01*
X70477394Y-108336475D01*
X70502106Y-108337369D01*
X70520248Y-108338459D01*
X70530891Y-108339719D01*
X70531144Y-108339771D01*
X70557592Y-108349549D01*
X70579664Y-108366551D01*
X70597183Y-108390593D01*
X70609883Y-108413550D01*
X70609883Y-108959650D01*
X70598246Y-108979447D01*
X70579985Y-109003094D01*
X70557519Y-109020309D01*
X70532148Y-109030746D01*
X70505175Y-109034056D01*
X70477901Y-109029894D01*
X70452307Y-109018337D01*
X70432027Y-109005730D01*
X70406655Y-109015568D01*
X70387838Y-109021856D01*
X70367170Y-109027288D01*
X70355883Y-109029537D01*
X70343454Y-109030800D01*
X70324026Y-109031817D01*
X70298800Y-109032595D01*
X70268979Y-109033140D01*
X70235765Y-109033461D01*
X70200360Y-109033562D01*
X70163966Y-109033451D01*
X70127786Y-109033134D01*
X70093022Y-109032618D01*
X70060876Y-109031909D01*
X70032550Y-109031015D01*
X70009247Y-109029941D01*
X69992168Y-109028695D01*
X69983350Y-109027485D01*
X69937722Y-109013236D01*
X69894656Y-108991488D01*
X69855047Y-108963042D01*
X69819793Y-108928699D01*
X69789789Y-108889262D01*
X69765933Y-108845531D01*
X69757897Y-108825900D01*
X69746283Y-108794550D01*
X69746283Y-107985983D01*
X69756317Y-107956350D01*
X69776174Y-107910578D01*
X69803154Y-107868299D01*
X69836316Y-107830450D01*
X69874721Y-107797972D01*
X69917431Y-107771803D01*
X69957950Y-107754699D01*
X69965157Y-107752316D01*
X69971947Y-107750344D01*
X69979169Y-107748745D01*
X69987674Y-107747479D01*
X69998309Y-107746509D01*
X70011925Y-107745793D01*
X70029372Y-107745294D01*
X70051498Y-107744973D01*
X70079155Y-107744790D01*
X70113190Y-107744707D01*
X70154453Y-107744684D01*
X70175966Y-107744683D01*
X70364350Y-107744683D01*
X70396508Y-107756077D01*
G37*
X70396508Y-107756077D02*
X70442059Y-107776428D01*
X70484006Y-107803526D01*
X70521397Y-107836428D01*
X70553284Y-107874193D01*
X70578717Y-107915879D01*
X70593885Y-107951734D01*
X70599137Y-107968070D01*
X70602566Y-107982272D01*
X70604546Y-107997040D01*
X70605449Y-108015078D01*
X70605650Y-108036908D01*
X70605650Y-108087833D01*
X70590625Y-108108762D01*
X70571064Y-108129528D01*
X70547602Y-108144026D01*
X70521761Y-108152019D01*
X70495062Y-108153272D01*
X70469028Y-108147550D01*
X70445182Y-108134618D01*
X70441604Y-108131809D01*
X70422633Y-108112189D01*
X70409791Y-108089052D01*
X70402293Y-108060798D01*
X70400693Y-108048507D01*
X70395436Y-108019611D01*
X70385643Y-107996660D01*
X70370473Y-107977980D01*
X70361458Y-107970360D01*
X70354105Y-107965060D01*
X70346703Y-107960741D01*
X70338346Y-107957313D01*
X70328123Y-107954686D01*
X70315126Y-107952769D01*
X70298447Y-107951472D01*
X70277177Y-107950704D01*
X70250408Y-107950376D01*
X70217232Y-107950396D01*
X70176738Y-107950675D01*
X70164681Y-107950780D01*
X70015813Y-107952117D01*
X69997583Y-107964935D01*
X69983640Y-107976703D01*
X69970363Y-107990969D01*
X69966535Y-107995989D01*
X69953716Y-108014226D01*
X69952589Y-108382801D01*
X69952395Y-108447081D01*
X69952238Y-108503445D01*
X69952131Y-108552444D01*
X69952083Y-108594626D01*
X69952105Y-108630542D01*
X69952210Y-108660743D01*
X69952408Y-108685778D01*
X69952710Y-108706199D01*
X69953128Y-108722555D01*
X69953672Y-108735396D01*
X69954353Y-108745272D01*
X69955183Y-108752735D01*
X69956172Y-108758333D01*
X69957333Y-108762618D01*
X69958675Y-108766139D01*
X69960210Y-108769447D01*
X69960396Y-108769831D01*
X69973930Y-108789704D01*
X69992843Y-108806839D01*
X70014337Y-108818929D01*
X70023707Y-108822011D01*
X70034221Y-108823527D01*
X70052291Y-108824654D01*
X70078107Y-108825396D01*
X70111862Y-108825757D01*
X70153748Y-108825740D01*
X70188754Y-108825500D01*
X70227820Y-108825130D01*
X70259340Y-108824760D01*
X70284233Y-108824327D01*
X70303422Y-108823773D01*
X70317826Y-108823036D01*
X70328366Y-108822056D01*
X70335961Y-108820772D01*
X70341534Y-108819125D01*
X70346003Y-108817053D01*
X70349596Y-108814928D01*
X70368932Y-108798061D01*
X70384676Y-108774040D01*
X70396423Y-108743555D01*
X70400079Y-108728933D01*
X70401328Y-108718697D01*
X70402330Y-108701705D01*
X70403032Y-108679666D01*
X70403378Y-108654289D01*
X70403315Y-108627333D01*
X70402450Y-108544783D01*
X70315666Y-108542497D01*
X70283077Y-108541469D01*
X70257910Y-108540255D01*
X70239122Y-108538762D01*
X70225671Y-108536901D01*
X70216513Y-108534580D01*
X70214066Y-108533614D01*
X70188911Y-108518132D01*
X70170045Y-108497234D01*
X70157922Y-108471640D01*
X70152998Y-108442069D01*
X70152909Y-108436833D01*
X70156009Y-108409165D01*
X70165707Y-108385598D01*
X70182889Y-108364071D01*
X70185136Y-108361872D01*
X70192674Y-108355010D01*
X70200184Y-108349438D01*
X70208608Y-108345020D01*
X70218888Y-108341624D01*
X70231966Y-108339117D01*
X70248783Y-108337364D01*
X70270281Y-108336233D01*
X70297403Y-108335590D01*
X70331090Y-108335301D01*
X70372283Y-108335233D01*
X70373140Y-108335233D01*
X70411982Y-108335380D01*
X70447043Y-108335803D01*
X70477394Y-108336475D01*
X70502106Y-108337369D01*
X70520248Y-108338459D01*
X70530891Y-108339719D01*
X70531144Y-108339771D01*
X70557592Y-108349549D01*
X70579664Y-108366551D01*
X70597183Y-108390593D01*
X70609883Y-108413550D01*
X70609883Y-108959650D01*
X70598246Y-108979447D01*
X70579985Y-109003094D01*
X70557519Y-109020309D01*
X70532148Y-109030746D01*
X70505175Y-109034056D01*
X70477901Y-109029894D01*
X70452307Y-109018337D01*
X70432027Y-109005730D01*
X70406655Y-109015568D01*
X70387838Y-109021856D01*
X70367170Y-109027288D01*
X70355883Y-109029537D01*
X70343454Y-109030800D01*
X70324026Y-109031817D01*
X70298800Y-109032595D01*
X70268979Y-109033140D01*
X70235765Y-109033461D01*
X70200360Y-109033562D01*
X70163966Y-109033451D01*
X70127786Y-109033134D01*
X70093022Y-109032618D01*
X70060876Y-109031909D01*
X70032550Y-109031015D01*
X70009247Y-109029941D01*
X69992168Y-109028695D01*
X69983350Y-109027485D01*
X69937722Y-109013236D01*
X69894656Y-108991488D01*
X69855047Y-108963042D01*
X69819793Y-108928699D01*
X69789789Y-108889262D01*
X69765933Y-108845531D01*
X69757897Y-108825900D01*
X69746283Y-108794550D01*
X69746283Y-107985983D01*
X69756317Y-107956350D01*
X69776174Y-107910578D01*
X69803154Y-107868299D01*
X69836316Y-107830450D01*
X69874721Y-107797972D01*
X69917431Y-107771803D01*
X69957950Y-107754699D01*
X69965157Y-107752316D01*
X69971947Y-107750344D01*
X69979169Y-107748745D01*
X69987674Y-107747479D01*
X69998309Y-107746509D01*
X70011925Y-107745793D01*
X70029372Y-107745294D01*
X70051498Y-107744973D01*
X70079155Y-107744790D01*
X70113190Y-107744707D01*
X70154453Y-107744684D01*
X70175966Y-107744683D01*
X70364350Y-107744683D01*
X70396508Y-107756077D01*
G36*
X69279788Y-108051703D02*
G01*
X69312774Y-108051827D01*
X69339452Y-108052113D01*
X69360902Y-108052609D01*
X69378202Y-108053367D01*
X69392433Y-108054436D01*
X69404674Y-108055866D01*
X69416004Y-108057706D01*
X69427502Y-108060007D01*
X69429652Y-108060469D01*
X69477880Y-108074298D01*
X69521717Y-108093657D01*
X69560557Y-108117993D01*
X69593792Y-108146756D01*
X69620816Y-108179395D01*
X69641022Y-108215359D01*
X69653802Y-108254097D01*
X69656080Y-108266062D01*
X69657027Y-108275791D01*
X69657794Y-108292075D01*
X69658381Y-108315144D01*
X69658790Y-108345231D01*
X69659022Y-108382567D01*
X69659078Y-108427384D01*
X69658960Y-108479915D01*
X69658668Y-108540390D01*
X69658205Y-108609042D01*
X69658067Y-108627017D01*
X69655449Y-108959017D01*
X69645833Y-108978352D01*
X69632052Y-108997962D01*
X69612645Y-109014963D01*
X69590444Y-109027065D01*
X69582063Y-109029851D01*
X69554749Y-109033237D01*
X69527109Y-109029560D01*
X69501097Y-109019556D01*
X69478669Y-109003960D01*
X69462650Y-108984935D01*
X69449950Y-108964553D01*
X69448848Y-108627668D01*
X69447747Y-108290783D01*
X69438265Y-108283579D01*
X69429623Y-108278991D01*
X69415579Y-108273542D01*
X69398973Y-108268318D01*
X69396745Y-108267704D01*
X69386673Y-108265165D01*
X69376613Y-108263172D01*
X69365399Y-108261658D01*
X69351868Y-108260561D01*
X69334853Y-108259814D01*
X69313190Y-108259354D01*
X69285713Y-108259117D01*
X69251257Y-108259036D01*
X69240330Y-108259033D01*
X69204409Y-108259059D01*
X69175788Y-108259186D01*
X69153302Y-108259493D01*
X69135784Y-108260057D01*
X69122068Y-108260954D01*
X69110988Y-108262262D01*
X69101379Y-108264057D01*
X69092073Y-108266417D01*
X69081905Y-108269419D01*
X69081546Y-108269528D01*
X69064853Y-108275245D01*
X69050814Y-108281191D01*
X69041832Y-108286312D01*
X69040492Y-108287520D01*
X69039255Y-108289652D01*
X69038161Y-108293451D01*
X69037193Y-108299466D01*
X69036336Y-108308245D01*
X69035575Y-108320337D01*
X69034894Y-108336291D01*
X69034277Y-108356655D01*
X69033708Y-108381979D01*
X69033173Y-108412810D01*
X69032655Y-108449697D01*
X69032139Y-108493189D01*
X69031610Y-108543835D01*
X69031050Y-108602184D01*
X69030819Y-108627333D01*
X69030250Y-108689738D01*
X69029730Y-108744249D01*
X69029220Y-108791439D01*
X69028684Y-108831879D01*
X69028083Y-108866142D01*
X69027380Y-108894800D01*
X69026536Y-108918426D01*
X69025515Y-108937592D01*
X69024279Y-108952870D01*
X69022790Y-108964832D01*
X69021009Y-108974051D01*
X69018900Y-108981099D01*
X69016424Y-108986549D01*
X69013545Y-108990972D01*
X69010223Y-108994942D01*
X69006422Y-108999029D01*
X69006306Y-108999153D01*
X68986022Y-109015402D01*
X68961357Y-109026705D01*
X68934717Y-109032456D01*
X68908511Y-109032048D01*
X68892071Y-109027909D01*
X68865533Y-109014449D01*
X68844495Y-108996347D01*
X68837851Y-108987860D01*
X68827650Y-108972974D01*
X68826386Y-108627645D01*
X68826173Y-108556885D01*
X68826085Y-108494318D01*
X68826123Y-108439674D01*
X68826291Y-108392681D01*
X68826592Y-108353067D01*
X68827027Y-108320560D01*
X68827599Y-108294889D01*
X68828311Y-108275782D01*
X68829166Y-108262968D01*
X68829886Y-108257403D01*
X68841576Y-108218488D01*
X68861051Y-108182264D01*
X68887938Y-108149168D01*
X68921862Y-108119635D01*
X68962448Y-108094099D01*
X68976542Y-108086958D01*
X68994926Y-108078418D01*
X69011917Y-108071372D01*
X69028576Y-108065678D01*
X69045963Y-108061193D01*
X69065139Y-108057775D01*
X69087166Y-108055281D01*
X69113102Y-108053570D01*
X69144011Y-108052499D01*
X69180951Y-108051926D01*
X69224984Y-108051709D01*
X69239415Y-108051691D01*
X69279788Y-108051703D01*
G37*
X69279788Y-108051703D02*
X69312774Y-108051827D01*
X69339452Y-108052113D01*
X69360902Y-108052609D01*
X69378202Y-108053367D01*
X69392433Y-108054436D01*
X69404674Y-108055866D01*
X69416004Y-108057706D01*
X69427502Y-108060007D01*
X69429652Y-108060469D01*
X69477880Y-108074298D01*
X69521717Y-108093657D01*
X69560557Y-108117993D01*
X69593792Y-108146756D01*
X69620816Y-108179395D01*
X69641022Y-108215359D01*
X69653802Y-108254097D01*
X69656080Y-108266062D01*
X69657027Y-108275791D01*
X69657794Y-108292075D01*
X69658381Y-108315144D01*
X69658790Y-108345231D01*
X69659022Y-108382567D01*
X69659078Y-108427384D01*
X69658960Y-108479915D01*
X69658668Y-108540390D01*
X69658205Y-108609042D01*
X69658067Y-108627017D01*
X69655449Y-108959017D01*
X69645833Y-108978352D01*
X69632052Y-108997962D01*
X69612645Y-109014963D01*
X69590444Y-109027065D01*
X69582063Y-109029851D01*
X69554749Y-109033237D01*
X69527109Y-109029560D01*
X69501097Y-109019556D01*
X69478669Y-109003960D01*
X69462650Y-108984935D01*
X69449950Y-108964553D01*
X69448848Y-108627668D01*
X69447747Y-108290783D01*
X69438265Y-108283579D01*
X69429623Y-108278991D01*
X69415579Y-108273542D01*
X69398973Y-108268318D01*
X69396745Y-108267704D01*
X69386673Y-108265165D01*
X69376613Y-108263172D01*
X69365399Y-108261658D01*
X69351868Y-108260561D01*
X69334853Y-108259814D01*
X69313190Y-108259354D01*
X69285713Y-108259117D01*
X69251257Y-108259036D01*
X69240330Y-108259033D01*
X69204409Y-108259059D01*
X69175788Y-108259186D01*
X69153302Y-108259493D01*
X69135784Y-108260057D01*
X69122068Y-108260954D01*
X69110988Y-108262262D01*
X69101379Y-108264057D01*
X69092073Y-108266417D01*
X69081905Y-108269419D01*
X69081546Y-108269528D01*
X69064853Y-108275245D01*
X69050814Y-108281191D01*
X69041832Y-108286312D01*
X69040492Y-108287520D01*
X69039255Y-108289652D01*
X69038161Y-108293451D01*
X69037193Y-108299466D01*
X69036336Y-108308245D01*
X69035575Y-108320337D01*
X69034894Y-108336291D01*
X69034277Y-108356655D01*
X69033708Y-108381979D01*
X69033173Y-108412810D01*
X69032655Y-108449697D01*
X69032139Y-108493189D01*
X69031610Y-108543835D01*
X69031050Y-108602184D01*
X69030819Y-108627333D01*
X69030250Y-108689738D01*
X69029730Y-108744249D01*
X69029220Y-108791439D01*
X69028684Y-108831879D01*
X69028083Y-108866142D01*
X69027380Y-108894800D01*
X69026536Y-108918426D01*
X69025515Y-108937592D01*
X69024279Y-108952870D01*
X69022790Y-108964832D01*
X69021009Y-108974051D01*
X69018900Y-108981099D01*
X69016424Y-108986549D01*
X69013545Y-108990972D01*
X69010223Y-108994942D01*
X69006422Y-108999029D01*
X69006306Y-108999153D01*
X68986022Y-109015402D01*
X68961357Y-109026705D01*
X68934717Y-109032456D01*
X68908511Y-109032048D01*
X68892071Y-109027909D01*
X68865533Y-109014449D01*
X68844495Y-108996347D01*
X68837851Y-108987860D01*
X68827650Y-108972974D01*
X68826386Y-108627645D01*
X68826173Y-108556885D01*
X68826085Y-108494318D01*
X68826123Y-108439674D01*
X68826291Y-108392681D01*
X68826592Y-108353067D01*
X68827027Y-108320560D01*
X68827599Y-108294889D01*
X68828311Y-108275782D01*
X68829166Y-108262968D01*
X68829886Y-108257403D01*
X68841576Y-108218488D01*
X68861051Y-108182264D01*
X68887938Y-108149168D01*
X68921862Y-108119635D01*
X68962448Y-108094099D01*
X68976542Y-108086958D01*
X68994926Y-108078418D01*
X69011917Y-108071372D01*
X69028576Y-108065678D01*
X69045963Y-108061193D01*
X69065139Y-108057775D01*
X69087166Y-108055281D01*
X69113102Y-108053570D01*
X69144011Y-108052499D01*
X69180951Y-108051926D01*
X69224984Y-108051709D01*
X69239415Y-108051691D01*
X69279788Y-108051703D01*
G36*
X69519800Y-107327700D02*
G01*
X68982539Y-107327700D01*
X68901710Y-107327699D01*
X68828886Y-107327707D01*
X68763602Y-107327743D01*
X68705398Y-107327822D01*
X68653810Y-107327962D01*
X68608375Y-107328181D01*
X68568631Y-107328495D01*
X68534116Y-107328923D01*
X68504366Y-107329480D01*
X68478919Y-107330184D01*
X68457313Y-107331053D01*
X68439084Y-107332103D01*
X68423770Y-107333353D01*
X68410909Y-107334818D01*
X68400038Y-107336517D01*
X68390694Y-107338466D01*
X68382415Y-107340683D01*
X68374738Y-107343185D01*
X68367200Y-107345989D01*
X68359339Y-107349113D01*
X68354469Y-107351069D01*
X68311168Y-107372544D01*
X68271097Y-107401188D01*
X68243450Y-107426880D01*
X68210581Y-107466241D01*
X68185249Y-107509338D01*
X68167330Y-107556428D01*
X68156701Y-107607770D01*
X68156679Y-107607936D01*
X68156021Y-107616474D01*
X68155431Y-107631606D01*
X68154908Y-107653478D01*
X68154451Y-107682236D01*
X68154060Y-107718025D01*
X68153734Y-107760991D01*
X68153472Y-107811278D01*
X68153274Y-107869034D01*
X68153139Y-107934404D01*
X68153066Y-108007533D01*
X68153056Y-108088567D01*
X68153106Y-108177651D01*
X68153217Y-108274931D01*
X68153360Y-108364867D01*
X68153512Y-108457829D01*
X68153636Y-108542719D01*
X68153749Y-108619932D01*
X68153868Y-108689861D01*
X68154011Y-108752903D01*
X68154193Y-108809450D01*
X68154432Y-108859898D01*
X68154745Y-108904641D01*
X68155149Y-108944074D01*
X68155660Y-108978590D01*
X68156297Y-109008586D01*
X68157075Y-109034454D01*
X68158012Y-109056591D01*
X68159124Y-109075389D01*
X68160430Y-109091245D01*
X68161945Y-109104551D01*
X68163686Y-109115703D01*
X68165671Y-109125096D01*
X68167917Y-109133124D01*
X68170440Y-109140181D01*
X68173257Y-109146661D01*
X68176386Y-109152961D01*
X68179844Y-109159473D01*
X68183646Y-109166592D01*
X68187811Y-109174714D01*
X68188226Y-109175550D01*
X68213716Y-109219459D01*
X68243826Y-109256664D01*
X68279445Y-109288043D01*
X68321461Y-109314473D01*
X68336583Y-109322116D01*
X68356278Y-109330853D01*
X68377293Y-109339063D01*
X68395550Y-109345170D01*
X68397966Y-109345852D01*
X68400282Y-109346411D01*
X68403169Y-109346940D01*
X68406846Y-109347443D01*
X68411529Y-109347918D01*
X68417435Y-109348367D01*
X68424782Y-109348791D01*
X68433788Y-109349190D01*
X68444668Y-109349566D01*
X68457641Y-109349918D01*
X68472923Y-109350247D01*
X68490732Y-109350555D01*
X68511286Y-109350842D01*
X68534800Y-109351109D01*
X68561492Y-109351356D01*
X68591580Y-109351585D01*
X68625281Y-109351795D01*
X68662811Y-109351988D01*
X68704389Y-109352164D01*
X68750231Y-109352325D01*
X68800554Y-109352471D01*
X68855576Y-109352602D01*
X68915514Y-109352720D01*
X68980585Y-109352824D01*
X69051006Y-109352917D01*
X69126994Y-109352998D01*
X69208767Y-109353068D01*
X69296542Y-109353129D01*
X69390536Y-109353180D01*
X69490965Y-109353223D01*
X69598049Y-109353258D01*
X69712002Y-109353287D01*
X69833044Y-109353308D01*
X69961390Y-109353325D01*
X70097259Y-109353336D01*
X70240867Y-109353344D01*
X70392431Y-109353348D01*
X70552169Y-109353350D01*
X70609883Y-109353350D01*
X70772525Y-109353349D01*
X70926917Y-109353346D01*
X71073277Y-109353339D01*
X71211822Y-109353329D01*
X71342769Y-109353315D01*
X71466336Y-109353295D01*
X71582738Y-109353269D01*
X71692195Y-109353236D01*
X71794922Y-109353196D01*
X71891137Y-109353148D01*
X71981058Y-109353091D01*
X72064901Y-109353024D01*
X72142884Y-109352946D01*
X72215223Y-109352858D01*
X72282136Y-109352758D01*
X72343841Y-109352644D01*
X72400554Y-109352518D01*
X72452492Y-109352378D01*
X72499874Y-109352222D01*
X72542915Y-109352051D01*
X72581833Y-109351864D01*
X72616846Y-109351660D01*
X72648170Y-109351438D01*
X72676023Y-109351197D01*
X72700622Y-109350938D01*
X72722183Y-109350658D01*
X72740926Y-109350357D01*
X72757065Y-109350035D01*
X72770819Y-109349691D01*
X72782405Y-109349324D01*
X72792040Y-109348933D01*
X72799942Y-109348518D01*
X72806326Y-109348078D01*
X72811412Y-109347612D01*
X72815415Y-109347119D01*
X72818553Y-109346599D01*
X72821043Y-109346050D01*
X72821800Y-109345852D01*
X72839228Y-109340234D01*
X72860074Y-109332257D01*
X72880258Y-109323498D01*
X72883183Y-109322116D01*
X72927460Y-109297100D01*
X72965053Y-109267420D01*
X72996850Y-109232197D01*
X73023739Y-109190554D01*
X73031541Y-109175550D01*
X73035741Y-109167313D01*
X73039577Y-109160115D01*
X73043067Y-109153563D01*
X73046226Y-109147260D01*
X73049072Y-109140813D01*
X73051623Y-109133828D01*
X73053894Y-109125909D01*
X73055903Y-109116663D01*
X73057667Y-109105694D01*
X73059202Y-109092608D01*
X73060527Y-109077011D01*
X73061657Y-109058508D01*
X73062610Y-109036705D01*
X73063403Y-109011207D01*
X73064052Y-108981619D01*
X73064576Y-108947547D01*
X73064989Y-108908597D01*
X73065311Y-108864374D01*
X73065557Y-108814483D01*
X73065744Y-108758530D01*
X73065890Y-108696121D01*
X73066011Y-108626860D01*
X73066125Y-108550354D01*
X73066249Y-108466208D01*
X73066398Y-108374027D01*
X73066415Y-108364867D01*
X73066580Y-108257365D01*
X73066679Y-108158279D01*
X73066711Y-108067561D01*
X73066676Y-107985161D01*
X73066573Y-107911028D01*
X73066404Y-107845114D01*
X73066166Y-107787368D01*
X73065860Y-107737741D01*
X73065487Y-107696183D01*
X73065045Y-107662645D01*
X73064535Y-107637078D01*
X73063955Y-107619430D01*
X73063307Y-107609653D01*
X73063253Y-107609217D01*
X73052472Y-107557660D01*
X73034370Y-107509745D01*
X73009370Y-107466067D01*
X72977895Y-107427220D01*
X72940368Y-107393802D01*
X72897212Y-107366407D01*
X72887416Y-107361447D01*
X72878495Y-107357009D01*
X72870648Y-107353008D01*
X72863418Y-107349419D01*
X72856348Y-107346219D01*
X72848980Y-107343384D01*
X72840859Y-107340889D01*
X72831526Y-107338711D01*
X72820525Y-107336826D01*
X72807399Y-107335209D01*
X72791690Y-107333837D01*
X72772942Y-107332686D01*
X72750698Y-107331730D01*
X72724500Y-107330948D01*
X72693892Y-107330314D01*
X72658417Y-107329804D01*
X72617617Y-107329395D01*
X72571035Y-107329062D01*
X72518215Y-107328782D01*
X72458699Y-107328530D01*
X72392031Y-107328283D01*
X72317753Y-107328016D01*
X72246187Y-107327747D01*
X71689623Y-107325583D01*
X71689503Y-107304417D01*
X71689383Y-107283250D01*
X72819683Y-107283250D01*
X72859900Y-107296895D01*
X72912023Y-107318894D01*
X72959352Y-107347654D01*
X73001398Y-107382648D01*
X73037673Y-107423348D01*
X73067687Y-107469229D01*
X73090952Y-107519764D01*
X73103425Y-107559414D01*
X73114061Y-107600750D01*
X73112922Y-108352167D01*
X73111783Y-109103583D01*
X73099768Y-109139566D01*
X73077412Y-109194196D01*
X73048781Y-109243160D01*
X73014012Y-109286322D01*
X72973244Y-109323541D01*
X72926617Y-109354679D01*
X72874269Y-109379598D01*
X72851433Y-109387901D01*
X72815450Y-109399916D01*
X70620467Y-109400651D01*
X70453999Y-109400703D01*
X70295797Y-109400747D01*
X70145662Y-109400782D01*
X70003393Y-109400807D01*
X69868789Y-109400822D01*
X69741651Y-109400826D01*
X69621778Y-109400819D01*
X69508970Y-109400801D01*
X69403026Y-109400770D01*
X69303747Y-109400728D01*
X69210932Y-109400672D01*
X69124381Y-109400603D01*
X69043893Y-109400520D01*
X68969269Y-109400423D01*
X68900308Y-109400312D01*
X68836810Y-109400185D01*
X68778574Y-109400043D01*
X68725401Y-109399885D01*
X68677090Y-109399710D01*
X68633441Y-109399518D01*
X68594253Y-109399309D01*
X68559327Y-109399082D01*
X68528462Y-109398837D01*
X68501457Y-109398574D01*
X68478114Y-109398291D01*
X68458230Y-109397988D01*
X68441607Y-109397666D01*
X68428043Y-109397323D01*
X68417340Y-109396959D01*
X68409295Y-109396573D01*
X68403709Y-109396166D01*
X68400383Y-109395737D01*
X68400083Y-109395674D01*
X68344843Y-109379152D01*
X68294177Y-109355607D01*
X68248422Y-109325351D01*
X68207918Y-109288691D01*
X68173003Y-109245939D01*
X68144016Y-109197402D01*
X68121295Y-109143392D01*
X68119998Y-109139566D01*
X68107983Y-109103583D01*
X68106844Y-108352167D01*
X68105705Y-107600750D01*
X68116341Y-107559414D01*
X68134355Y-107505806D01*
X68159475Y-107456465D01*
X68191214Y-107411920D01*
X68229081Y-107372696D01*
X68272590Y-107339320D01*
X68321251Y-107312319D01*
X68359866Y-107296895D01*
X68400083Y-107283250D01*
X68959942Y-107282101D01*
X69519800Y-107280952D01*
X69519800Y-107327700D01*
G37*
X69519800Y-107327700D02*
X68982539Y-107327700D01*
X68901710Y-107327699D01*
X68828886Y-107327707D01*
X68763602Y-107327743D01*
X68705398Y-107327822D01*
X68653810Y-107327962D01*
X68608375Y-107328181D01*
X68568631Y-107328495D01*
X68534116Y-107328923D01*
X68504366Y-107329480D01*
X68478919Y-107330184D01*
X68457313Y-107331053D01*
X68439084Y-107332103D01*
X68423770Y-107333353D01*
X68410909Y-107334818D01*
X68400038Y-107336517D01*
X68390694Y-107338466D01*
X68382415Y-107340683D01*
X68374738Y-107343185D01*
X68367200Y-107345989D01*
X68359339Y-107349113D01*
X68354469Y-107351069D01*
X68311168Y-107372544D01*
X68271097Y-107401188D01*
X68243450Y-107426880D01*
X68210581Y-107466241D01*
X68185249Y-107509338D01*
X68167330Y-107556428D01*
X68156701Y-107607770D01*
X68156679Y-107607936D01*
X68156021Y-107616474D01*
X68155431Y-107631606D01*
X68154908Y-107653478D01*
X68154451Y-107682236D01*
X68154060Y-107718025D01*
X68153734Y-107760991D01*
X68153472Y-107811278D01*
X68153274Y-107869034D01*
X68153139Y-107934404D01*
X68153066Y-108007533D01*
X68153056Y-108088567D01*
X68153106Y-108177651D01*
X68153217Y-108274931D01*
X68153360Y-108364867D01*
X68153512Y-108457829D01*
X68153636Y-108542719D01*
X68153749Y-108619932D01*
X68153868Y-108689861D01*
X68154011Y-108752903D01*
X68154193Y-108809450D01*
X68154432Y-108859898D01*
X68154745Y-108904641D01*
X68155149Y-108944074D01*
X68155660Y-108978590D01*
X68156297Y-109008586D01*
X68157075Y-109034454D01*
X68158012Y-109056591D01*
X68159124Y-109075389D01*
X68160430Y-109091245D01*
X68161945Y-109104551D01*
X68163686Y-109115703D01*
X68165671Y-109125096D01*
X68167917Y-109133124D01*
X68170440Y-109140181D01*
X68173257Y-109146661D01*
X68176386Y-109152961D01*
X68179844Y-109159473D01*
X68183646Y-109166592D01*
X68187811Y-109174714D01*
X68188226Y-109175550D01*
X68213716Y-109219459D01*
X68243826Y-109256664D01*
X68279445Y-109288043D01*
X68321461Y-109314473D01*
X68336583Y-109322116D01*
X68356278Y-109330853D01*
X68377293Y-109339063D01*
X68395550Y-109345170D01*
X68397966Y-109345852D01*
X68400282Y-109346411D01*
X68403169Y-109346940D01*
X68406846Y-109347443D01*
X68411529Y-109347918D01*
X68417435Y-109348367D01*
X68424782Y-109348791D01*
X68433788Y-109349190D01*
X68444668Y-109349566D01*
X68457641Y-109349918D01*
X68472923Y-109350247D01*
X68490732Y-109350555D01*
X68511286Y-109350842D01*
X68534800Y-109351109D01*
X68561492Y-109351356D01*
X68591580Y-109351585D01*
X68625281Y-109351795D01*
X68662811Y-109351988D01*
X68704389Y-109352164D01*
X68750231Y-109352325D01*
X68800554Y-109352471D01*
X68855576Y-109352602D01*
X68915514Y-109352720D01*
X68980585Y-109352824D01*
X69051006Y-109352917D01*
X69126994Y-109352998D01*
X69208767Y-109353068D01*
X69296542Y-109353129D01*
X69390536Y-109353180D01*
X69490965Y-109353223D01*
X69598049Y-109353258D01*
X69712002Y-109353287D01*
X69833044Y-109353308D01*
X69961390Y-109353325D01*
X70097259Y-109353336D01*
X70240867Y-109353344D01*
X70392431Y-109353348D01*
X70552169Y-109353350D01*
X70609883Y-109353350D01*
X70772525Y-109353349D01*
X70926917Y-109353346D01*
X71073277Y-109353339D01*
X71211822Y-109353329D01*
X71342769Y-109353315D01*
X71466336Y-109353295D01*
X71582738Y-109353269D01*
X71692195Y-109353236D01*
X71794922Y-109353196D01*
X71891137Y-109353148D01*
X71981058Y-109353091D01*
X72064901Y-109353024D01*
X72142884Y-109352946D01*
X72215223Y-109352858D01*
X72282136Y-109352758D01*
X72343841Y-109352644D01*
X72400554Y-109352518D01*
X72452492Y-109352378D01*
X72499874Y-109352222D01*
X72542915Y-109352051D01*
X72581833Y-109351864D01*
X72616846Y-109351660D01*
X72648170Y-109351438D01*
X72676023Y-109351197D01*
X72700622Y-109350938D01*
X72722183Y-109350658D01*
X72740926Y-109350357D01*
X72757065Y-109350035D01*
X72770819Y-109349691D01*
X72782405Y-109349324D01*
X72792040Y-109348933D01*
X72799942Y-109348518D01*
X72806326Y-109348078D01*
X72811412Y-109347612D01*
X72815415Y-109347119D01*
X72818553Y-109346599D01*
X72821043Y-109346050D01*
X72821800Y-109345852D01*
X72839228Y-109340234D01*
X72860074Y-109332257D01*
X72880258Y-109323498D01*
X72883183Y-109322116D01*
X72927460Y-109297100D01*
X72965053Y-109267420D01*
X72996850Y-109232197D01*
X73023739Y-109190554D01*
X73031541Y-109175550D01*
X73035741Y-109167313D01*
X73039577Y-109160115D01*
X73043067Y-109153563D01*
X73046226Y-109147260D01*
X73049072Y-109140813D01*
X73051623Y-109133828D01*
X73053894Y-109125909D01*
X73055903Y-109116663D01*
X73057667Y-109105694D01*
X73059202Y-109092608D01*
X73060527Y-109077011D01*
X73061657Y-109058508D01*
X73062610Y-109036705D01*
X73063403Y-109011207D01*
X73064052Y-108981619D01*
X73064576Y-108947547D01*
X73064989Y-108908597D01*
X73065311Y-108864374D01*
X73065557Y-108814483D01*
X73065744Y-108758530D01*
X73065890Y-108696121D01*
X73066011Y-108626860D01*
X73066125Y-108550354D01*
X73066249Y-108466208D01*
X73066398Y-108374027D01*
X73066415Y-108364867D01*
X73066580Y-108257365D01*
X73066679Y-108158279D01*
X73066711Y-108067561D01*
X73066676Y-107985161D01*
X73066573Y-107911028D01*
X73066404Y-107845114D01*
X73066166Y-107787368D01*
X73065860Y-107737741D01*
X73065487Y-107696183D01*
X73065045Y-107662645D01*
X73064535Y-107637078D01*
X73063955Y-107619430D01*
X73063307Y-107609653D01*
X73063253Y-107609217D01*
X73052472Y-107557660D01*
X73034370Y-107509745D01*
X73009370Y-107466067D01*
X72977895Y-107427220D01*
X72940368Y-107393802D01*
X72897212Y-107366407D01*
X72887416Y-107361447D01*
X72878495Y-107357009D01*
X72870648Y-107353008D01*
X72863418Y-107349419D01*
X72856348Y-107346219D01*
X72848980Y-107343384D01*
X72840859Y-107340889D01*
X72831526Y-107338711D01*
X72820525Y-107336826D01*
X72807399Y-107335209D01*
X72791690Y-107333837D01*
X72772942Y-107332686D01*
X72750698Y-107331730D01*
X72724500Y-107330948D01*
X72693892Y-107330314D01*
X72658417Y-107329804D01*
X72617617Y-107329395D01*
X72571035Y-107329062D01*
X72518215Y-107328782D01*
X72458699Y-107328530D01*
X72392031Y-107328283D01*
X72317753Y-107328016D01*
X72246187Y-107327747D01*
X71689623Y-107325583D01*
X71689503Y-107304417D01*
X71689383Y-107283250D01*
X72819683Y-107283250D01*
X72859900Y-107296895D01*
X72912023Y-107318894D01*
X72959352Y-107347654D01*
X73001398Y-107382648D01*
X73037673Y-107423348D01*
X73067687Y-107469229D01*
X73090952Y-107519764D01*
X73103425Y-107559414D01*
X73114061Y-107600750D01*
X73112922Y-108352167D01*
X73111783Y-109103583D01*
X73099768Y-109139566D01*
X73077412Y-109194196D01*
X73048781Y-109243160D01*
X73014012Y-109286322D01*
X72973244Y-109323541D01*
X72926617Y-109354679D01*
X72874269Y-109379598D01*
X72851433Y-109387901D01*
X72815450Y-109399916D01*
X70620467Y-109400651D01*
X70453999Y-109400703D01*
X70295797Y-109400747D01*
X70145662Y-109400782D01*
X70003393Y-109400807D01*
X69868789Y-109400822D01*
X69741651Y-109400826D01*
X69621778Y-109400819D01*
X69508970Y-109400801D01*
X69403026Y-109400770D01*
X69303747Y-109400728D01*
X69210932Y-109400672D01*
X69124381Y-109400603D01*
X69043893Y-109400520D01*
X68969269Y-109400423D01*
X68900308Y-109400312D01*
X68836810Y-109400185D01*
X68778574Y-109400043D01*
X68725401Y-109399885D01*
X68677090Y-109399710D01*
X68633441Y-109399518D01*
X68594253Y-109399309D01*
X68559327Y-109399082D01*
X68528462Y-109398837D01*
X68501457Y-109398574D01*
X68478114Y-109398291D01*
X68458230Y-109397988D01*
X68441607Y-109397666D01*
X68428043Y-109397323D01*
X68417340Y-109396959D01*
X68409295Y-109396573D01*
X68403709Y-109396166D01*
X68400383Y-109395737D01*
X68400083Y-109395674D01*
X68344843Y-109379152D01*
X68294177Y-109355607D01*
X68248422Y-109325351D01*
X68207918Y-109288691D01*
X68173003Y-109245939D01*
X68144016Y-109197402D01*
X68121295Y-109143392D01*
X68119998Y-109139566D01*
X68107983Y-109103583D01*
X68106844Y-108352167D01*
X68105705Y-107600750D01*
X68116341Y-107559414D01*
X68134355Y-107505806D01*
X68159475Y-107456465D01*
X68191214Y-107411920D01*
X68229081Y-107372696D01*
X68272590Y-107339320D01*
X68321251Y-107312319D01*
X68359866Y-107296895D01*
X68400083Y-107283250D01*
X68959942Y-107282101D01*
X69519800Y-107280952D01*
X69519800Y-107327700D01*
D12*
X83058095Y-92924380D02*
X83058095Y-93733904D01*
X83105714Y-93829142D01*
X83153333Y-93876761D01*
X83248571Y-93924380D01*
X83439047Y-93924380D01*
X83534285Y-93876761D01*
X83581904Y-93829142D01*
X83629523Y-93733904D01*
X83629523Y-92924380D01*
X84629523Y-93924380D02*
X84058095Y-93924380D01*
X84343809Y-93924380D02*
X84343809Y-92924380D01*
X84248571Y-93067238D01*
X84153333Y-93162476D01*
X84058095Y-93210095D01*
X87463333Y-94432380D02*
X87130000Y-93956190D01*
X86891904Y-94432380D02*
X86891904Y-93432380D01*
X87272857Y-93432380D01*
X87368095Y-93480000D01*
X87415714Y-93527619D01*
X87463333Y-93622857D01*
X87463333Y-93765714D01*
X87415714Y-93860952D01*
X87368095Y-93908571D01*
X87272857Y-93956190D01*
X86891904Y-93956190D01*
X87844285Y-93527619D02*
X87891904Y-93480000D01*
X87987142Y-93432380D01*
X88225238Y-93432380D01*
X88320476Y-93480000D01*
X88368095Y-93527619D01*
X88415714Y-93622857D01*
X88415714Y-93718095D01*
X88368095Y-93860952D01*
X87796666Y-94432380D01*
X88415714Y-94432380D01*
X90003333Y-94432380D02*
X89670000Y-93956190D01*
X89431904Y-94432380D02*
X89431904Y-93432380D01*
X89812857Y-93432380D01*
X89908095Y-93480000D01*
X89955714Y-93527619D01*
X90003333Y-93622857D01*
X90003333Y-93765714D01*
X89955714Y-93860952D01*
X89908095Y-93908571D01*
X89812857Y-93956190D01*
X89431904Y-93956190D01*
X90955714Y-94432380D02*
X90384285Y-94432380D01*
X90670000Y-94432380D02*
X90670000Y-93432380D01*
X90574761Y-93575238D01*
X90479523Y-93670476D01*
X90384285Y-93718095D01*
X67611666Y-92162380D02*
X67611666Y-92876666D01*
X67564047Y-93019523D01*
X67468809Y-93114761D01*
X67325952Y-93162380D01*
X67230714Y-93162380D01*
X68611666Y-93162380D02*
X68040238Y-93162380D01*
X68325952Y-93162380D02*
X68325952Y-92162380D01*
X68230714Y-92305238D01*
X68135476Y-92400476D01*
X68040238Y-92448095D01*
X77049333Y-90368380D02*
X76573142Y-90368380D01*
X76573142Y-89368380D01*
X77906476Y-90368380D02*
X77335047Y-90368380D01*
X77620761Y-90368380D02*
X77620761Y-89368380D01*
X77525523Y-89511238D01*
X77430285Y-89606476D01*
X77335047Y-89654095D01*
X95678666Y-108164380D02*
X95678666Y-108878666D01*
X95631047Y-109021523D01*
X95535809Y-109116761D01*
X95392952Y-109164380D01*
X95297714Y-109164380D01*
X96059619Y-108164380D02*
X96678666Y-108164380D01*
X96345333Y-108545333D01*
X96488190Y-108545333D01*
X96583428Y-108592952D01*
X96631047Y-108640571D01*
X96678666Y-108735809D01*
X96678666Y-108973904D01*
X96631047Y-109069142D01*
X96583428Y-109116761D01*
X96488190Y-109164380D01*
X96202476Y-109164380D01*
X96107238Y-109116761D01*
X96059619Y-109069142D01*
X80503333Y-95607142D02*
X80455714Y-95654761D01*
X80312857Y-95702380D01*
X80217619Y-95702380D01*
X80074761Y-95654761D01*
X79979523Y-95559523D01*
X79931904Y-95464285D01*
X79884285Y-95273809D01*
X79884285Y-95130952D01*
X79931904Y-94940476D01*
X79979523Y-94845238D01*
X80074761Y-94750000D01*
X80217619Y-94702380D01*
X80312857Y-94702380D01*
X80455714Y-94750000D01*
X80503333Y-94797619D01*
X81455714Y-95702380D02*
X80884285Y-95702380D01*
X81170000Y-95702380D02*
X81170000Y-94702380D01*
X81074761Y-94845238D01*
X80979523Y-94940476D01*
X80884285Y-94988095D01*
X80478333Y-100052142D02*
X80430714Y-100099761D01*
X80287857Y-100147380D01*
X80192619Y-100147380D01*
X80049761Y-100099761D01*
X79954523Y-100004523D01*
X79906904Y-99909285D01*
X79859285Y-99718809D01*
X79859285Y-99575952D01*
X79906904Y-99385476D01*
X79954523Y-99290238D01*
X80049761Y-99195000D01*
X80192619Y-99147380D01*
X80287857Y-99147380D01*
X80430714Y-99195000D01*
X80478333Y-99242619D01*
X80859285Y-99242619D02*
X80906904Y-99195000D01*
X81002142Y-99147380D01*
X81240238Y-99147380D01*
X81335476Y-99195000D01*
X81383095Y-99242619D01*
X81430714Y-99337857D01*
X81430714Y-99433095D01*
X81383095Y-99575952D01*
X80811666Y-100147380D01*
X81430714Y-100147380D01*
X90638333Y-101957142D02*
X90590714Y-102004761D01*
X90447857Y-102052380D01*
X90352619Y-102052380D01*
X90209761Y-102004761D01*
X90114523Y-101909523D01*
X90066904Y-101814285D01*
X90019285Y-101623809D01*
X90019285Y-101480952D01*
X90066904Y-101290476D01*
X90114523Y-101195238D01*
X90209761Y-101100000D01*
X90352619Y-101052380D01*
X90447857Y-101052380D01*
X90590714Y-101100000D01*
X90638333Y-101147619D01*
X91495476Y-101385714D02*
X91495476Y-102052380D01*
X91257380Y-101004761D02*
X91019285Y-101719047D01*
X91638333Y-101719047D01*
X90193904Y-90876380D02*
X90193904Y-89876380D01*
X90432000Y-89876380D01*
X90574857Y-89924000D01*
X90670095Y-90019238D01*
X90717714Y-90114476D01*
X90765333Y-90304952D01*
X90765333Y-90447809D01*
X90717714Y-90638285D01*
X90670095Y-90733523D01*
X90574857Y-90828761D01*
X90432000Y-90876380D01*
X90193904Y-90876380D01*
X91717714Y-90876380D02*
X91146285Y-90876380D01*
X91432000Y-90876380D02*
X91432000Y-89876380D01*
X91336761Y-90019238D01*
X91241523Y-90114476D01*
X91146285Y-90162095D01*
X95678666Y-88860380D02*
X95678666Y-89574666D01*
X95631047Y-89717523D01*
X95535809Y-89812761D01*
X95392952Y-89860380D01*
X95297714Y-89860380D01*
X96107238Y-88955619D02*
X96154857Y-88908000D01*
X96250095Y-88860380D01*
X96488190Y-88860380D01*
X96583428Y-88908000D01*
X96631047Y-88955619D01*
X96678666Y-89050857D01*
X96678666Y-89146095D01*
X96631047Y-89288952D01*
X96059619Y-89860380D01*
X96678666Y-89860380D01*
X95845333Y-99417142D02*
X95797714Y-99464761D01*
X95654857Y-99512380D01*
X95559619Y-99512380D01*
X95416761Y-99464761D01*
X95321523Y-99369523D01*
X95273904Y-99274285D01*
X95226285Y-99083809D01*
X95226285Y-98940952D01*
X95273904Y-98750476D01*
X95321523Y-98655238D01*
X95416761Y-98560000D01*
X95559619Y-98512380D01*
X95654857Y-98512380D01*
X95797714Y-98560000D01*
X95845333Y-98607619D01*
X96702476Y-98512380D02*
X96512000Y-98512380D01*
X96416761Y-98560000D01*
X96369142Y-98607619D01*
X96273904Y-98750476D01*
X96226285Y-98940952D01*
X96226285Y-99321904D01*
X96273904Y-99417142D01*
X96321523Y-99464761D01*
X96416761Y-99512380D01*
X96607238Y-99512380D01*
X96702476Y-99464761D01*
X96750095Y-99417142D01*
X96797714Y-99321904D01*
X96797714Y-99083809D01*
X96750095Y-98988571D01*
X96702476Y-98940952D01*
X96607238Y-98893333D01*
X96416761Y-98893333D01*
X96321523Y-98940952D01*
X96273904Y-98988571D01*
X96226285Y-99083809D01*
X95718333Y-94972142D02*
X95670714Y-95019761D01*
X95527857Y-95067380D01*
X95432619Y-95067380D01*
X95289761Y-95019761D01*
X95194523Y-94924523D01*
X95146904Y-94829285D01*
X95099285Y-94638809D01*
X95099285Y-94495952D01*
X95146904Y-94305476D01*
X95194523Y-94210238D01*
X95289761Y-94115000D01*
X95432619Y-94067380D01*
X95527857Y-94067380D01*
X95670714Y-94115000D01*
X95718333Y-94162619D01*
X96623095Y-94067380D02*
X96146904Y-94067380D01*
X96099285Y-94543571D01*
X96146904Y-94495952D01*
X96242142Y-94448333D01*
X96480238Y-94448333D01*
X96575476Y-94495952D01*
X96623095Y-94543571D01*
X96670714Y-94638809D01*
X96670714Y-94876904D01*
X96623095Y-94972142D01*
X96575476Y-95019761D01*
X96480238Y-95067380D01*
X96242142Y-95067380D01*
X96146904Y-95019761D01*
X96099285Y-94972142D01*
X80478333Y-106402142D02*
X80430714Y-106449761D01*
X80287857Y-106497380D01*
X80192619Y-106497380D01*
X80049761Y-106449761D01*
X79954523Y-106354523D01*
X79906904Y-106259285D01*
X79859285Y-106068809D01*
X79859285Y-105925952D01*
X79906904Y-105735476D01*
X79954523Y-105640238D01*
X80049761Y-105545000D01*
X80192619Y-105497380D01*
X80287857Y-105497380D01*
X80430714Y-105545000D01*
X80478333Y-105592619D01*
X80811666Y-105497380D02*
X81430714Y-105497380D01*
X81097380Y-105878333D01*
X81240238Y-105878333D01*
X81335476Y-105925952D01*
X81383095Y-105973571D01*
X81430714Y-106068809D01*
X81430714Y-106306904D01*
X81383095Y-106402142D01*
X81335476Y-106449761D01*
X81240238Y-106497380D01*
X80954523Y-106497380D01*
X80859285Y-106449761D01*
X80811666Y-106402142D01*
X89463095Y-108164380D02*
X89463095Y-108973904D01*
X89510714Y-109069142D01*
X89558333Y-109116761D01*
X89653571Y-109164380D01*
X89844047Y-109164380D01*
X89939285Y-109116761D01*
X89986904Y-109069142D01*
X90034523Y-108973904D01*
X90034523Y-108164380D01*
X90463095Y-108259619D02*
X90510714Y-108212000D01*
X90605952Y-108164380D01*
X90844047Y-108164380D01*
X90939285Y-108212000D01*
X90986904Y-108259619D01*
X91034523Y-108354857D01*
X91034523Y-108450095D01*
X90986904Y-108592952D01*
X90415476Y-109164380D01*
X91034523Y-109164380D01*
M02*
