G04 #@! TF.GenerationSoftware,KiCad,Pcbnew,(5.1.5)-3*
G04 #@! TF.CreationDate,2022-12-25T19:48:09-05:00*
G04 #@! TF.ProjectId,_autosave-Fuente_Alimentaci_n,5f617574-6f73-4617-9665-2d4675656e74,rev?*
G04 #@! TF.SameCoordinates,Original*
G04 #@! TF.FileFunction,Paste,Top*
G04 #@! TF.FilePolarity,Positive*
%FSLAX46Y46*%
G04 Gerber Fmt 4.6, Leading zero omitted, Abs format (unit mm)*
G04 Created by KiCad (PCBNEW (5.1.5)-3) date 2022-12-25 19:48:09*
%MOMM*%
%LPD*%
G04 APERTURE LIST*
%ADD10R,1.060000X0.650000*%
%ADD11C,0.100000*%
%ADD12R,1.380000X0.450000*%
%ADD13R,1.550000X1.425000*%
%ADD14R,1.300000X1.650000*%
%ADD15R,1.900000X1.800000*%
%ADD16R,1.900000X1.000000*%
%ADD17R,2.500000X1.800000*%
%ADD18R,1.200000X2.200000*%
%ADD19R,2.750000X3.050000*%
G04 APERTURE END LIST*
D10*
X84285000Y-96835000D03*
X84285000Y-95885000D03*
X84285000Y-94935000D03*
X82085000Y-94935000D03*
X82085000Y-96835000D03*
D11*
G36*
X88110142Y-96971174D02*
G01*
X88133803Y-96974684D01*
X88157007Y-96980496D01*
X88179529Y-96988554D01*
X88201153Y-96998782D01*
X88221670Y-97011079D01*
X88240883Y-97025329D01*
X88258607Y-97041393D01*
X88274671Y-97059117D01*
X88288921Y-97078330D01*
X88301218Y-97098847D01*
X88311446Y-97120471D01*
X88319504Y-97142993D01*
X88325316Y-97166197D01*
X88328826Y-97189858D01*
X88330000Y-97213750D01*
X88330000Y-97701250D01*
X88328826Y-97725142D01*
X88325316Y-97748803D01*
X88319504Y-97772007D01*
X88311446Y-97794529D01*
X88301218Y-97816153D01*
X88288921Y-97836670D01*
X88274671Y-97855883D01*
X88258607Y-97873607D01*
X88240883Y-97889671D01*
X88221670Y-97903921D01*
X88201153Y-97916218D01*
X88179529Y-97926446D01*
X88157007Y-97934504D01*
X88133803Y-97940316D01*
X88110142Y-97943826D01*
X88086250Y-97945000D01*
X87173750Y-97945000D01*
X87149858Y-97943826D01*
X87126197Y-97940316D01*
X87102993Y-97934504D01*
X87080471Y-97926446D01*
X87058847Y-97916218D01*
X87038330Y-97903921D01*
X87019117Y-97889671D01*
X87001393Y-97873607D01*
X86985329Y-97855883D01*
X86971079Y-97836670D01*
X86958782Y-97816153D01*
X86948554Y-97794529D01*
X86940496Y-97772007D01*
X86934684Y-97748803D01*
X86931174Y-97725142D01*
X86930000Y-97701250D01*
X86930000Y-97213750D01*
X86931174Y-97189858D01*
X86934684Y-97166197D01*
X86940496Y-97142993D01*
X86948554Y-97120471D01*
X86958782Y-97098847D01*
X86971079Y-97078330D01*
X86985329Y-97059117D01*
X87001393Y-97041393D01*
X87019117Y-97025329D01*
X87038330Y-97011079D01*
X87058847Y-96998782D01*
X87080471Y-96988554D01*
X87102993Y-96980496D01*
X87126197Y-96974684D01*
X87149858Y-96971174D01*
X87173750Y-96970000D01*
X88086250Y-96970000D01*
X88110142Y-96971174D01*
G37*
G36*
X88110142Y-95096174D02*
G01*
X88133803Y-95099684D01*
X88157007Y-95105496D01*
X88179529Y-95113554D01*
X88201153Y-95123782D01*
X88221670Y-95136079D01*
X88240883Y-95150329D01*
X88258607Y-95166393D01*
X88274671Y-95184117D01*
X88288921Y-95203330D01*
X88301218Y-95223847D01*
X88311446Y-95245471D01*
X88319504Y-95267993D01*
X88325316Y-95291197D01*
X88328826Y-95314858D01*
X88330000Y-95338750D01*
X88330000Y-95826250D01*
X88328826Y-95850142D01*
X88325316Y-95873803D01*
X88319504Y-95897007D01*
X88311446Y-95919529D01*
X88301218Y-95941153D01*
X88288921Y-95961670D01*
X88274671Y-95980883D01*
X88258607Y-95998607D01*
X88240883Y-96014671D01*
X88221670Y-96028921D01*
X88201153Y-96041218D01*
X88179529Y-96051446D01*
X88157007Y-96059504D01*
X88133803Y-96065316D01*
X88110142Y-96068826D01*
X88086250Y-96070000D01*
X87173750Y-96070000D01*
X87149858Y-96068826D01*
X87126197Y-96065316D01*
X87102993Y-96059504D01*
X87080471Y-96051446D01*
X87058847Y-96041218D01*
X87038330Y-96028921D01*
X87019117Y-96014671D01*
X87001393Y-95998607D01*
X86985329Y-95980883D01*
X86971079Y-95961670D01*
X86958782Y-95941153D01*
X86948554Y-95919529D01*
X86940496Y-95897007D01*
X86934684Y-95873803D01*
X86931174Y-95850142D01*
X86930000Y-95826250D01*
X86930000Y-95338750D01*
X86931174Y-95314858D01*
X86934684Y-95291197D01*
X86940496Y-95267993D01*
X86948554Y-95245471D01*
X86958782Y-95223847D01*
X86971079Y-95203330D01*
X86985329Y-95184117D01*
X87001393Y-95166393D01*
X87019117Y-95150329D01*
X87038330Y-95136079D01*
X87058847Y-95123782D01*
X87080471Y-95113554D01*
X87102993Y-95105496D01*
X87126197Y-95099684D01*
X87149858Y-95096174D01*
X87173750Y-95095000D01*
X88086250Y-95095000D01*
X88110142Y-95096174D01*
G37*
G36*
X90650142Y-96971174D02*
G01*
X90673803Y-96974684D01*
X90697007Y-96980496D01*
X90719529Y-96988554D01*
X90741153Y-96998782D01*
X90761670Y-97011079D01*
X90780883Y-97025329D01*
X90798607Y-97041393D01*
X90814671Y-97059117D01*
X90828921Y-97078330D01*
X90841218Y-97098847D01*
X90851446Y-97120471D01*
X90859504Y-97142993D01*
X90865316Y-97166197D01*
X90868826Y-97189858D01*
X90870000Y-97213750D01*
X90870000Y-97701250D01*
X90868826Y-97725142D01*
X90865316Y-97748803D01*
X90859504Y-97772007D01*
X90851446Y-97794529D01*
X90841218Y-97816153D01*
X90828921Y-97836670D01*
X90814671Y-97855883D01*
X90798607Y-97873607D01*
X90780883Y-97889671D01*
X90761670Y-97903921D01*
X90741153Y-97916218D01*
X90719529Y-97926446D01*
X90697007Y-97934504D01*
X90673803Y-97940316D01*
X90650142Y-97943826D01*
X90626250Y-97945000D01*
X89713750Y-97945000D01*
X89689858Y-97943826D01*
X89666197Y-97940316D01*
X89642993Y-97934504D01*
X89620471Y-97926446D01*
X89598847Y-97916218D01*
X89578330Y-97903921D01*
X89559117Y-97889671D01*
X89541393Y-97873607D01*
X89525329Y-97855883D01*
X89511079Y-97836670D01*
X89498782Y-97816153D01*
X89488554Y-97794529D01*
X89480496Y-97772007D01*
X89474684Y-97748803D01*
X89471174Y-97725142D01*
X89470000Y-97701250D01*
X89470000Y-97213750D01*
X89471174Y-97189858D01*
X89474684Y-97166197D01*
X89480496Y-97142993D01*
X89488554Y-97120471D01*
X89498782Y-97098847D01*
X89511079Y-97078330D01*
X89525329Y-97059117D01*
X89541393Y-97041393D01*
X89559117Y-97025329D01*
X89578330Y-97011079D01*
X89598847Y-96998782D01*
X89620471Y-96988554D01*
X89642993Y-96980496D01*
X89666197Y-96974684D01*
X89689858Y-96971174D01*
X89713750Y-96970000D01*
X90626250Y-96970000D01*
X90650142Y-96971174D01*
G37*
G36*
X90650142Y-95096174D02*
G01*
X90673803Y-95099684D01*
X90697007Y-95105496D01*
X90719529Y-95113554D01*
X90741153Y-95123782D01*
X90761670Y-95136079D01*
X90780883Y-95150329D01*
X90798607Y-95166393D01*
X90814671Y-95184117D01*
X90828921Y-95203330D01*
X90841218Y-95223847D01*
X90851446Y-95245471D01*
X90859504Y-95267993D01*
X90865316Y-95291197D01*
X90868826Y-95314858D01*
X90870000Y-95338750D01*
X90870000Y-95826250D01*
X90868826Y-95850142D01*
X90865316Y-95873803D01*
X90859504Y-95897007D01*
X90851446Y-95919529D01*
X90841218Y-95941153D01*
X90828921Y-95961670D01*
X90814671Y-95980883D01*
X90798607Y-95998607D01*
X90780883Y-96014671D01*
X90761670Y-96028921D01*
X90741153Y-96041218D01*
X90719529Y-96051446D01*
X90697007Y-96059504D01*
X90673803Y-96065316D01*
X90650142Y-96068826D01*
X90626250Y-96070000D01*
X89713750Y-96070000D01*
X89689858Y-96068826D01*
X89666197Y-96065316D01*
X89642993Y-96059504D01*
X89620471Y-96051446D01*
X89598847Y-96041218D01*
X89578330Y-96028921D01*
X89559117Y-96014671D01*
X89541393Y-95998607D01*
X89525329Y-95980883D01*
X89511079Y-95961670D01*
X89498782Y-95941153D01*
X89488554Y-95919529D01*
X89480496Y-95897007D01*
X89474684Y-95873803D01*
X89471174Y-95850142D01*
X89470000Y-95826250D01*
X89470000Y-95338750D01*
X89471174Y-95314858D01*
X89474684Y-95291197D01*
X89480496Y-95267993D01*
X89488554Y-95245471D01*
X89498782Y-95223847D01*
X89511079Y-95203330D01*
X89525329Y-95184117D01*
X89541393Y-95166393D01*
X89559117Y-95150329D01*
X89578330Y-95136079D01*
X89598847Y-95123782D01*
X89620471Y-95113554D01*
X89642993Y-95105496D01*
X89666197Y-95099684D01*
X89689858Y-95096174D01*
X89713750Y-95095000D01*
X90626250Y-95095000D01*
X90650142Y-95096174D01*
G37*
D12*
X71945000Y-97125000D03*
X71945000Y-97775000D03*
X71945000Y-98425000D03*
X71945000Y-99075000D03*
X71945000Y-99725000D03*
D13*
X71860000Y-95937500D03*
X71860000Y-100912500D03*
D14*
X69285000Y-95050000D03*
X69285000Y-101800000D03*
D15*
X69285000Y-97275000D03*
D16*
X69285000Y-99975000D03*
D11*
G36*
X79340142Y-89471174D02*
G01*
X79363803Y-89474684D01*
X79387007Y-89480496D01*
X79409529Y-89488554D01*
X79431153Y-89498782D01*
X79451670Y-89511079D01*
X79470883Y-89525329D01*
X79488607Y-89541393D01*
X79504671Y-89559117D01*
X79518921Y-89578330D01*
X79531218Y-89598847D01*
X79541446Y-89620471D01*
X79549504Y-89642993D01*
X79555316Y-89666197D01*
X79558826Y-89689858D01*
X79560000Y-89713750D01*
X79560000Y-90626250D01*
X79558826Y-90650142D01*
X79555316Y-90673803D01*
X79549504Y-90697007D01*
X79541446Y-90719529D01*
X79531218Y-90741153D01*
X79518921Y-90761670D01*
X79504671Y-90780883D01*
X79488607Y-90798607D01*
X79470883Y-90814671D01*
X79451670Y-90828921D01*
X79431153Y-90841218D01*
X79409529Y-90851446D01*
X79387007Y-90859504D01*
X79363803Y-90865316D01*
X79340142Y-90868826D01*
X79316250Y-90870000D01*
X78828750Y-90870000D01*
X78804858Y-90868826D01*
X78781197Y-90865316D01*
X78757993Y-90859504D01*
X78735471Y-90851446D01*
X78713847Y-90841218D01*
X78693330Y-90828921D01*
X78674117Y-90814671D01*
X78656393Y-90798607D01*
X78640329Y-90780883D01*
X78626079Y-90761670D01*
X78613782Y-90741153D01*
X78603554Y-90719529D01*
X78595496Y-90697007D01*
X78589684Y-90673803D01*
X78586174Y-90650142D01*
X78585000Y-90626250D01*
X78585000Y-89713750D01*
X78586174Y-89689858D01*
X78589684Y-89666197D01*
X78595496Y-89642993D01*
X78603554Y-89620471D01*
X78613782Y-89598847D01*
X78626079Y-89578330D01*
X78640329Y-89559117D01*
X78656393Y-89541393D01*
X78674117Y-89525329D01*
X78693330Y-89511079D01*
X78713847Y-89498782D01*
X78735471Y-89488554D01*
X78757993Y-89480496D01*
X78781197Y-89474684D01*
X78804858Y-89471174D01*
X78828750Y-89470000D01*
X79316250Y-89470000D01*
X79340142Y-89471174D01*
G37*
G36*
X81215142Y-89471174D02*
G01*
X81238803Y-89474684D01*
X81262007Y-89480496D01*
X81284529Y-89488554D01*
X81306153Y-89498782D01*
X81326670Y-89511079D01*
X81345883Y-89525329D01*
X81363607Y-89541393D01*
X81379671Y-89559117D01*
X81393921Y-89578330D01*
X81406218Y-89598847D01*
X81416446Y-89620471D01*
X81424504Y-89642993D01*
X81430316Y-89666197D01*
X81433826Y-89689858D01*
X81435000Y-89713750D01*
X81435000Y-90626250D01*
X81433826Y-90650142D01*
X81430316Y-90673803D01*
X81424504Y-90697007D01*
X81416446Y-90719529D01*
X81406218Y-90741153D01*
X81393921Y-90761670D01*
X81379671Y-90780883D01*
X81363607Y-90798607D01*
X81345883Y-90814671D01*
X81326670Y-90828921D01*
X81306153Y-90841218D01*
X81284529Y-90851446D01*
X81262007Y-90859504D01*
X81238803Y-90865316D01*
X81215142Y-90868826D01*
X81191250Y-90870000D01*
X80703750Y-90870000D01*
X80679858Y-90868826D01*
X80656197Y-90865316D01*
X80632993Y-90859504D01*
X80610471Y-90851446D01*
X80588847Y-90841218D01*
X80568330Y-90828921D01*
X80549117Y-90814671D01*
X80531393Y-90798607D01*
X80515329Y-90780883D01*
X80501079Y-90761670D01*
X80488782Y-90741153D01*
X80478554Y-90719529D01*
X80470496Y-90697007D01*
X80464684Y-90673803D01*
X80461174Y-90650142D01*
X80460000Y-90626250D01*
X80460000Y-89713750D01*
X80461174Y-89689858D01*
X80464684Y-89666197D01*
X80470496Y-89642993D01*
X80478554Y-89620471D01*
X80488782Y-89598847D01*
X80501079Y-89578330D01*
X80515329Y-89559117D01*
X80531393Y-89541393D01*
X80549117Y-89525329D01*
X80568330Y-89511079D01*
X80588847Y-89498782D01*
X80610471Y-89488554D01*
X80632993Y-89480496D01*
X80656197Y-89474684D01*
X80679858Y-89471174D01*
X80703750Y-89470000D01*
X81191250Y-89470000D01*
X81215142Y-89471174D01*
G37*
G36*
X78044504Y-92151204D02*
G01*
X78068773Y-92154804D01*
X78092571Y-92160765D01*
X78115671Y-92169030D01*
X78137849Y-92179520D01*
X78158893Y-92192133D01*
X78178598Y-92206747D01*
X78196777Y-92223223D01*
X78213253Y-92241402D01*
X78227867Y-92261107D01*
X78240480Y-92282151D01*
X78250970Y-92304329D01*
X78259235Y-92327429D01*
X78265196Y-92351227D01*
X78268796Y-92375496D01*
X78270000Y-92400000D01*
X78270000Y-94500000D01*
X78268796Y-94524504D01*
X78265196Y-94548773D01*
X78259235Y-94572571D01*
X78250970Y-94595671D01*
X78240480Y-94617849D01*
X78227867Y-94638893D01*
X78213253Y-94658598D01*
X78196777Y-94676777D01*
X78178598Y-94693253D01*
X78158893Y-94707867D01*
X78137849Y-94720480D01*
X78115671Y-94730970D01*
X78092571Y-94739235D01*
X78068773Y-94745196D01*
X78044504Y-94748796D01*
X78020000Y-94750000D01*
X76920000Y-94750000D01*
X76895496Y-94748796D01*
X76871227Y-94745196D01*
X76847429Y-94739235D01*
X76824329Y-94730970D01*
X76802151Y-94720480D01*
X76781107Y-94707867D01*
X76761402Y-94693253D01*
X76743223Y-94676777D01*
X76726747Y-94658598D01*
X76712133Y-94638893D01*
X76699520Y-94617849D01*
X76689030Y-94595671D01*
X76680765Y-94572571D01*
X76674804Y-94548773D01*
X76671204Y-94524504D01*
X76670000Y-94500000D01*
X76670000Y-92400000D01*
X76671204Y-92375496D01*
X76674804Y-92351227D01*
X76680765Y-92327429D01*
X76689030Y-92304329D01*
X76699520Y-92282151D01*
X76712133Y-92261107D01*
X76726747Y-92241402D01*
X76743223Y-92223223D01*
X76761402Y-92206747D01*
X76781107Y-92192133D01*
X76802151Y-92179520D01*
X76824329Y-92169030D01*
X76847429Y-92160765D01*
X76871227Y-92154804D01*
X76895496Y-92151204D01*
X76920000Y-92150000D01*
X78020000Y-92150000D01*
X78044504Y-92151204D01*
G37*
G36*
X78044504Y-95751204D02*
G01*
X78068773Y-95754804D01*
X78092571Y-95760765D01*
X78115671Y-95769030D01*
X78137849Y-95779520D01*
X78158893Y-95792133D01*
X78178598Y-95806747D01*
X78196777Y-95823223D01*
X78213253Y-95841402D01*
X78227867Y-95861107D01*
X78240480Y-95882151D01*
X78250970Y-95904329D01*
X78259235Y-95927429D01*
X78265196Y-95951227D01*
X78268796Y-95975496D01*
X78270000Y-96000000D01*
X78270000Y-98100000D01*
X78268796Y-98124504D01*
X78265196Y-98148773D01*
X78259235Y-98172571D01*
X78250970Y-98195671D01*
X78240480Y-98217849D01*
X78227867Y-98238893D01*
X78213253Y-98258598D01*
X78196777Y-98276777D01*
X78178598Y-98293253D01*
X78158893Y-98307867D01*
X78137849Y-98320480D01*
X78115671Y-98330970D01*
X78092571Y-98339235D01*
X78068773Y-98345196D01*
X78044504Y-98348796D01*
X78020000Y-98350000D01*
X76920000Y-98350000D01*
X76895496Y-98348796D01*
X76871227Y-98345196D01*
X76847429Y-98339235D01*
X76824329Y-98330970D01*
X76802151Y-98320480D01*
X76781107Y-98307867D01*
X76761402Y-98293253D01*
X76743223Y-98276777D01*
X76726747Y-98258598D01*
X76712133Y-98238893D01*
X76699520Y-98217849D01*
X76689030Y-98195671D01*
X76680765Y-98172571D01*
X76674804Y-98148773D01*
X76671204Y-98124504D01*
X76670000Y-98100000D01*
X76670000Y-96000000D01*
X76671204Y-95975496D01*
X76674804Y-95951227D01*
X76680765Y-95927429D01*
X76689030Y-95904329D01*
X76699520Y-95882151D01*
X76712133Y-95861107D01*
X76726747Y-95841402D01*
X76743223Y-95823223D01*
X76761402Y-95806747D01*
X76781107Y-95792133D01*
X76802151Y-95779520D01*
X76824329Y-95769030D01*
X76847429Y-95760765D01*
X76871227Y-95754804D01*
X76895496Y-95751204D01*
X76920000Y-95750000D01*
X78020000Y-95750000D01*
X78044504Y-95751204D01*
G37*
G36*
X76744504Y-100801204D02*
G01*
X76768773Y-100804804D01*
X76792571Y-100810765D01*
X76815671Y-100819030D01*
X76837849Y-100829520D01*
X76858893Y-100842133D01*
X76878598Y-100856747D01*
X76896777Y-100873223D01*
X76913253Y-100891402D01*
X76927867Y-100911107D01*
X76940480Y-100932151D01*
X76950970Y-100954329D01*
X76959235Y-100977429D01*
X76965196Y-101001227D01*
X76968796Y-101025496D01*
X76970000Y-101050000D01*
X76970000Y-102150000D01*
X76968796Y-102174504D01*
X76965196Y-102198773D01*
X76959235Y-102222571D01*
X76950970Y-102245671D01*
X76940480Y-102267849D01*
X76927867Y-102288893D01*
X76913253Y-102308598D01*
X76896777Y-102326777D01*
X76878598Y-102343253D01*
X76858893Y-102357867D01*
X76837849Y-102370480D01*
X76815671Y-102380970D01*
X76792571Y-102389235D01*
X76768773Y-102395196D01*
X76744504Y-102398796D01*
X76720000Y-102400000D01*
X74620000Y-102400000D01*
X74595496Y-102398796D01*
X74571227Y-102395196D01*
X74547429Y-102389235D01*
X74524329Y-102380970D01*
X74502151Y-102370480D01*
X74481107Y-102357867D01*
X74461402Y-102343253D01*
X74443223Y-102326777D01*
X74426747Y-102308598D01*
X74412133Y-102288893D01*
X74399520Y-102267849D01*
X74389030Y-102245671D01*
X74380765Y-102222571D01*
X74374804Y-102198773D01*
X74371204Y-102174504D01*
X74370000Y-102150000D01*
X74370000Y-101050000D01*
X74371204Y-101025496D01*
X74374804Y-101001227D01*
X74380765Y-100977429D01*
X74389030Y-100954329D01*
X74399520Y-100932151D01*
X74412133Y-100911107D01*
X74426747Y-100891402D01*
X74443223Y-100873223D01*
X74461402Y-100856747D01*
X74481107Y-100842133D01*
X74502151Y-100829520D01*
X74524329Y-100819030D01*
X74547429Y-100810765D01*
X74571227Y-100804804D01*
X74595496Y-100801204D01*
X74620000Y-100800000D01*
X76720000Y-100800000D01*
X76744504Y-100801204D01*
G37*
G36*
X80344504Y-100801204D02*
G01*
X80368773Y-100804804D01*
X80392571Y-100810765D01*
X80415671Y-100819030D01*
X80437849Y-100829520D01*
X80458893Y-100842133D01*
X80478598Y-100856747D01*
X80496777Y-100873223D01*
X80513253Y-100891402D01*
X80527867Y-100911107D01*
X80540480Y-100932151D01*
X80550970Y-100954329D01*
X80559235Y-100977429D01*
X80565196Y-101001227D01*
X80568796Y-101025496D01*
X80570000Y-101050000D01*
X80570000Y-102150000D01*
X80568796Y-102174504D01*
X80565196Y-102198773D01*
X80559235Y-102222571D01*
X80550970Y-102245671D01*
X80540480Y-102267849D01*
X80527867Y-102288893D01*
X80513253Y-102308598D01*
X80496777Y-102326777D01*
X80478598Y-102343253D01*
X80458893Y-102357867D01*
X80437849Y-102370480D01*
X80415671Y-102380970D01*
X80392571Y-102389235D01*
X80368773Y-102395196D01*
X80344504Y-102398796D01*
X80320000Y-102400000D01*
X78220000Y-102400000D01*
X78195496Y-102398796D01*
X78171227Y-102395196D01*
X78147429Y-102389235D01*
X78124329Y-102380970D01*
X78102151Y-102370480D01*
X78081107Y-102357867D01*
X78061402Y-102343253D01*
X78043223Y-102326777D01*
X78026747Y-102308598D01*
X78012133Y-102288893D01*
X77999520Y-102267849D01*
X77989030Y-102245671D01*
X77980765Y-102222571D01*
X77974804Y-102198773D01*
X77971204Y-102174504D01*
X77970000Y-102150000D01*
X77970000Y-101050000D01*
X77971204Y-101025496D01*
X77974804Y-101001227D01*
X77980765Y-100977429D01*
X77989030Y-100954329D01*
X77999520Y-100932151D01*
X78012133Y-100911107D01*
X78026747Y-100891402D01*
X78043223Y-100873223D01*
X78061402Y-100856747D01*
X78081107Y-100842133D01*
X78102151Y-100829520D01*
X78124329Y-100819030D01*
X78147429Y-100810765D01*
X78171227Y-100804804D01*
X78195496Y-100801204D01*
X78220000Y-100800000D01*
X80320000Y-100800000D01*
X80344504Y-100801204D01*
G37*
G36*
X93919504Y-101041204D02*
G01*
X93943773Y-101044804D01*
X93967571Y-101050765D01*
X93990671Y-101059030D01*
X94012849Y-101069520D01*
X94033893Y-101082133D01*
X94053598Y-101096747D01*
X94071777Y-101113223D01*
X94088253Y-101131402D01*
X94102867Y-101151107D01*
X94115480Y-101172151D01*
X94125970Y-101194329D01*
X94134235Y-101217429D01*
X94140196Y-101241227D01*
X94143796Y-101265496D01*
X94145000Y-101290000D01*
X94145000Y-103390000D01*
X94143796Y-103414504D01*
X94140196Y-103438773D01*
X94134235Y-103462571D01*
X94125970Y-103485671D01*
X94115480Y-103507849D01*
X94102867Y-103528893D01*
X94088253Y-103548598D01*
X94071777Y-103566777D01*
X94053598Y-103583253D01*
X94033893Y-103597867D01*
X94012849Y-103610480D01*
X93990671Y-103620970D01*
X93967571Y-103629235D01*
X93943773Y-103635196D01*
X93919504Y-103638796D01*
X93895000Y-103640000D01*
X92795000Y-103640000D01*
X92770496Y-103638796D01*
X92746227Y-103635196D01*
X92722429Y-103629235D01*
X92699329Y-103620970D01*
X92677151Y-103610480D01*
X92656107Y-103597867D01*
X92636402Y-103583253D01*
X92618223Y-103566777D01*
X92601747Y-103548598D01*
X92587133Y-103528893D01*
X92574520Y-103507849D01*
X92564030Y-103485671D01*
X92555765Y-103462571D01*
X92549804Y-103438773D01*
X92546204Y-103414504D01*
X92545000Y-103390000D01*
X92545000Y-101290000D01*
X92546204Y-101265496D01*
X92549804Y-101241227D01*
X92555765Y-101217429D01*
X92564030Y-101194329D01*
X92574520Y-101172151D01*
X92587133Y-101151107D01*
X92601747Y-101131402D01*
X92618223Y-101113223D01*
X92636402Y-101096747D01*
X92656107Y-101082133D01*
X92677151Y-101069520D01*
X92699329Y-101059030D01*
X92722429Y-101050765D01*
X92746227Y-101044804D01*
X92770496Y-101041204D01*
X92795000Y-101040000D01*
X93895000Y-101040000D01*
X93919504Y-101041204D01*
G37*
G36*
X93919504Y-104641204D02*
G01*
X93943773Y-104644804D01*
X93967571Y-104650765D01*
X93990671Y-104659030D01*
X94012849Y-104669520D01*
X94033893Y-104682133D01*
X94053598Y-104696747D01*
X94071777Y-104713223D01*
X94088253Y-104731402D01*
X94102867Y-104751107D01*
X94115480Y-104772151D01*
X94125970Y-104794329D01*
X94134235Y-104817429D01*
X94140196Y-104841227D01*
X94143796Y-104865496D01*
X94145000Y-104890000D01*
X94145000Y-106990000D01*
X94143796Y-107014504D01*
X94140196Y-107038773D01*
X94134235Y-107062571D01*
X94125970Y-107085671D01*
X94115480Y-107107849D01*
X94102867Y-107128893D01*
X94088253Y-107148598D01*
X94071777Y-107166777D01*
X94053598Y-107183253D01*
X94033893Y-107197867D01*
X94012849Y-107210480D01*
X93990671Y-107220970D01*
X93967571Y-107229235D01*
X93943773Y-107235196D01*
X93919504Y-107238796D01*
X93895000Y-107240000D01*
X92795000Y-107240000D01*
X92770496Y-107238796D01*
X92746227Y-107235196D01*
X92722429Y-107229235D01*
X92699329Y-107220970D01*
X92677151Y-107210480D01*
X92656107Y-107197867D01*
X92636402Y-107183253D01*
X92618223Y-107166777D01*
X92601747Y-107148598D01*
X92587133Y-107128893D01*
X92574520Y-107107849D01*
X92564030Y-107085671D01*
X92555765Y-107062571D01*
X92549804Y-107038773D01*
X92546204Y-107014504D01*
X92545000Y-106990000D01*
X92545000Y-104890000D01*
X92546204Y-104865496D01*
X92549804Y-104841227D01*
X92555765Y-104817429D01*
X92564030Y-104794329D01*
X92574520Y-104772151D01*
X92587133Y-104751107D01*
X92601747Y-104731402D01*
X92618223Y-104713223D01*
X92636402Y-104696747D01*
X92656107Y-104682133D01*
X92677151Y-104669520D01*
X92699329Y-104659030D01*
X92722429Y-104650765D01*
X92746227Y-104644804D01*
X92770496Y-104641204D01*
X92795000Y-104640000D01*
X93895000Y-104640000D01*
X93919504Y-104641204D01*
G37*
D17*
X84360000Y-90805000D03*
X88360000Y-90805000D03*
D11*
G36*
X94460142Y-97001174D02*
G01*
X94483803Y-97004684D01*
X94507007Y-97010496D01*
X94529529Y-97018554D01*
X94551153Y-97028782D01*
X94571670Y-97041079D01*
X94590883Y-97055329D01*
X94608607Y-97071393D01*
X94624671Y-97089117D01*
X94638921Y-97108330D01*
X94651218Y-97128847D01*
X94661446Y-97150471D01*
X94669504Y-97172993D01*
X94675316Y-97196197D01*
X94678826Y-97219858D01*
X94680000Y-97243750D01*
X94680000Y-97731250D01*
X94678826Y-97755142D01*
X94675316Y-97778803D01*
X94669504Y-97802007D01*
X94661446Y-97824529D01*
X94651218Y-97846153D01*
X94638921Y-97866670D01*
X94624671Y-97885883D01*
X94608607Y-97903607D01*
X94590883Y-97919671D01*
X94571670Y-97933921D01*
X94551153Y-97946218D01*
X94529529Y-97956446D01*
X94507007Y-97964504D01*
X94483803Y-97970316D01*
X94460142Y-97973826D01*
X94436250Y-97975000D01*
X93523750Y-97975000D01*
X93499858Y-97973826D01*
X93476197Y-97970316D01*
X93452993Y-97964504D01*
X93430471Y-97956446D01*
X93408847Y-97946218D01*
X93388330Y-97933921D01*
X93369117Y-97919671D01*
X93351393Y-97903607D01*
X93335329Y-97885883D01*
X93321079Y-97866670D01*
X93308782Y-97846153D01*
X93298554Y-97824529D01*
X93290496Y-97802007D01*
X93284684Y-97778803D01*
X93281174Y-97755142D01*
X93280000Y-97731250D01*
X93280000Y-97243750D01*
X93281174Y-97219858D01*
X93284684Y-97196197D01*
X93290496Y-97172993D01*
X93298554Y-97150471D01*
X93308782Y-97128847D01*
X93321079Y-97108330D01*
X93335329Y-97089117D01*
X93351393Y-97071393D01*
X93369117Y-97055329D01*
X93388330Y-97041079D01*
X93408847Y-97028782D01*
X93430471Y-97018554D01*
X93452993Y-97010496D01*
X93476197Y-97004684D01*
X93499858Y-97001174D01*
X93523750Y-97000000D01*
X94436250Y-97000000D01*
X94460142Y-97001174D01*
G37*
G36*
X94460142Y-98876174D02*
G01*
X94483803Y-98879684D01*
X94507007Y-98885496D01*
X94529529Y-98893554D01*
X94551153Y-98903782D01*
X94571670Y-98916079D01*
X94590883Y-98930329D01*
X94608607Y-98946393D01*
X94624671Y-98964117D01*
X94638921Y-98983330D01*
X94651218Y-99003847D01*
X94661446Y-99025471D01*
X94669504Y-99047993D01*
X94675316Y-99071197D01*
X94678826Y-99094858D01*
X94680000Y-99118750D01*
X94680000Y-99606250D01*
X94678826Y-99630142D01*
X94675316Y-99653803D01*
X94669504Y-99677007D01*
X94661446Y-99699529D01*
X94651218Y-99721153D01*
X94638921Y-99741670D01*
X94624671Y-99760883D01*
X94608607Y-99778607D01*
X94590883Y-99794671D01*
X94571670Y-99808921D01*
X94551153Y-99821218D01*
X94529529Y-99831446D01*
X94507007Y-99839504D01*
X94483803Y-99845316D01*
X94460142Y-99848826D01*
X94436250Y-99850000D01*
X93523750Y-99850000D01*
X93499858Y-99848826D01*
X93476197Y-99845316D01*
X93452993Y-99839504D01*
X93430471Y-99831446D01*
X93408847Y-99821218D01*
X93388330Y-99808921D01*
X93369117Y-99794671D01*
X93351393Y-99778607D01*
X93335329Y-99760883D01*
X93321079Y-99741670D01*
X93308782Y-99721153D01*
X93298554Y-99699529D01*
X93290496Y-99677007D01*
X93284684Y-99653803D01*
X93281174Y-99630142D01*
X93280000Y-99606250D01*
X93280000Y-99118750D01*
X93281174Y-99094858D01*
X93284684Y-99071197D01*
X93290496Y-99047993D01*
X93298554Y-99025471D01*
X93308782Y-99003847D01*
X93321079Y-98983330D01*
X93335329Y-98964117D01*
X93351393Y-98946393D01*
X93369117Y-98930329D01*
X93388330Y-98916079D01*
X93408847Y-98903782D01*
X93430471Y-98893554D01*
X93452993Y-98885496D01*
X93476197Y-98879684D01*
X93499858Y-98876174D01*
X93523750Y-98875000D01*
X94436250Y-98875000D01*
X94460142Y-98876174D01*
G37*
G36*
X94460142Y-93191174D02*
G01*
X94483803Y-93194684D01*
X94507007Y-93200496D01*
X94529529Y-93208554D01*
X94551153Y-93218782D01*
X94571670Y-93231079D01*
X94590883Y-93245329D01*
X94608607Y-93261393D01*
X94624671Y-93279117D01*
X94638921Y-93298330D01*
X94651218Y-93318847D01*
X94661446Y-93340471D01*
X94669504Y-93362993D01*
X94675316Y-93386197D01*
X94678826Y-93409858D01*
X94680000Y-93433750D01*
X94680000Y-93921250D01*
X94678826Y-93945142D01*
X94675316Y-93968803D01*
X94669504Y-93992007D01*
X94661446Y-94014529D01*
X94651218Y-94036153D01*
X94638921Y-94056670D01*
X94624671Y-94075883D01*
X94608607Y-94093607D01*
X94590883Y-94109671D01*
X94571670Y-94123921D01*
X94551153Y-94136218D01*
X94529529Y-94146446D01*
X94507007Y-94154504D01*
X94483803Y-94160316D01*
X94460142Y-94163826D01*
X94436250Y-94165000D01*
X93523750Y-94165000D01*
X93499858Y-94163826D01*
X93476197Y-94160316D01*
X93452993Y-94154504D01*
X93430471Y-94146446D01*
X93408847Y-94136218D01*
X93388330Y-94123921D01*
X93369117Y-94109671D01*
X93351393Y-94093607D01*
X93335329Y-94075883D01*
X93321079Y-94056670D01*
X93308782Y-94036153D01*
X93298554Y-94014529D01*
X93290496Y-93992007D01*
X93284684Y-93968803D01*
X93281174Y-93945142D01*
X93280000Y-93921250D01*
X93280000Y-93433750D01*
X93281174Y-93409858D01*
X93284684Y-93386197D01*
X93290496Y-93362993D01*
X93298554Y-93340471D01*
X93308782Y-93318847D01*
X93321079Y-93298330D01*
X93335329Y-93279117D01*
X93351393Y-93261393D01*
X93369117Y-93245329D01*
X93388330Y-93231079D01*
X93408847Y-93218782D01*
X93430471Y-93208554D01*
X93452993Y-93200496D01*
X93476197Y-93194684D01*
X93499858Y-93191174D01*
X93523750Y-93190000D01*
X94436250Y-93190000D01*
X94460142Y-93191174D01*
G37*
G36*
X94460142Y-95066174D02*
G01*
X94483803Y-95069684D01*
X94507007Y-95075496D01*
X94529529Y-95083554D01*
X94551153Y-95093782D01*
X94571670Y-95106079D01*
X94590883Y-95120329D01*
X94608607Y-95136393D01*
X94624671Y-95154117D01*
X94638921Y-95173330D01*
X94651218Y-95193847D01*
X94661446Y-95215471D01*
X94669504Y-95237993D01*
X94675316Y-95261197D01*
X94678826Y-95284858D01*
X94680000Y-95308750D01*
X94680000Y-95796250D01*
X94678826Y-95820142D01*
X94675316Y-95843803D01*
X94669504Y-95867007D01*
X94661446Y-95889529D01*
X94651218Y-95911153D01*
X94638921Y-95931670D01*
X94624671Y-95950883D01*
X94608607Y-95968607D01*
X94590883Y-95984671D01*
X94571670Y-95998921D01*
X94551153Y-96011218D01*
X94529529Y-96021446D01*
X94507007Y-96029504D01*
X94483803Y-96035316D01*
X94460142Y-96038826D01*
X94436250Y-96040000D01*
X93523750Y-96040000D01*
X93499858Y-96038826D01*
X93476197Y-96035316D01*
X93452993Y-96029504D01*
X93430471Y-96021446D01*
X93408847Y-96011218D01*
X93388330Y-95998921D01*
X93369117Y-95984671D01*
X93351393Y-95968607D01*
X93335329Y-95950883D01*
X93321079Y-95931670D01*
X93308782Y-95911153D01*
X93298554Y-95889529D01*
X93290496Y-95867007D01*
X93284684Y-95843803D01*
X93281174Y-95820142D01*
X93280000Y-95796250D01*
X93280000Y-95308750D01*
X93281174Y-95284858D01*
X93284684Y-95261197D01*
X93290496Y-95237993D01*
X93298554Y-95215471D01*
X93308782Y-95193847D01*
X93321079Y-95173330D01*
X93335329Y-95154117D01*
X93351393Y-95136393D01*
X93369117Y-95120329D01*
X93388330Y-95106079D01*
X93408847Y-95093782D01*
X93430471Y-95083554D01*
X93452993Y-95075496D01*
X93476197Y-95069684D01*
X93499858Y-95066174D01*
X93523750Y-95065000D01*
X94436250Y-95065000D01*
X94460142Y-95066174D01*
G37*
G36*
X76744504Y-107151204D02*
G01*
X76768773Y-107154804D01*
X76792571Y-107160765D01*
X76815671Y-107169030D01*
X76837849Y-107179520D01*
X76858893Y-107192133D01*
X76878598Y-107206747D01*
X76896777Y-107223223D01*
X76913253Y-107241402D01*
X76927867Y-107261107D01*
X76940480Y-107282151D01*
X76950970Y-107304329D01*
X76959235Y-107327429D01*
X76965196Y-107351227D01*
X76968796Y-107375496D01*
X76970000Y-107400000D01*
X76970000Y-108500000D01*
X76968796Y-108524504D01*
X76965196Y-108548773D01*
X76959235Y-108572571D01*
X76950970Y-108595671D01*
X76940480Y-108617849D01*
X76927867Y-108638893D01*
X76913253Y-108658598D01*
X76896777Y-108676777D01*
X76878598Y-108693253D01*
X76858893Y-108707867D01*
X76837849Y-108720480D01*
X76815671Y-108730970D01*
X76792571Y-108739235D01*
X76768773Y-108745196D01*
X76744504Y-108748796D01*
X76720000Y-108750000D01*
X74620000Y-108750000D01*
X74595496Y-108748796D01*
X74571227Y-108745196D01*
X74547429Y-108739235D01*
X74524329Y-108730970D01*
X74502151Y-108720480D01*
X74481107Y-108707867D01*
X74461402Y-108693253D01*
X74443223Y-108676777D01*
X74426747Y-108658598D01*
X74412133Y-108638893D01*
X74399520Y-108617849D01*
X74389030Y-108595671D01*
X74380765Y-108572571D01*
X74374804Y-108548773D01*
X74371204Y-108524504D01*
X74370000Y-108500000D01*
X74370000Y-107400000D01*
X74371204Y-107375496D01*
X74374804Y-107351227D01*
X74380765Y-107327429D01*
X74389030Y-107304329D01*
X74399520Y-107282151D01*
X74412133Y-107261107D01*
X74426747Y-107241402D01*
X74443223Y-107223223D01*
X74461402Y-107206747D01*
X74481107Y-107192133D01*
X74502151Y-107179520D01*
X74524329Y-107169030D01*
X74547429Y-107160765D01*
X74571227Y-107154804D01*
X74595496Y-107151204D01*
X74620000Y-107150000D01*
X76720000Y-107150000D01*
X76744504Y-107151204D01*
G37*
G36*
X80344504Y-107151204D02*
G01*
X80368773Y-107154804D01*
X80392571Y-107160765D01*
X80415671Y-107169030D01*
X80437849Y-107179520D01*
X80458893Y-107192133D01*
X80478598Y-107206747D01*
X80496777Y-107223223D01*
X80513253Y-107241402D01*
X80527867Y-107261107D01*
X80540480Y-107282151D01*
X80550970Y-107304329D01*
X80559235Y-107327429D01*
X80565196Y-107351227D01*
X80568796Y-107375496D01*
X80570000Y-107400000D01*
X80570000Y-108500000D01*
X80568796Y-108524504D01*
X80565196Y-108548773D01*
X80559235Y-108572571D01*
X80550970Y-108595671D01*
X80540480Y-108617849D01*
X80527867Y-108638893D01*
X80513253Y-108658598D01*
X80496777Y-108676777D01*
X80478598Y-108693253D01*
X80458893Y-108707867D01*
X80437849Y-108720480D01*
X80415671Y-108730970D01*
X80392571Y-108739235D01*
X80368773Y-108745196D01*
X80344504Y-108748796D01*
X80320000Y-108750000D01*
X78220000Y-108750000D01*
X78195496Y-108748796D01*
X78171227Y-108745196D01*
X78147429Y-108739235D01*
X78124329Y-108730970D01*
X78102151Y-108720480D01*
X78081107Y-108707867D01*
X78061402Y-108693253D01*
X78043223Y-108676777D01*
X78026747Y-108658598D01*
X78012133Y-108638893D01*
X77999520Y-108617849D01*
X77989030Y-108595671D01*
X77980765Y-108572571D01*
X77974804Y-108548773D01*
X77971204Y-108524504D01*
X77970000Y-108500000D01*
X77970000Y-107400000D01*
X77971204Y-107375496D01*
X77974804Y-107351227D01*
X77980765Y-107327429D01*
X77989030Y-107304329D01*
X77999520Y-107282151D01*
X78012133Y-107261107D01*
X78026747Y-107241402D01*
X78043223Y-107223223D01*
X78061402Y-107206747D01*
X78081107Y-107192133D01*
X78102151Y-107179520D01*
X78124329Y-107169030D01*
X78147429Y-107160765D01*
X78171227Y-107154804D01*
X78195496Y-107151204D01*
X78220000Y-107150000D01*
X80320000Y-107150000D01*
X80344504Y-107151204D01*
G37*
D18*
X88005000Y-100575000D03*
X85725000Y-100575000D03*
X83445000Y-100575000D03*
D19*
X84200000Y-108550000D03*
X87250000Y-105200000D03*
X87250000Y-108550000D03*
X84200000Y-105200000D03*
M02*
